<svg width="88" height="88" viewBox="0 0 88 88" fill="none" xmlns="http://www.w3.org/2000/svg">
<path d="M64.6521 55.9241V32.0763L43.9989 20.1523L23.3457 32.0763V55.9241L43.9989 67.8481L64.6521 55.9241Z" fill="#B297F2"/>
<path d="M43.9986 44.672C43.8802 44.672 43.7609 44.6409 43.6551 44.5798L23.0019 32.6559C22.6731 32.4657 22.5605 32.0456 22.7507 31.7168C22.9408 31.3879 23.3609 31.2754 23.6898 31.4655L43.9986 43.1906L64.3074 31.4655C64.6363 31.2754 65.0563 31.3879 65.2465 31.7168C65.4366 32.0456 65.3241 32.4657 64.9952 32.6559L44.342 44.5798C44.2353 44.6409 44.1169 44.672 43.9986 44.672Z" fill="black"/>
<path d="M44.0003 68.536C43.621 68.536 43.3125 68.2285 43.3125 67.8482V44.0003C43.3125 43.621 43.62 43.3125 44.0003 43.3125C44.3806 43.3125 44.6882 43.62 44.6882 44.0003V67.8482C44.6882 68.2275 44.3806 68.536 44.0003 68.536Z" fill="black"/>
<path d="M44.0452 15.1398C43.6659 15.1398 43.3574 14.8323 43.3574 14.452V3.47298C43.3574 3.09366 43.665 2.78516 44.0452 2.78516C44.4255 2.78516 44.7331 3.09269 44.7331 3.47298V14.452C44.7331 14.8313 44.4255 15.1398 44.0452 15.1398Z" fill="black"/>
<path d="M47.8925 8.00617C47.7169 8.00617 47.5403 7.93923 47.4064 7.80438L44.0449 4.44286L40.6834 7.80438C40.4147 8.07311 39.98 8.07311 39.7113 7.80438C39.4426 7.53565 39.4426 7.10103 39.7113 6.83231L43.5589 2.98475C43.8276 2.71602 44.2622 2.71602 44.5309 2.98475L48.3785 6.83231C48.6472 7.10103 48.6472 7.53565 48.3785 7.80438C48.2446 7.93826 48.0681 8.00617 47.8925 8.00617Z" fill="black"/>
<path d="M44.0452 85.3156C43.6659 85.3156 43.3574 85.0081 43.3574 84.6278V73.6488C43.3574 73.2694 43.665 72.9609 44.0452 72.9609C44.4255 72.9609 44.7331 73.2685 44.7331 73.6488V84.6278C44.7331 85.0071 44.4255 85.3156 44.0452 85.3156Z" fill="black"/>
<path d="M44.0449 85.3187C43.8693 85.3187 43.6927 85.2517 43.5589 85.1169L39.7113 81.2693C39.4426 81.0006 39.4426 80.566 39.7113 80.2972C39.98 80.0285 40.4147 80.0285 40.6834 80.2972L44.0449 83.6588L47.4064 80.2972C47.6752 80.0285 48.1098 80.0285 48.3785 80.2972C48.6472 80.566 48.6472 81.0006 48.3785 81.2693L44.5309 85.1169C44.3971 85.2508 44.2205 85.3187 44.0449 85.3187Z" fill="black"/>
<path d="M84.6219 44.7389H73.6429C73.2636 44.7389 72.9551 44.4314 72.9551 44.0511C72.9551 43.6708 73.2626 43.3633 73.6429 43.3633H84.6219C85.0012 43.3633 85.3097 43.6708 85.3097 44.0511C85.3097 44.4314 85.0022 44.7389 84.6219 44.7389Z" fill="black"/>
<path d="M80.7774 48.5861C80.6018 48.5861 80.4253 48.5192 80.2914 48.3844C80.0227 48.1156 80.0227 47.681 80.2914 47.4123L83.6529 44.0508L80.2914 40.6892C80.0227 40.4205 80.0227 39.9859 80.2914 39.7172C80.5601 39.4484 80.9947 39.4484 81.2635 39.7172L85.111 43.5647C85.3798 43.8335 85.3798 44.2681 85.111 44.5368L81.2635 48.3844C81.1296 48.5182 80.953 48.5861 80.7774 48.5861Z" fill="black"/>
<path d="M14.4461 44.7389H3.46712C3.0878 44.7389 2.7793 44.4314 2.7793 44.0511C2.7793 43.6708 3.08683 43.3633 3.46712 43.3633H14.4461C14.8255 43.3633 15.134 43.6708 15.134 44.0511C15.134 44.4314 14.8264 44.7389 14.4461 44.7389Z" fill="black"/>
<path d="M7.31248 48.5861C7.13689 48.5861 6.96032 48.5192 6.82645 48.3844L2.97889 44.5368C2.71016 44.2681 2.71016 43.8335 2.97889 43.5647L6.82645 39.7172C7.09517 39.4484 7.52979 39.4484 7.79852 39.7172C8.06725 39.9859 8.06725 40.4205 7.79852 40.6892L4.437 44.0508L7.79852 47.4123C8.06725 47.681 8.06725 48.1156 7.79852 48.3844C7.66464 48.5182 7.48808 48.5861 7.31248 48.5861Z" fill="black"/>
<path d="M64.9727 23.8074C64.7971 23.8074 64.6206 23.7404 64.4867 23.6056C64.218 23.3369 64.218 22.9022 64.4867 22.6335L72.2507 14.8695C72.5194 14.6008 72.9541 14.6008 73.2228 14.8695C73.4915 15.1382 73.4915 15.5729 73.2228 15.8416L65.4588 23.6056C65.3249 23.7395 65.1483 23.8074 64.9727 23.8074Z" fill="black"/>
<path d="M72.7377 21.4841C72.3584 21.4841 72.0499 21.1766 72.0499 20.7963V16.0417H67.2952C66.9159 16.0417 66.6074 15.7341 66.6074 15.3538C66.6074 14.9735 66.915 14.666 67.2952 14.666H72.7367C72.9191 14.666 73.0937 14.7388 73.2228 14.8678C73.3518 14.9968 73.4246 15.1715 73.4246 15.3538V20.7953C73.4246 21.1747 73.117 21.4832 72.7367 21.4832L72.7377 21.4841Z" fill="black"/>
<path d="M15.3516 73.4314C15.1761 73.4314 14.9995 73.3645 14.8656 73.2296C14.5969 72.9609 14.5969 72.5263 14.8656 72.2575L22.6296 64.4945C22.8983 64.2258 23.3329 64.2258 23.6017 64.4945C23.8704 64.7632 23.8704 65.1979 23.6017 65.4666L15.8377 73.2296C15.7038 73.3635 15.5272 73.4314 15.3516 73.4314Z" fill="black"/>
<path d="M20.7914 73.4324H15.3499C15.1675 73.4324 14.9929 73.3596 14.8639 73.2306C14.7349 73.1016 14.6621 72.9269 14.6621 72.7445V67.3031C14.6621 66.9237 14.9696 66.6152 15.3499 66.6152C15.7293 66.6152 16.0378 66.9228 16.0378 67.3031V72.0577H20.7924C21.1717 72.0577 21.4802 72.3652 21.4802 72.7455C21.4802 73.1258 21.1727 73.4333 20.7924 73.4333L20.7914 73.4324Z" fill="black"/>
<path d="M72.7367 73.4304C72.5611 73.4304 72.3846 73.3635 72.2507 73.2286L64.4867 65.4646C64.218 65.1959 64.218 64.7613 64.4867 64.4926C64.7554 64.2238 65.19 64.2238 65.4588 64.4926L73.2228 72.2566C73.4915 72.5253 73.4915 72.9599 73.2228 73.2286C73.0889 73.3625 72.9123 73.4304 72.7367 73.4304Z" fill="black"/>
<path d="M72.7387 73.4314H67.2972C66.9179 73.4314 66.6094 73.1239 66.6094 72.7436C66.6094 72.3633 66.9169 72.0557 67.2972 72.0557H72.0518V67.3011C72.0518 66.9218 72.3594 66.6133 72.7397 66.6133C73.119 66.6133 73.4275 66.9208 73.4275 67.3011V72.7426C73.4275 73.1219 73.12 73.4304 72.7397 73.4304L72.7387 73.4314Z" fill="black"/>
<path d="M23.1156 23.8093C22.94 23.8093 22.7635 23.7424 22.6296 23.6075L14.8656 15.8435C14.5969 15.5748 14.5969 15.1402 14.8656 14.8715C15.1343 14.6027 15.569 14.6027 15.8377 14.8715L23.6017 22.6355C23.8704 22.9042 23.8704 23.3388 23.6017 23.6075C23.4678 23.7414 23.2912 23.8093 23.1156 23.8093Z" fill="black"/>
<path d="M15.3499 21.4851C14.9706 21.4851 14.6621 21.1776 14.6621 20.7973V15.3558C14.6621 14.9765 14.9696 14.668 15.3499 14.668H20.7914C21.1707 14.668 21.4792 14.9755 21.4792 15.3558C21.4792 15.7361 21.1717 16.0436 20.7914 16.0436H16.0368V20.7983C16.0368 21.1776 15.7293 21.4861 15.349 21.4861L15.3499 21.4851Z" fill="black"/>
</svg>
