<svg width="103" height="21" viewBox="0 0 103 21" fill="none" xmlns="http://www.w3.org/2000/svg">
<path d="M24.0013 17.3534C23.6715 17.3534 23.3646 17.1866 23.1805 16.9063L14.505 3.36458C14.3363 3.09935 14.3209 2.75835 14.459 2.47797C14.5664 2.25063 14.6354 2.00056 14.6354 1.72776C14.5434 -0.575919 11.2143 -0.575919 11.1223 1.72776C11.1069 2.69773 11.9584 3.47067 12.8942 3.46309C13.2164 3.46309 13.5155 3.61465 13.6843 3.88745L22.6283 17.8308C22.6666 17.8914 22.659 17.9672 22.6206 18.0202C22.5746 18.0733 22.5055 18.096 22.4365 18.0733L15.2031 15.815C14.8962 15.7165 14.6661 15.474 14.5894 15.1633C14.3976 14.4207 13.7073 13.8599 12.8865 13.8675C10.5546 13.9585 10.5546 17.2473 12.8865 17.3382C13.3237 17.3382 13.7226 17.1791 14.0294 16.9214C14.2749 16.7168 14.6048 16.6486 14.9039 16.7395L21.6924 18.8538C21.9993 18.9523 22.2294 19.1948 22.3061 19.5055C22.4978 20.2481 23.1882 20.8089 24.009 20.8013C26.3409 20.7104 26.3409 17.4216 24.009 17.3306L24.0013 17.3534Z" fill="black"/>
<path d="M8.42242 6.93359C7.08005 6.93359 6.29765 8.34308 6.84226 9.42672C6.98034 9.7071 6.965 10.0481 6.79624 10.3133L3.36743 15.6633C3.22169 15.8907 3.29073 16.1862 3.52085 16.3302C3.7433 16.4741 4.05013 16.4059 4.19587 16.1786L7.62469 10.8286C7.79344 10.5634 8.09257 10.4043 8.41474 10.4043C9.35056 10.4043 10.202 9.6389 10.1867 8.66893C10.1867 7.71412 9.3966 6.93359 8.4301 6.93359H8.42242Z" fill="black"/>
<path d="M9.02074 16.2169L3.75862 17.9219C3.4518 18.0204 3.12199 17.9522 2.87653 17.7476C2.5697 17.4975 2.17847 17.346 1.74891 17.346C-0.582971 17.4369 -0.582971 20.7257 1.74891 20.8166C2.56967 20.8166 3.26773 20.2483 3.45183 19.4981C3.52853 19.1874 3.75096 18.9373 4.05779 18.8388L9.31986 17.1338C9.57299 17.0504 9.71876 16.7776 9.63438 16.52C9.55001 16.2699 9.27386 16.1259 9.01306 16.2093L9.02074 16.2169Z" fill="black"/>
<path d="M36.3054 5.17578H36.4589L41.6979 15.6029H39.8954L38.9672 13.663H33.7972L32.823 15.6029H31.0664L36.3054 5.17578ZM38.2615 12.2232L36.3668 8.29029L34.5029 12.2232H38.2538H38.2615Z" fill="black"/>
<path d="M42.9256 5.36523H44.5288V14.1328H49.5148V15.603H42.918V5.36523H42.9256Z" fill="black"/>
<path d="M55.3973 5.17578H55.5507L60.7898 15.6029H58.9872L58.059 13.663H52.889L51.9148 15.6029H50.1582L55.3973 5.17578ZM57.3457 12.2232L55.451 8.29029L53.587 12.2232H57.338H57.3457Z" fill="black"/>
<path d="M65.6077 8.71427C65.9605 7.86554 66.3134 7.19111 66.6662 6.69097C67.0191 6.19083 67.4103 5.83467 67.8322 5.61491C68.2541 5.39515 68.745 5.28906 69.3049 5.28906C69.5657 5.28906 69.7805 5.3118 69.9493 5.36484V6.85011C69.9109 6.84253 69.8572 6.83495 69.7882 6.82737C69.7192 6.82737 69.6578 6.82737 69.5887 6.82737C69.0901 6.82737 68.6606 7.00166 68.3154 7.35025C67.9626 7.69883 67.6174 8.28233 67.2646 9.11589L65.9759 12.2456C65.623 13.0943 65.2702 13.7763 64.9097 14.2764C64.5491 14.7766 64.1503 15.1403 63.713 15.3601C63.2758 15.5798 62.7618 15.6859 62.1559 15.6859C62.0024 15.6859 61.8567 15.6783 61.7186 15.6556C61.5806 15.6329 61.4502 15.6101 61.3428 15.5798V14.0946C61.4808 14.1325 61.6496 14.1552 61.8567 14.1552C62.4167 14.1552 62.8846 13.9809 63.2528 13.6323C63.621 13.2837 63.9815 12.6927 64.319 11.8515L65.6077 8.72184V8.71427Z" fill="black"/>
<path d="M73.93 6.83534H70.8848V5.36523H78.5708V6.83534H75.5255V15.603H73.93V6.83534Z" fill="black"/>
<path d="M80.0586 5.36523H83.1498C84.4309 5.36523 85.4204 5.66077 86.1261 6.24427C86.8241 6.82777 87.177 7.65375 87.177 8.72224C87.177 9.36636 87.0312 9.92712 86.7474 10.4045C86.4636 10.8819 86.0571 11.2608 85.5201 11.5412L87.4992 15.603H85.7733L84.1087 11.9807C83.7788 12.0338 83.426 12.0565 83.0425 12.0565H81.6617V15.603H80.0586V5.36523ZM82.9964 10.6016C84.6763 10.6016 85.5201 9.97259 85.5201 8.71466C85.5201 7.45673 84.6763 6.81261 82.9964 6.81261H81.6617V10.594H82.9964V10.6016Z" fill="black"/>
<path d="M89.0488 5.36523H90.652V15.603H89.0488V5.36523Z" fill="black"/>
<path d="M97.1492 5.17578H97.3026L102.542 15.6029H100.739L99.8109 13.663H94.6409L93.6667 15.6029H91.9102L97.1492 5.17578ZM99.0976 12.2232L97.2029 8.29029L95.3389 12.2232H99.0899H99.0976Z" fill="black"/>
</svg>
