<svg width="134" height="28" viewBox="0 0 134 28" fill="none" xmlns="http://www.w3.org/2000/svg">
<path d="M31.2902 22.9C30.8602 22.9 30.4602 22.68 30.2202 22.31L18.9102 4.44C18.6902 4.09 18.6702 3.64 18.8502 3.27C18.9902 2.97 19.0802 2.64 19.0802 2.28C18.9602 -0.76 14.6203 -0.76 14.5003 2.28C14.4803 3.56 15.5903 4.58 16.8103 4.57C17.2303 4.57 17.6202 4.77 17.8402 5.13L29.5003 23.53C29.5503 23.61 29.5403 23.71 29.4903 23.78C29.4303 23.85 29.3403 23.88 29.2503 23.85L19.8203 20.87C19.4203 20.74 19.1202 20.42 19.0202 20.01C18.7702 19.03 17.8703 18.29 16.8003 18.3C13.7603 18.42 13.7603 22.76 16.8003 22.88C17.3703 22.88 17.8902 22.67 18.2902 22.33C18.6102 22.06 19.0403 21.97 19.4303 22.09L28.2802 24.88C28.6802 25.01 28.9802 25.33 29.0802 25.74C29.3302 26.72 30.2303 27.46 31.3003 27.45C34.3403 27.33 34.3403 22.99 31.3003 22.87L31.2902 22.9Z" fill="#212C56"/>
<path d="M10.9787 9.15039C9.22871 9.15039 8.20871 11.0104 8.91871 12.4404C9.09871 12.8104 9.07871 13.2604 8.85871 13.6104L4.38868 20.6704C4.19868 20.9704 4.28869 21.3604 4.58869 21.5504C4.87869 21.7404 5.2787 21.6504 5.4687 21.3504L9.93873 14.2904C10.1587 13.9404 10.5487 13.7304 10.9687 13.7304C12.1887 13.7304 13.2987 12.7204 13.2787 11.4404C13.2787 10.1804 12.2487 9.15039 10.9887 9.15039H10.9787Z" fill="#212C56"/>
<path d="M11.76 21.4007L4.89999 23.6507C4.49999 23.7807 4.07003 23.6907 3.75003 23.4207C3.35003 23.0907 2.84 22.8907 2.28 22.8907C-0.76 23.0107 -0.76 27.3507 2.28 27.4707C3.35 27.4707 4.26003 26.7207 4.50003 25.7307C4.60003 25.3207 4.89001 24.9907 5.29001 24.8607L12.15 22.6107C12.48 22.5007 12.67 22.1407 12.56 21.8007C12.45 21.4707 12.09 21.2807 11.75 21.3907L11.76 21.4007Z" fill="#212C56"/>
<path d="M47.33 6.83008H47.53L54.36 20.5901H52.01L50.8 18.0301H44.06L42.79 20.5901H40.5L47.33 6.83008ZM49.88 16.1301L47.41 10.9401L44.98 16.1301H49.87H49.88Z" fill="#212C56"/>
<path d="M55.9592 7.08008H58.0493V18.6501H64.5493V20.5901H55.9492V7.08008H55.9592Z" fill="#212C56"/>
<path d="M72.2206 6.83008H72.4207L79.2507 20.5901H76.9006L75.6907 18.0301H68.9506L67.6807 20.5901H65.3906L72.2206 6.83008ZM74.7607 16.1301L72.2906 10.9401L69.8607 16.1301H74.7507H74.7607Z" fill="#212C56"/>
<path d="M85.5307 11.5005C85.9907 10.3805 86.4507 9.49047 86.9107 8.83047C87.3707 8.17047 87.8807 7.70047 88.4307 7.41047C88.9807 7.12047 89.6207 6.98047 90.3507 6.98047C90.6907 6.98047 90.9707 7.01047 91.1907 7.08047V9.04047C91.1407 9.03047 91.0707 9.02047 90.9807 9.01047C90.8907 9.01047 90.8107 9.01047 90.7207 9.01047C90.0707 9.01047 89.5107 9.24047 89.0607 9.70047C88.6007 10.1605 88.1507 10.9305 87.6907 12.0305L86.0107 16.1605C85.5507 17.2805 85.0907 18.1805 84.6207 18.8405C84.1507 19.5005 83.6307 19.9805 83.0607 20.2705C82.4907 20.5605 81.8207 20.7005 81.0307 20.7005C80.8307 20.7005 80.6407 20.6905 80.4607 20.6605C80.2807 20.6305 80.1107 20.6005 79.9707 20.5605V18.6005C80.1507 18.6505 80.3707 18.6805 80.6407 18.6805C81.3707 18.6805 81.9807 18.4505 82.4607 17.9905C82.9407 17.5305 83.4107 16.7505 83.8507 15.6405L85.5307 11.5105V11.5005Z" fill="#212C56"/>
<path d="M96.3802 9.02008H92.4102V7.08008H102.43V9.02008H98.4601V20.5901H96.3802V9.02008Z" fill="#212C56"/>
<path d="M104.369 7.08008H108.399C110.069 7.08008 111.359 7.47008 112.279 8.24008C113.189 9.01008 113.649 10.1001 113.649 11.5101C113.649 12.3601 113.459 13.1001 113.089 13.7301C112.719 14.3601 112.189 14.8601 111.489 15.2301L114.069 20.5901H111.819L109.649 15.8101C109.219 15.8801 108.759 15.9101 108.259 15.9101H106.459V20.5901H104.369V7.08008ZM108.199 13.9901C110.389 13.9901 111.489 13.1601 111.489 11.5001C111.489 9.84008 110.389 8.99008 108.199 8.99008H106.459V13.9801H108.199V13.9901Z" fill="#212C56"/>
<path d="M116.09 7.08008H118.18V20.5901H116.09V7.08008Z" fill="#212C56"/>
<path d="M126.65 6.83008H126.85L133.68 20.5901H131.33L130.12 18.0301H123.38L122.11 20.5901H119.82L126.65 6.83008ZM129.19 16.1301L126.72 10.9401L124.29 16.1301H129.18H129.19Z" fill="#212C56"/>
</svg>
