<svg width="128" height="32" viewBox="0 0 128 32" fill="none" xmlns="http://www.w3.org/2000/svg">
<path d="M46.73 0H0V31.73H46.73V0Z" fill="white"/>
<path d="M45.8304 0.871094H0.900391V30.8211H45.8304V0.871094Z" fill="#034EA2"/>
<path d="M22.4105 7.38922L23.3605 6.69922L24.3005 7.38922L23.9405 6.26922L24.9105 5.57922H23.7205L23.3605 4.44922L22.9905 5.57922H21.8105L22.7705 6.26922L22.4105 7.38922Z" fill="#F9E925"/>
<path d="M17.5004 8.70953L18.4504 8.01953L19.4004 8.70953L19.0404 7.58953L20.0004 6.89953H18.8104L18.4504 5.76953L18.0904 6.89953H16.9004L17.8604 7.58953L17.5004 8.70953Z" fill="#F9E925"/>
<path d="M14.8605 9.35938L14.5005 10.4994H13.3105L14.2705 11.1894L13.9105 12.3094L14.8605 11.6194L15.8105 12.3094L15.4505 11.1894L16.4105 10.4994H15.2205L14.8605 9.35938Z" fill="#F9E925"/>
<path d="M13.5402 16.5198L14.4902 17.2098L14.1302 16.0898L15.0902 15.3998H13.9102L13.5402 14.2598L13.1802 15.3998H11.9902L12.9602 16.0898L12.5902 17.2098L13.5402 16.5198Z" fill="#F9E925"/>
<path d="M15.2205 20.3097L14.8605 19.1797L14.5005 20.3097H13.3105L14.2705 21.0097L13.9105 22.1197L14.8605 21.4297L15.8105 22.1197L15.4505 21.0097L16.4105 20.3097H15.2205Z" fill="#F9E925"/>
<path d="M18.8202 23.9112L18.4602 22.7812L18.0902 23.9112H16.9102L17.8702 24.6012L17.5102 25.7212L18.4602 25.0312L19.4002 25.7212L19.0402 24.6012L20.0102 23.9112H18.8202Z" fill="#F9E925"/>
<path d="M23.7205 25.2101L23.3605 24.0801L22.9905 25.2101H21.8105L22.7705 25.9101L22.4105 27.0201L23.3605 26.3301L24.3005 27.0201L23.9405 25.9101L24.9105 25.2101H23.7205Z" fill="#F9E925"/>
<path d="M28.6209 23.9112L28.2609 22.7812L27.8909 23.9112H26.7109L27.6709 24.6012L27.3109 25.7212L28.2609 25.0312L29.2109 25.7212L28.8409 24.6012L29.8109 23.9112H28.6209Z" fill="#F9E925"/>
<path d="M32.2208 20.3097L31.8508 19.1797L31.4908 20.3097H30.3008L31.2708 21.0097L30.9108 22.1197L31.8508 21.4297L32.8008 22.1197L32.4408 21.0097L33.4008 20.3097H32.2208Z" fill="#F9E925"/>
<path d="M34.7094 15.38H33.5194L33.1594 14.25L32.7894 15.39L31.6094 15.38L32.5694 16.08L32.2094 17.2L33.1594 16.5L34.0994 17.2L33.7394 16.08L34.7094 15.38Z" fill="#F9E925"/>
<path d="M30.9108 12.2896L31.8508 11.5996L32.8008 12.2896L32.4408 11.1796L33.4008 10.4796H32.2208L31.8508 9.34961L31.4908 10.4896L30.3008 10.4796L31.2708 11.1796L30.9108 12.2896Z" fill="#F9E925"/>
<path d="M28.2707 5.76953L27.9107 6.89953H26.7207L27.6807 7.58953L27.3207 8.70953L28.2707 8.01953L29.2207 8.70953L28.8607 7.58953L29.8207 6.89953H28.6307L28.2707 5.76953Z" fill="#F9E925"/>
<path d="M51.3887 7.55938V0.859375H55.9787V1.98938H52.7387V3.56938H55.5287V4.69938H52.7387V7.53937H51.3887V7.55938Z" fill="#034EA2"/>
<path d="M57.0801 2.04938V0.859375H58.3601V2.04938H57.0801ZM57.0801 7.55938V2.70937H58.3601V7.55938H57.0801Z" fill="#034EA2"/>
<path d="M64.0897 7.55984H62.8097V5.08984C62.8097 4.56984 62.7797 4.22984 62.7297 4.06984C62.6797 3.91984 62.5897 3.79984 62.4597 3.70984C62.3397 3.61984 62.1897 3.57984 62.0197 3.57984C61.7997 3.57984 61.5997 3.63984 61.4197 3.75984C61.2397 3.87984 61.1197 4.03984 61.0597 4.23984C60.9997 4.43984 60.9597 4.80984 60.9597 5.34984V7.54984H59.6797V2.69984H60.8697V3.40984C61.2897 2.85984 61.8297 2.58984 62.4697 2.58984C62.7497 2.58984 63.0097 2.63984 63.2497 2.73984C63.4797 2.83984 63.6597 2.96984 63.7797 3.12984C63.8997 3.28984 63.9797 3.46984 64.0297 3.66984C64.0797 3.86984 64.0997 4.15984 64.0997 4.52984V7.53984L64.0897 7.55984Z" fill="#034EA2"/>
<path d="M66.3486 4.18961L65.1886 3.97961C65.3186 3.50961 65.5486 3.15961 65.8686 2.93961C66.1886 2.70961 66.6586 2.59961 67.2886 2.59961C67.8586 2.59961 68.2886 2.66961 68.5686 2.79961C68.8486 2.93961 69.0486 3.10961 69.1586 3.31961C69.2686 3.52961 69.3286 3.90961 69.3286 4.46961V5.96961C69.3186 6.39961 69.3286 6.70961 69.3786 6.90961C69.4186 7.10961 69.4986 7.32961 69.6086 7.55961H68.3386C68.3086 7.46961 68.2686 7.34961 68.2186 7.17961C68.1986 7.09961 68.1786 7.04961 68.1686 7.02961C67.9486 7.23961 67.7186 7.39961 67.4686 7.50961C67.2186 7.61961 66.9486 7.66961 66.6686 7.66961C66.1686 7.66961 65.7786 7.52961 65.4886 7.25961C65.1986 6.98961 65.0586 6.64961 65.0586 6.22961C65.0586 5.95961 65.1286 5.70961 65.2586 5.49961C65.3886 5.28961 65.5686 5.11961 65.8086 5.00961C66.0486 4.89961 66.3886 4.79961 66.8286 4.70961C67.4286 4.59961 67.8386 4.48961 68.0786 4.39961V4.26961C68.0786 4.01961 68.0186 3.84961 67.8986 3.73961C67.7786 3.63961 67.5486 3.57961 67.2086 3.57961C66.9786 3.57961 66.7986 3.61961 66.6786 3.70961C66.5586 3.79961 66.4486 3.95961 66.3686 4.17961L66.3486 4.18961ZM68.0686 5.22961C67.9086 5.27961 67.6486 5.34961 67.2886 5.42961C66.9286 5.50961 66.6986 5.57961 66.5886 5.64961C66.4186 5.76961 66.3386 5.91961 66.3386 6.09961C66.3386 6.27961 66.4086 6.42961 66.5386 6.56961C66.6686 6.69961 66.8386 6.76961 67.0486 6.76961C67.2786 6.76961 67.4986 6.68961 67.7086 6.53961C67.8686 6.41961 67.9686 6.27961 68.0186 6.11961C68.0486 6.00961 68.0686 5.79961 68.0686 5.48961V5.22961Z" fill="#034EA2"/>
<path d="M74.9998 7.55984H73.7198V5.08984C73.7198 4.56984 73.6898 4.22984 73.6398 4.06984C73.5898 3.91984 73.4998 3.79984 73.3698 3.70984C73.2498 3.61984 73.0998 3.57984 72.9298 3.57984C72.7098 3.57984 72.5098 3.63984 72.3298 3.75984C72.1498 3.87984 72.0298 4.03984 71.9698 4.23984C71.9098 4.43984 71.8698 4.80984 71.8698 5.34984V7.54984H70.5898V2.69984H71.7798V3.40984C72.1998 2.85984 72.7398 2.58984 73.3798 2.58984C73.6598 2.58984 73.9198 2.63984 74.1598 2.73984C74.3898 2.83984 74.5698 2.96984 74.6898 3.12984C74.8098 3.28984 74.8898 3.46984 74.9398 3.66984C74.9898 3.86984 75.0098 4.15984 75.0098 4.52984V7.53984L74.9998 7.55984Z" fill="#034EA2"/>
<path d="M80.5293 4.13961L79.2693 4.36961C79.2293 4.11961 79.1293 3.92961 78.9793 3.79961C78.8293 3.66961 78.6293 3.60961 78.3893 3.60961C78.0693 3.60961 77.8193 3.71961 77.6293 3.93961C77.4393 4.15961 77.3393 4.52961 77.3393 5.04961C77.3393 5.62961 77.4393 6.02961 77.6293 6.26961C77.8193 6.50961 78.0793 6.62961 78.4093 6.62961C78.6493 6.62961 78.8493 6.55961 79.0093 6.41961C79.1693 6.27961 79.2693 6.03961 79.3393 5.70961L80.5993 5.91961C80.4693 6.49961 80.2193 6.92961 79.8493 7.22961C79.4793 7.52961 78.9793 7.66961 78.3593 7.66961C77.6493 7.66961 77.0893 7.44961 76.6593 6.99961C76.2293 6.54961 76.0293 5.92961 76.0293 5.13961C76.0293 4.34961 76.2393 3.71961 76.6593 3.26961C77.0793 2.81961 77.6493 2.59961 78.3793 2.59961C78.9693 2.59961 79.4393 2.72961 79.7893 2.97961C80.1393 3.22961 80.3893 3.61961 80.5393 4.13961H80.5293Z" fill="#034EA2"/>
<path d="M81.5 2.04938V0.859375H82.78V2.04938H81.5ZM81.5 7.55938V2.70937H82.78V7.55938H81.5Z" fill="#034EA2"/>
<path d="M85.0498 4.18961L83.8898 3.97961C84.0198 3.50961 84.2498 3.15961 84.5698 2.93961C84.8898 2.70961 85.3598 2.59961 85.9898 2.59961C86.5598 2.59961 86.9898 2.66961 87.2698 2.79961C87.5498 2.93961 87.7498 3.10961 87.8598 3.31961C87.9698 3.52961 88.0298 3.90961 88.0298 4.46961V5.96961C88.0198 6.39961 88.0298 6.70961 88.0798 6.90961C88.1198 7.10961 88.1998 7.32961 88.3098 7.55961H87.0398C87.0098 7.46961 86.9698 7.34961 86.9198 7.17961C86.8998 7.09961 86.8798 7.04961 86.8698 7.02961C86.6498 7.23961 86.4198 7.39961 86.1698 7.50961C85.9198 7.61961 85.6498 7.66961 85.3698 7.66961C84.8698 7.66961 84.4798 7.52961 84.1898 7.25961C83.8998 6.98961 83.7598 6.64961 83.7598 6.22961C83.7598 5.95961 83.8298 5.70961 83.9598 5.49961C84.0898 5.28961 84.2698 5.11961 84.5098 5.00961C84.7498 4.89961 85.0898 4.79961 85.5298 4.70961C86.1298 4.59961 86.5398 4.48961 86.7798 4.39961V4.26961C86.7798 4.01961 86.7198 3.84961 86.5998 3.73961C86.4798 3.63961 86.2498 3.57961 85.9098 3.57961C85.6798 3.57961 85.4998 3.61961 85.3798 3.70961C85.2598 3.79961 85.1498 3.95961 85.0698 4.17961L85.0498 4.18961ZM86.7698 5.22961C86.6098 5.27961 86.3498 5.34961 85.9898 5.42961C85.6298 5.50961 85.3998 5.57961 85.2898 5.64961C85.1198 5.76961 85.0398 5.91961 85.0398 6.09961C85.0398 6.27961 85.1098 6.42961 85.2398 6.56961C85.3698 6.69961 85.5398 6.76961 85.7498 6.76961C85.9798 6.76961 86.1998 6.68961 86.4098 6.53961C86.5698 6.41961 86.6698 6.27961 86.7198 6.11961C86.7498 6.00961 86.7698 5.79961 86.7698 5.48961V5.22961Z" fill="#034EA2"/>
<path d="M93.7398 7.55891H92.5498V6.84891C92.3498 7.12891 92.1198 7.32891 91.8498 7.46891C91.5798 7.60891 91.3098 7.66891 91.0398 7.66891C90.4798 7.66891 90.0098 7.44891 89.6098 6.99891C89.2098 6.54891 89.0098 5.92891 89.0098 5.11891C89.0098 4.30891 89.1998 3.66891 89.5898 3.24891C89.9798 2.81891 90.4598 2.60891 91.0598 2.60891C91.5998 2.60891 92.0698 2.83891 92.4698 3.28891V0.878906H93.7498V7.56891L93.7398 7.55891ZM90.3098 5.02891C90.3098 5.54891 90.3798 5.91891 90.5198 6.14891C90.7298 6.47891 91.0198 6.64891 91.3898 6.64891C91.6898 6.64891 91.9398 6.51891 92.1398 6.26891C92.3498 6.01891 92.4498 5.63891 92.4498 5.14891C92.4498 4.58891 92.3498 4.18891 92.1498 3.94891C91.9498 3.70891 91.6898 3.57891 91.3798 3.57891C91.0698 3.57891 90.8198 3.69891 90.6198 3.93891C90.4098 4.17891 90.3098 4.53891 90.3098 5.01891V5.02891Z" fill="#034EA2"/>
<path d="M94.7092 5.05961C94.7092 4.62961 94.8192 4.21961 95.0192 3.81961C95.2292 3.41961 95.5292 3.11961 95.9092 2.90961C96.2892 2.69961 96.7192 2.59961 97.1992 2.59961C97.9292 2.59961 98.5292 2.83961 98.9992 3.30961C99.4692 3.78961 99.6992 4.38961 99.6992 5.11961C99.6992 5.84961 99.4592 6.45961 98.9892 6.93961C98.5192 7.41961 97.9192 7.65961 97.1992 7.65961C96.7592 7.65961 96.3292 7.55961 95.9292 7.35961C95.5292 7.15961 95.2192 6.85961 95.0092 6.47961C94.7992 6.08961 94.6992 5.61961 94.6992 5.05961H94.7092ZM96.0192 5.12961C96.0192 5.60961 96.1292 5.97961 96.3592 6.22961C96.5892 6.48961 96.8692 6.60961 97.1992 6.60961C97.5292 6.60961 97.8192 6.47961 98.0392 6.22961C98.2692 5.96961 98.3792 5.59961 98.3792 5.11961C98.3792 4.63961 98.2692 4.27961 98.0392 4.01961C97.8092 3.75961 97.5292 3.63961 97.1992 3.63961C96.8692 3.63961 96.5792 3.76961 96.3592 4.01961C96.1292 4.27961 96.0192 4.63961 96.0192 5.11961V5.12961Z" fill="#034EA2"/>
<path d="M103.27 2.70961H104.47V3.41961C104.63 3.17961 104.84 2.97961 105.1 2.82961C105.36 2.67961 105.66 2.59961 105.98 2.59961C106.54 2.59961 107.02 2.81961 107.41 3.25961C107.8 3.69961 108 4.31961 108 5.09961C108 5.87961 107.8 6.53961 107.41 6.98961C107.01 7.43961 106.54 7.65961 105.97 7.65961C105.7 7.65961 105.46 7.60961 105.24 7.49961C105.02 7.38961 104.79 7.20961 104.55 6.94961V9.38961H103.27V2.69961V2.70961ZM104.54 5.04961C104.54 5.58961 104.65 5.99961 104.86 6.25961C105.08 6.51961 105.34 6.64961 105.65 6.64961C105.96 6.64961 106.2 6.52961 106.39 6.28961C106.59 6.04961 106.69 5.65961 106.69 5.10961C106.69 4.59961 106.59 4.21961 106.38 3.97961C106.18 3.72961 105.92 3.60961 105.62 3.60961C105.32 3.60961 105.05 3.72961 104.84 3.96961C104.63 4.20961 104.53 4.56961 104.53 5.03961L104.54 5.04961Z" fill="#034EA2"/>
<path d="M108.719 5.05961C108.719 4.62961 108.829 4.21961 109.029 3.81961C109.239 3.41961 109.539 3.11961 109.919 2.90961C110.299 2.69961 110.729 2.59961 111.209 2.59961C111.939 2.59961 112.539 2.83961 113.009 3.30961C113.479 3.78961 113.709 4.38961 113.709 5.11961C113.709 5.84961 113.469 6.45961 112.999 6.93961C112.529 7.41961 111.929 7.65961 111.209 7.65961C110.769 7.65961 110.339 7.55961 109.939 7.35961C109.539 7.15961 109.229 6.85961 109.019 6.47961C108.809 6.08961 108.709 5.61961 108.709 5.05961H108.719ZM110.039 5.12961C110.039 5.60961 110.149 5.97961 110.379 6.22961C110.609 6.48961 110.889 6.60961 111.219 6.60961C111.549 6.60961 111.839 6.47961 112.059 6.22961C112.289 5.96961 112.399 5.59961 112.399 5.11961C112.399 4.63961 112.289 4.27961 112.059 4.01961C111.829 3.75961 111.549 3.63961 111.219 3.63961C110.889 3.63961 110.599 3.76961 110.379 4.01961C110.149 4.27961 110.039 4.63961 110.039 5.11961V5.12961Z" fill="#034EA2"/>
<path d="M115.96 7.55961H114.68V2.70961H115.87V3.39961C116.07 3.06961 116.26 2.85961 116.42 2.75961C116.58 2.65961 116.77 2.59961 116.97 2.59961C117.26 2.59961 117.54 2.67961 117.81 2.83961L117.41 3.95961C117.19 3.81961 116.99 3.74961 116.81 3.74961C116.63 3.74961 116.48 3.79961 116.35 3.89961C116.23 3.99961 116.13 4.17961 116.06 4.43961C115.99 4.69961 115.95 5.23961 115.95 6.05961V7.55961H115.96Z" fill="#034EA2"/>
<path d="M51.3691 18.7681V12.0781H52.6491V18.7681H51.3691Z" fill="#034EA2"/>
<path d="M54.9287 15.3986L53.7687 15.1886C53.8987 14.7186 54.1287 14.3686 54.4487 14.1486C54.7687 13.9186 55.2387 13.8086 55.8687 13.8086C56.4387 13.8086 56.8687 13.8786 57.1487 14.0086C57.4287 14.1486 57.6287 14.3186 57.7387 14.5286C57.8487 14.7386 57.9087 15.1186 57.9087 15.6786V17.1786C57.8987 17.6086 57.9087 17.9186 57.9587 18.1186C57.9987 18.3186 58.0787 18.5386 58.1887 18.7686H56.9187C56.8887 18.6786 56.8487 18.5586 56.7987 18.3886C56.7787 18.3086 56.7587 18.2586 56.7487 18.2386C56.5287 18.4486 56.2987 18.6086 56.0487 18.7186C55.7987 18.8286 55.5287 18.8786 55.2487 18.8786C54.7487 18.8786 54.3587 18.7386 54.0687 18.4686C53.7787 18.1986 53.6387 17.8586 53.6387 17.4386C53.6387 17.1686 53.7087 16.9186 53.8387 16.7086C53.9687 16.4986 54.1487 16.3286 54.3887 16.2186C54.6287 16.1086 54.9687 16.0086 55.4087 15.9186C56.0087 15.8086 56.4187 15.6986 56.6587 15.6086V15.4786C56.6587 15.2286 56.5987 15.0586 56.4787 14.9486C56.3587 14.8486 56.1287 14.7886 55.7887 14.7886C55.5587 14.7886 55.3787 14.8286 55.2587 14.9186C55.1387 15.0086 55.0287 15.1686 54.9487 15.3886L54.9287 15.3986ZM56.6487 16.4386C56.4887 16.4886 56.2287 16.5586 55.8687 16.6386C55.5087 16.7186 55.2787 16.7886 55.1687 16.8586C54.9987 16.9786 54.9187 17.1286 54.9187 17.3086C54.9187 17.4886 54.9887 17.6386 55.1187 17.7786C55.2487 17.9086 55.4187 17.9786 55.6287 17.9786C55.8587 17.9786 56.0787 17.8986 56.2887 17.7486C56.4487 17.6286 56.5487 17.4886 56.5987 17.3286C56.6287 17.2186 56.6487 17.0086 56.6487 16.6986V16.4386Z" fill="#034EA2"/>
<path d="M61.7695 12.0786H63.1195V15.6986C63.1195 16.2786 63.1395 16.6486 63.1695 16.8186C63.2295 17.0886 63.3695 17.3086 63.5795 17.4786C63.7995 17.6486 64.0895 17.7286 64.4695 17.7286C64.8495 17.7286 65.1395 17.6486 65.3395 17.4886C65.5295 17.3286 65.6495 17.1386 65.6895 16.9086C65.7295 16.6786 65.7495 16.2986 65.7495 15.7686V12.0686H67.0995V15.5786C67.0995 16.3786 67.0595 16.9486 66.9895 17.2786C66.9195 17.6086 66.7795 17.8886 66.5895 18.1186C66.3895 18.3486 66.1295 18.5286 65.7995 18.6686C65.4695 18.8086 65.0395 18.8686 64.5095 18.8686C63.8695 18.8686 63.3895 18.7986 63.0595 18.6486C62.7295 18.4986 62.4695 18.3086 62.2795 18.0686C62.0895 17.8286 61.9595 17.5886 61.8995 17.3286C61.8095 16.9486 61.7695 16.3786 61.7695 15.6286V12.0586V12.0786Z" fill="#034EA2"/>
<path d="M72.9295 18.7708H71.6495V16.3008C71.6495 15.7808 71.6195 15.4408 71.5695 15.2808C71.5195 15.1308 71.4295 15.0108 71.2995 14.9208C71.1795 14.8308 71.0295 14.7908 70.8595 14.7908C70.6395 14.7908 70.4395 14.8508 70.2595 14.9708C70.0795 15.0908 69.9595 15.2508 69.8995 15.4508C69.8395 15.6508 69.7995 16.0208 69.7995 16.5608V18.7608H68.5195V13.9108H69.7095V14.6208C70.1295 14.0708 70.6695 13.8008 71.3095 13.8008C71.5895 13.8008 71.8495 13.8508 72.0895 13.9508C72.3195 14.0508 72.4995 14.1808 72.6195 14.3408C72.7395 14.5008 72.8195 14.6808 72.8695 14.8808C72.9195 15.0808 72.9395 15.3708 72.9395 15.7408V18.7508L72.9295 18.7708Z" fill="#034EA2"/>
<path d="M74.2285 13.2681V12.0781H75.5085V13.2681H74.2285ZM74.2285 18.7681V13.9181H75.5085V18.7681H74.2285Z" fill="#034EA2"/>
<path d="M76.5295 16.2788C76.5295 15.8488 76.6395 15.4388 76.8395 15.0388C77.0495 14.6388 77.3495 14.3387 77.7295 14.1287C78.1095 13.9187 78.5395 13.8187 79.0195 13.8187C79.7495 13.8187 80.3495 14.0588 80.8195 14.5288C81.2895 15.0088 81.5195 15.6087 81.5195 16.3387C81.5195 17.0687 81.2795 17.6787 80.8095 18.1587C80.3395 18.6387 79.7395 18.8787 79.0195 18.8787C78.5795 18.8787 78.1495 18.7787 77.7495 18.5787C77.3495 18.3787 77.0395 18.0788 76.8295 17.6988C76.6195 17.3088 76.5195 16.8388 76.5195 16.2788H76.5295ZM77.8395 16.3488C77.8395 16.8288 77.9495 17.1988 78.1795 17.4488C78.4095 17.7088 78.6895 17.8287 79.0195 17.8287C79.3495 17.8287 79.6395 17.6988 79.8595 17.4488C80.0895 17.1888 80.1995 16.8187 80.1995 16.3387C80.1995 15.8587 80.0895 15.4987 79.8595 15.2387C79.6295 14.9787 79.3495 14.8588 79.0195 14.8588C78.6895 14.8588 78.3995 14.9887 78.1795 15.2387C77.9495 15.4987 77.8395 15.8587 77.8395 16.3387V16.3488ZM78.3795 13.3287L79.0095 11.9688H80.4495L79.1895 13.3287H78.3795Z" fill="#034EA2"/>
<path d="M86.9393 18.7708H85.6593V16.3008C85.6593 15.7808 85.6293 15.4408 85.5793 15.2808C85.5293 15.1308 85.4393 15.0108 85.3093 14.9208C85.1893 14.8308 85.0393 14.7908 84.8693 14.7908C84.6493 14.7908 84.4493 14.8508 84.2693 14.9708C84.0893 15.0908 83.9693 15.2508 83.9093 15.4508C83.8393 15.6508 83.8093 16.0208 83.8093 16.5608V18.7608H82.5293V13.9108H83.7193V14.6208C84.1393 14.0708 84.6793 13.8008 85.3193 13.8008C85.5993 13.8008 85.8593 13.8508 86.0993 13.9508C86.3293 14.0508 86.5093 14.1808 86.6293 14.3408C86.7493 14.5008 86.8293 14.6808 86.8793 14.8808C86.9293 15.0808 86.9493 15.3708 86.9493 15.7408V18.7508L86.9393 18.7708Z" fill="#034EA2"/>
<path d="M90.8496 18.7681V12.0781H95.8096V13.2081H92.1996V14.6881H95.5596V15.8181H92.1996V17.6381H95.9396V18.7681H90.8496Z" fill="#034EA2"/>
<path d="M100.259 18.768V18.038C100.079 18.298 99.8491 18.498 99.5591 18.648C99.2691 18.798 98.9691 18.868 98.6491 18.868C98.3291 18.868 98.0291 18.798 97.7691 18.658C97.5091 18.518 97.3191 18.318 97.2091 18.058C97.0891 17.798 97.0391 17.438 97.0391 16.988V13.918H98.3191V16.148C98.3191 16.828 98.3391 17.248 98.3891 17.398C98.4391 17.548 98.5191 17.678 98.6491 17.768C98.7691 17.858 98.9291 17.898 99.1191 17.898C99.3391 17.898 99.5391 17.838 99.7091 17.718C99.8791 17.598 99.9991 17.448 100.069 17.268C100.129 17.088 100.169 16.658 100.169 15.958V13.918H101.449V18.768H100.259Z" fill="#034EA2"/>
<path d="M104.009 18.7686H102.729V13.9186H103.919V14.6086C104.119 14.2786 104.309 14.0686 104.469 13.9686C104.629 13.8686 104.819 13.8086 105.019 13.8086C105.309 13.8086 105.589 13.8886 105.859 14.0486L105.459 15.1686C105.239 15.0286 105.039 14.9586 104.859 14.9586C104.679 14.9586 104.529 15.0086 104.399 15.1086C104.279 15.2086 104.179 15.3886 104.109 15.6486C104.039 15.9086 103.999 16.4486 103.999 17.2686V18.7686H104.009Z" fill="#034EA2"/>
<path d="M106.119 16.2803C106.119 15.8503 106.229 15.4403 106.429 15.0403C106.639 14.6403 106.939 14.3403 107.319 14.1303C107.699 13.9203 108.129 13.8203 108.609 13.8203C109.339 13.8203 109.939 14.0603 110.409 14.5303C110.879 15.0103 111.109 15.6103 111.109 16.3403C111.109 17.0703 110.869 17.6803 110.399 18.1603C109.929 18.6403 109.329 18.8803 108.609 18.8803C108.169 18.8803 107.739 18.7803 107.339 18.5803C106.939 18.3803 106.629 18.0803 106.419 17.7003C106.209 17.3103 106.109 16.8403 106.109 16.2803H106.119ZM107.439 16.3503C107.439 16.8303 107.549 17.2003 107.779 17.4503C108.009 17.7103 108.289 17.8303 108.619 17.8303C108.949 17.8303 109.239 17.7003 109.459 17.4503C109.689 17.1903 109.799 16.8203 109.799 16.3403C109.799 15.8603 109.689 15.5003 109.459 15.2403C109.229 14.9803 108.949 14.8603 108.619 14.8603C108.289 14.8603 107.999 14.9903 107.779 15.2403C107.549 15.5003 107.439 15.8603 107.439 16.3403V16.3503Z" fill="#034EA2"/>
<path d="M112.09 13.9303H113.29V14.6403C113.45 14.4003 113.66 14.2003 113.92 14.0503C114.18 13.9003 114.48 13.8203 114.8 13.8203C115.36 13.8203 115.84 14.0403 116.23 14.4803C116.62 14.9203 116.82 15.5403 116.82 16.3203C116.82 17.1003 116.62 17.7603 116.23 18.2103C115.83 18.6603 115.36 18.8803 114.79 18.8803C114.52 18.8803 114.28 18.8303 114.06 18.7203C113.84 18.6103 113.61 18.4303 113.37 18.1703V20.6103H112.09V13.9203V13.9303ZM113.36 16.2703C113.36 16.8103 113.47 17.2203 113.68 17.4803C113.9 17.7403 114.16 17.8703 114.47 17.8703C114.78 17.8703 115.02 17.7503 115.21 17.5103C115.41 17.2703 115.51 16.8803 115.51 16.3303C115.51 15.8203 115.41 15.4403 115.2 15.2003C115 14.9503 114.74 14.8303 114.44 14.8303C114.14 14.8303 113.87 14.9503 113.66 15.1903C113.45 15.4303 113.35 15.7903 113.35 16.2603L113.36 16.2703Z" fill="#034EA2"/>
<path d="M120.649 17.2286L121.929 17.4386C121.769 17.9086 121.509 18.2686 121.149 18.5086C120.789 18.7486 120.349 18.8786 119.819 18.8786C118.979 18.8786 118.349 18.5986 117.949 18.0486C117.629 17.6086 117.469 17.0486 117.469 16.3786C117.469 15.5786 117.679 14.9486 118.099 14.4886C118.519 14.0386 119.049 13.8086 119.689 13.8086C120.409 13.8086 120.979 14.0486 121.399 14.5186C121.819 14.9986 122.019 15.7286 121.999 16.7086H118.789C118.789 17.0886 118.899 17.3886 119.099 17.5986C119.299 17.8086 119.539 17.9186 119.839 17.9186C120.039 17.9186 120.209 17.8686 120.349 17.7586C120.489 17.6486 120.589 17.4686 120.659 17.2286H120.649ZM120.719 15.9286C120.719 15.5586 120.609 15.2786 120.429 15.0786C120.249 14.8786 120.029 14.7886 119.759 14.7886C119.479 14.7886 119.249 14.8886 119.069 15.0986C118.889 15.2986 118.799 15.5786 118.799 15.9286H120.719Z" fill="#034EA2"/>
<path d="M123.999 15.3986L122.839 15.1886C122.969 14.7186 123.199 14.3686 123.519 14.1486C123.839 13.9186 124.309 13.8086 124.939 13.8086C125.509 13.8086 125.939 13.8786 126.219 14.0086C126.499 14.1486 126.699 14.3186 126.809 14.5286C126.919 14.7386 126.979 15.1186 126.979 15.6786V17.1786C126.969 17.6086 126.979 17.9186 127.029 18.1186C127.069 18.3186 127.149 18.5386 127.259 18.7686H125.989C125.959 18.6786 125.919 18.5586 125.869 18.3886C125.849 18.3086 125.829 18.2586 125.819 18.2386C125.599 18.4486 125.369 18.6086 125.119 18.7186C124.869 18.8286 124.599 18.8786 124.319 18.8786C123.819 18.8786 123.429 18.7386 123.139 18.4686C122.849 18.1986 122.709 17.8586 122.709 17.4386C122.709 17.1686 122.779 16.9186 122.909 16.7086C123.039 16.4986 123.219 16.3286 123.459 16.2186C123.699 16.1086 124.039 16.0086 124.479 15.9186C125.079 15.8086 125.489 15.6986 125.729 15.6086V15.4786C125.729 15.2286 125.669 15.0586 125.549 14.9486C125.429 14.8486 125.199 14.7886 124.859 14.7886C124.629 14.7886 124.449 14.8286 124.329 14.9186C124.209 15.0086 124.099 15.1686 124.019 15.3886L123.999 15.3986ZM125.709 16.4386C125.549 16.4886 125.289 16.5586 124.929 16.6386C124.569 16.7186 124.339 16.7886 124.229 16.8586C124.059 16.9786 123.979 17.1286 123.979 17.3086C123.979 17.4886 124.049 17.6386 124.179 17.7786C124.309 17.9086 124.479 17.9786 124.689 17.9786C124.919 17.9786 125.139 17.8986 125.349 17.7486C125.509 17.6286 125.609 17.4886 125.659 17.3286C125.689 17.2186 125.709 17.0086 125.709 16.6986V16.4386Z" fill="#034EA2"/>
<path d="M51.3906 30.8112V25.0312H52.1806L55.2206 29.5712V25.0312H55.9506V30.8112H55.1606L52.1206 26.2712V30.8112H51.3906Z" fill="#59595B"/>
<path d="M60.0104 29.4613L60.7404 29.5512C60.6204 29.9812 60.4104 30.3113 60.1004 30.5513C59.7904 30.7913 59.3904 30.9113 58.9004 30.9113C58.2904 30.9113 57.8004 30.7212 57.4404 30.3412C57.0804 29.9612 56.9004 29.4312 56.9004 28.7512C56.9004 28.0712 57.0804 27.5012 57.4404 27.1112C57.8004 26.7212 58.2704 26.5312 58.8504 26.5312C59.4304 26.5312 59.8704 26.7212 60.2204 27.1012C60.5804 27.4812 60.7504 28.0213 60.7504 28.7113C60.7504 28.7513 60.7504 28.8212 60.7504 28.9012H57.6304C57.6604 29.3612 57.7904 29.7113 58.0204 29.9613C58.2504 30.2113 58.5504 30.3312 58.9004 30.3312C59.1604 30.3312 59.3804 30.2613 59.5704 30.1213C59.7604 29.9813 59.9004 29.7612 60.0104 29.4712V29.4613ZM57.6704 28.3112H60.0104C59.9804 27.9612 59.8904 27.6912 59.7404 27.5212C59.5104 27.2512 59.2204 27.1112 58.8604 27.1112C58.5304 27.1112 58.2604 27.2212 58.0404 27.4412C57.8204 27.6612 57.6904 27.9512 57.6704 28.3212V28.3112Z" fill="#59595B"/>
<path d="M61.1602 30.8111L62.6902 28.6311L61.2702 26.6211H62.1602L62.8002 27.6011C62.9202 27.7911 63.0202 27.9411 63.0902 28.0711C63.2102 27.9011 63.3102 27.7411 63.4102 27.6111L64.1202 26.6211H64.9702L63.5202 28.5911L65.0802 30.8111H64.2102L63.3502 29.5111L63.1202 29.1611L62.0202 30.8111H61.1602Z" fill="#59595B"/>
<path d="M67.2215 30.1704L67.3215 30.8004C67.1215 30.8404 66.9415 30.8604 66.7815 30.8604C66.5215 30.8604 66.3215 30.8204 66.1815 30.7404C66.0415 30.6604 65.9415 30.5504 65.8815 30.4204C65.8215 30.2904 65.7915 30.0104 65.7915 29.5804V27.1704H65.2715V26.6204H65.7915V25.5804L66.5015 25.1504V26.6104H67.2115V27.1604H66.5015V29.6104C66.5015 29.8104 66.5115 29.9404 66.5415 30.0004C66.5615 30.0604 66.6115 30.1004 66.6615 30.1404C66.7215 30.1704 66.8015 30.1904 66.9015 30.1904C66.9815 30.1904 67.0815 30.1904 67.2115 30.1604L67.2215 30.1704Z" fill="#59595B"/>
<path d="M70.7103 28.5399V27.8599H73.1603V29.9999C72.7803 30.2999 72.4003 30.5299 72.0003 30.6799C71.6003 30.8299 71.1903 30.9099 70.7703 30.9099C70.2003 30.9099 69.6903 30.7899 69.2203 30.5499C68.7603 30.3099 68.4103 29.9499 68.1703 29.4899C67.9303 29.0299 67.8203 28.5199 67.8203 27.9499C67.8203 27.3799 67.9403 26.8599 68.1703 26.3699C68.4103 25.8799 68.7403 25.5199 69.1903 25.2799C69.6403 25.0399 70.1403 24.9199 70.7203 24.9199C71.1403 24.9199 71.5203 24.9899 71.8503 25.1199C72.1903 25.2599 72.4503 25.4399 72.6403 25.6899C72.8303 25.9399 72.9803 26.2499 73.0803 26.6399L72.3903 26.8299C72.3003 26.5399 72.2003 26.2999 72.0703 26.1399C71.9403 25.9799 71.7603 25.8399 71.5203 25.7399C71.2803 25.6399 71.0203 25.5899 70.7203 25.5899C70.3703 25.5899 70.0703 25.6399 69.8103 25.7499C69.5503 25.8599 69.3503 25.9999 69.1903 26.1699C69.0303 26.3399 68.9103 26.5299 68.8303 26.7399C68.6803 27.0999 68.6103 27.4899 68.6103 27.8999C68.6103 28.4199 68.7003 28.8499 68.8803 29.1899C69.0603 29.5399 69.3203 29.7899 69.6603 29.9599C70.0003 30.1299 70.3603 30.2099 70.7403 30.2099C71.0703 30.2099 71.4003 30.1499 71.7103 30.0199C72.0303 29.8899 72.2603 29.7599 72.4303 29.6099V28.5299H70.7303L70.7103 28.5399Z" fill="#59595B"/>
<path d="M77.0709 29.4613L77.8009 29.5512C77.6809 29.9812 77.4709 30.3113 77.1609 30.5513C76.8509 30.7913 76.4509 30.9113 75.9609 30.9113C75.3509 30.9113 74.8609 30.7212 74.5009 30.3412C74.1409 29.9612 73.9609 29.4312 73.9609 28.7512C73.9609 28.0712 74.1409 27.5012 74.5009 27.1112C74.8609 26.7212 75.3309 26.5312 75.9109 26.5312C76.4909 26.5312 76.9309 26.7212 77.2809 27.1012C77.6409 27.4812 77.8109 28.0213 77.8109 28.7113C77.8109 28.7513 77.8109 28.8212 77.8109 28.9012H74.6909C74.7209 29.3612 74.8509 29.7113 75.0809 29.9613C75.3109 30.2113 75.6109 30.3312 75.9609 30.3312C76.2209 30.3312 76.4409 30.2613 76.6309 30.1213C76.8209 29.9813 76.9609 29.7612 77.0709 29.4712V29.4613ZM74.7409 28.3112H77.0809C77.0509 27.9612 76.9609 27.6912 76.8109 27.5212C76.5809 27.2512 76.2909 27.1112 75.9309 27.1112C75.6009 27.1112 75.3309 27.2212 75.1109 27.4412C74.8909 27.6612 74.7609 27.9512 74.7409 28.3212V28.3112Z" fill="#59595B"/>
<path d="M78.6914 30.8112V26.6213H79.3314V27.2212C79.6414 26.7612 80.0814 26.5312 80.6614 26.5312C80.9114 26.5312 81.1414 26.5812 81.3614 26.6712C81.5714 26.7612 81.7314 26.8812 81.8414 27.0312C81.9514 27.1812 82.0214 27.3512 82.0614 27.5512C82.0914 27.6812 82.1014 27.9112 82.1014 28.2412V30.8213H81.3914V28.2712C81.3914 27.9812 81.3614 27.7613 81.3114 27.6213C81.2514 27.4813 81.1614 27.3612 81.0214 27.2812C80.8814 27.1912 80.7114 27.1512 80.5214 27.1512C80.2214 27.1512 79.9614 27.2512 79.7414 27.4412C79.5214 27.6312 79.4114 28.0013 79.4114 28.5312V30.8213H78.7014L78.6914 30.8112Z" fill="#59595B"/>
<path d="M86.0612 29.4613L86.7912 29.5512C86.6712 29.9812 86.4612 30.3113 86.1512 30.5513C85.8412 30.7913 85.4412 30.9113 84.9512 30.9113C84.3412 30.9113 83.8512 30.7212 83.4912 30.3412C83.1312 29.9612 82.9512 29.4312 82.9512 28.7512C82.9512 28.0712 83.1312 27.5012 83.4912 27.1112C83.8512 26.7212 84.3212 26.5312 84.9012 26.5312C85.4812 26.5312 85.9212 26.7212 86.2712 27.1012C86.6312 27.4812 86.8012 28.0213 86.8012 28.7113C86.8012 28.7513 86.8012 28.8212 86.8012 28.9012H83.6812C83.7112 29.3612 83.8412 29.7113 84.0712 29.9613C84.3012 30.2113 84.6012 30.3312 84.9512 30.3312C85.2112 30.3312 85.4312 30.2613 85.6212 30.1213C85.8112 29.9813 85.9512 29.7612 86.0612 29.4712V29.4613ZM83.7212 28.3112H86.0612C86.0312 27.9612 85.9412 27.6912 85.7912 27.5212C85.5612 27.2512 85.2712 27.1112 84.9112 27.1112C84.5812 27.1112 84.3112 27.2212 84.0912 27.4412C83.8712 27.6612 83.7412 27.9512 83.7212 28.3212V28.3112Z" fill="#59595B"/>
<path d="M87.6699 30.8112V26.6213H88.3099V27.2612C88.4699 26.9612 88.6199 26.7712 88.7599 26.6712C88.8999 26.5812 89.0499 26.5312 89.2199 26.5312C89.4599 26.5312 89.6999 26.6112 89.9499 26.7612L89.7099 27.4212C89.5399 27.3212 89.3599 27.2712 89.1899 27.2712C89.0299 27.2712 88.8999 27.3212 88.7699 27.4112C88.6499 27.5012 88.5599 27.6312 88.5099 27.8012C88.4299 28.0512 88.3899 28.3312 88.3899 28.6312V30.8213H87.6799L87.6699 30.8112Z" fill="#59595B"/>
<path d="M93.1106 30.2912C92.8506 30.5112 92.5906 30.6712 92.3506 30.7612C92.1106 30.8512 91.8506 30.9012 91.5706 30.9012C91.1106 30.9012 90.7606 30.7912 90.5106 30.5612C90.2606 30.3412 90.1406 30.0512 90.1406 29.7013C90.1406 29.4913 90.1906 29.3112 90.2806 29.1412C90.3706 28.9712 90.5006 28.8312 90.6506 28.7312C90.8006 28.6312 90.9706 28.5512 91.1606 28.5012C91.3006 28.4612 91.5106 28.4312 91.7906 28.3912C92.3606 28.3212 92.7906 28.2412 93.0606 28.1512C93.0606 28.0512 93.0606 27.9913 93.0606 27.9613C93.0606 27.6713 92.9906 27.4712 92.8606 27.3512C92.6806 27.1912 92.4106 27.1112 92.0506 27.1112C91.7206 27.1112 91.4706 27.1713 91.3106 27.2913C91.1506 27.4113 91.0306 27.6112 90.9606 27.9112L90.2706 27.8212C90.3306 27.5212 90.4406 27.2812 90.5806 27.1012C90.7206 26.9212 90.9306 26.7812 91.2106 26.6812C91.4806 26.5812 91.8006 26.5312 92.1606 26.5312C92.5206 26.5312 92.8106 26.5712 93.0306 26.6612C93.2506 26.7412 93.4206 26.8512 93.5206 26.9812C93.6306 27.1112 93.7006 27.2713 93.7406 27.4613C93.7606 27.5813 93.7806 27.8012 93.7806 28.1112V29.0612C93.7806 29.7212 93.8006 30.1412 93.8306 30.3112C93.8606 30.4812 93.9206 30.6512 94.0106 30.8112H93.2706C93.2006 30.6612 93.1506 30.4912 93.1306 30.2912H93.1106ZM93.0506 28.7113C92.7906 28.8213 92.4106 28.9012 91.8906 28.9812C91.6006 29.0212 91.3906 29.0713 91.2706 29.1213C91.1506 29.1713 91.0606 29.2512 90.9906 29.3512C90.9206 29.4512 90.8906 29.5612 90.8906 29.6912C90.8906 29.8812 90.9606 30.0413 91.1106 30.1613C91.2506 30.2913 91.4606 30.3512 91.7406 30.3512C92.0206 30.3512 92.2606 30.2912 92.4706 30.1712C92.6806 30.0512 92.8406 29.8912 92.9406 29.6812C93.0206 29.5212 93.0506 29.2812 93.0506 28.9712V28.7113Z" fill="#59595B"/>
<path d="M96.4207 30.1704L96.5207 30.8004C96.3207 30.8404 96.1407 30.8604 95.9807 30.8604C95.7207 30.8604 95.5207 30.8204 95.3807 30.7404C95.2407 30.6604 95.1407 30.5504 95.0807 30.4204C95.0207 30.2904 94.9907 30.0104 94.9907 29.5804V27.1704H94.4707V26.6204H94.9907V25.5804L95.7007 25.1504V26.6104H96.4107V27.1604H95.7007V29.6104C95.7007 29.8104 95.7107 29.9404 95.7407 30.0004C95.7607 30.0604 95.8107 30.1004 95.8607 30.1404C95.9207 30.1704 96.0007 30.1904 96.1007 30.1904C96.1807 30.1904 96.2807 30.1904 96.4107 30.1604L96.4207 30.1704Z" fill="#59595B"/>
<path d="M97.1113 25.8395V25.0195H97.8213V25.8395H97.1113ZM97.1113 30.8095V26.6195H97.8213V30.8095H97.1113Z" fill="#59595B"/>
<path d="M98.6406 28.7095C98.6406 27.9295 98.8606 27.3595 99.2906 26.9895C99.6506 26.6795 100.091 26.5195 100.611 26.5195C101.191 26.5195 101.661 26.7095 102.021 27.0895C102.391 27.4695 102.571 27.9895 102.571 28.6495C102.571 29.1895 102.491 29.6095 102.331 29.9195C102.171 30.2295 101.931 30.4695 101.621 30.6395C101.311 30.8095 100.971 30.8995 100.611 30.8995C100.021 30.8995 99.5506 30.7095 99.1906 30.3395C98.8306 29.9595 98.6506 29.4195 98.6506 28.7095H98.6406ZM99.3706 28.7095C99.3706 29.2495 99.4906 29.6495 99.7206 29.9195C99.9506 30.1895 100.251 30.3195 100.601 30.3195C100.951 30.3195 101.251 30.1895 101.481 29.9195C101.711 29.6495 101.831 29.2395 101.831 28.6895C101.831 28.1695 101.711 27.7795 101.481 27.5095C101.241 27.2395 100.951 27.1095 100.601 27.1095C100.251 27.1095 99.9506 27.2395 99.7206 27.5095C99.4906 27.7795 99.3706 28.1795 99.3706 28.7095Z" fill="#59595B"/>
<path d="M103.4 30.8112V26.6213H104.04V27.2212C104.35 26.7612 104.79 26.5312 105.37 26.5312C105.62 26.5312 105.85 26.5812 106.07 26.6712C106.28 26.7612 106.44 26.8812 106.55 27.0312C106.66 27.1812 106.73 27.3512 106.77 27.5512C106.8 27.6812 106.81 27.9112 106.81 28.2412V30.8213H106.1V28.2712C106.1 27.9812 106.07 27.7613 106.02 27.6213C105.96 27.4813 105.87 27.3612 105.73 27.2812C105.59 27.1912 105.42 27.1512 105.23 27.1512C104.93 27.1512 104.67 27.2512 104.45 27.4412C104.23 27.6312 104.12 28.0013 104.12 28.5312V30.8213H103.41L103.4 30.8112Z" fill="#59595B"/>
<path d="M108 30.8112V25.0312H112.18V25.7113H108.76V27.4812H111.96V28.1612H108.76V30.1312H112.31V30.8112H107.99H108Z" fill="#59595B"/>
<path d="M117.171 25.0295H117.941V28.3695C117.941 28.9495 117.871 29.4095 117.741 29.7495C117.611 30.0895 117.371 30.3695 117.031 30.5795C116.691 30.7895 116.241 30.8995 115.681 30.8995C115.121 30.8995 114.691 30.8095 114.351 30.6195C114.011 30.4295 113.761 30.1595 113.611 29.8095C113.461 29.4595 113.391 28.9695 113.391 28.3595V25.0195H114.161V28.3595C114.161 28.8595 114.211 29.2295 114.301 29.4695C114.391 29.7095 114.551 29.8895 114.781 30.0195C115.011 30.1495 115.291 30.2095 115.611 30.2095C116.171 30.2095 116.571 30.0795 116.811 29.8295C117.051 29.5795 117.171 29.0795 117.171 28.3595V25.0195V25.0295Z" fill="#59595B"/>
</svg>
