<svg width="125" height="125" viewBox="0 0 125 125" fill="none" xmlns="http://www.w3.org/2000/svg">
<path d="M91.838 79.4362V45.5614L62.501 28.624L33.1641 45.5614V79.4362L62.501 96.3736L91.838 79.4362Z" fill="#B297F2"/>
<path d="M62.5005 63.454C62.3324 63.454 62.1629 63.4099 62.0127 63.3231L32.6757 46.3857C32.2086 46.1156 32.0487 45.5189 32.3188 45.0517C32.5889 44.5846 33.1856 44.4247 33.6528 44.6948L62.5005 61.3497L91.3483 44.6948C91.8154 44.4247 92.4121 44.5846 92.6822 45.0517C92.9523 45.5189 92.7924 46.1156 92.3253 46.3857L62.9883 63.3231C62.8368 63.4099 62.6686 63.454 62.5005 63.454Z" fill="black"/>
<path d="M62.5005 97.3503C61.9617 97.3503 61.5234 96.9135 61.5234 96.3733V62.4985C61.5234 61.9597 61.9603 61.5215 62.5005 61.5215C63.0407 61.5215 63.4775 61.9583 63.4775 62.4985V96.3733C63.4775 96.9121 63.0407 97.3503 62.5005 97.3503Z" fill="black"/>
<path d="M62.563 21.5034C62.0242 21.5034 61.5859 21.0665 61.5859 20.5263V4.93113C61.5859 4.39232 62.0228 3.9541 62.563 3.9541C63.1032 3.9541 63.54 4.39094 63.54 4.93113V20.5263C63.54 21.0651 63.1032 21.5034 62.563 21.5034Z" fill="black"/>
<path d="M68.0283 11.3711C67.7789 11.3711 67.5281 11.2761 67.3379 11.0845L62.5631 6.30962L57.7882 11.0845C57.4065 11.4662 56.7891 11.4662 56.4074 11.0845C56.0257 10.7028 56.0257 10.0854 56.4074 9.70371L61.8727 4.23843C62.2544 3.85672 62.8717 3.85672 63.2535 4.23843L68.7187 9.70371C69.1004 10.0854 69.1004 10.7028 68.7187 11.0845C68.5286 11.2747 68.2778 11.3711 68.0283 11.3711Z" fill="black"/>
<path d="M62.563 121.186C62.0242 121.186 61.5859 120.749 61.5859 120.209V104.614C61.5859 104.075 62.0228 103.637 62.563 103.637C63.1032 103.637 63.54 104.074 63.54 104.614V120.209C63.54 120.748 63.1032 121.186 62.563 121.186Z" fill="black"/>
<path d="M62.5631 121.19C62.3136 121.19 62.0628 121.095 61.8727 120.904L56.4074 115.439C56.0257 115.057 56.0257 114.439 56.4074 114.058C56.7891 113.676 57.4065 113.676 57.7882 114.058L62.5631 118.833L67.3379 114.058C67.7197 113.676 68.337 113.676 68.7187 114.058C69.1004 114.439 69.1004 115.057 68.7187 115.439L63.2535 120.904C63.0633 121.094 62.8125 121.19 62.5631 121.19Z" fill="black"/>
<path d="M120.201 63.5478H104.606C104.067 63.5478 103.629 63.111 103.629 62.5708C103.629 62.0306 104.066 61.5938 104.606 61.5938H120.201C120.74 61.5938 121.178 62.0306 121.178 62.5708C121.178 63.111 120.741 63.5478 120.201 63.5478Z" fill="black"/>
<path d="M114.738 69.0132C114.489 69.0132 114.238 68.9181 114.048 68.7265C113.666 68.3448 113.666 67.7275 114.048 67.3457L118.823 62.5709L114.048 57.796C113.666 57.4143 113.666 56.7969 114.048 56.4152C114.43 56.0335 115.047 56.0335 115.429 56.4152L120.894 61.8805C121.276 62.2622 121.276 62.8795 120.894 63.2613L115.429 68.7265C115.239 68.9167 114.988 69.0132 114.738 69.0132Z" fill="black"/>
<path d="M20.5214 63.5478H4.92624C4.38743 63.5478 3.94922 63.111 3.94922 62.5708C3.94922 62.0306 4.38606 61.5938 4.92624 61.5938H20.5214C21.0603 61.5938 21.4985 62.0306 21.4985 62.5708C21.4985 63.111 21.0616 63.5478 20.5214 63.5478Z" fill="black"/>
<path d="M10.3873 69.0132C10.1378 69.0132 9.88705 68.9181 9.69688 68.7265L4.2316 63.2613C3.84988 62.8795 3.84988 62.2622 4.2316 61.8805L9.69688 56.4152C10.0786 56.0335 10.696 56.0335 11.0777 56.4152C11.4594 56.7969 11.4594 57.4143 11.0777 57.796L6.30278 62.5709L11.0777 67.3457C11.4594 67.7275 11.4594 68.3448 11.0777 68.7265C10.8875 68.9167 10.6367 69.0132 10.3873 69.0132Z" fill="black"/>
<path d="M92.2892 33.818C92.0398 33.818 91.789 33.723 91.5988 33.5314C91.2171 33.1497 91.2171 32.5323 91.5988 32.1506L102.627 21.1222C103.009 20.7405 103.626 20.7405 104.008 21.1222C104.39 21.5039 104.39 22.1213 104.008 22.503L92.9796 33.5314C92.7894 33.7216 92.5386 33.818 92.2892 33.818Z" fill="black"/>
<path d="M103.317 30.5178C102.778 30.5178 102.34 30.081 102.34 29.5408V22.7871H95.5864C95.0476 22.7871 94.6094 22.3502 94.6094 21.81C94.6094 21.2698 95.0462 20.833 95.5864 20.833H103.316C103.575 20.833 103.823 20.9364 104.006 21.1196C104.189 21.3029 104.293 21.551 104.293 21.81V29.5394C104.293 30.0782 103.856 30.5164 103.316 30.5164L103.317 30.5178Z" fill="black"/>
<path d="M21.8087 104.305C21.5593 104.305 21.3085 104.21 21.1183 104.018C20.7366 103.637 20.7366 103.019 21.1183 102.638L32.1467 91.6105C32.5284 91.2288 33.1458 91.2288 33.5275 91.6105C33.9092 91.9922 33.9092 92.6096 33.5275 92.9913L22.4991 104.018C22.3089 104.208 22.0581 104.305 21.8087 104.305Z" fill="black"/>
<path d="M29.5345 104.306H21.8051C21.5461 104.306 21.298 104.203 21.1148 104.02C20.9315 103.837 20.8281 103.589 20.8281 103.329V95.6001C20.8281 95.0613 21.265 94.623 21.8051 94.623C22.344 94.623 22.7822 95.0599 22.7822 95.6001V102.354H29.5359C30.0747 102.354 30.5129 102.791 30.5129 103.331C30.5129 103.871 30.0761 104.308 29.5359 104.308L29.5345 104.306Z" fill="black"/>
<path d="M103.318 104.304C103.068 104.304 102.817 104.209 102.627 104.018L91.5988 92.9893C91.2171 92.6076 91.2171 91.9903 91.5988 91.6086C91.9805 91.2268 92.5979 91.2268 92.9796 91.6086L104.008 102.637C104.39 103.019 104.39 103.636 104.008 104.018C103.818 104.208 103.567 104.304 103.318 104.304Z" fill="black"/>
<path d="M103.32 104.307H95.5903C95.0515 104.307 94.6133 103.87 94.6133 103.33C94.6133 102.79 95.0501 102.353 95.5903 102.353H102.344V95.5991C102.344 95.0603 102.781 94.6221 103.321 94.6221C103.86 94.6221 104.298 95.0589 104.298 95.5991V103.328C104.298 103.867 103.861 104.306 103.321 104.306L103.32 104.307Z" fill="black"/>
<path d="M32.8332 33.819C32.5838 33.819 32.333 33.7239 32.1428 33.5324L21.1144 22.504C20.7327 22.1223 20.7327 21.5049 21.1144 21.1232C21.4961 20.7415 22.1135 20.7415 22.4952 21.1232L33.5236 32.1516C33.9053 32.5333 33.9053 33.1507 33.5236 33.5324C33.3334 33.7226 33.0826 33.819 32.8332 33.819Z" fill="black"/>
<path d="M21.8051 30.5184C21.2663 30.5184 20.8281 30.0816 20.8281 29.5414V21.812C20.8281 21.2732 21.265 20.835 21.8051 20.835H29.5345C30.0733 20.835 30.5116 21.2718 30.5116 21.812C30.5116 22.3522 30.0747 22.789 29.5345 22.789H22.7808V29.5428C22.7808 30.0816 22.344 30.5198 21.8038 30.5198L21.8051 30.5184Z" fill="black"/>
</svg>
