<svg width="125" height="125" viewBox="0 0 125 125" fill="none" xmlns="http://www.w3.org/2000/svg">
<path d="M82.0759 108.702V86.0966L62.4996 74.7939L42.9219 86.0966V108.702L62.4996 120.004L82.0759 108.702Z" fill="#B297F2"/>
<path d="M62.4977 98.3612C62.3296 98.3612 62.1601 98.3171 62.0099 98.2303L42.4336 86.9277C41.9664 86.6576 41.8066 86.0609 42.0767 85.5937C42.3467 85.1266 42.9434 84.9667 43.4106 85.2368L62.4991 96.2583L81.5876 85.2368C82.0548 84.9667 82.6515 85.1266 82.9216 85.5937C83.1916 86.0609 83.0318 86.6576 82.5646 86.9277L62.9883 98.2303C62.8367 98.3171 62.6686 98.3612 62.5005 98.3612H62.4977Z" fill="black"/>
<path d="M62.5005 120.981C61.9617 120.981 61.5234 120.544 61.5234 120.004V97.3989C61.5234 96.8601 61.9603 96.4219 62.5005 96.4219C63.0407 96.4219 63.4775 96.8587 63.4775 97.3989V120.004C63.4775 120.543 63.0407 120.981 62.5005 120.981Z" fill="black"/>
<path d="M82.0759 38.7956V16.1903L62.4996 4.8877L42.9219 16.1903V38.7956L62.4996 50.0982L82.0759 38.7956Z" fill="#B297F2"/>
<path d="M62.4977 28.4549C62.3296 28.4549 62.1601 28.4108 62.0099 28.324L42.4336 17.0214C41.9664 16.7513 41.8066 16.1546 42.0767 15.6875C42.3467 15.2203 42.9434 15.0605 43.4106 15.3306L62.4991 26.3521L81.5876 15.3306C82.0548 15.0605 82.6515 15.2203 82.9216 15.6875C83.1916 16.1546 83.0318 16.7513 82.5646 17.0214L62.9883 28.324C62.8367 28.4108 62.6686 28.4549 62.5005 28.4549H62.4977Z" fill="black"/>
<path d="M62.5005 51.0749C61.9617 51.0749 61.5234 50.6381 61.5234 50.0979V27.4926C61.5234 26.9538 61.9603 26.5156 62.5005 26.5156C63.0407 26.5156 63.4775 26.9525 63.4775 27.4926V50.0979C63.4775 50.6367 63.0407 51.0749 62.5005 51.0749Z" fill="black"/>
<path d="M43.9964 73.8024V51.1972L24.4201 39.8945L4.84375 51.1972V73.8024L24.4201 85.1064L43.9964 73.8024Z" fill="#B297F2"/>
<path d="M24.4171 63.4628C24.2489 63.4628 24.0795 63.4187 23.9292 63.3318L4.35153 52.0292C3.88438 51.7591 3.72452 51.1624 3.99462 50.6953C4.26471 50.2281 4.8614 50.0683 5.32855 50.3384L24.4171 61.3585L43.5056 50.3384C43.9727 50.0683 44.5694 50.2281 44.8395 50.6953C45.1096 51.1624 44.9498 51.7591 44.4826 52.0292L24.9063 63.3318C24.7547 63.4187 24.5866 63.4628 24.4184 63.4628H24.4171Z" fill="black"/>
<path d="M24.4184 86.0818C23.8796 86.0818 23.4414 85.6449 23.4414 85.1047V62.4995C23.4414 61.9607 23.8782 61.5225 24.4184 61.5225C24.9586 61.5225 25.3955 61.9593 25.3955 62.4995V85.1047C25.3955 85.6436 24.9586 86.0818 24.4184 86.0818Z" fill="black"/>
<path d="M120.162 73.8024V51.1972L100.586 39.8945L81.0078 51.1972V73.8024L100.586 85.1064L120.162 73.8024Z" fill="#B297F2"/>
<path d="M100.584 63.4628C100.416 63.4628 100.246 63.4187 100.096 63.3318L80.5195 52.0292C80.0523 51.7591 79.8925 51.1624 80.1626 50.6953C80.4327 50.2281 81.0294 50.0683 81.4965 50.3384L100.585 61.3585L119.674 50.3384C120.141 50.0683 120.737 50.2281 121.007 50.6953C121.278 51.1624 121.118 51.7591 120.651 52.0292L101.074 63.3318C100.923 63.4187 100.755 63.4628 100.586 63.4628H100.584Z" fill="black"/>
<path d="M100.586 86.0818C100.048 86.0818 99.6094 85.6449 99.6094 85.1047V62.4995C99.6094 61.9607 100.046 61.5225 100.586 61.5225C101.127 61.5225 101.563 61.9593 101.563 62.4995V85.1047C101.563 85.6436 101.127 86.0818 100.586 86.0818Z" fill="black"/>
<path d="M33.2704 45.4256C32.9328 45.4256 32.6048 45.2506 32.4243 44.9378C32.1542 44.4707 32.3141 43.874 32.7812 43.6039L52.3576 32.3013C52.8247 32.0312 53.4214 32.191 53.6915 32.6582C53.9616 33.1253 53.8017 33.722 53.3346 33.9921L33.7582 45.2947C33.6039 45.3829 33.4372 45.4256 33.2704 45.4256Z" fill="black"/>
<path d="M70.9345 80.6353C70.5969 80.6353 70.2689 80.4603 70.0884 80.1475C69.8183 79.6803 69.9781 79.0836 70.4453 78.8135L90.0216 67.5109C90.4888 67.2408 91.0855 67.4021 91.3556 67.8678C91.6256 68.335 91.4658 68.9317 90.9986 69.2018L71.4223 80.5044C71.268 80.5926 71.1012 80.6353 70.9345 80.6353Z" fill="black"/>
<path d="M92.2321 45.6864C92.0667 45.6864 91.8986 45.6437 91.7443 45.5555L72.1679 34.2528C71.7008 33.9828 71.5409 33.3861 71.811 32.9189C72.0811 32.4518 72.6778 32.2919 73.145 32.562L92.7213 43.8646C93.1884 44.1347 93.3483 44.7314 93.0782 45.1986C92.8977 45.5114 92.5697 45.6864 92.2321 45.6864Z" fill="black"/>
<path d="M53.9469 80.6795C53.7816 80.6795 53.6135 80.6368 53.4591 80.5486L33.8828 69.246C33.4156 68.9759 33.2558 68.3792 33.5259 67.9121C33.796 67.4449 34.3927 67.2851 34.8598 67.5552L54.4361 78.8578C54.9033 79.1279 55.0631 79.7246 54.7931 80.1917C54.6125 80.5045 54.2846 80.6795 53.9469 80.6795Z" fill="black"/>
</svg>
