<svg width="125" height="125" viewBox="0 0 125 125" fill="none" xmlns="http://www.w3.org/2000/svg">
<path d="M38.1459 33.839V14.654L21.531 5.06152L4.91602 14.654V33.839L21.531 43.4315L38.1459 33.839Z" fill="#B297F2"/>
<path d="M21.5305 25.2116C21.3623 25.2116 21.1929 25.1675 21.0426 25.0807L4.4277 15.4882C3.96055 15.2181 3.8007 14.6214 4.07079 14.1543C4.34089 13.6871 4.93757 13.5273 5.40473 13.7974L21.5318 23.1073L37.659 13.7974C38.1261 13.5273 38.7228 13.6885 38.9929 14.1543C39.263 14.6214 39.1031 15.2181 38.636 15.4882L22.021 25.0807C21.8695 25.1675 21.7013 25.2116 21.5332 25.2116H21.5305Z" fill="black"/>
<path d="M21.5317 44.4086C20.9929 44.4086 20.5547 43.9717 20.5547 43.4315V24.2466C20.5547 23.7077 20.9915 23.2695 21.5317 23.2695C22.0719 23.2695 22.5087 23.7064 22.5087 24.2466V43.4315C22.5087 43.9703 22.0719 44.4086 21.5317 44.4086Z" fill="black"/>
<path d="M120.011 33.839V14.654L103.396 5.06152L86.7812 14.654V33.839L103.396 43.4315L120.011 33.839Z" fill="#B297F2"/>
<path d="M103.396 25.2116C103.228 25.2116 103.058 25.1675 102.908 25.0807L86.2929 15.4882C85.8258 15.2181 85.6659 14.6214 85.936 14.1543C86.2061 13.6871 86.8028 13.5273 87.27 13.7974L103.397 23.1073L119.524 13.7974C119.991 13.5273 120.588 13.6885 120.858 14.1543C121.128 14.6214 120.968 15.2181 120.501 15.4882L103.886 25.0807C103.735 25.1675 103.567 25.2116 103.398 25.2116H103.396Z" fill="black"/>
<path d="M103.397 44.4086C102.858 44.4086 102.42 43.9717 102.42 43.4315V24.2466C102.42 23.7077 102.857 23.2695 103.397 23.2695C103.937 23.2695 104.374 23.7064 104.374 24.2466V43.4315C104.374 43.9703 103.937 44.4086 103.397 44.4086Z" fill="black"/>
<path d="M38.1459 110.412V91.2273L21.531 81.6348L4.91602 91.2273V110.412L21.531 120.005L38.1459 110.412Z" fill="#B297F2"/>
<path d="M21.5305 101.785C21.3623 101.785 21.1929 101.741 21.0426 101.654L4.4277 92.0614C3.96055 91.7913 3.8007 91.1947 4.07079 90.7275C4.34089 90.2604 4.93757 90.1005 5.40473 90.3706L21.5318 99.6806L37.659 90.3706C38.1261 90.1005 38.7228 90.2604 38.9929 90.7275C39.263 91.1947 39.1031 91.7913 38.636 92.0614L22.021 101.654C21.8695 101.741 21.7013 101.785 21.5332 101.785H21.5305Z" fill="black"/>
<path d="M21.5317 120.982C20.9929 120.982 20.5547 120.545 20.5547 120.005V100.82C20.5547 100.281 20.9915 99.8428 21.5317 99.8428C22.0719 99.8428 22.5087 100.28 22.5087 100.82V120.005C22.5087 120.544 22.0719 120.982 21.5317 120.982Z" fill="black"/>
<path d="M120.011 110.412V91.2273L103.396 81.6348L86.7812 91.2273V110.412L103.396 120.005L120.011 110.412Z" fill="#B297F2"/>
<path d="M103.396 101.785C103.228 101.785 103.058 101.741 102.908 101.654L86.2929 92.0614C85.8258 91.7913 85.6659 91.1947 85.936 90.7275C86.2061 90.2604 86.8028 90.1005 87.27 90.3706L103.397 99.6806L119.524 90.3706C119.991 90.1005 120.588 90.2604 120.858 90.7275C121.128 91.1947 120.968 91.7913 120.501 92.0614L103.886 101.654C103.735 101.741 103.567 101.785 103.398 101.785H103.396Z" fill="black"/>
<path d="M103.397 120.982C102.858 120.982 102.42 120.545 102.42 120.005V100.82C102.42 100.281 102.857 99.8428 103.397 99.8428C103.937 99.8428 104.374 100.28 104.374 100.82V120.005C104.374 120.544 103.937 120.982 103.397 120.982Z" fill="black"/>
<path d="M48.9232 80.0652C39.237 80.0652 31.3574 72.1856 31.3574 62.4994C31.3574 52.8132 39.237 44.9336 48.9232 44.9336C58.6094 44.9336 66.489 52.8132 66.489 62.4994C66.489 72.1856 58.6094 80.0652 48.9232 80.0652ZM48.9232 46.8876C40.3146 46.8876 33.3115 53.8908 33.3115 62.4994C33.3115 71.108 40.3146 78.1111 48.9232 78.1111C57.5318 78.1111 64.5349 71.108 64.5349 62.4994C64.5349 53.8908 57.5318 46.8876 48.9232 46.8876Z" fill="black"/>
<path d="M76.2748 80.0652C66.5886 80.0652 58.709 72.1856 58.709 62.4994C58.709 52.8132 66.5886 44.9336 76.2748 44.9336C85.961 44.9336 93.8406 52.8132 93.8406 62.4994C93.8406 72.1856 85.961 80.0652 76.2748 80.0652ZM76.2748 46.8876C67.6662 46.8876 60.663 53.8908 60.663 62.4994C60.663 71.108 67.6662 78.1111 76.2748 78.1111C84.8833 78.1111 91.8865 71.108 91.8865 62.4994C91.8865 53.8908 84.8833 46.8876 76.2748 46.8876Z" fill="black"/>
<path d="M81.4758 25.3808H43.2134C42.6745 25.3808 42.2363 24.944 42.2363 24.4038C42.2363 23.8636 42.6732 23.4268 43.2134 23.4268H81.4758C82.0146 23.4268 82.4528 23.8636 82.4528 24.4038C82.4528 24.944 82.016 25.3808 81.4758 25.3808Z" fill="black"/>
<path d="M81.4758 101.523H43.438C42.8992 101.523 42.4609 101.087 42.4609 100.546C42.4609 100.006 42.8978 99.5693 43.438 99.5693H81.4758C82.0146 99.5693 82.4528 100.006 82.4528 100.546C82.4528 101.087 82.016 101.523 81.4758 101.523Z" fill="black"/>
<path d="M103.504 76.6861C102.966 76.6861 102.527 76.2493 102.527 75.7091V49.3266C102.527 48.7878 102.964 48.3496 103.504 48.3496C104.045 48.3496 104.481 48.7864 104.481 49.3266V75.7091C104.481 76.2479 104.045 76.6861 103.504 76.6861Z" fill="black"/>
<path d="M21.5708 76.9107C21.032 76.9107 20.5938 76.4739 20.5938 75.9337V49.102C20.5938 48.5632 21.0306 48.125 21.5708 48.125C22.111 48.125 22.5478 48.5618 22.5478 49.102V75.9337C22.5478 76.4725 22.111 76.9107 21.5708 76.9107Z" fill="black"/>
<path d="M38.4795 76.2303C38.4588 76.2303 38.4395 76.2303 38.4188 76.2289C37.88 76.1958 37.4708 75.7328 37.5038 75.194C37.8759 69.1802 42.8919 64.4688 48.9222 64.4688C54.9525 64.4688 59.963 69.1747 60.3406 75.183C60.375 75.7218 59.9658 76.1848 59.427 76.2192C58.8895 76.2523 58.4251 75.8444 58.3907 75.3056C58.0779 70.324 53.919 66.4214 48.9222 66.4214C43.9255 66.4214 39.761 70.3282 39.4524 75.3139C39.4207 75.832 38.9907 76.2303 38.4781 76.2303H38.4795Z" fill="black"/>
<path d="M49.0655 62.5753C45.8175 62.5753 43.1758 59.9336 43.1758 56.6856C43.1758 53.4376 45.8175 50.7959 49.0655 50.7959C52.3135 50.7959 54.9552 53.4376 54.9552 56.6856C54.9552 59.9336 52.3135 62.5753 49.0655 62.5753ZM49.0655 52.7472C46.8951 52.7472 45.1285 54.5138 45.1285 56.6842C45.1285 58.8546 46.8951 60.6213 49.0655 60.6213C51.2359 60.6213 53.0025 58.8546 53.0025 56.6842C53.0025 54.5138 51.2359 52.7472 49.0655 52.7472Z" fill="black"/>
<path d="M76.1916 74.2235C71.8838 74.2235 68.3809 70.7191 68.3809 66.4128V59.5639C68.3809 59.0251 68.8177 58.5869 69.3579 58.5869H83.0679C83.3284 58.5869 83.5778 58.6903 83.7611 58.8749C83.9444 59.0596 84.0463 59.309 84.045 59.5695L84.005 66.4155C84.0036 70.7219 80.4993 74.2235 76.1943 74.2235H76.1916ZM70.3335 60.541V66.4128C70.3335 69.6429 72.9614 72.2708 76.1916 72.2708C79.4217 72.2708 82.0496 69.6429 82.0496 66.4128V66.4073L82.084 60.541H70.3335Z" fill="black"/>
<path d="M71.938 60.5412C71.3992 60.5412 70.9609 60.1044 70.9609 59.5642V56.0419C70.9609 53.1177 73.3394 50.7393 76.2636 50.7393C79.1878 50.7393 81.5663 53.1177 81.5663 56.0419L81.5925 59.5559C81.5966 60.0947 81.1625 60.5357 80.6223 60.5398C80.0808 60.5467 79.6425 60.1099 79.6384 59.5697L79.6122 56.0474C79.6122 54.194 78.1102 52.6905 76.2622 52.6905C74.4143 52.6905 72.9122 54.1926 72.9122 56.0406V59.5628C72.9122 60.1016 72.4754 60.5398 71.9352 60.5398L71.938 60.5412Z" fill="black"/>
<path d="M76.1774 66.4202C77.2634 66.4202 78.1438 65.5398 78.1438 64.4538C78.1438 63.3677 77.2634 62.4873 76.1774 62.4873C75.0913 62.4873 74.2109 63.3677 74.2109 64.4538C74.2109 65.5398 75.0913 66.4202 76.1774 66.4202Z" fill="black"/>
<path d="M76.1802 69.2806C75.6413 69.2806 75.2031 68.8437 75.2031 68.3035V64.8598C75.2031 64.321 75.64 63.8828 76.1802 63.8828C76.7203 63.8828 77.1572 64.3197 77.1572 64.8598V68.3035C77.1572 68.8424 76.7203 69.2806 76.1802 69.2806Z" fill="black"/>
</svg>
