<svg width="125" height="125" viewBox="0 0 125 125" fill="none" xmlns="http://www.w3.org/2000/svg">
<path d="M38.144 33.839V14.654L21.529 5.06152L4.91406 14.654V33.839L21.529 43.4315L38.144 33.839Z" fill="#B297F2"/>
<path d="M21.5285 25.2116C21.3604 25.2116 21.1909 25.1675 21.0407 25.0807L4.42575 15.4882C3.9586 15.2181 3.79874 14.6214 4.06884 14.1543C4.33893 13.6871 4.93562 13.5273 5.40277 13.7974L21.5299 23.1073L37.657 13.7974C38.1242 13.5273 38.7209 13.6871 38.991 14.1543C39.261 14.6214 39.1012 15.2181 38.634 15.4882L22.0191 25.0807C21.8675 25.1675 21.6994 25.2116 21.5313 25.2116H21.5285Z" fill="black"/>
<path d="M21.5317 44.4086C20.9929 44.4086 20.5547 43.9717 20.5547 43.4315V24.2466C20.5547 23.7077 20.9915 23.2695 21.5317 23.2695C22.0719 23.2695 22.5087 23.7064 22.5087 24.2466V43.4315C22.5087 43.9703 22.0719 44.4086 21.5317 44.4086Z" fill="black"/>
<path d="M77.0541 72.7482V53.5632L60.4392 43.9707L43.8242 53.5632V72.7482L60.4392 82.3407L77.0541 72.7482Z" fill="#B297F2"/>
<path d="M60.4387 64.1208C60.2705 64.1208 60.101 64.0767 59.9508 63.9899L43.3359 54.3974C42.8688 54.1273 42.7089 53.5306 42.979 53.0634C43.2491 52.5963 43.8458 52.4364 44.3129 52.7065L60.44 62.0165L76.5672 52.7065C77.0343 52.4364 77.631 52.5963 77.9011 53.0634C78.1712 53.5306 78.01 54.1273 77.5442 54.3974L60.9292 63.9899C60.7777 64.0767 60.6095 64.1208 60.4414 64.1208H60.4387Z" fill="black"/>
<path d="M60.4419 83.3177C59.9031 83.3177 59.4648 82.8809 59.4648 82.3407V63.1557C59.4648 62.6169 59.9017 62.1787 60.4419 62.1787C60.9821 62.1787 61.4189 62.6155 61.4189 63.1557V82.3407C61.4189 82.8795 60.9821 83.3177 60.4419 83.3177Z" fill="black"/>
<path d="M120.011 33.839V14.654L103.396 5.06152L86.7812 14.654V33.839L103.396 43.4315L120.011 33.839Z" fill="#B297F2"/>
<path d="M103.396 25.2116C103.228 25.2116 103.058 25.1675 102.908 25.0807L86.2929 15.4882C85.8258 15.2181 85.6659 14.6214 85.936 14.1543C86.2061 13.6871 86.8028 13.5273 87.27 13.7974L103.397 23.1073L119.524 13.7974C119.991 13.5273 120.588 13.6871 120.858 14.1543C121.128 14.6214 120.968 15.2181 120.501 15.4882L103.886 25.0807C103.735 25.1675 103.567 25.2116 103.398 25.2116H103.396Z" fill="black"/>
<path d="M103.399 44.4086C102.86 44.4086 102.422 43.9717 102.422 43.4315V24.2466C102.422 23.7077 102.859 23.2695 103.399 23.2695C103.939 23.2695 104.376 23.7064 104.376 24.2466V43.4315C104.376 43.9703 103.939 44.4086 103.399 44.4086Z" fill="black"/>
<path d="M38.144 110.412V91.2273L21.529 81.6348L4.91406 91.2273V110.412L21.529 120.005L38.144 110.412Z" fill="#B297F2"/>
<path d="M21.5285 101.785C21.3604 101.785 21.1909 101.741 21.0407 101.654L4.42575 92.0614C3.9586 91.7913 3.79874 91.1947 4.06884 90.7275C4.33893 90.2604 4.93562 90.1005 5.40277 90.3706L21.5299 99.6806L37.657 90.3706C38.1242 90.1005 38.7209 90.2604 38.991 90.7275C39.261 91.1947 39.1012 91.7913 38.634 92.0614L22.0191 101.654C21.8675 101.741 21.6994 101.785 21.5313 101.785H21.5285Z" fill="black"/>
<path d="M21.5317 120.982C20.9929 120.982 20.5547 120.545 20.5547 120.005V100.82C20.5547 100.281 20.9915 99.8428 21.5317 99.8428C22.0719 99.8428 22.5087 100.28 22.5087 100.82V120.005C22.5087 120.544 22.0719 120.982 21.5317 120.982Z" fill="black"/>
<path d="M120.011 110.412V91.2273L103.396 81.6348L86.7812 91.2273V110.412L103.396 120.005L120.011 110.412Z" fill="#B297F2"/>
<path d="M103.396 101.785C103.228 101.785 103.058 101.741 102.908 101.654L86.2929 92.0614C85.8258 91.7913 85.6659 91.1947 85.936 90.7275C86.2061 90.2604 86.8028 90.1005 87.27 90.3706L103.397 99.6806L119.524 90.3706C119.991 90.1005 120.588 90.2604 120.858 90.7275C121.128 91.1947 120.968 91.7913 120.501 92.0614L103.886 101.654C103.735 101.741 103.567 101.785 103.398 101.785H103.396Z" fill="black"/>
<path d="M103.399 120.982C102.86 120.982 102.422 120.545 102.422 120.005V100.82C102.422 100.281 102.859 99.8428 103.399 99.8428C103.939 99.8428 104.376 100.28 104.376 100.82V120.005C104.376 120.544 103.939 120.982 103.399 120.982Z" fill="black"/>
<path d="M81.4778 25.3808H43.2153C42.6765 25.3808 42.2383 24.944 42.2383 24.4038C42.2383 23.8636 42.6751 23.4268 43.2153 23.4268H81.4778C82.0166 23.4268 82.4548 23.8636 82.4548 24.4038C82.4548 24.944 82.018 25.3808 81.4778 25.3808Z" fill="black"/>
<path d="M81.4758 101.523H43.438C42.8992 101.523 42.4609 101.087 42.4609 100.546C42.4609 100.006 42.8978 99.5693 43.438 99.5693H81.4758C82.0146 99.5693 82.4528 100.006 82.4528 100.546C82.4528 101.087 82.016 101.523 81.4758 101.523Z" fill="black"/>
<path d="M103.504 76.6861C102.966 76.6861 102.527 76.2493 102.527 75.7091V49.3266C102.527 48.7878 102.964 48.3496 103.504 48.3496C104.045 48.3496 104.481 48.7864 104.481 49.3266V75.7091C104.481 76.2479 104.045 76.6861 103.504 76.6861Z" fill="black"/>
<path d="M21.5708 76.9107C21.032 76.9107 20.5938 76.4739 20.5938 75.9337V49.102C20.5938 48.5632 21.0306 48.125 21.5708 48.125C22.111 48.125 22.5478 48.5618 22.5478 49.102V75.9337C22.5478 76.4725 22.111 76.9107 21.5708 76.9107Z" fill="black"/>
<path d="M75.1734 47.5265C74.8386 47.5265 74.5133 47.3543 74.3301 47.0442C74.0572 46.5798 74.2115 45.9804 74.6773 45.7075L84.4972 39.9336C84.9616 39.6607 85.561 39.8151 85.8339 40.2808C86.1067 40.7452 85.9524 41.3447 85.4866 41.6175L75.6667 47.3915C75.511 47.4824 75.3402 47.5265 75.1734 47.5265Z" fill="black"/>
<path d="M46.0073 47.5268C45.8392 47.5268 45.6683 47.4827 45.5126 47.3917L35.7079 41.6178C35.2435 41.3436 35.0877 40.7455 35.362 40.2811C35.6362 39.8167 36.2343 39.661 36.6987 39.9352L46.5034 45.7092C46.9678 45.9834 47.1235 46.5815 46.8493 47.0459C46.6674 47.3545 46.3408 47.5268 46.0073 47.5268Z" fill="black"/>
<path d="M84.9941 86.0155C84.826 86.0155 84.6551 85.9714 84.5008 85.8804L74.6809 80.1065C74.2165 79.8336 74.0608 79.2342 74.3337 78.7698C74.6065 78.3054 75.2059 78.1497 75.6703 78.4225L85.4902 84.1965C85.9546 84.4693 86.1103 85.0688 85.8375 85.5332C85.6556 85.8432 85.329 86.0155 84.9941 86.0155Z" fill="black"/>
<path d="M36.2039 86.0151C35.8691 86.0151 35.5439 85.8428 35.362 85.5341C35.0877 85.0698 35.2435 84.4703 35.7079 84.1975L45.5126 78.4235C45.977 78.1493 46.5764 78.305 46.8493 78.7694C47.1221 79.2338 46.9678 79.8332 46.5034 80.1061L36.6987 85.88C36.5429 85.9724 36.3721 86.0151 36.2039 86.0151Z" fill="black"/>
</svg>
