<svg width="125" height="125" viewBox="0 0 125 125" fill="none" xmlns="http://www.w3.org/2000/svg">
<path d="M10.6772 39.3427C10.6772 39.3427 10.6689 39.3427 10.6662 39.3427C10.2927 39.3386 9.95371 39.1208 9.79386 38.7818C7.21143 33.2986 7.62484 25.7966 8.87334 20.6042C9.59129 17.618 10.9776 14.9171 12.8848 12.7949C14.9064 10.5432 17.4833 8.99014 20.3344 8.30388C22.7377 7.72511 25.4221 7.63416 27.8929 8.04619C30.6352 8.50507 32.9889 9.54824 34.7018 11.0668C35.1056 11.4251 35.1428 12.0425 34.7845 12.4449C34.4262 12.8486 33.8088 12.8858 33.4065 12.5276C30.1378 9.62955 24.5774 9.29055 20.7933 10.2014C15.8696 11.3865 12.1241 15.4462 10.7736 21.0603C9.25918 27.3621 9.76492 32.7585 10.9018 36.2614C13.4388 33.267 17.7575 32.5504 21.9536 31.8531C25.8893 31.1999 29.96 30.5247 32.3908 27.9808C35.8649 24.3456 35.654 19.9345 35.6513 19.8904C35.621 19.3529 36.0302 18.8899 36.5663 18.8582C37.1037 18.8252 37.5654 19.2317 37.5998 19.7691C37.6136 19.9827 37.8878 25.0566 33.802 29.3299C30.9205 32.345 26.5246 33.074 22.2719 33.7796C17.6679 34.543 13.3189 35.2651 11.5509 38.8025C11.3855 39.1332 11.0465 39.3427 10.6772 39.3427Z" fill="black"/>
<path d="M116.981 81.9492C116.876 81.9492 116.77 81.9327 116.667 81.8968C116.155 81.7232 115.882 81.1679 116.056 80.658C118.039 74.8261 119.046 68.7173 119.051 62.4983C119.051 62.4859 119.051 62.4735 119.051 62.4611C119.051 54.8364 117.557 47.4391 114.612 40.4773C111.768 33.7511 107.694 27.7112 102.507 22.5243C97.3203 17.3374 91.279 13.2639 84.5542 10.4196C77.5924 7.47478 70.1951 5.98099 62.5704 5.98099C54.9458 5.98099 47.5196 7.48029 40.544 10.4362C33.8068 13.2928 27.76 17.3801 22.5703 22.5863C22.1899 22.968 21.5712 22.9694 21.1895 22.589C20.8078 22.2087 20.8064 21.59 21.1867 21.2083C26.5556 15.8229 32.8118 11.5937 39.7819 8.63922C46.9987 5.57999 54.666 4.02832 62.5704 4.02832C70.4748 4.02832 78.1105 5.5731 85.3149 8.6213C92.2726 11.5648 98.522 15.7774 103.888 21.1435C109.254 26.5096 113.467 32.7589 116.41 39.7166C119.453 46.91 120.998 54.5498 121.002 62.4238C121.002 62.4362 121.002 62.4487 121.002 62.4611C121.002 68.9061 119.959 75.2409 117.903 81.2864C117.765 81.6929 117.384 81.9492 116.978 81.9492H116.981Z" fill="black"/>
<path d="M60.718 68.0211V97.6764L86.665 58.7538H64.4249V27.2451L38.4766 66.1677H60.718V68.0211Z" fill="#B297F2"/>
<path d="M60.7178 98.652C60.5318 98.652 60.343 98.5982 60.1776 98.488C59.7284 98.189 59.6071 97.5826 59.9062 97.1334L84.8417 59.7294H64.4247C63.8859 59.7294 63.4477 59.2926 63.4477 58.7524C63.4477 58.2122 63.8846 57.7754 64.4247 57.7754H86.6662C87.0259 57.7754 87.3566 57.9738 87.5275 58.2908C87.6983 58.6077 87.6791 58.9936 87.4792 59.2926L61.5309 98.2151C61.3421 98.4976 61.0334 98.6506 60.7178 98.6506V98.652Z" fill="black"/>
<path d="M60.7188 67.1447H38.4773C38.1177 67.1447 37.7869 66.9463 37.616 66.6294C37.4452 66.3124 37.4645 65.9266 37.6643 65.6275L63.6126 26.705C63.9117 26.2558 64.518 26.1345 64.9672 26.4335C65.4165 26.7326 65.5377 27.3389 65.2387 27.7881L40.3032 65.1921H60.7201C61.259 65.1921 61.6972 65.6289 61.6972 66.1691C61.6972 66.7093 61.2603 67.1461 60.7201 67.1461L60.7188 67.1447Z" fill="black"/>
<path d="M62.5734 120.894C54.6855 120.894 47.0333 119.349 39.8289 116.301C32.8712 113.358 26.6219 109.145 21.2558 103.779C15.8897 98.413 11.6771 92.1637 8.73361 85.206C5.68678 78.0016 4.14062 70.3494 4.14062 62.4615C4.14062 62.4491 4.14062 62.4367 4.14062 62.4243C4.14476 56.6958 4.97571 51.0363 6.61006 45.6013C6.76578 45.0845 7.3101 44.7924 7.82686 44.9481C8.34363 45.1038 8.63577 45.6482 8.48005 46.1649C6.89669 51.429 6.0933 56.9122 6.0933 62.4629C6.0933 62.4753 6.0933 62.4877 6.0933 62.5001C6.09881 70.1124 7.59122 77.4959 10.5319 84.4481C13.3762 91.1729 17.4497 97.2142 22.6366 102.401C27.8235 107.588 33.8648 111.661 40.5896 114.506C47.5528 117.451 54.9487 118.944 62.5734 118.944C73.2517 118.944 83.649 115.95 92.6393 110.286C93.0954 109.998 93.699 110.136 93.9856 110.592C94.2736 111.048 94.1358 111.652 93.6797 111.938C84.3766 117.799 73.621 120.897 62.5734 120.897V120.894Z" fill="black"/>
<path d="M110.758 104.213C110.509 104.213 110.258 104.118 110.068 103.927C109.686 103.545 109.686 102.928 110.068 102.546L115.628 96.9855C116.01 96.6038 116.627 96.6038 117.009 96.9855C117.39 97.3672 117.39 97.9846 117.009 98.3663L111.448 103.927C111.258 104.117 111.007 104.213 110.758 104.213Z" fill="black"/>
<path d="M101.492 94.9457C101.243 94.9457 100.992 94.8506 100.802 94.6591C100.42 94.2774 100.42 93.66 100.802 93.2783L106.362 87.7179C106.744 87.3362 107.361 87.3362 107.743 87.7179C108.125 88.0996 108.125 88.717 107.743 89.0987L102.183 94.6591C101.993 94.8492 101.742 94.9457 101.492 94.9457Z" fill="black"/>
<path d="M101.121 115.329C98.1181 115.329 95.1153 114.186 92.8305 111.9C88.2596 107.329 88.2596 99.8905 92.8305 95.3182L97.8976 90.2511C98.2793 89.8694 98.8967 89.8694 99.2784 90.2511L114.478 105.451C114.86 105.833 114.86 106.45 114.478 106.832L109.411 111.899C107.125 114.185 104.124 115.327 101.121 115.327V115.329ZM98.588 92.3237L94.2113 96.7003C90.4011 100.511 90.4011 106.709 94.2113 110.519C98.0216 114.33 104.22 114.33 108.03 110.519L112.407 106.143L98.588 92.3237Z" fill="black"/>
</svg>
