<svg width="125" height="125" viewBox="0 0 125 125" fill="none" xmlns="http://www.w3.org/2000/svg">
<path d="M79.5254 49.9139C74.5493 47.4417 68.7919 46.1161 62.8539 46.0651C62.7368 46.0623 62.6197 46.0596 62.5011 46.0596H62.4984C62.4874 46.0596 62.4763 46.0596 62.4653 46.0596C62.3606 46.0596 62.2559 46.0609 62.1525 46.0637C56.2118 46.1133 50.4502 47.4404 45.4728 49.9126C40.4953 52.3847 36.528 55.8725 33.9993 59.9998C33.7182 60.46 33.8615 61.0608 34.3217 61.3433C34.782 61.6258 35.3828 61.4811 35.6653 61.0209C38.0025 57.2079 41.6956 53.9722 46.3437 51.6627C48.8517 50.4169 51.572 49.4812 54.419 48.868C51.3846 51.263 49.4333 54.9741 49.4333 59.1316C49.4333 66.3387 55.2968 72.2022 62.5039 72.2022C69.711 72.2022 75.5745 66.3387 75.5745 59.1316C75.5745 54.9754 73.6246 51.2658 70.5902 48.8694C73.4345 49.4826 76.1533 50.4183 78.6572 51.6627C83.3053 53.9722 86.9971 57.2079 89.3356 61.0209C89.5202 61.3213 89.8413 61.4867 90.1693 61.4867C90.3429 61.4867 90.5193 61.4398 90.6792 61.342C91.1394 61.0595 91.2827 60.4586 91.0016 59.9984C88.4729 55.8725 84.5042 52.3847 79.5281 49.9112L79.5254 49.9139ZM73.6191 59.1316C73.6191 65.2625 68.632 70.2496 62.5011 70.2496C56.3703 70.2496 51.3832 65.2625 51.3832 59.1316C51.3832 53.0007 56.3703 48.0136 62.4998 48.0136C62.4998 48.0136 62.5025 48.0136 62.5039 48.0136C68.6334 48.015 73.6191 53.0021 73.6191 59.1316Z" fill="black"/>
<path d="M90.6766 63.6565C90.2164 63.3754 89.6156 63.5187 89.3331 63.979C86.9959 67.792 83.3042 71.0276 78.6547 73.3372C73.8481 75.7253 68.2616 76.9862 62.4972 76.9862C56.7329 76.9862 51.1464 75.7239 46.3398 73.3372C41.6917 71.0276 37.9999 67.792 35.6614 63.979C35.3803 63.5187 34.7781 63.3754 34.3178 63.6565C33.8576 63.939 33.7143 64.5398 33.9954 65.0001C36.5241 69.1259 40.4928 72.6137 45.4689 75.0873C50.5442 77.6077 56.4311 78.9403 62.4959 78.9403C68.5606 78.9403 74.4475 77.6077 79.5228 75.0873C84.5003 72.6151 88.4677 69.1273 90.9963 65.0001C91.2775 64.5398 91.1341 63.939 90.6739 63.6565H90.6766Z" fill="black"/>
<path d="M43.2153 25.3808H81.4778C82.0166 25.3808 82.4548 24.944 82.4548 24.4038C82.4548 23.8636 82.018 23.4268 81.4778 23.4268H43.2153C42.6765 23.4268 42.2383 23.8636 42.2383 24.4038C42.2383 24.944 42.6751 25.3808 43.2153 25.3808Z" fill="black"/>
<path d="M81.4758 99.5713H43.438C42.8992 99.5713 42.4609 100.008 42.4609 100.548C42.4609 101.089 42.8978 101.525 43.438 101.525H81.4758C82.0146 101.525 82.4528 101.089 82.4528 100.548C82.4528 100.008 82.016 99.5713 81.4758 99.5713Z" fill="black"/>
<path d="M103.504 48.3506C102.966 48.3506 102.527 48.7874 102.527 49.3276V75.7101C102.527 76.2489 102.964 76.6871 103.504 76.6871C104.045 76.6871 104.481 76.2502 104.481 75.7101V49.3276C104.481 48.7888 104.045 48.3506 103.504 48.3506Z" fill="black"/>
<path d="M21.5708 48.126C21.032 48.126 20.5938 48.5628 20.5938 49.103V75.9347C20.5938 76.4735 21.0306 76.9117 21.5708 76.9117C22.111 76.9117 22.5478 76.4749 22.5478 75.9347V49.103C22.5478 48.5642 22.111 48.126 21.5708 48.126Z" fill="black"/>
<path d="M38.1869 33.8263V14.6413L21.572 5.04883L4.95703 14.6413V33.8263L21.572 43.4188L38.1869 33.8263Z" fill="#B297F2"/>
<path d="M39.0336 14.1416C38.7635 13.6744 38.1655 13.5146 37.6997 13.7847L21.5726 23.0946L5.44544 13.7847C4.97829 13.5146 4.3816 13.6744 4.11151 14.1416C3.84141 14.6087 4.00264 15.2054 4.46842 15.4755L20.5955 24.7869V43.4193C20.5955 43.9581 21.0324 44.3963 21.5726 44.3963C22.1128 44.3963 22.5496 43.9594 22.5496 43.4193V24.7855L38.6753 15.4755C39.1425 15.2054 39.3023 14.6087 39.0322 14.1416H39.0336Z" fill="black"/>
<path d="M120.011 33.8263V14.6413L103.396 5.04883L86.7812 14.6413V33.8263L103.396 43.4188L120.011 33.8263Z" fill="#B297F2"/>
<path d="M120.854 14.1416C120.584 13.6744 119.987 13.5146 119.52 13.7847L103.393 23.0946L87.2661 13.7847C86.7989 13.5146 86.2022 13.6744 85.9321 14.1416C85.662 14.6087 85.8219 15.2054 86.289 15.4755L102.416 24.7869V43.4193C102.416 43.9581 102.853 44.3963 103.393 44.3963C103.933 44.3963 104.37 43.9594 104.37 43.4193V24.7855L120.496 15.4755C120.963 15.2054 121.123 14.6087 120.853 14.1416H120.854Z" fill="black"/>
<path d="M38.1869 110.412V91.2273L21.572 81.6348L4.95703 91.2273V110.412L21.572 120.005L38.1869 110.412Z" fill="#B297F2"/>
<path d="M39.0339 90.7265C38.7638 90.2594 38.1671 90.0995 37.7 90.3696L21.5729 99.681L5.44574 90.3696C4.97859 90.0995 4.3819 90.2608 4.11181 90.7265C3.84171 91.1923 4.00156 91.7904 4.46872 92.0605L20.5958 101.372V120.004C20.5958 120.543 21.0327 120.981 21.5729 120.981C22.1131 120.981 22.5499 120.544 22.5499 120.004V101.37L38.6756 92.0605C39.1428 91.7904 39.3026 91.1937 39.0325 90.7265H39.0339Z" fill="black"/>
<path d="M120.011 110.412V91.2273L103.396 81.6348L86.7812 91.2273V110.412L103.396 120.005L120.011 110.412Z" fill="#B297F2"/>
<path d="M120.854 90.7265C120.584 90.2594 119.987 90.0995 119.52 90.3696L103.393 99.681L87.2661 90.3696C86.7989 90.0995 86.2022 90.2608 85.9321 90.7265C85.662 91.1937 85.8219 91.7904 86.289 92.0605L102.416 101.372V120.004C102.416 120.543 102.853 120.981 103.393 120.981C103.933 120.981 104.37 120.544 104.37 120.004V101.37L120.496 92.0605C120.963 91.7904 121.123 91.1937 120.853 90.7265H120.854Z" fill="black"/>
</svg>
