<svg width="125" height="125" viewBox="0 0 125 125" fill="none" xmlns="http://www.w3.org/2000/svg">
<path d="M62.5009 115.695C55.3213 115.695 48.354 114.288 41.7932 111.513C35.4584 108.834 29.7699 104.999 24.8861 100.114C20.0024 95.2286 16.1673 89.5415 13.487 83.2066C10.7117 76.6458 9.30469 69.6785 9.30469 62.4989C9.30469 55.3194 10.7117 48.3521 13.487 41.7912C16.1659 35.4564 20.001 29.7679 24.8861 24.8842C29.7712 20.0004 35.4584 16.1653 41.7932 13.4851C48.354 10.7097 55.3213 9.30273 62.5009 9.30273C69.6804 9.30273 76.6478 10.7097 83.2086 13.4851C89.5434 16.164 95.2319 19.999 100.116 24.8842C104.999 29.7693 108.834 35.4564 111.515 41.7912C114.29 48.3521 115.697 55.3194 115.697 62.4989C115.697 69.6785 114.29 76.6458 111.515 83.2066C108.836 89.5415 105.001 95.23 100.116 100.114C95.2306 104.997 89.5434 108.833 83.2086 111.513C76.6478 114.288 69.6804 115.695 62.5009 115.695ZM62.5009 17.5723C50.501 17.5723 39.2176 22.2452 30.7317 30.7311C22.2458 39.2171 17.5729 50.499 17.5729 62.4989C17.5729 74.4989 22.2458 85.7822 30.7317 94.2681C39.2176 102.754 50.4996 107.427 62.5009 107.427C74.5022 107.427 85.7841 102.754 94.2701 94.2681C102.756 85.7822 107.429 74.5002 107.429 62.4989C107.429 50.4977 102.756 39.2157 94.2701 30.7311C85.7841 22.2466 74.5022 17.5723 62.5009 17.5723Z" fill="#B297F2"/>
<path d="M62.4983 23.9101C62.2227 23.9101 61.9582 23.8013 61.7639 23.6056L52.8631 14.7049C52.6688 14.5106 52.5586 14.246 52.5586 13.9704C52.5586 13.6948 52.6675 13.4302 52.8631 13.2359L61.7639 4.33516C62.169 3.92864 62.8277 3.92864 63.2328 4.33516L72.1336 13.2359C72.3279 13.4302 72.4381 13.6948 72.4381 13.9704C72.4381 14.246 72.3292 14.5106 72.1336 14.7049L63.2328 23.6056C63.0385 23.7999 62.774 23.9101 62.4983 23.9101ZM55.068 13.9704L62.4997 21.4021L69.9315 13.9704L62.4997 6.53864L55.068 13.9704Z" fill="black"/>
<path d="M87.0296 29.3385C86.7636 29.3385 86.4977 29.2365 86.2951 29.0339L77.3944 20.1332C77.2001 19.9389 77.0898 19.6743 77.0898 19.3987C77.0898 19.1231 77.1987 18.8585 77.3944 18.6642L86.2951 9.76353C86.4894 9.56923 86.754 9.45898 87.0296 9.45898C87.3052 9.45898 87.5698 9.56785 87.7641 9.76353L96.6648 18.6642C96.8591 18.8585 96.9693 19.1231 96.9693 19.3987C96.9693 19.6743 96.8605 19.9389 96.6648 20.1332L87.7641 29.0339C87.5615 29.2365 87.2956 29.3385 87.0296 29.3385ZM79.5992 19.3987L87.031 26.8305L94.4627 19.3987L87.031 11.967L79.5992 19.3987Z" fill="black"/>
<path d="M37.7015 29.3385C37.4355 29.3385 37.1695 29.2365 36.967 29.0339L28.0663 20.1332C27.872 19.9389 27.7617 19.6743 27.7617 19.3987C27.7617 19.1231 27.8706 18.8585 28.0663 18.6642L36.967 9.76353C37.1613 9.56923 37.4259 9.45898 37.7015 9.45898C37.9771 9.45898 38.2417 9.56785 38.436 9.76353L47.3367 18.6642C47.531 18.8585 47.6412 19.1231 47.6412 19.3987C47.6412 19.6743 47.5324 19.9389 47.3367 20.1332L38.436 29.0339C38.2334 29.2365 37.9674 29.3385 37.7015 29.3385ZM30.2711 19.3987L37.7028 26.8305L45.1346 19.3987L37.7028 11.967L30.2711 19.3987Z" fill="black"/>
<path d="M87.0296 115.38C86.7636 115.38 86.4977 115.278 86.2951 115.075L77.3944 106.174C77.2001 105.98 77.0898 105.715 77.0898 105.44C77.0898 105.164 77.1987 104.9 77.3944 104.705L86.2951 95.8045C86.4894 95.6102 86.754 95.5 87.0296 95.5C87.3052 95.5 87.5698 95.6089 87.7641 95.8045L96.6648 104.705C96.8591 104.9 96.9693 105.164 96.9693 105.44C96.9693 105.715 96.8605 105.98 96.6648 106.174L87.7641 115.075C87.5615 115.278 87.2956 115.38 87.0296 115.38ZM79.5992 105.441L87.031 112.873L94.4627 105.441L87.031 98.0094L79.5992 105.441Z" fill="black"/>
<path d="M37.7015 115.38C37.4355 115.38 37.1695 115.278 36.967 115.075L28.0663 106.174C27.872 105.98 27.7617 105.715 27.7617 105.44C27.7617 105.164 27.8706 104.9 28.0663 104.705L36.967 95.8045C37.1613 95.6102 37.4259 95.5 37.7015 95.5C37.9771 95.5 38.2417 95.6089 38.436 95.8045L47.3367 104.705C47.531 104.9 47.6412 105.164 47.6412 105.44C47.6412 105.715 47.5324 105.98 47.3367 106.174L38.436 115.075C38.2334 115.278 37.9674 115.38 37.7015 115.38ZM30.2711 105.441L37.7028 112.873L45.1346 105.441L37.7028 98.0094L30.2711 105.441Z" fill="black"/>
<path d="M111.17 72.4391C110.904 72.4391 110.638 72.3371 110.436 72.1345L101.535 63.2338C101.341 63.0395 101.23 62.7749 101.23 62.4993C101.23 62.2237 101.339 61.9591 101.535 61.7648L110.436 52.8641C110.63 52.6698 110.895 52.5596 111.17 52.5596C111.446 52.5596 111.71 52.6684 111.905 52.8641L120.805 61.7648C121 61.9591 121.11 62.2237 121.11 62.4993C121.11 62.7749 121.001 63.0395 120.805 63.2338L111.905 72.1345C111.702 72.3371 111.436 72.4391 111.17 72.4391ZM103.74 62.4993L111.172 69.9311L118.603 62.4993L111.172 55.0676L103.74 62.4993Z" fill="black"/>
<path d="M13.8655 72.4391C13.5996 72.4391 13.3336 72.3371 13.131 72.1345L4.23033 63.2338C4.03602 63.0395 3.92578 62.7749 3.92578 62.4993C3.92578 62.2237 4.03465 61.9591 4.23033 61.7648L13.131 52.8641C13.3253 52.6698 13.5899 52.5596 13.8655 52.5596C14.1411 52.5596 14.4057 52.6684 14.6 52.8641L23.5007 61.7648C23.695 61.9591 23.8053 62.2237 23.8053 62.4993C23.8053 62.7749 23.6964 63.0395 23.5007 63.2338L14.6 72.1345C14.3975 72.3371 14.1315 72.4391 13.8655 72.4391ZM6.4338 62.4993L13.8655 69.9311L21.2973 62.4993L13.8655 55.0676L6.4338 62.4993Z" fill="black"/>
<path d="M105.15 48.0055C104.874 48.0055 104.61 47.8966 104.416 47.7009L95.5148 38.8002C95.1097 38.3951 95.1097 37.7364 95.5148 37.3312L104.416 28.4305C104.61 28.2362 104.874 28.126 105.15 28.126C105.426 28.126 105.69 28.2348 105.884 28.4305L114.785 37.3312C115.19 37.7364 115.19 38.3951 114.785 38.8002L105.884 47.7009C105.69 47.8952 105.426 48.0055 105.15 48.0055ZM97.7183 38.0671L105.15 45.4988L112.582 38.0671L105.15 30.6354L97.7183 38.0671Z" fill="black"/>
<path d="M20.0055 48.0055C19.7299 48.0055 19.4653 47.8966 19.271 47.7009L10.3703 38.8002C9.96512 38.3951 9.96512 37.7364 10.3703 37.3312L19.271 28.4305C19.4653 28.2362 19.7299 28.126 20.0055 28.126C20.2811 28.126 20.5457 28.2348 20.74 28.4305L29.6407 37.3312C30.0458 37.7364 30.0458 38.3951 29.6407 38.8002L20.74 47.7009C20.5457 47.8952 20.2811 48.0055 20.0055 48.0055ZM12.5751 38.0671L20.0068 45.4988L27.4386 38.0671L20.0068 30.6354L12.5751 38.0671Z" fill="black"/>
<path d="M105.151 96.5976C104.875 96.5976 104.611 96.4888 104.416 96.2931L95.5155 87.3924C95.3212 87.1981 95.2109 86.9335 95.2109 86.6579C95.2109 86.3823 95.3198 86.1177 95.5155 85.9234L104.416 77.0227C104.821 76.6161 105.48 76.6161 105.885 77.0227L114.786 85.9234C114.98 86.1177 115.09 86.3823 115.09 86.6579C115.09 86.9335 114.982 87.1981 114.786 87.3924L105.885 96.2931C105.691 96.4874 105.426 96.5976 105.151 96.5976ZM97.719 86.6579L105.151 94.0896L112.582 86.6579L105.151 79.2261L97.719 86.6579Z" fill="black"/>
<path d="M20.0023 96.5976C19.7266 96.5976 19.4621 96.4888 19.2678 96.2931L10.367 87.3924C10.1727 87.1981 10.0625 86.9335 10.0625 86.6579C10.0625 86.3823 10.1714 86.1177 10.367 85.9234L19.2678 77.0227C19.6729 76.6161 20.3316 76.6161 20.7367 77.0227L29.6375 85.9234C29.8318 86.1177 29.942 86.3823 29.942 86.6579C29.942 86.9335 29.8331 87.1981 29.6375 87.3924L20.7367 96.2931C20.5424 96.4874 20.2779 96.5976 20.0023 96.5976ZM12.5719 86.6579L20.0036 94.0896L27.4354 86.6579L20.0036 79.2261L12.5719 86.6579Z" fill="black"/>
<path d="M62.4983 121.104C62.2324 121.104 61.9664 121.002 61.7639 120.8L52.8631 111.899C52.6688 111.705 52.5586 111.44 52.5586 111.164C52.5586 110.889 52.6675 110.624 52.8631 110.43L61.7639 101.529C61.9582 101.335 62.2227 101.225 62.4983 101.225C62.774 101.225 63.0385 101.333 63.2328 101.529L72.1336 110.43C72.3279 110.624 72.4381 110.889 72.4381 111.164C72.4381 111.44 72.3292 111.705 72.1336 111.899L63.2328 120.8C63.0303 121.002 62.7643 121.104 62.4983 121.104ZM55.068 111.164L62.4997 118.596L69.9315 111.164L62.4997 103.733L55.068 111.164Z" fill="black"/>
</svg>
