<svg width="125" height="125" viewBox="0 0 125 125" fill="none" xmlns="http://www.w3.org/2000/svg">
<path d="M41.3212 71.3575V50.6016L23.3462 40.2236L5.37109 50.6016V71.3575L23.3462 81.7355L41.3212 71.3575Z" fill="#B297F2"/>
<path d="M108.187 39.1388V17.7834L89.6924 7.10645L71.1992 17.7834V39.1388L89.6924 49.8158L108.187 39.1388Z" fill="#B297F2"/>
<path d="M105.462 109.423V88.0676L86.9672 77.3906L68.4727 88.0676V109.423L86.9672 120.101L105.462 109.423Z" fill="#B297F2"/>
<path d="M67.1547 13.5237C66.5139 13.0786 65.8469 12.6624 65.1179 12.2518L65.0904 12.2366C57.3541 7.90272 46.7377 8.68406 37.3836 14.2747C33.1035 16.8338 29.6377 19.9688 27.0828 23.593C24.5169 27.2324 22.9956 31.1846 22.5601 35.3407C22.5036 35.8768 22.8936 36.3577 23.4297 36.4142C23.4641 36.4184 23.4986 36.4197 23.533 36.4197C24.0264 36.4197 24.4508 36.0463 24.5032 35.5447C24.9042 31.7248 26.3084 28.0826 28.68 24.7189C31.0764 21.3192 34.3423 18.3703 38.3868 15.9518C47.1415 10.7194 57.0096 9.94772 64.1409 13.9426L64.1629 13.955C64.8382 14.3354 65.4542 14.7185 66.044 15.1277C66.4863 15.435 67.0954 15.3262 67.4027 14.8825C67.71 14.4401 67.6011 13.831 67.1574 13.5237H67.1547Z" fill="black"/>
<path d="M63.2871 110.267C56.3322 113.402 46.7962 112.603 38.991 108.232C30.5726 103.518 24.7063 95.011 24.3935 87.0666C24.3729 86.5278 23.9236 86.1103 23.3793 86.1295C22.8405 86.1502 22.4202 86.605 22.4422 87.1438C22.7812 95.7427 29.0471 104.902 38.0374 109.936C42.9584 112.693 48.5436 114.109 53.8366 114.109C57.4994 114.109 61.023 113.431 64.0905 112.048C64.5825 111.826 64.8016 111.248 64.5797 110.756C64.3579 110.264 63.7805 110.045 63.2885 110.267H63.2871Z" fill="black"/>
<path d="M120.022 60.9395C119.91 52.9676 117.161 45.489 112.481 40.422C112.115 40.0265 111.497 40.0017 111.102 40.3669C110.705 40.7334 110.681 41.3508 111.047 41.7463C115.404 46.4633 117.964 53.4692 118.069 60.9657C118.2 70.2991 115.004 78.0588 109.069 82.8131C108.649 83.1507 108.58 83.7653 108.918 84.1856C109.11 84.4267 109.394 84.5521 109.681 84.5521C109.895 84.5521 110.111 84.4818 110.291 84.3372C113.472 81.7892 115.934 78.4488 117.612 74.4112C119.282 70.3887 120.093 65.855 120.024 60.9368L120.022 60.9395Z" fill="black"/>
<path d="M23.3484 82.7121C23.8872 82.7121 24.3254 82.2753 24.3254 81.7351V61.529L41.8113 51.4335C42.2785 51.1634 42.4383 50.5667 42.1682 50.0996C41.8981 49.6324 41.3014 49.4726 40.8343 49.7427L23.347 59.8381L5.8598 49.7427C5.39265 49.4726 4.79596 49.6324 4.52587 50.0996C4.25577 50.5667 4.41563 51.1634 4.88278 51.4335L22.37 61.5304V81.7351C22.37 82.2739 22.8069 82.7121 23.347 82.7121H23.3484Z" fill="black"/>
<path d="M109.033 17.2822C108.763 16.815 108.166 16.6552 107.699 16.9253L89.6933 27.3212L71.6879 16.9253C71.2208 16.6552 70.6241 16.815 70.354 17.2822C70.0839 17.7493 70.2438 18.346 70.7109 18.6161L88.7177 29.012V49.8162C88.7177 50.355 89.1545 50.7932 89.6947 50.7932C90.2349 50.7932 90.6717 50.3564 90.6717 49.8162V29.0106L108.676 18.6161C109.143 18.346 109.303 17.7493 109.033 17.2822Z" fill="black"/>
<path d="M104.972 87.2085L86.9667 97.6044L68.9614 87.2085C68.4942 86.9384 67.8975 87.0982 67.6274 87.5654C67.3573 88.0326 67.5172 88.6292 67.9843 88.8993L85.9911 99.2952V120.099C85.9911 120.638 86.4279 121.076 86.9681 121.076C87.5083 121.076 87.9452 120.64 87.9452 120.099V99.2938L105.951 88.8993C106.418 88.6292 106.578 88.0326 106.307 87.5654C106.037 87.0982 105.441 86.9384 104.974 87.2085H104.972Z" fill="black"/>
</svg>
