<svg width="125" height="125" viewBox="0 0 125 125" fill="none" xmlns="http://www.w3.org/2000/svg">
<path d="M62.4991 121.086C77.4297 121.086 89.5333 94.8559 89.5333 62.4992C89.5333 30.1424 77.4297 3.91211 62.4991 3.91211C47.5685 3.91211 35.4648 30.1424 35.4648 62.4992C35.4648 94.8559 47.5685 121.086 62.4991 121.086Z" fill="#B297F2"/>
<path d="M88.3032 40.2787C80.5407 40.2787 74.2266 46.4923 74.2266 54.1293V79.0745C74.2266 79.6133 74.6634 80.0515 75.2036 80.0515H101.374C101.913 80.0515 102.351 79.6147 102.351 79.0745V60.5882C102.369 60.5138 102.38 60.4352 102.38 60.3539V54.128C102.38 46.4909 96.0656 40.2773 88.3032 40.2773V40.2787ZM100.397 78.0988H76.1792V61.3323H100.397V78.0988ZM100.426 59.3796H76.1792V54.1307C76.1792 47.5699 81.6183 42.2328 88.3032 42.2328C94.988 42.2328 100.427 47.5699 100.427 54.1307V59.3796H100.426Z" fill="black"/>
<path d="M88.3238 73.0728C90.6651 73.0728 92.5696 71.1931 92.5696 68.8836C92.5696 66.574 90.6651 64.6943 88.3238 64.6943C85.9826 64.6943 84.0781 66.574 84.0781 68.8836C84.0781 71.1931 85.9826 73.0728 88.3238 73.0728ZM88.3238 66.6456C89.5875 66.6456 90.6169 67.6488 90.6169 68.8822C90.6169 70.1155 89.5889 71.1187 88.3238 71.1187C87.0588 71.1187 86.0308 70.1155 86.0308 68.8822C86.0308 67.6488 87.0588 66.6456 88.3238 66.6456Z" fill="black"/>
<path d="M38.7236 62.3012C29.324 62.3012 21.5078 69.6433 20.9277 79.0153C20.8946 79.5542 21.3039 80.0172 21.8427 80.0503C21.8633 80.0503 21.884 80.0516 21.9033 80.0516C22.4146 80.0516 22.8445 79.6534 22.8776 79.1352C23.393 70.7912 30.3534 64.2539 38.7236 64.2539C47.0937 64.2539 54.0459 70.7844 54.5696 79.1201C54.6026 79.6589 55.067 80.0654 55.6059 80.0337C56.1447 80.0006 56.5526 79.5362 56.5195 78.9974C55.9324 69.6337 48.1162 62.2998 38.7249 62.2998L38.7236 62.3012Z" fill="black"/>
<path d="M38.9561 58.0597C43.8578 58.0597 47.8458 54.0716 47.8458 49.17C47.8458 44.2683 43.8578 40.2803 38.9561 40.2803C34.0544 40.2803 30.0664 44.2683 30.0664 49.17C30.0664 54.0716 34.0544 58.0597 38.9561 58.0597ZM38.9561 42.2329C42.7815 42.2329 45.8931 45.3445 45.8931 49.17C45.8931 52.9954 42.7815 56.107 38.9561 56.107C35.1307 56.107 32.0191 52.9954 32.0191 49.17C32.0191 45.3445 35.1307 42.2329 38.9561 42.2329Z" fill="black"/>
<path d="M110.02 35.7914C102.886 28.6573 93.4008 24.7285 83.3122 24.7285C75.7992 24.7285 68.5962 26.9361 62.4942 30.9738C56.3151 26.8865 49.1342 24.7285 41.6846 24.7285C31.596 24.7285 22.111 28.6573 14.9769 35.7914C7.84283 42.9254 3.91406 52.4104 3.91406 62.499C3.91406 72.5876 7.84283 82.0726 14.9769 89.2067C22.111 96.3408 31.596 100.27 41.6846 100.27C49.199 100.27 56.4006 98.0619 62.5025 94.0243C68.6816 98.1115 75.8625 100.27 83.3108 100.27C93.3994 100.27 102.884 96.3408 110.018 89.2067C117.153 82.0726 121.081 72.5876 121.081 62.499C121.081 52.4104 117.153 42.9254 110.018 35.7914H110.02ZM108.639 87.8273C101.874 94.592 92.8785 98.3182 83.3122 98.3182C76.5075 98.3182 69.937 96.4193 64.2264 92.8144C66.6807 90.9843 68.9324 88.8443 70.9209 86.4162C71.2627 85.9986 71.202 85.384 70.7845 85.0423C70.3669 84.7005 69.7523 84.7611 69.4106 85.1787C62.5714 93.5282 52.4663 98.3169 41.6859 98.3169C32.1183 98.3169 23.1238 94.5907 16.3591 87.8259C9.59431 81.0611 5.86811 72.0667 5.86811 62.499C5.86811 52.9313 9.59431 43.9369 16.3591 37.1722C23.1238 30.4074 32.1183 26.6812 41.6859 26.6812C48.4921 26.6812 55.0625 28.5801 60.7717 32.1837C58.3161 34.0137 56.0657 36.1538 54.0772 38.5819C53.7355 38.9994 53.7961 39.614 54.2136 39.9558C54.6312 40.2975 55.2458 40.2369 55.5875 39.8194C62.4267 31.4699 72.5318 26.6812 83.3122 26.6812C92.8799 26.6812 101.874 30.4074 108.639 37.1722C115.404 43.9369 119.13 52.9327 119.13 62.499C119.13 72.0653 115.404 81.0611 108.639 87.8259V87.8273Z" fill="black"/>
</svg>
