<svg width="113" height="108" viewBox="0 0 113 108" fill="none" xmlns="http://www.w3.org/2000/svg">
<path d="M29.032 102.86C19.986 97.8 13.677 88.62 13.341 80.02C13.219 76.89 14.048 73.1701 14.8 70.9301C16.019 67.2901 18.05 60.28 17.971 54.16C17.886 47.76 15.714 40.98 14.426 37.51C13.501 35.02 12.584 31.26 12.615 28.48C12.716 19.33 18.201 10.8401 27.662 5.18006C37.076 -0.43994 47.719 -1.25004 55.445 3.07996C55.455 3.08996 55.464 3.08997 55.473 3.08997C58.497 4.79997 60.374 6.57001 62.42 8.88001C64.941 11.73 69.964 16.96 75.257 19.92C80.808 23.03 87.723 24.53 91.351 25.15C94.044 25.61 96.722 26.18 99.919 27.98C107.673 32.38 112.59 41.9 112.744 52.83C112.901 63.95 108.544 73.09 100.796 77.91C98.725 79.2 95.192 80.52 92.209 81.11C88.581 81.82 81.679 83.5201 76.191 86.8001C70.907 89.9501 65.925 95.62 63.533 98.35C61.835 100.28 59.516 102.71 56.64 104.3C49.108 108.47 38.016 107.89 29.035 102.86H29.032ZM50.422 12.08C46.031 9.61996 39.003 10.41 32.927 14.04C26.615 17.81 22.96 23.12 22.9 28.59C22.89 29.45 23.299 31.84 24.066 33.91C25.92 38.91 28.155 46.46 28.256 54.02C28.353 61.28 26.295 69.01 24.55 74.21C24.047 75.71 23.563 78.14 23.62 79.61C23.814 84.59 28.202 90.58 34.049 93.85C39.949 97.16 47.191 97.74 51.661 95.26C53.163 94.43 54.744 92.73 55.803 91.53C58.544 88.41 64.246 81.9201 70.916 77.9301C77.394 74.0601 84.985 72.01 90.213 70.98C92.29 70.57 94.579 69.63 95.364 69.14C99.972 66.28 102.553 60.38 102.449 52.97C102.349 45.8 99.366 39.51 94.849 36.95C93.23 36.03 91.929 35.7001 89.625 35.3101C84.394 34.4201 76.788 32.59 70.231 28.92C63.944 25.4 58.324 19.8 54.716 15.72C53.22 14.03 52.245 13.1 50.435 12.09L50.422 12.08Z" fill="black"/>
<path d="M100.256 78.87C100.265 76.43 99.53 72.73 98.467 69.87C97.175 66.4 94.997 59.62 94.906 53.21C94.818 47.05 97.028 39.82 98.09 36.35C98.844 33.89 99.687 30.64 99.533 27.35C99.168 19.63 94.063 11.46 86.542 6.22998C86.108 5.92998 85.508 6.06003 85.25 6.53003L81.076 14.01C80.859 14.4 80.959 14.89 81.318 15.16C85.897 18.56 89.047 23.47 89.251 27.83C89.333 29.55 88.717 31.79 88.248 33.33C87.032 37.3 84.505 45.57 84.615 53.35C84.722 60.91 86.963 68.46 88.824 73.47C89.562 75.46 89.968 77.9 89.965 78.83C89.946 83.46 87.29 87.9899 82.578 91.5699C82.22 91.8499 82.125 92.35 82.358 92.74L86.749 100.09C87.019 100.54 87.614 100.66 88.041 100.35C95.814 94.75 100.224 87.07 100.256 78.87Z" fill="#A0A0A0"/>
<path d="M92.206 81.11C91.382 81.27 90.386 81.48 89.276 81.75C89.521 80.78 89.65 79.8 89.653 78.83C89.656 77.93 89.26 75.54 88.534 73.58C88.28 72.9 88.035 72.2 87.799 71.51C88.644 71.31 89.458 71.14 90.216 70.99C92.294 70.58 94.582 69.64 95.368 69.15C96.273 68.58 97.1 67.9 97.845 67.11C98.184 68.16 98.505 69.06 98.766 69.76C99.727 72.35 100.422 75.6201 100.551 78.0601C98.454 79.3001 95.079 80.54 92.209 81.11H92.206Z" fill="black"/>
<path d="M9.67701 52.06C10.129 52.05 10.506 51.71 10.55 51.26C11.129 45.38 13.59 40.72 17.532 38.23C18.258 37.77 20.502 36.8699 22.658 36.4399C27.882 35.3999 35.467 33.35 41.939 29.48C48.163 25.75 53.651 19.94 57.159 15.73C58.171 14.51 59.978 12.83 61.254 12.11C64.948 10.02 70.857 10.16 76.141 12.26C76.553 12.43 77.021 12.25 77.235 11.87L81.412 4.36997C81.67 3.90997 81.469 3.32997 80.985 3.11997C72.545 -0.590031 62.923 -0.660031 56.213 3.11997C53.49 4.64997 50.765 7.30997 49.257 9.11997C46.805 12.07 41.908 17.48 36.665 20.62C31.183 23.9 24.283 25.5999 20.659 26.3199C18.06 26.8399 14.388 28.02 12.043 29.5C5.11901 33.88 0.916003 41.6699 0.228003 51.1999C0.190003 51.7199 0.60502 52.17 1.12702 52.16L9.67301 52.06H9.67701Z" fill="#A0A0A0"/>
<path d="M78.59 95.02C78.357 94.63 77.873 94.48 77.461 94.66C72.001 97.17 66.281 97.45 62.342 95.26C60.714 94.36 59.752 93.42 58.212 91.66C54.717 87.67 49.172 82.13 42.618 78.46C36.065 74.78 28.628 73.07 23.272 72.13C21.049 71.74 19.754 71.39 17.937 70.38L17.925 70.37C14.128 68.24 11.362 63.16 10.617 57.24C10.56 56.79 10.174 56.46 9.72399 56.46L1.17098 56.5699C0.645984 56.5699 0.244001 57.03 0.294001 57.55C1.212 67.25 5.88899 75.45 12.905 79.38L12.93 79.39C15.96 81.08 18.453 81.75 21.489 82.29C25.233 82.95 32.302 84.5 37.595 87.46C43.146 90.57 48.044 95.69 50.47 98.47C52.249 100.5 54.11 102.47 57.256 104.24C57.294 104.26 57.329 104.28 57.366 104.3C64.454 108.22 73.906 107.92 82.604 103.64C83.075 103.4 83.251 102.82 82.981 102.37L78.59 95.02Z" fill="#A0A0A0"/>
<path d="M61.408 12.38C60.164 13.08 58.394 14.7401 57.401 15.9301C57.005 16.4001 56.599 16.88 56.191 17.35C55.669 16.78 55.178 16.24 54.716 15.72C53.22 14.03 52.246 13.1 50.435 12.09C50.432 12.09 50.426 12.08 50.423 12.08C49.48 11.55 48.414 11.1799 47.264 10.9399C47.867 10.2699 48.461 9.58004 49.014 8.92004C50.445 7.20004 52.966 4.72001 55.549 3.14001C58.526 4.82001 60.387 6.59 62.414 8.88C63.011 9.55 63.75 10.36 64.599 11.24C63.404 11.48 62.323 11.86 61.408 12.38Z" fill="black"/>
<path d="M24.554 74.21C24.052 75.71 23.568 78.14 23.624 79.61C23.668 80.76 23.942 81.9701 24.404 83.1801C23.256 82.9401 22.241 82.74 21.44 82.6C18.557 82.09 16.162 81.46 13.342 79.97C13.229 76.85 14.056 73.1601 14.801 70.9301C15.062 70.1501 15.357 69.2199 15.662 68.1899C16.413 68.9799 17.224 69.62 18.083 70.1C19.871 71.1 21.144 71.4399 23.329 71.8199C23.96 71.9299 24.589 72.0501 25.211 72.1801C24.991 72.8901 24.771 73.58 24.558 74.22L24.554 74.21Z" fill="black"/>
</svg>
