<svg width="372" height="51" viewBox="0 0 372 51" fill="none" xmlns="http://www.w3.org/2000/svg">
<path d="M59.5078 11.6876H67.8701V48.1974H59.5078V11.6876Z" fill="white"/>
<path d="M80.1325 47.6298C77.6279 46.5437 75.6675 45.0312 74.25 43.0923C72.8326 41.1547 72.0991 38.9332 72.0525 36.4279H80.5574C80.7453 38.3189 81.5966 39.8314 83.1086 40.9654C84.6207 42.0995 86.5811 42.6672 88.9911 42.6672C91.1173 42.6672 92.8062 42.2311 94.0578 41.3562C95.3094 40.4827 95.9359 39.2898 95.9359 37.7759C95.9359 36.5952 95.5932 35.697 94.9078 35.0814C94.2223 34.467 93.0763 34.0186 91.471 33.7348L83.0374 32.3882C79.7774 31.8685 77.3194 30.7468 75.6662 29.0204C74.0115 27.2953 73.1862 25.0396 73.1862 22.2505C73.1862 19.9358 73.8237 17.9022 75.1 16.1538C76.3763 14.4055 78.1707 13.0466 80.4862 12.0771C82.8002 11.109 85.4707 10.6235 88.4948 10.6235C93.1722 10.6235 96.9284 11.7219 99.7634 13.92C102.598 16.1182 104.087 19.0842 104.228 22.8168H95.7234C95.5822 21.0684 94.8379 19.6739 93.4903 18.6344C92.1441 17.595 90.3825 17.0753 88.2097 17.0753C86.178 17.0753 84.5714 17.5004 83.3897 18.352C82.208 19.2021 81.6185 20.3142 81.6185 21.6841C81.6185 22.7715 81.9722 23.6108 82.6809 24.2004C83.3897 24.7914 84.57 25.2288 86.2246 25.5113L94.8708 26.8579C97.9895 27.331 100.352 28.4527 101.958 30.2257C103.563 31.9988 104.368 34.3025 104.368 37.1382C104.368 40.7776 102.938 43.708 100.08 45.9294C97.2204 48.1508 93.4053 49.2616 88.6346 49.2616C85.4679 49.2616 82.6343 48.7172 80.1297 47.6311L80.1325 47.6298Z" fill="white"/>
<path d="M121.512 47.7724C119.386 46.7796 117.732 45.3384 116.551 43.4474V48.1975H108.543V1.85571H116.905V16.0825C118.039 14.3342 119.644 12.9876 121.725 12.0414C123.803 11.0966 125.929 10.6236 128.104 10.6236C131.647 10.6236 134.718 11.4395 137.317 13.0699C139.915 14.7003 141.9 16.9698 143.271 19.8755C144.64 22.7825 145.326 26.1257 145.326 29.9076C145.326 33.6895 144.628 37.045 143.235 39.974C141.841 42.9058 139.845 45.1848 137.246 46.8152C134.647 48.4457 131.647 49.2616 128.245 49.2616C125.881 49.2616 123.639 48.7652 121.512 47.7724ZM134.164 38.5561C135.982 36.4773 136.892 33.5935 136.892 29.9076C136.892 26.2217 135.982 23.3502 134.164 21.2933C132.345 19.2378 129.851 18.2094 126.687 18.2094C123.524 18.2094 121.194 19.2611 119.281 21.3646C117.367 23.4682 116.41 26.3163 116.41 29.9076C116.41 33.4989 117.367 36.4773 119.281 38.5561C121.194 40.6363 123.662 41.6758 126.687 41.6758C129.713 41.6758 132.345 40.6363 134.164 38.5561Z" fill="white"/>
<path d="M158.323 46.8509C155.512 45.2451 153.338 42.9757 151.804 40.0453C150.268 37.1149 149.5 33.6895 149.5 29.7663C149.5 25.8431 150.268 22.7125 151.804 19.8055C153.339 16.8984 155.488 14.6427 158.253 13.0356C161.017 11.4298 164.172 10.6249 167.715 10.6249C171.259 10.6249 174.483 11.3585 177.247 12.823C180.011 14.2889 182.16 16.3677 183.697 19.0622C185.232 21.7568 186 24.8517 186 28.3498V28.491C186 30.1461 185.905 31.5394 185.716 32.6734H158.005C158.193 35.6984 159.198 38.0858 161.017 39.8341C162.835 41.5838 165.257 42.4573 168.281 42.4573C170.502 42.4573 172.357 41.9856 173.844 41.0394C175.333 40.0947 176.36 38.7714 176.928 37.0696H185.432C184.487 40.8982 182.503 43.8876 179.479 46.0377C176.455 48.1892 172.675 49.2629 168.139 49.2629C164.406 49.2629 161.134 48.4593 158.323 46.8522V46.8509ZM174.694 19.7684C172.923 18.1147 170.619 17.2865 167.784 17.2865C164.949 17.2865 162.787 18.09 161.016 19.6971C159.245 21.3043 158.24 23.5257 158.004 26.3615H177.422C177.374 23.6203 176.466 21.4236 174.694 19.7684Z" fill="white"/>
<path d="M12.561 46.3723C8.61562 44.1673 5.86427 40.1714 5.71759 36.4293C5.66412 35.069 6.02603 33.4482 6.35367 32.4746C6.88557 30.8907 7.77116 27.837 7.73689 25.174C7.69987 22.3876 6.7526 19.438 6.19054 17.9268C5.7875 16.8436 5.38721 15.209 5.40092 13.9996C5.44478 10.016 7.83696 6.3205 11.9633 3.85908C16.0691 1.41001 20.7109 1.05896 24.0805 2.94308C24.0846 2.94582 24.0887 2.94719 24.0928 2.94994C25.4116 3.69042 26.23 4.46244 27.1224 5.46894C28.2219 6.70993 30.4125 8.98348 32.7211 10.2738C35.1421 11.6273 38.158 12.28 39.74 12.5488C40.9148 12.7476 42.0828 12.9958 43.477 13.7802C46.8589 15.6944 49.003 19.8384 49.0702 24.5967C49.1387 29.4358 47.2387 33.4152 43.8595 35.5133C42.9561 36.0741 41.4152 36.6459 40.1142 36.9024C38.5322 37.215 35.5218 37.9514 33.1282 39.3789C30.8238 40.7529 28.651 43.2211 27.6077 44.4073C26.8675 45.2492 25.8558 46.3037 24.6014 46.9962C21.3168 48.8104 16.479 48.5594 12.5624 46.3709L12.561 46.3723ZM21.8912 6.86214C19.9761 5.79119 16.9108 6.134 14.2609 7.71507C11.5082 9.35647 9.91384 11.6657 9.88779 14.0489C9.88368 14.4233 10.0619 15.4627 10.3964 16.3622C11.2052 18.5398 12.1799 21.8253 12.2238 25.1136C12.2663 28.2758 11.3683 31.6381 10.6075 33.9034C10.3882 34.5561 10.177 35.6134 10.2017 36.251C10.2867 38.419 12.2005 41.0271 14.7503 42.4519C17.3234 43.8903 20.4819 44.1426 22.4313 43.0662C23.0866 42.7042 23.7761 41.9651 24.2381 41.4399C25.4335 40.0823 27.9203 37.2561 30.8293 35.5215C33.6547 33.8362 36.9653 32.9463 39.2451 32.4965C40.1512 32.3182 41.1492 31.911 41.492 31.6971C43.5017 30.4492 44.6272 27.8836 44.5819 24.6584C44.5381 21.5374 43.2371 18.8003 41.2671 17.6855C40.5611 17.2851 39.9936 17.1425 38.9887 16.9724C36.7076 16.5858 33.3901 15.7891 30.5304 14.1915C27.6708 12.594 25.3376 10.2217 23.7638 8.44732C23.1113 7.71095 22.6863 7.3078 21.8967 6.86488L21.8912 6.86214Z" fill="white"/>
<path d="M43.6251 35.9328C43.6292 34.8687 43.3084 33.2575 42.8451 32.0138C42.2816 30.5026 41.3316 27.5517 41.2919 24.7639C41.2535 22.0804 42.2172 18.9361 42.6806 17.4249C43.0096 16.3526 43.377 14.9388 43.3098 13.5072C43.1508 10.1463 40.9245 6.59196 37.644 4.31567C37.4548 4.18403 37.1929 4.24299 37.0805 4.44457L35.26 7.70268C35.1654 7.87272 35.2093 8.08663 35.3656 8.20182C37.3629 9.68278 38.7365 11.8206 38.8257 13.717C38.8613 14.4657 38.5926 15.4407 38.3883 16.1085C37.8578 17.839 36.7556 21.4386 36.8036 24.8256C36.8502 28.1153 37.8277 31.4022 38.6392 33.5797C38.9614 34.445 39.1382 35.5091 39.1368 35.9136C39.1286 37.928 37.9702 39.8985 35.9153 41.459C35.759 41.5783 35.7179 41.7977 35.8193 41.9664L37.7344 45.1655C37.8523 45.3616 38.1114 45.4137 38.2979 45.2807C41.688 42.8412 43.6114 39.4981 43.6251 35.9328Z" fill="#76F276"/>
<path d="M40.1128 36.9037C39.7537 36.975 39.3191 37.0683 38.8352 37.1862C38.9421 36.7625 38.9983 36.3374 38.9997 35.9151C39.0011 35.5215 38.8283 34.4807 38.5117 33.6305C38.4006 33.3316 38.2937 33.0286 38.1909 32.7255C38.5596 32.6405 38.9147 32.5651 39.2451 32.4992C40.1512 32.321 41.1492 31.9137 41.4919 31.6998C41.8867 31.4543 42.2473 31.1554 42.5722 30.814C42.7202 31.2692 42.8601 31.6614 42.9739 31.9658C43.3933 33.0916 43.6963 34.5164 43.7525 35.5777C42.8381 36.118 41.3658 36.6569 40.1142 36.9037H40.1128Z" fill="white"/>
<path d="M4.12052 24.2607C4.31793 24.2579 4.48244 24.1085 4.50163 23.9124C4.75387 21.3522 5.82726 19.3255 7.54634 18.2408C7.86301 18.0406 8.84182 17.6485 9.78224 17.462C12.0606 17.0095 15.3686 16.1181 18.1912 14.4315C20.9055 12.8107 23.2991 10.2834 24.829 8.44868C25.2704 7.91937 26.0587 7.18575 26.6152 6.87173C28.226 5.96532 30.8033 6.02292 33.1077 6.94029C33.2873 7.0116 33.4915 6.9348 33.5848 6.76751L35.4067 3.50665C35.5191 3.30508 35.4313 3.05139 35.2202 2.95952C31.5394 1.34554 27.3432 1.31401 24.4163 2.95952C23.2292 3.62732 22.0406 4.78467 21.3826 5.57314C20.3133 6.85527 18.1775 9.2111 15.8909 10.5769C13.5001 12.0057 10.491 12.7448 8.91036 13.0575C7.77665 13.2824 6.17547 13.798 5.15279 14.4425C2.13275 16.3471 0.29989 19.7396 0.00103932 23.8836C-0.0154112 24.1112 0.165547 24.3059 0.393112 24.3032L4.12052 24.2579V24.2607Z" fill="#B88EFF"/>
<path d="M34.1755 42.9592C34.0741 42.7906 33.863 42.7234 33.6834 42.8043C31.3022 43.8958 28.8072 44.0165 27.0895 43.0662C26.3793 42.674 25.9599 42.2654 25.2881 41.4988C23.7637 39.7587 21.3455 37.3494 18.4872 35.7505C15.7455 34.2188 12.3854 33.407 10.0495 32.997C9.08026 32.827 8.51546 32.6762 7.7231 32.2346L7.71761 32.2319C6.0616 31.3063 4.85523 29.093 4.53033 26.5164C4.50565 26.3217 4.33704 26.1764 4.141 26.1791L0.410844 26.2244C0.181908 26.2271 0.00643909 26.4259 0.0283731 26.6536C0.428669 30.8743 2.46853 34.4423 5.52833 36.1509L5.53929 36.1578C6.86082 36.8942 7.94792 37.1862 9.27219 37.4193C10.9049 37.7059 13.988 38.3806 16.2966 39.671C18.7175 41.0244 20.8533 43.2513 21.9117 44.4594C22.6876 45.3452 23.4991 46.2036 24.8714 46.9715C24.8878 46.9798 24.9029 46.9894 24.9194 46.9976C28.0107 48.7048 32.1329 48.5745 35.9261 46.7096C36.1318 46.6082 36.2085 46.3559 36.0906 46.1598L34.1755 42.9606V42.9592Z" fill="#B88EFF"/>
<path d="M26.6824 6.99237C26.1396 7.29816 25.3678 8.01807 24.9346 8.53641C24.7618 8.74347 24.585 8.94916 24.4068 9.15348C24.1792 8.90939 23.9654 8.67216 23.7638 8.44728C23.1113 7.71091 22.6863 7.30776 21.8967 6.86484C21.8953 6.86484 21.8926 6.8621 21.8912 6.8621C21.48 6.63173 21.0152 6.46854 20.5135 6.36707C20.7767 6.07362 21.0358 5.77469 21.2771 5.48672C21.9008 4.73802 23.0003 3.6602 24.1271 2.97046C25.4253 3.70408 26.2369 4.47199 27.1211 5.4689C27.3816 5.76235 27.7037 6.11476 28.0739 6.49734C27.5529 6.60293 27.0814 6.76748 26.6824 6.99237Z" fill="white"/>
<path d="M10.6075 33.9034C10.3882 34.5561 10.1771 35.6133 10.2017 36.251C10.2209 36.7529 10.3402 37.2794 10.5417 37.8074C10.0413 37.699 9.59855 37.614 9.24898 37.5523C7.99188 37.3315 6.94728 37.0573 5.7176 36.4087C5.66825 35.0511 6.02879 33.4426 6.35369 32.4731C6.46747 32.1358 6.59633 31.7313 6.72931 31.2802C7.05695 31.623 7.41063 31.9041 7.78488 32.1125C8.56491 32.5472 9.12011 32.6939 10.0729 32.8626C10.3484 32.9106 10.6226 32.9627 10.894 33.0175C10.7981 33.3274 10.7021 33.625 10.6089 33.9047L10.6075 33.9034Z" fill="white"/>
<path d="M209.038 25.27C205.564 25.27 203.134 22.606 203.134 18.646C203.134 14.686 205.564 12.04 209.038 12.04C211.9 12.04 214.024 13.786 214.33 16.324H212.602C212.278 14.596 210.928 13.534 209.02 13.534C206.482 13.534 204.862 15.478 204.862 18.646C204.862 21.832 206.5 23.776 209.02 23.776C210.946 23.776 212.278 22.714 212.602 20.986H214.33C214.024 23.524 211.9 25.27 209.038 25.27ZM218.446 25.27C216.628 25.27 215.296 24.244 215.296 22.498C215.296 20.752 216.538 20.032 217.96 19.744L219.976 19.33C220.894 19.15 221.29 18.898 221.29 18.178C221.29 17.368 220.714 16.81 219.382 16.81C218.338 16.81 217.384 17.17 217.24 18.214H215.566C215.71 16.486 217.366 15.46 219.382 15.46C221.866 15.46 222.892 16.684 222.892 18.16V23.038C222.892 23.542 223.144 23.74 223.558 23.74C223.738 23.74 223.9 23.722 224.08 23.668V24.964C223.828 25.072 223.432 25.18 223.018 25.18C222.154 25.18 221.488 24.712 221.362 23.83H221.29C220.912 24.46 219.994 25.27 218.446 25.27ZM218.824 23.902C220.192 23.902 221.29 23.11 221.29 21.724V19.96C221.146 20.23 220.678 20.428 220.03 20.572L218.59 20.86C217.474 21.094 216.916 21.562 216.916 22.426C216.916 23.398 217.726 23.902 218.824 23.902ZM227.947 25.18C226.615 25.18 225.751 24.568 225.751 23.164V17.134H224.113V15.838H225.139C225.661 15.838 225.841 15.64 225.841 15.118V13.534H227.335V15.73H229.225V17.134H227.335V22.606C227.335 23.398 227.641 23.704 228.271 23.704C228.595 23.704 228.829 23.668 229.225 23.578V24.964C228.775 25.108 228.397 25.18 227.947 25.18ZM233.374 25.27C231.556 25.27 230.224 24.244 230.224 22.498C230.224 20.752 231.466 20.032 232.888 19.744L234.904 19.33C235.822 19.15 236.218 18.898 236.218 18.178C236.218 17.368 235.642 16.81 234.31 16.81C233.266 16.81 232.312 17.17 232.168 18.214H230.494C230.638 16.486 232.294 15.46 234.31 15.46C236.794 15.46 237.82 16.684 237.82 18.16V23.038C237.82 23.542 238.072 23.74 238.486 23.74C238.666 23.74 238.828 23.722 239.008 23.668V24.964C238.756 25.072 238.36 25.18 237.946 25.18C237.082 25.18 236.416 24.712 236.29 23.83H236.218C235.84 24.46 234.922 25.27 233.374 25.27ZM233.752 23.902C235.12 23.902 236.218 23.11 236.218 21.724V19.96C236.074 20.23 235.606 20.428 234.958 20.572L233.518 20.86C232.402 21.094 231.844 21.562 231.844 22.426C231.844 23.398 232.654 23.902 233.752 23.902ZM233.626 14.362L235.102 11.644H237.19L235.192 14.362H233.626ZM240.136 25V11.986H241.738V25H240.136ZM247.717 25.27C245.017 25.27 243.271 23.362 243.271 20.356C243.271 17.368 245.017 15.46 247.717 15.46C250.435 15.46 252.181 17.368 252.181 20.356C252.181 23.362 250.435 25.27 247.717 25.27ZM247.717 23.848C249.499 23.848 250.543 22.588 250.543 20.356C250.543 18.142 249.481 16.882 247.717 16.882C245.953 16.882 244.909 18.142 244.909 20.356C244.909 22.588 245.953 23.848 247.717 23.848ZM257.526 28.24C255.24 28.24 253.836 27.124 253.566 25.684H255.222C255.456 26.404 256.194 26.908 257.544 26.908C259.2 26.908 260.136 25.99 260.136 24.118V23.092H260.064C259.488 24.118 258.39 24.712 257.148 24.712C254.79 24.712 253.134 22.786 253.134 20.086C253.134 17.368 254.808 15.46 257.166 15.46C258.426 15.46 259.506 16.054 260.082 17.08H260.154V15.73H261.738V24.1C261.738 26.89 260.01 28.24 257.526 28.24ZM257.49 23.326C259.092 23.326 260.19 22.102 260.19 20.086C260.19 18.052 259.074 16.828 257.49 16.828C255.87 16.828 254.772 18.07 254.772 20.086C254.772 22.12 255.87 23.326 257.49 23.326ZM267.725 25.27C265.025 25.27 263.279 23.362 263.279 20.356C263.279 17.368 265.025 15.46 267.725 15.46C270.443 15.46 272.189 17.368 272.189 20.356C272.189 23.362 270.443 25.27 267.725 25.27ZM267.725 23.848C269.507 23.848 270.551 22.588 270.551 20.356C270.551 18.142 269.489 16.882 267.725 16.882C265.961 16.882 264.917 18.142 264.917 20.356C264.917 22.588 265.961 23.848 267.725 23.848ZM280.2 25.27C277.824 25.27 276.168 23.362 276.168 20.356C276.168 17.35 277.788 15.46 280.218 15.46C281.442 15.46 282.594 16.036 283.152 17.098H283.224V11.986H284.826V25H283.26V23.614H283.188C282.612 24.694 281.478 25.27 280.2 25.27ZM280.56 23.848C282.252 23.848 283.314 22.588 283.314 20.356C283.314 18.124 282.234 16.882 280.56 16.882C278.814 16.882 277.806 18.142 277.806 20.356C277.806 22.606 278.814 23.848 280.56 23.848ZM290.829 25.27C288.075 25.27 286.365 23.362 286.365 20.32C286.365 17.422 288.111 15.46 290.649 15.46C293.169 15.46 294.933 17.26 294.933 19.888V19.906C294.933 20.284 294.915 20.554 294.861 20.842H288.021C288.111 22.786 289.155 23.92 290.847 23.92C291.927 23.92 292.665 23.506 293.007 22.624H294.699C294.267 24.28 292.791 25.27 290.829 25.27ZM293.259 19.564C293.187 17.836 292.179 16.756 290.649 16.756C289.155 16.756 288.147 17.782 288.021 19.564H293.259ZM207.742 47.27C205.006 47.27 203.206 45.758 203.026 43.562H204.754C204.916 44.894 206.104 45.83 207.778 45.83C209.38 45.83 210.46 45.002 210.46 43.562C210.46 42.446 209.938 41.78 208.444 41.438L206.23 40.916C204.376 40.484 203.386 39.314 203.386 37.586C203.386 35.606 205.006 34.04 207.562 34.04C210.1 34.04 211.828 35.39 212.098 37.55H210.352C210.082 36.2 209.074 35.48 207.598 35.48C205.942 35.48 205.078 36.308 205.078 37.532C205.078 38.63 205.726 39.188 207.04 39.494L209.128 39.98C211.216 40.466 212.17 41.618 212.17 43.508C212.17 45.758 210.28 47.27 207.742 47.27ZM217.704 47.27C214.95 47.27 213.24 45.362 213.24 42.32C213.24 39.422 214.986 37.46 217.524 37.46C220.044 37.46 221.808 39.26 221.808 41.888V41.906C221.808 42.284 221.79 42.554 221.736 42.842H214.896C214.986 44.786 216.03 45.92 217.722 45.92C218.802 45.92 219.54 45.506 219.882 44.624H221.574C221.142 46.28 219.666 47.27 217.704 47.27ZM220.134 41.564C220.062 39.836 219.054 38.756 217.524 38.756C216.03 38.756 215.022 39.782 214.896 41.564H220.134ZM223.275 47V37.73H224.841V39.332H224.913C225.273 38.162 226.173 37.55 227.343 37.55C227.397 37.55 227.577 37.532 227.703 37.55V39.134H227.379C225.723 39.134 224.877 40.25 224.877 41.87V47H223.275ZM231.298 47L227.68 37.73H229.48L231.208 42.554C231.514 43.418 231.82 44.39 232.09 45.308H232.162C232.396 44.552 232.738 43.454 233.062 42.554L234.79 37.73H236.59L232.972 47H231.298ZM237.587 47V37.73H239.189V47H237.587ZM238.397 36.092C237.785 36.092 237.299 35.588 237.299 34.994C237.299 34.382 237.803 33.896 238.397 33.896C239.009 33.896 239.495 34.4 239.495 34.994C239.495 35.606 239.009 36.092 238.397 36.092ZM245.132 47.27C242.45 47.27 240.722 45.344 240.722 42.356C240.722 39.368 242.45 37.46 245.15 37.46C247.31 37.46 248.786 38.72 249.074 40.628H247.4C247.13 39.404 246.248 38.882 245.132 38.882C243.386 38.882 242.36 40.124 242.36 42.356C242.36 44.606 243.404 45.848 245.132 45.848C246.248 45.848 247.112 45.362 247.418 44.102H249.074C248.768 46.028 247.31 47.27 245.132 47.27ZM250.353 47V37.73H251.955V47H250.353ZM251.163 36.092C250.551 36.092 250.065 35.588 250.065 34.994C250.065 34.382 250.569 33.896 251.163 33.896C251.775 33.896 252.261 34.4 252.261 34.994C252.261 35.606 251.775 36.092 251.163 36.092ZM257.934 47.27C255.234 47.27 253.488 45.362 253.488 42.356C253.488 39.368 255.234 37.46 257.934 37.46C260.652 37.46 262.398 39.368 262.398 42.356C262.398 45.362 260.652 47.27 257.934 47.27ZM257.934 45.848C259.716 45.848 260.76 44.588 260.76 42.356C260.76 40.142 259.698 38.882 257.934 38.882C256.17 38.882 255.126 40.142 255.126 42.356C255.126 44.588 256.17 45.848 257.934 45.848ZM267.311 47.27C265.043 47.27 263.495 46.19 263.297 44.39H265.007C265.169 45.362 266.087 45.92 267.365 45.92C268.643 45.92 269.417 45.344 269.417 44.39C269.417 43.652 269.021 43.256 268.031 43.094L265.997 42.752C264.377 42.464 263.585 41.618 263.585 40.25C263.585 38.576 265.061 37.46 267.203 37.46C269.345 37.46 270.785 38.522 270.911 40.196H269.219C269.093 39.296 268.337 38.792 267.167 38.792C265.961 38.792 265.205 39.332 265.205 40.196C265.205 40.88 265.655 41.258 266.609 41.42L268.625 41.744C270.191 41.996 271.037 42.914 271.037 44.336C271.037 46.082 269.543 47.27 267.311 47.27ZM281.198 47.27C277.724 47.27 275.294 44.606 275.294 40.646C275.294 36.686 277.724 34.04 281.198 34.04C284.06 34.04 286.184 35.786 286.49 38.324H284.762C284.438 36.596 283.088 35.534 281.18 35.534C278.642 35.534 277.022 37.478 277.022 40.646C277.022 43.832 278.66 45.776 281.18 45.776C283.106 45.776 284.438 44.714 284.762 42.986H286.49C286.184 45.524 284.06 47.27 281.198 47.27ZM291.92 47.27C289.22 47.27 287.474 45.362 287.474 42.356C287.474 39.368 289.22 37.46 291.92 37.46C294.638 37.46 296.384 39.368 296.384 42.356C296.384 45.362 294.638 47.27 291.92 47.27ZM291.92 45.848C293.702 45.848 294.746 44.588 294.746 42.356C294.746 40.142 293.684 38.882 291.92 38.882C290.156 38.882 289.112 40.142 289.112 42.356C289.112 44.588 290.156 45.848 291.92 45.848ZM297.914 47V37.73H299.48V38.972H299.552C300.038 37.982 300.974 37.46 302.18 37.46C303.404 37.46 304.358 37.982 304.862 39.224H304.934C305.492 38.054 306.446 37.46 307.76 37.46C309.776 37.46 310.874 38.756 310.874 41.096V47H309.29V41.24C309.29 39.728 308.57 38.9 307.328 38.9C306.014 38.9 305.204 39.854 305.204 41.366V47H303.602V41.294C303.602 39.728 302.9 38.9 301.658 38.9C300.344 38.9 299.516 39.854 299.516 41.384V47H297.914ZM316.78 47.27C314.026 47.27 312.316 45.362 312.316 42.32C312.316 39.422 314.062 37.46 316.6 37.46C319.12 37.46 320.884 39.26 320.884 41.888V41.906C320.884 42.284 320.866 42.554 320.812 42.842H313.972C314.062 44.786 315.106 45.92 316.798 45.92C317.878 45.92 318.616 45.506 318.958 44.624H320.65C320.218 46.28 318.742 47.27 316.78 47.27ZM319.21 41.564C319.138 39.836 318.13 38.756 316.6 38.756C315.106 38.756 314.098 39.782 313.972 41.564H319.21ZM322.351 47V37.73H323.917V39.332H323.989C324.349 38.162 325.249 37.55 326.419 37.55C326.473 37.55 326.653 37.532 326.779 37.55V39.134H326.455C324.799 39.134 323.953 40.25 323.953 41.87V47H322.351ZM331.513 47.27C328.831 47.27 327.103 45.344 327.103 42.356C327.103 39.368 328.831 37.46 331.531 37.46C333.691 37.46 335.167 38.72 335.455 40.628H333.781C333.511 39.404 332.629 38.882 331.513 38.882C329.767 38.882 328.741 40.124 328.741 42.356C328.741 44.606 329.785 45.848 331.513 45.848C332.629 45.848 333.493 45.362 333.799 44.102H335.455C335.149 46.028 333.691 47.27 331.513 47.27ZM336.734 47V37.73H338.336V47H336.734ZM337.544 36.092C336.932 36.092 336.446 35.588 336.446 34.994C336.446 34.382 336.95 33.896 337.544 33.896C338.156 33.896 338.642 34.4 338.642 34.994C338.642 35.606 338.156 36.092 337.544 36.092ZM343 47.27C341.182 47.27 339.85 46.244 339.85 44.498C339.85 42.752 341.092 42.032 342.514 41.744L344.53 41.33C345.448 41.15 345.844 40.898 345.844 40.178C345.844 39.368 345.268 38.81 343.936 38.81C342.892 38.81 341.938 39.17 341.794 40.214H340.12C340.264 38.486 341.92 37.46 343.936 37.46C346.42 37.46 347.446 38.684 347.446 40.16V45.038C347.446 45.542 347.698 45.74 348.112 45.74C348.292 45.74 348.454 45.722 348.634 45.668V46.964C348.382 47.072 347.986 47.18 347.572 47.18C346.708 47.18 346.042 46.712 345.916 45.83H345.844C345.466 46.46 344.548 47.27 343 47.27ZM343.378 45.902C344.746 45.902 345.844 45.11 345.844 43.724V41.96C345.7 42.23 345.232 42.428 344.584 42.572L343.144 42.86C342.028 43.094 341.47 43.562 341.47 44.426C341.47 45.398 342.28 45.902 343.378 45.902ZM349.763 47V33.986H351.365V47H349.763ZM357.362 47.27C354.608 47.27 352.898 45.362 352.898 42.32C352.898 39.422 354.644 37.46 357.182 37.46C359.702 37.46 361.466 39.26 361.466 41.888V41.906C361.466 42.284 361.448 42.554 361.394 42.842H354.554C354.644 44.786 355.688 45.92 357.38 45.92C358.46 45.92 359.198 45.506 359.54 44.624H361.232C360.8 46.28 359.324 47.27 357.362 47.27ZM359.792 41.564C359.72 39.836 358.712 38.756 357.182 38.756C355.688 38.756 354.68 39.782 354.554 41.564H359.792ZM366.37 47.27C364.102 47.27 362.554 46.19 362.356 44.39H364.066C364.228 45.362 365.146 45.92 366.424 45.92C367.702 45.92 368.476 45.344 368.476 44.39C368.476 43.652 368.08 43.256 367.09 43.094L365.056 42.752C363.436 42.464 362.644 41.618 362.644 40.25C362.644 38.576 364.12 37.46 366.262 37.46C368.404 37.46 369.844 38.522 369.97 40.196H368.278C368.152 39.296 367.396 38.792 366.226 38.792C365.02 38.792 364.264 39.332 364.264 40.196C364.264 40.88 364.714 41.258 365.668 41.42L367.684 41.744C369.25 41.996 370.096 42.914 370.096 44.336C370.096 46.082 368.602 47.27 366.37 47.27Z" fill="white"/>
</svg>
