<svg width="527" height="277" viewBox="0 0 527 277" fill="none" xmlns="http://www.w3.org/2000/svg">
<rect width="527" height="277" fill="#F5F5F5"/>
<path d="M526.774 0.308014H0.226013V276.308H526.774V0.308014Z" fill="black"/>
<path d="M79.032 152.864C69.986 147.798 63.677 138.616 63.341 130.018C63.219 126.893 64.048 123.169 64.8 120.932C66.019 117.293 68.05 110.276 67.971 104.158C67.886 97.755 65.714 90.978 64.426 87.506C63.501 85.017 62.584 81.262 62.615 78.483C62.716 69.33 68.201 60.839 77.662 55.183C87.076 49.556 97.719 48.75 105.445 53.079C105.455 53.085 105.464 53.088 105.473 53.094C108.497 54.796 110.374 56.57 112.42 58.882C114.941 61.734 119.964 66.957 125.257 69.922C130.808 73.032 137.723 74.532 141.351 75.149C144.044 75.606 146.722 76.176 149.919 77.979C157.673 82.377 162.59 91.898 162.744 102.831C162.901 113.95 158.544 123.093 150.796 127.914C148.725 129.202 145.192 130.516 142.209 131.105C138.581 131.824 131.679 133.516 126.191 136.795C120.907 139.952 115.925 145.624 113.533 148.349C111.835 150.283 109.516 152.706 106.64 154.297C99.108 158.466 88.016 157.889 79.035 152.861L79.032 152.864ZM100.422 62.08C96.031 59.62 89.003 60.407 82.927 64.04C76.615 67.811 72.96 73.117 72.9 78.593C72.89 79.453 73.299 81.841 74.066 83.908C75.92 88.911 78.155 96.46 78.256 104.016C78.353 111.281 76.295 119.007 74.55 124.212C74.047 125.711 73.563 128.14 73.62 129.606C73.814 134.587 78.202 140.579 84.049 143.853C89.949 147.158 97.191 147.738 101.661 145.264C103.163 144.433 104.744 142.734 105.803 141.528C108.544 138.409 114.246 131.915 120.916 127.929C127.394 124.057 134.985 122.012 140.213 120.979C142.29 120.569 144.579 119.634 145.364 119.142C149.972 116.275 152.553 110.38 152.449 102.97C152.349 95.799 149.366 89.51 144.849 86.949C143.23 86.029 141.929 85.701 139.625 85.31C134.394 84.422 126.788 82.591 120.231 78.921C113.944 75.401 108.324 69.799 104.716 65.722C103.22 64.03 102.245 63.104 100.435 62.087L100.422 62.08Z" fill="white"/>
<path d="M150.256 128.875C150.265 126.43 149.53 122.728 148.467 119.87C147.175 116.398 144.997 109.618 144.906 103.212C144.818 97.046 147.028 89.822 148.09 86.35C148.844 83.886 149.687 80.638 149.533 77.348C149.168 69.626 144.063 61.46 136.542 56.229C136.108 55.927 135.508 56.062 135.25 56.526L131.076 64.012C130.859 64.402 130.959 64.894 131.318 65.158C135.897 68.561 139.047 73.473 139.251 77.83C139.333 79.551 138.717 81.791 138.248 83.325C137.032 87.301 134.505 95.572 134.615 103.354C134.722 110.913 136.963 118.465 138.824 123.468C139.562 125.456 139.968 127.901 139.965 128.83C139.946 133.459 137.29 137.986 132.578 141.572C132.22 141.846 132.125 142.35 132.358 142.738L136.749 150.088C137.019 150.539 137.614 150.658 138.041 150.353C145.814 144.748 150.224 137.066 150.256 128.875Z" fill="#76F276"/>
<path d="M142.206 131.105C141.382 131.269 140.386 131.483 139.276 131.754C139.521 130.781 139.65 129.804 139.653 128.834C139.656 127.929 139.26 125.538 138.534 123.585C138.28 122.898 138.035 122.202 137.799 121.505C138.644 121.31 139.458 121.137 140.216 120.985C142.294 120.576 144.582 119.64 145.368 119.148C146.273 118.585 147.1 117.898 147.845 117.113C148.184 118.159 148.505 119.06 148.766 119.76C149.727 122.346 150.422 125.62 150.551 128.059C148.454 129.3 145.079 130.538 142.209 131.105H142.206Z" fill="white"/>
<path d="M59.677 102.059C60.129 102.053 60.506 101.71 60.55 101.259C61.129 95.377 63.59 90.72 67.532 88.228C68.258 87.768 70.502 86.867 72.658 86.438C77.882 85.398 85.467 83.351 91.939 79.475C98.163 75.751 103.651 69.944 107.159 65.729C108.171 64.513 109.978 62.827 111.254 62.105C114.948 60.023 120.857 60.155 126.141 62.263C126.553 62.427 127.021 62.25 127.235 61.866L131.412 54.374C131.67 53.911 131.469 53.328 130.985 53.117C122.545 49.408 112.923 49.336 106.213 53.117C103.49 54.651 100.765 57.31 99.257 59.122C96.805 62.068 91.908 67.481 86.665 70.619C81.183 73.902 74.283 75.6 70.659 76.318C68.06 76.835 64.388 78.02 62.043 79.5C55.119 83.88 50.916 91.675 50.228 101.196C50.19 101.719 50.605 102.166 51.127 102.16L59.673 102.056L59.677 102.059Z" fill="#B88EFF"/>
<path d="M128.59 145.019C128.357 144.631 127.873 144.477 127.461 144.663C122.001 147.171 116.281 147.448 112.342 145.264C110.714 144.363 109.752 143.424 108.212 141.663C104.717 137.665 99.172 132.129 92.618 128.456C86.065 124.782 78.628 123.071 73.272 122.129C71.049 121.738 69.754 121.392 67.937 120.377L67.925 120.371C64.128 118.244 61.362 113.159 60.617 107.239C60.56 106.791 60.174 106.458 59.724 106.464L51.171 106.568C50.646 106.574 50.244 107.031 50.294 107.554C51.212 117.252 55.889 125.45 62.905 129.376L62.93 129.391C65.96 131.083 68.453 131.754 71.489 132.29C75.233 132.948 82.302 134.499 87.595 137.463C93.146 140.573 98.044 145.69 100.47 148.465C102.249 150.501 104.11 152.473 107.256 154.238C107.294 154.256 107.329 154.278 107.366 154.297C114.454 158.22 123.906 157.921 132.604 153.636C133.075 153.403 133.251 152.823 132.981 152.372L128.59 145.022V145.019Z" fill="#B88EFF"/>
<path d="M111.408 62.38C110.164 63.082 108.394 64.736 107.401 65.927C107.005 66.403 106.599 66.876 106.191 67.345C105.669 66.784 105.178 66.239 104.716 65.722C103.22 64.031 102.246 63.104 100.435 62.087C100.432 62.087 100.426 62.08 100.423 62.08C99.48 61.551 98.414 61.176 97.264 60.943C97.867 60.269 98.461 59.582 99.014 58.92C100.445 57.2 102.966 54.723 105.549 53.139C108.526 54.824 110.387 56.589 112.414 58.879C113.011 59.553 113.75 60.363 114.599 61.242C113.404 61.485 112.323 61.863 111.408 62.38Z" fill="white"/>
<path d="M74.554 124.215C74.052 125.714 73.568 128.144 73.624 129.609C73.668 130.762 73.942 131.972 74.404 133.185C73.256 132.936 72.241 132.74 71.44 132.599C68.557 132.091 66.162 131.461 63.342 129.971C63.229 126.852 64.056 123.156 64.801 120.929C65.062 120.154 65.357 119.224 65.662 118.188C66.413 118.975 67.224 119.621 68.083 120.1C69.871 121.099 71.144 121.436 73.329 121.823C73.96 121.934 74.589 122.053 75.211 122.179C74.991 122.891 74.771 123.575 74.558 124.218L74.554 124.215Z" fill="white"/>
<path d="M189.688 176.197H187.472V193.21H189.688V176.197Z" fill="white"/>
<path d="M203.435 193.21V185.608C203.435 183.837 203.014 182.529 202.172 181.685C201.329 180.841 200.185 180.419 198.739 180.419C197.903 180.419 197.143 180.595 196.451 180.951C195.759 181.304 195.247 181.789 194.911 182.4V180.784H192.817V193.213H194.961V185.998C194.961 184.937 195.253 184.076 195.841 183.415C196.426 182.756 197.243 182.426 198.287 182.426C199.233 182.426 199.975 182.725 200.512 183.317C201.05 183.913 201.32 184.782 201.32 185.923V193.21H203.438H203.435Z" fill="white"/>
<path d="M206.95 193.21H209.068V182.737H211.596V180.781H209.068V179.889C209.068 178.475 209.741 177.766 211.09 177.766H211.596V175.834H210.873C209.684 175.834 208.732 176.178 208.019 176.861C207.305 177.545 206.947 178.563 206.947 179.914V180.784H204.756V182.741H206.947V193.213L206.95 193.21Z" fill="white"/>
<path d="M216.603 181.118C216.009 181.505 215.591 182.044 215.352 182.734V180.778H213.259V193.207H215.402V186.304C215.402 185.195 215.679 184.313 216.232 183.66C216.786 183.008 217.609 182.684 218.7 182.684H219.181V180.535H218.577C217.854 180.535 217.197 180.727 216.603 181.115V181.118Z" fill="white"/>
<path d="M227.932 185.091C227.668 185.293 227.262 185.45 226.715 185.56L223.635 186.14C222.56 186.332 221.689 186.733 221.023 187.334C220.357 187.939 220.023 188.787 220.023 189.88C220.023 190.973 220.429 191.925 221.24 192.583C222.051 193.242 223.088 193.573 224.358 193.573C225.354 193.573 226.181 193.399 226.838 193.053C227.495 192.706 228.01 192.309 228.378 191.859C228.491 192.388 228.74 192.788 229.126 193.053C229.513 193.317 229.984 193.45 230.547 193.45C231.11 193.45 231.616 193.352 232.065 193.16V191.373C231.858 191.44 231.616 191.471 231.342 191.471C230.748 191.471 230.453 191.125 230.453 190.435V184.184C230.453 183.09 230.057 182.189 229.261 181.48C228.466 180.771 227.259 180.419 225.637 180.419C224.176 180.419 222.95 180.787 221.953 181.528C220.957 182.268 220.429 183.273 220.363 184.543H222.579C222.626 183.802 222.944 183.238 223.531 182.854C224.119 182.47 224.82 182.274 225.637 182.274C226.505 182.274 227.171 182.444 227.636 182.782C228.102 183.119 228.334 183.569 228.334 184.133C228.334 184.568 228.202 184.886 227.938 185.088L227.932 185.091ZM228.331 188.793C228.331 189.647 227.992 190.343 227.31 190.879C226.627 191.418 225.782 191.689 224.77 191.689C224 191.689 223.38 191.528 222.915 191.206C222.45 190.885 222.217 190.419 222.217 189.808C222.217 189.244 222.393 188.803 222.749 188.481C223.101 188.16 223.654 187.927 224.411 187.782L226.433 187.394C227.476 187.202 228.111 186.985 228.334 186.742V188.793H228.331Z" fill="white"/>
<path d="M239.213 193.573C240.69 193.573 241.928 193.207 242.931 192.476C243.934 191.745 244.581 190.734 244.87 189.448H242.654C242.412 190.189 242.004 190.746 241.425 191.125C240.847 191.503 240.118 191.692 239.235 191.692C238.062 191.692 237.113 191.336 236.38 190.617C235.648 189.902 235.246 188.932 235.164 187.709H244.987C245.05 187.227 245.084 186.818 245.084 186.477V186.405C245.084 185.214 244.833 184.168 244.327 183.267C243.821 182.366 243.107 181.666 242.183 181.165C241.259 180.667 240.206 180.419 239.018 180.419C237.83 180.419 236.78 180.693 235.865 181.238C234.95 181.786 234.237 182.548 233.721 183.531C233.209 184.514 232.951 185.649 232.951 186.934C232.951 188.22 233.209 189.436 233.721 190.435C234.234 191.433 234.963 192.205 235.9 192.75C236.839 193.299 237.943 193.569 239.209 193.569L239.213 193.573ZM236.384 183.245C237.066 182.602 237.952 182.281 239.043 182.281C240.133 182.281 241.07 182.611 241.752 183.27C242.434 183.928 242.799 184.814 242.849 185.926H235.167C235.296 184.785 235.702 183.891 236.384 183.248V183.245Z" fill="white"/>
<path d="M254.199 191.172C253.693 191.534 253.023 191.714 252.187 191.714C251.257 191.714 250.487 191.484 249.877 191.027C249.267 190.567 248.931 189.962 248.865 189.206H246.699C246.715 190.06 246.951 190.819 247.41 191.487C247.869 192.155 248.5 192.668 249.311 193.031C250.122 193.393 251.04 193.573 252.068 193.573C253.592 193.573 254.815 193.21 255.739 192.486C256.663 191.761 257.122 190.813 257.122 189.637C257.122 188.673 256.852 187.892 256.314 187.296C255.777 186.701 254.985 186.323 253.944 186.162L251.078 185.68C250.421 185.567 249.952 185.39 249.682 185.151C249.409 184.908 249.274 184.565 249.274 184.114C249.274 183.55 249.516 183.1 249.996 182.763C250.477 182.425 251.112 182.255 251.898 182.255C252.75 182.255 253.438 182.457 253.97 182.86C254.501 183.264 254.796 183.818 254.859 184.527H257.025C256.993 183.273 256.522 182.274 255.617 181.534C254.708 180.793 253.501 180.425 251.992 180.425C251.031 180.425 250.176 180.582 249.428 180.894C248.683 181.209 248.104 181.654 247.696 182.233C247.287 182.813 247.083 183.472 247.083 184.212C247.083 186.093 248.158 187.215 250.308 187.567L253.196 188.049C253.822 188.163 254.271 188.349 254.545 188.604C254.818 188.862 254.953 189.24 254.953 189.738C254.953 190.334 254.702 190.813 254.196 191.175L254.199 191.172Z" fill="white"/>
<path d="M260.495 190.75C260.495 191.651 260.753 192.325 261.265 192.775C261.778 193.226 262.494 193.45 263.409 193.45C263.987 193.45 264.566 193.362 265.144 193.185V191.228C264.679 191.342 264.261 191.399 263.893 191.399C263.459 191.399 263.139 191.285 262.931 191.062C262.724 190.838 262.617 190.466 262.617 189.952V182.737H265.144V180.781H262.617V177.835H260.596V179.719C260.596 180.17 260.508 180.485 260.332 180.661C260.156 180.838 259.842 180.926 259.392 180.926H258.308V182.737H260.498V190.75H260.495Z" fill="white"/>
<path d="M267.671 180.781V193.21H269.815V186.307C269.815 185.198 270.091 184.316 270.644 183.664C271.198 183.012 272.021 182.687 273.112 182.687H273.593V180.538H272.989C272.266 180.538 271.609 180.73 271.015 181.118C270.421 181.506 270.003 182.044 269.764 182.734V180.778H267.671V180.781Z" fill="white"/>
<path d="M283.416 187.999C283.416 189.061 283.13 189.921 282.561 190.583C281.992 191.241 281.193 191.572 280.166 191.572C279.251 191.572 278.531 191.279 278.009 190.69C277.488 190.104 277.227 189.237 277.227 188.097V180.784H275.083V188.387C275.083 190.142 275.495 191.443 276.325 192.297C277.151 193.15 278.229 193.576 279.562 193.576C280.461 193.576 281.25 193.402 281.932 193.056C282.614 192.709 283.123 192.23 283.46 191.619V193.213H285.553V180.784H283.409V187.999H283.416Z" fill="white"/>
<path d="M296.935 192.908C297.777 192.467 298.434 191.871 298.909 191.121C299.384 190.375 299.66 189.533 299.739 188.601H297.548C297.372 189.631 296.966 190.387 296.332 190.869C295.697 191.351 294.914 191.594 293.984 191.594C292.748 191.594 291.768 191.187 291.048 190.375C290.328 189.562 289.963 188.431 289.963 186.984C289.963 185.538 290.325 184.429 291.048 183.616C291.771 182.803 292.748 182.397 293.984 182.397C294.898 182.397 295.678 182.646 296.319 183.144C296.96 183.642 297.369 184.391 297.548 185.387H299.739C299.657 184.454 299.381 183.61 298.909 182.854C298.434 182.098 297.777 181.502 296.935 181.067C296.093 180.633 295.118 180.415 294.009 180.415C292.773 180.415 291.683 180.693 290.733 181.247C289.787 181.802 289.055 182.58 288.543 183.575C288.03 184.574 287.772 185.708 287.772 186.978C287.772 188.248 288.03 189.382 288.543 190.381C289.055 191.38 289.784 192.158 290.721 192.722C291.661 193.286 292.748 193.566 293.984 193.566C295.106 193.566 296.09 193.346 296.932 192.901L296.935 192.908Z" fill="white"/>
<path d="M304.941 177.838H302.92V179.722C302.92 180.173 302.832 180.488 302.656 180.664C302.48 180.841 302.166 180.929 301.716 180.929H300.632V182.741H302.823V190.753C302.823 191.654 303.08 192.328 303.593 192.779C304.105 193.229 304.822 193.453 305.737 193.453C306.315 193.453 306.893 193.365 307.468 193.188V191.232C307.003 191.345 306.585 191.402 306.217 191.402C305.784 191.402 305.463 191.288 305.256 191.065C305.048 190.841 304.941 190.469 304.941 189.956V182.741H307.468V180.784H304.941V177.838Z" fill="white"/>
<path d="M309.637 180.781V188.383C309.637 190.138 310.049 191.44 310.876 192.293C311.702 193.147 312.781 193.573 314.113 193.573C315.012 193.573 315.801 193.399 316.483 193.053C317.165 192.706 317.675 192.227 318.011 191.616V193.21H320.104V180.781H317.961V187.996C317.961 189.058 317.675 189.918 317.106 190.579C316.537 191.238 315.738 191.569 314.711 191.569C313.796 191.569 313.076 191.276 312.554 190.687C312.033 190.101 311.772 189.234 311.772 188.094V180.781H309.628H309.637Z" fill="white"/>
<path d="M325.19 186.307C325.19 185.198 325.466 184.316 326.019 183.664C326.573 183.012 327.396 182.687 328.487 182.687H328.968V180.538H328.364C327.641 180.538 326.984 180.73 326.39 181.118C325.796 181.506 325.378 182.044 325.139 182.734V180.778H323.046V193.207H325.19V186.304V186.307Z" fill="white"/>
<path d="M340.237 190.435V184.184C340.237 183.09 339.84 182.189 339.045 181.48C338.25 180.771 337.043 180.419 335.421 180.419C333.959 180.419 332.734 180.787 331.737 181.528C330.741 182.268 330.213 183.273 330.147 184.543H332.363C332.41 183.802 332.727 183.238 333.315 182.854C333.903 182.47 334.604 182.274 335.421 182.274C336.289 182.274 336.955 182.444 337.42 182.782C337.885 183.119 338.118 183.569 338.118 184.133C338.118 184.568 337.986 184.886 337.722 185.088C337.458 185.289 337.052 185.447 336.505 185.557L333.425 186.137C332.35 186.329 331.479 186.729 330.813 187.331C330.147 187.936 329.813 188.784 329.813 189.877C329.813 190.97 330.219 191.922 331.03 192.58C331.841 193.239 332.878 193.569 334.148 193.569C335.144 193.569 335.971 193.396 336.628 193.05C337.285 192.703 337.8 192.306 338.168 191.856C338.281 192.385 338.53 192.785 338.916 193.05C339.303 193.314 339.774 193.447 340.337 193.447C340.9 193.447 341.406 193.349 341.855 193.157V191.37C341.648 191.436 341.406 191.468 341.132 191.468C340.538 191.468 340.243 191.121 340.243 190.431L340.237 190.435ZM338.118 188.793C338.118 189.647 337.778 190.343 337.096 190.879C336.414 191.418 335.569 191.689 334.557 191.689C333.787 191.689 333.167 191.528 332.702 191.206C332.237 190.885 332.004 190.419 332.004 189.808C332.004 189.244 332.18 188.803 332.536 188.481C332.888 188.16 333.441 187.927 334.198 187.782L336.219 187.394C337.263 187.202 337.898 186.985 338.121 186.742V188.793H338.118Z" fill="white"/>
<path d="M356.994 191.424V193.21H359.087V176.197H356.968V182.52C356.566 181.862 355.985 181.345 355.224 180.976C354.46 180.608 353.696 180.422 352.926 180.422C351.722 180.422 350.676 180.696 349.783 181.241C348.893 181.789 348.208 182.561 347.737 183.557C347.262 184.555 347.026 185.696 347.026 186.985C347.026 188.273 347.272 189.414 347.762 190.413C348.252 191.411 348.934 192.186 349.808 192.741C350.682 193.295 351.697 193.573 352.854 193.573C353.69 193.573 354.482 193.387 355.237 193.018C355.991 192.649 356.576 192.117 356.994 191.427V191.424ZM350.242 190.375C349.56 189.562 349.217 188.431 349.217 186.985C349.217 185.538 349.563 184.429 350.251 183.616C350.943 182.804 351.905 182.397 353.14 182.397C353.894 182.397 354.573 182.583 355.174 182.952C355.777 183.32 356.246 183.853 356.582 184.543C356.918 185.236 357.088 186.049 357.088 186.981C357.088 188.396 356.723 189.521 355.991 190.349C355.262 191.178 354.309 191.591 353.137 191.591C351.886 191.591 350.918 191.184 350.236 190.372L350.242 190.375Z" fill="white"/>
<path d="M373.439 186.477V186.405C373.439 185.214 373.187 184.168 372.681 183.267C372.175 182.366 371.462 181.666 370.537 181.165C369.613 180.667 368.56 180.419 367.372 180.419C366.184 180.419 365.134 180.693 364.219 181.238C363.305 181.786 362.591 182.548 362.076 183.531C361.563 184.514 361.306 185.649 361.306 186.934C361.306 188.22 361.563 189.436 362.076 190.435C362.588 191.433 363.317 192.205 364.254 192.75C365.194 193.299 366.297 193.569 367.564 193.569C369.041 193.569 370.28 193.204 371.282 192.473C372.285 191.742 372.933 190.731 373.222 189.445H371.006C370.764 190.186 370.355 190.743 369.777 191.121C369.198 191.499 368.469 191.689 367.586 191.689C366.413 191.689 365.464 191.332 364.732 190.614C363.999 189.899 363.597 188.929 363.515 187.706H373.338C373.401 187.224 373.436 186.814 373.436 186.474L373.439 186.477ZM363.519 185.923C363.647 184.782 364.053 183.887 364.735 183.245C365.417 182.602 366.303 182.281 367.394 182.281C368.485 182.281 369.422 182.611 370.104 183.27C370.786 183.928 371.15 184.814 371.201 185.926H363.519V185.923Z" fill="white"/>
<path d="M382.313 192.873C383.3 193.339 384.444 193.573 385.745 193.573C386.867 193.573 387.883 193.358 388.791 192.933C389.696 192.508 390.413 191.912 390.935 191.147C391.456 190.381 391.717 189.508 391.717 188.528C391.717 187.224 391.387 186.184 390.73 185.403C390.073 184.622 389.036 184.08 387.625 183.774L384.664 183.122C383.749 182.93 383.083 182.63 382.665 182.23C382.247 181.827 382.039 181.257 382.039 180.516C382.039 179.678 382.332 179.02 382.919 178.538C383.504 178.056 384.368 177.813 385.506 177.813C386.644 177.813 387.508 178.1 388.191 178.67C388.873 179.24 389.269 180.097 389.382 181.241H391.692C391.61 179.536 391.019 178.21 389.91 177.258C388.803 176.31 387.31 175.834 385.431 175.834C384.29 175.834 383.287 176.042 382.423 176.461C381.555 176.88 380.889 177.454 380.424 178.188C379.958 178.919 379.726 179.738 379.726 180.639C379.726 181.814 380.05 182.778 380.7 183.535C381.351 184.291 382.31 184.807 383.576 185.078L386.729 185.778C387.706 185.986 388.401 186.317 388.813 186.767C389.222 187.218 389.426 187.829 389.426 188.601C389.426 189.533 389.093 190.268 388.426 190.797C387.76 191.329 386.874 191.594 385.767 191.594C384.516 191.594 383.491 191.257 382.696 190.579C381.901 189.905 381.495 189.004 381.48 187.876H379.191C379.191 189.02 379.465 190.022 380.009 190.882C380.556 191.742 381.319 192.407 382.31 192.873H382.313Z" fill="white"/>
<path d="M402.656 181.168C401.731 180.671 400.678 180.422 399.49 180.422C398.302 180.422 397.252 180.696 396.338 181.241C395.423 181.789 394.709 182.552 394.194 183.535C393.682 184.518 393.424 185.652 393.424 186.937C393.424 188.223 393.682 189.439 394.194 190.438C394.706 191.436 395.432 192.208 396.372 192.753C397.312 193.302 398.415 193.573 399.682 193.573C401.159 193.573 402.398 193.207 403.401 192.476C404.403 191.745 405.051 190.734 405.34 189.448H403.124C402.882 190.189 402.473 190.746 401.895 191.125C401.317 191.503 400.587 191.692 399.704 191.692C398.532 191.692 397.582 191.336 396.85 190.617C396.121 189.902 395.715 188.932 395.634 187.709H405.456C405.519 187.227 405.554 186.818 405.554 186.477V186.405C405.554 185.214 405.302 184.168 404.796 183.267C404.29 182.366 403.577 181.666 402.652 181.165L402.656 181.168ZM395.637 185.923C395.766 184.782 396.171 183.887 396.853 183.245C397.535 182.602 398.422 182.281 399.512 182.281C400.603 182.281 401.54 182.611 402.222 183.27C402.904 183.928 403.269 184.814 403.319 185.926H395.64L395.637 185.923Z" fill="white"/>
<path d="M407.726 180.781V193.21H409.869V186.307C409.869 185.198 410.146 184.316 410.699 183.664C411.252 183.012 412.076 182.687 413.167 182.687H413.647V180.538H413.044C412.321 180.538 411.664 180.73 411.07 181.118C410.476 181.506 410.058 182.044 409.819 182.734V180.778H407.726V180.781Z" fill="white"/>
<path d="M421.449 187.202L420.122 190.677L418.774 187.202L416.319 180.781H413.911L419.016 193.21H421.207L426.336 180.781H423.929L421.449 187.202Z" fill="white"/>
<path d="M430.068 180.781H427.925V193.21H430.068V180.781Z" fill="white"/>
<path d="M429.009 176.074C428.607 176.074 428.261 176.216 427.975 176.496C427.689 176.776 427.541 177.126 427.541 177.545C427.541 177.964 427.682 178.314 427.962 178.594C428.242 178.875 428.591 179.017 429.009 179.017C429.427 179.017 429.776 178.872 430.056 178.582C430.335 178.292 430.477 177.945 430.477 177.545C430.477 177.145 430.335 176.776 430.056 176.496C429.776 176.216 429.427 176.074 429.009 176.074Z" fill="white"/>
<path d="M438.494 182.4C439.409 182.4 440.188 182.649 440.83 183.147C441.471 183.645 441.88 184.395 442.059 185.39H444.25C444.168 184.458 443.891 183.613 443.42 182.857C442.945 182.101 442.288 181.506 441.446 181.071C440.603 180.636 439.629 180.419 438.519 180.419C437.284 180.419 436.19 180.696 435.244 181.25C434.298 181.805 433.566 182.583 433.053 183.579C432.541 184.577 432.283 185.712 432.283 186.981C432.283 188.251 432.541 189.385 433.053 190.384C433.566 191.383 434.292 192.161 435.232 192.725C436.171 193.289 437.259 193.569 438.494 193.569C439.616 193.569 440.6 193.349 441.443 192.905C442.285 192.464 442.942 191.868 443.417 191.118C443.891 190.372 444.168 189.53 444.246 188.598H442.056C441.88 189.628 441.474 190.384 440.839 190.866C440.204 191.348 439.422 191.591 438.491 191.591C437.256 191.591 436.275 191.184 435.555 190.372C434.836 189.559 434.471 188.428 434.471 186.981C434.471 185.535 434.832 184.426 435.555 183.613C436.278 182.8 437.256 182.394 438.491 182.394L438.494 182.4Z" fill="white"/>
<path d="M447.569 176.074C447.167 176.074 446.821 176.216 446.535 176.496C446.249 176.776 446.102 177.126 446.102 177.545C446.102 177.964 446.243 178.314 446.523 178.594C446.803 178.875 447.151 179.017 447.569 179.017C447.988 179.017 448.336 178.872 448.616 178.582C448.896 178.292 449.037 177.945 449.037 177.545C449.037 177.145 448.896 176.776 448.616 176.496C448.336 176.216 447.988 176.074 447.569 176.074Z" fill="white"/>
<path d="M448.632 180.781H446.488V193.21H448.632V180.781Z" fill="white"/>
<path d="M460.463 181.253C459.508 180.699 458.404 180.422 457.153 180.422C455.902 180.422 454.799 180.696 453.843 181.241C452.888 181.789 452.149 182.561 451.627 183.557C451.106 184.555 450.845 185.696 450.845 186.985C450.845 188.273 451.106 189.414 451.627 190.412C452.149 191.411 452.888 192.186 453.843 192.741C454.799 193.295 455.902 193.573 457.153 193.573C458.404 193.573 459.53 193.299 460.476 192.753C461.422 192.205 462.157 191.433 462.679 190.438C463.201 189.442 463.462 188.289 463.462 186.988C463.462 185.686 463.201 184.562 462.679 183.572C462.157 182.583 461.419 181.811 460.463 181.257V181.253ZM460.174 190.362C459.429 191.181 458.42 191.594 457.153 191.594C455.886 191.594 454.881 191.184 454.145 190.362C453.406 189.543 453.039 188.415 453.039 186.985C453.039 185.554 453.406 184.451 454.145 183.629C454.884 182.81 455.886 182.397 457.153 182.397C458.42 182.397 459.429 182.807 460.174 183.629C460.922 184.448 461.293 185.567 461.293 186.985C461.293 188.402 460.919 189.543 460.174 190.362Z" fill="white"/>
<path d="M472.369 186.162L469.503 185.68C468.846 185.567 468.378 185.39 468.107 185.151C467.834 184.908 467.699 184.565 467.699 184.114C467.699 183.55 467.941 183.1 468.422 182.763C468.902 182.425 469.537 182.255 470.323 182.255C471.175 182.255 471.863 182.457 472.395 182.86C472.926 183.264 473.221 183.818 473.284 184.527H475.45C475.418 183.273 474.947 182.274 474.042 181.534C473.133 180.793 471.926 180.425 470.417 180.425C469.456 180.425 468.601 180.582 467.853 180.894C467.108 181.209 466.529 181.654 466.121 182.233C465.712 182.813 465.508 183.472 465.508 184.212C465.508 186.093 466.583 187.215 468.733 187.567L471.621 188.049C472.247 188.163 472.696 188.349 472.97 188.604C473.243 188.862 473.378 189.24 473.378 189.738C473.378 190.334 473.127 190.813 472.621 191.175C472.115 191.537 471.445 191.717 470.609 191.717C469.679 191.717 468.909 191.487 468.299 191.03C467.689 190.57 467.353 189.965 467.287 189.209H465.121C465.137 190.063 465.373 190.822 465.831 191.49C466.29 192.158 466.922 192.671 467.733 193.034C468.544 193.396 469.462 193.576 470.49 193.576C472.014 193.576 473.237 193.213 474.161 192.489C475.085 191.764 475.544 190.816 475.544 189.641C475.544 188.676 475.274 187.895 474.736 187.3C474.199 186.704 473.407 186.326 472.366 186.165L472.369 186.162Z" fill="white"/>
<path d="M196.716 213.346C197.47 213.041 198.052 212.578 198.461 211.96C198.869 211.342 199.073 210.621 199.073 209.799C199.073 208.913 198.869 208.132 198.461 207.458C198.052 206.78 197.47 206.254 196.716 205.876C195.962 205.498 195.094 205.309 194.117 205.309H187.472V222.323H194.525C196.05 222.323 197.263 221.888 198.162 221.018C199.061 220.149 199.51 218.992 199.51 217.543C199.51 216.465 199.268 215.561 198.787 214.827C198.306 214.096 197.615 213.601 196.716 213.343V213.346ZM189.688 207.24H193.852C194.767 207.24 195.487 207.473 196.009 207.94C196.531 208.406 196.791 209.058 196.791 209.896C196.791 210.734 196.527 211.349 195.996 211.84C195.465 212.332 194.751 212.578 193.852 212.578H189.688V207.243V207.24ZM196.417 219.597C195.88 220.13 195.144 220.394 194.214 220.394H189.688V214.433H194.214C195.16 214.433 195.899 214.698 196.43 215.23C196.961 215.763 197.225 216.494 197.225 217.426C197.225 218.359 196.955 219.068 196.417 219.597Z" fill="white"/>
<path d="M204.134 205.309H201.99V222.323H204.134V205.309Z" fill="white"/>
<path d="M215.965 210.366C215.009 209.811 213.906 209.534 212.655 209.534C211.404 209.534 210.298 209.808 209.345 210.353C208.39 210.901 207.651 211.673 207.129 212.669C206.608 213.668 206.347 214.808 206.347 216.097C206.347 217.385 206.608 218.526 207.129 219.525C207.651 220.523 208.39 221.299 209.345 221.853C210.301 222.408 211.404 222.685 212.655 222.685C213.906 222.685 215.032 222.411 215.978 221.866C216.924 221.317 217.659 220.546 218.181 219.55C218.703 218.551 218.964 217.401 218.964 216.1C218.964 214.799 218.703 213.674 218.181 212.685C217.659 211.695 216.921 210.923 215.965 210.369V210.366ZM215.679 219.474C214.931 220.293 213.925 220.706 212.658 220.706C211.392 220.706 210.386 220.297 209.647 219.474C208.908 218.655 208.541 217.527 208.541 216.097C208.541 214.666 208.908 213.564 209.647 212.741C210.386 211.919 211.388 211.509 212.658 211.509C213.928 211.509 214.934 211.919 215.679 212.741C216.424 213.56 216.798 214.679 216.798 216.097C216.798 217.515 216.424 218.655 215.679 219.474Z" fill="white"/>
<path d="M226.693 211.509C227.607 211.509 228.387 211.758 229.028 212.256C229.669 212.754 230.078 213.504 230.257 214.499H232.448C232.366 213.567 232.089 212.722 231.618 211.966C231.143 211.21 230.486 210.615 229.644 210.18C228.802 209.745 227.827 209.528 226.718 209.528C225.482 209.528 224.389 209.805 223.442 210.359C222.496 210.914 221.764 211.692 221.252 212.688C220.739 213.687 220.481 214.821 220.481 216.091C220.481 217.36 220.739 218.494 221.252 219.493C221.764 220.492 222.49 221.27 223.43 221.834C224.37 222.398 225.457 222.679 226.693 222.679C227.815 222.679 228.799 222.458 229.641 222.014C230.483 221.57 231.14 220.977 231.615 220.227C232.09 219.481 232.366 218.639 232.445 217.707H230.254C230.078 218.737 229.672 219.493 229.037 219.975C228.402 220.457 227.62 220.7 226.689 220.7C225.454 220.7 224.473 220.294 223.754 219.481C223.031 218.668 222.669 217.537 222.669 216.091C222.669 214.644 223.031 213.535 223.754 212.722C224.477 211.91 225.454 211.503 226.689 211.503L226.693 211.509Z" fill="white"/>
<path d="M245.376 209.893H242.607L236.829 215.637V205.309H234.686V222.323H236.829V218.268L238.898 216.289L243.138 222.323H245.64L240.343 214.818L245.376 209.893Z" fill="white"/>
<path d="M252.31 211.509C253.224 211.509 254.004 211.758 254.645 212.256C255.286 212.754 255.695 213.504 255.874 214.499H258.065C257.983 213.567 257.707 212.722 257.235 211.966C256.761 211.21 256.104 210.615 255.261 210.18C254.419 209.745 253.444 209.528 252.335 209.528C251.1 209.528 250.009 209.805 249.06 210.359C248.113 210.914 247.381 211.692 246.869 212.688C246.356 213.687 246.099 214.821 246.099 216.091C246.099 217.36 246.356 218.494 246.869 219.493C247.381 220.492 248.11 221.27 249.047 221.834C249.987 222.398 251.074 222.679 252.31 222.679C253.432 222.679 254.416 222.458 255.258 222.014C256.1 221.573 256.757 220.977 257.232 220.227C257.707 219.481 257.983 218.639 258.062 217.707H255.871C255.695 218.737 255.29 219.493 254.655 219.975C254.02 220.457 253.237 220.7 252.307 220.7C251.071 220.7 250.091 220.294 249.371 219.481C248.648 218.668 248.286 217.537 248.286 216.091C248.286 214.644 248.648 213.535 249.371 212.722C250.094 211.91 251.071 211.503 252.307 211.503L252.31 211.509Z" fill="white"/>
<path d="M266.226 209.531C265.408 209.531 264.657 209.701 263.975 210.038C263.293 210.375 262.784 210.841 262.447 211.437V205.306H260.304V222.319H262.447V215.104C262.447 214.043 262.74 213.182 263.328 212.521C263.912 211.862 264.726 211.531 265.77 211.531C266.716 211.531 267.458 211.825 267.995 212.411C268.533 213 268.803 213.863 268.803 215.004V222.316H270.922V214.714C270.922 212.943 270.5 211.635 269.658 210.791C268.816 209.947 267.672 209.525 266.226 209.525V209.531Z" fill="white"/>
<path d="M283.488 219.547V213.296C283.488 212.203 283.092 211.301 282.297 210.593C281.502 209.884 280.295 209.531 278.673 209.531C277.211 209.531 275.986 209.899 274.989 210.64C273.993 211.38 273.465 212.385 273.399 213.655H275.615C275.662 212.915 275.979 212.351 276.567 211.966C277.152 211.579 277.856 211.387 278.673 211.387C279.541 211.387 280.207 211.557 280.672 211.894C281.137 212.231 281.37 212.681 281.37 213.245C281.37 213.68 281.238 213.998 280.974 214.2C280.71 214.402 280.304 214.559 279.757 214.67L276.677 215.249C275.602 215.441 274.731 215.842 274.065 216.443C273.399 217.045 273.065 217.896 273.065 218.989C273.065 220.082 273.471 221.034 274.282 221.692C275.093 222.351 276.13 222.682 277.4 222.682C278.396 222.682 279.223 222.508 279.88 222.162C280.537 221.815 281.052 221.418 281.42 220.968C281.533 221.497 281.782 221.897 282.168 222.162C282.555 222.427 283.026 222.559 283.589 222.559C284.152 222.559 284.658 222.461 285.107 222.269V220.483C284.9 220.549 284.658 220.58 284.384 220.58C283.79 220.58 283.495 220.234 283.495 219.544L283.488 219.547ZM281.37 217.905C281.37 218.759 281.03 219.455 280.348 219.991C279.666 220.53 278.821 220.801 277.809 220.801C277.038 220.801 276.419 220.64 275.954 220.319C275.489 219.997 275.256 219.531 275.256 218.92C275.256 218.356 275.432 217.915 275.787 217.593C276.14 217.272 276.693 217.039 277.45 216.894L279.471 216.506C280.515 216.314 281.15 216.097 281.373 215.854V217.905H281.37Z" fill="white"/>
<path d="M287.798 205.189C287.396 205.189 287.05 205.331 286.764 205.611C286.478 205.892 286.33 206.241 286.33 206.661C286.33 207.08 286.472 207.429 286.751 207.71C287.031 207.99 287.38 208.132 287.798 208.132C288.216 208.132 288.565 207.987 288.845 207.697C289.124 207.407 289.266 207.061 289.266 206.661C289.266 206.26 289.124 205.892 288.845 205.611C288.565 205.331 288.216 205.189 287.798 205.189Z" fill="white"/>
<path d="M288.86 209.893H286.716V222.323H288.86V209.893Z" fill="white"/>
<path d="M297.718 209.531C296.882 209.531 296.121 209.707 295.43 210.063C294.738 210.416 294.226 210.901 293.889 211.513V209.896H291.796V222.326H293.94V215.111C293.94 214.049 294.232 213.189 294.82 212.527C295.404 211.869 296.218 211.538 297.262 211.538C298.208 211.538 298.95 211.837 299.487 212.429C300.025 213.025 300.295 213.894 300.295 215.035V222.323H302.414V214.72C302.414 212.949 301.993 211.642 301.15 210.797C300.308 209.953 299.164 209.531 297.718 209.531Z" fill="white"/>
<path d="M318.783 211.632C318.381 210.974 317.799 210.457 317.039 210.088C316.275 209.72 315.511 209.534 314.738 209.534C313.534 209.534 312.487 209.808 311.595 210.353C310.705 210.901 310.023 211.673 309.548 212.669C309.074 213.668 308.838 214.808 308.838 216.097C308.838 217.385 309.083 218.526 309.573 219.525C310.064 220.524 310.746 221.299 311.62 221.853C312.493 222.408 313.509 222.685 314.665 222.685C315.498 222.685 316.294 222.499 317.048 222.13C317.802 221.762 318.387 221.229 318.805 220.536V222.323H320.899V205.309H318.78V211.632H318.783ZM317.809 219.462C317.08 220.29 316.127 220.706 314.955 220.706C313.704 220.706 312.736 220.3 312.053 219.487C311.371 218.674 311.029 217.543 311.029 216.097C311.029 214.651 311.375 213.542 312.063 212.729C312.751 211.916 313.716 211.509 314.952 211.509C315.706 211.509 316.385 211.695 316.985 212.064C317.589 212.433 318.057 212.965 318.393 213.658C318.73 214.351 318.899 215.164 318.899 216.097C318.899 217.511 318.535 218.636 317.802 219.465L317.809 219.462Z" fill="white"/>
<path d="M332.354 210.281C331.43 209.783 330.377 209.534 329.189 209.534C328 209.534 326.951 209.808 326.036 210.353C325.121 210.901 324.408 211.664 323.892 212.647C323.38 213.63 323.122 214.761 323.122 216.05C323.122 217.338 323.38 218.551 323.892 219.55C324.405 220.549 325.131 221.321 326.07 221.866C327.01 222.411 328.114 222.685 329.38 222.685C330.858 222.685 332.096 222.319 333.099 221.585C334.101 220.854 334.749 219.843 335.038 218.557H332.822C332.58 219.298 332.171 219.856 331.593 220.234C331.015 220.612 330.286 220.801 329.402 220.801C328.23 220.801 327.281 220.442 326.548 219.726C325.819 219.011 325.413 218.041 325.332 216.818H335.154C335.217 216.336 335.252 215.927 335.252 215.586V215.514C335.252 214.323 335 213.277 334.494 212.376C333.988 211.475 333.275 210.775 332.351 210.274L332.354 210.281ZM325.335 215.035C325.464 213.894 325.869 213 326.551 212.357C327.233 211.714 328.12 211.393 329.211 211.393C330.301 211.393 331.238 211.724 331.92 212.382C332.602 213.041 332.967 213.926 333.017 215.038H325.338L325.335 215.035Z" fill="white"/>
<path d="M342.066 222.323H352.395V220.297H344.282V214.528H351.842V212.502H344.282V207.335H352.395V205.309H342.066V222.323Z" fill="white"/>
<path d="M361.451 215.274L358.584 214.792C357.927 214.679 357.459 214.503 357.188 214.263C356.915 214.02 356.78 213.677 356.78 213.226C356.78 212.663 357.022 212.212 357.503 211.875C357.983 211.538 358.618 211.368 359.404 211.368C360.256 211.368 360.944 211.569 361.476 211.973C362.007 212.376 362.302 212.93 362.365 213.639H364.531C364.499 212.385 364.028 211.387 363.123 210.646C362.214 209.906 361.007 209.537 359.499 209.537C358.537 209.537 357.682 209.695 356.934 210.007C356.189 210.322 355.61 210.766 355.202 211.346C354.793 211.925 354.589 212.584 354.589 213.324C354.589 215.205 355.664 216.327 357.814 216.68L360.702 217.162C361.328 217.275 361.777 217.461 362.051 217.716C362.324 217.975 362.459 218.353 362.459 218.85C362.459 219.446 362.208 219.925 361.702 220.287C361.196 220.649 360.526 220.829 359.69 220.829C358.76 220.829 357.99 220.599 357.38 220.142C356.77 219.682 356.434 219.077 356.368 218.321H354.202C354.218 219.175 354.454 219.934 354.913 220.602C355.371 221.27 356.003 221.784 356.814 222.146C357.625 222.508 358.543 222.688 359.571 222.688C361.095 222.688 362.318 222.326 363.242 221.601C364.166 220.876 364.625 219.928 364.625 218.753C364.625 217.789 364.355 217.007 363.817 216.412C363.28 215.816 362.488 215.438 361.447 215.278L361.451 215.274Z" fill="white"/>
<path d="M376.412 210.366C375.522 209.811 374.472 209.534 373.268 209.534C372.483 209.534 371.703 209.723 370.933 210.101C370.163 210.479 369.585 211.005 369.198 211.683V209.896H367.104V226.308H369.248V220.59C369.666 221.264 370.248 221.784 370.993 222.146C371.738 222.508 372.53 222.688 373.363 222.688C374.501 222.688 375.513 222.411 376.396 221.856C377.279 221.302 377.961 220.527 378.442 219.528C378.923 218.529 379.165 217.389 379.165 216.1C379.165 214.811 378.929 213.674 378.455 212.685C377.98 211.695 377.298 210.923 376.409 210.369L376.412 210.366ZM375.965 219.487C375.274 220.3 374.303 220.706 373.052 220.706C371.879 220.706 370.93 220.294 370.197 219.462C369.465 218.633 369.1 217.511 369.1 216.094C369.1 214.676 369.468 213.579 370.207 212.751C370.946 211.922 371.892 211.509 373.048 211.509C374.299 211.509 375.271 211.916 375.962 212.729C376.654 213.542 376.996 214.663 376.996 216.097C376.996 217.53 376.651 218.674 375.962 219.487H375.965Z" fill="white"/>
<path d="M391.135 219.547V213.296C391.135 212.203 390.739 211.301 389.944 210.593C389.148 209.884 387.941 209.531 386.319 209.531C384.858 209.531 383.632 209.899 382.636 210.64C381.639 211.38 381.111 212.385 381.045 213.655H383.261C383.308 212.915 383.626 212.351 384.213 211.966C384.798 211.579 385.502 211.387 386.319 211.387C387.187 211.387 387.853 211.557 388.319 211.894C388.784 212.231 389.016 212.681 389.016 213.245C389.016 213.68 388.884 213.998 388.62 214.2C388.356 214.402 387.951 214.559 387.404 214.67L384.324 215.249C383.249 215.441 382.378 215.842 381.711 216.443C381.045 217.045 380.712 217.896 380.712 218.989C380.712 220.082 381.117 221.034 381.928 221.692C382.739 222.351 383.777 222.682 385.046 222.682C386.043 222.682 386.87 222.508 387.526 222.162C388.183 221.815 388.699 221.418 389.067 220.968C389.18 221.497 389.428 221.897 389.815 222.162C390.201 222.427 390.673 222.559 391.236 222.559C391.798 222.559 392.304 222.461 392.754 222.269V220.483C392.546 220.549 392.304 220.58 392.031 220.58C391.437 220.58 391.141 220.234 391.141 219.544L391.135 219.547ZM389.016 217.905C389.016 218.759 388.677 219.455 387.995 219.991C387.313 220.53 386.467 220.801 385.455 220.801C384.685 220.801 384.066 220.64 383.601 220.319C383.135 219.997 382.903 219.531 382.903 218.92C382.903 218.356 383.079 217.915 383.434 217.593C383.786 217.272 384.339 217.039 385.097 216.894L387.118 216.506C388.161 216.314 388.796 216.097 389.02 215.854V217.905H389.016Z" fill="white"/>
<path d="M397.913 207.445C398.048 207.259 398.236 207.168 398.478 207.168C398.72 207.168 398.975 207.25 399.248 207.41L399.802 207.725C400.122 207.902 400.424 208.041 400.704 208.135C400.984 208.233 401.295 208.28 401.631 208.28C402.354 208.28 402.92 208.034 403.328 207.543C403.737 207.051 403.941 206.39 403.941 205.551H402.159C402.159 205.873 402.09 206.128 401.955 206.311C401.82 206.497 401.631 206.588 401.389 206.588C401.197 206.588 400.949 206.5 400.644 206.323L400.091 206.034C399.418 205.646 398.805 205.454 398.261 205.454C397.539 205.454 396.973 205.703 396.564 206.201C396.155 206.698 395.951 207.366 395.951 208.204H397.708C397.708 207.883 397.777 207.628 397.913 207.445Z" fill="white"/>
<path d="M400.285 209.531C399.449 209.531 398.688 209.707 397.997 210.063C397.305 210.416 396.793 210.901 396.457 211.513V209.896H394.363V222.326H396.507V215.111C396.507 214.049 396.799 213.189 397.387 212.527C397.972 211.869 398.786 211.538 399.829 211.538C400.776 211.538 401.517 211.837 402.055 212.429C402.592 213.025 402.863 213.894 402.863 215.035V222.323H404.981V214.72C404.981 212.949 404.56 211.642 403.718 210.797C402.875 209.953 401.731 209.531 400.285 209.531Z" fill="white"/>
<path d="M417.548 219.547V213.296C417.548 212.203 417.152 211.301 416.357 210.593C415.562 209.884 414.355 209.531 412.733 209.531C411.271 209.531 410.045 209.899 409.049 210.64C408.052 211.38 407.524 212.385 407.458 213.655H409.674C409.721 212.915 410.039 212.351 410.627 211.966C411.211 211.579 411.915 211.387 412.733 211.387C413.6 211.387 414.267 211.557 414.732 211.894C415.197 212.231 415.43 212.681 415.43 213.245C415.43 213.68 415.297 213.998 415.033 214.2C414.769 214.402 414.364 214.559 413.817 214.67L410.737 215.249C409.662 215.441 408.791 215.842 408.125 216.443C407.458 217.045 407.125 217.896 407.125 218.989C407.125 220.082 407.53 221.034 408.341 221.692C409.152 222.351 410.19 222.682 411.46 222.682C412.456 222.682 413.283 222.508 413.94 222.162C414.597 221.815 415.112 221.418 415.48 220.968C415.593 221.497 415.841 221.897 416.228 222.162C416.615 222.427 417.086 222.559 417.649 222.559C418.211 222.559 418.717 222.461 419.167 222.269V220.483C418.959 220.549 418.717 220.58 418.444 220.58C417.85 220.58 417.554 220.234 417.554 219.544L417.548 219.547ZM415.43 217.905C415.43 218.759 415.09 219.455 414.408 219.991C413.726 220.53 412.88 220.801 411.868 220.801C411.098 220.801 410.479 220.64 410.014 220.319C409.548 219.997 409.316 219.531 409.316 218.92C409.316 218.356 409.492 217.915 409.847 217.593C410.199 217.272 410.752 217.039 411.51 216.894L413.531 216.506C414.575 216.314 415.209 216.097 415.433 215.854V217.905H415.43Z" fill="white"/>
<path d="M205.922 72.895H186.748V156.782H205.922V72.895Z" fill="white"/>
<path d="M265.967 141.063C263.094 143.074 259.222 144.075 254.35 144.075C248.824 144.075 244.329 142.771 240.862 140.165C237.395 137.56 235.443 134.085 235.013 129.74H215.512C215.619 135.496 217.3 140.6 220.55 145.052C223.8 149.507 228.295 152.979 234.038 155.478C239.778 157.973 246.278 159.224 253.539 159.224C264.481 159.224 273.228 156.675 279.782 151.568C286.336 146.464 289.614 139.734 289.614 131.369C289.614 124.853 287.772 119.56 284.088 115.486C280.404 111.416 274.988 108.835 267.838 107.748L248.013 104.654C244.219 104.002 241.513 103 239.888 101.642C238.263 100.284 237.452 98.359 237.452 95.861C237.452 92.713 238.806 90.158 241.513 88.204C244.219 86.251 247.903 85.271 252.564 85.271C257.547 85.271 261.582 86.468 264.672 88.854C267.759 91.245 269.466 94.449 269.793 98.463H289.293C288.97 89.887 285.556 83.069 279.056 78.021C272.556 72.971 263.943 70.447 253.218 70.447C246.284 70.447 240.161 71.563 234.855 73.787C229.546 76.015 225.429 79.137 222.505 83.154C219.579 87.174 218.117 91.844 218.117 97.162C218.117 103.57 220.013 108.756 223.804 112.717C227.594 116.683 233.23 119.261 240.705 120.455L260.042 123.549C263.723 124.201 266.351 125.234 267.922 126.643C269.491 128.054 270.28 130.118 270.28 132.834C270.28 136.309 268.843 139.05 265.974 141.06L265.967 141.063Z" fill="white"/>
<path d="M344.355 159.227C352.156 159.227 359.034 157.352 364.993 153.606C370.95 149.86 375.529 144.62 378.726 137.887C381.92 131.154 383.52 123.448 383.52 114.758C383.52 106.069 381.948 98.387 378.808 91.708C375.665 85.029 371.113 79.817 365.157 76.071C359.197 72.325 352.156 70.45 344.031 70.45C339.046 70.45 334.17 71.537 329.405 73.708C324.637 75.882 320.956 78.976 318.354 82.993V50.308H299.18V156.785H317.543V145.871C320.249 150.216 324.043 153.527 328.918 155.809C333.793 158.09 338.939 159.23 344.355 159.23V159.227ZM323.798 134.63C319.41 129.853 317.216 123.227 317.216 114.758C317.216 106.289 319.41 99.963 323.798 95.13C328.186 90.3 333.844 87.88 340.781 87.88C347.718 87.88 353.753 90.243 357.924 94.966C362.092 99.689 364.179 106.286 364.179 114.758C364.179 123.231 362.092 129.853 357.924 134.63C353.753 139.409 348.035 141.797 340.781 141.797C333.526 141.797 328.186 139.409 323.798 134.63Z" fill="white"/>
<path d="M471.493 89.836C467.972 83.645 463.043 78.869 456.703 75.501C450.367 72.136 443.077 70.45 434.848 70.45C426.619 70.45 419.49 72.297 413.154 75.989C406.817 79.682 401.885 84.868 398.365 91.544C394.844 98.224 393.084 105.855 393.084 114.431C393.084 123.445 394.844 131.318 398.365 138.048C401.885 144.784 406.867 149.996 413.314 153.685C419.758 157.374 427.261 159.224 435.82 159.224C446.221 159.224 454.887 156.754 461.821 151.813C468.752 146.873 473.303 140.005 475.472 131.208H455.971C454.67 135.118 452.316 138.158 448.902 140.329C445.488 142.503 441.236 143.587 436.147 143.587C429.213 143.587 423.658 141.58 419.49 137.56C415.319 133.543 413.015 128.057 412.585 121.107H476.123C476.553 118.501 476.773 115.3 476.773 111.497V111.173C476.773 103.139 475.01 96.024 471.493 89.833V89.836ZM412.588 106.614C413.129 100.098 415.433 94.994 419.494 91.302C423.555 87.612 428.729 85.763 435.012 85.763C441.295 85.763 446.793 87.663 450.857 91.465C454.918 95.268 457.005 100.319 457.112 106.614H412.588Z" fill="white"/>
</svg>
