<svg width="100" height="31" viewBox="0 0 100 31" fill="none" xmlns="http://www.w3.org/2000/svg">
<path d="M38.4097 10.9103C37.2497 10.9103 36.8796 9.75031 36.8796 8.63031C36.8796 7.51031 37.2597 6.35031 38.4097 6.35031C39.4197 6.35031 39.6496 7.28031 39.6896 7.58031V7.60031H42.0897C41.8797 5.53031 40.6697 4.33031 38.4797 4.32031C36.0197 4.32031 34.4297 6.05031 34.4297 8.66031C34.4297 11.1103 35.8997 13.0003 38.4797 13.0003C40.8197 13.0003 42.1197 11.2103 42.1197 9.54031H39.6996C39.5496 10.3303 39.2297 10.9203 38.3997 10.9203L38.4097 10.9103Z" fill="black"/>
<path d="M46.0311 12.9394C48.2111 12.9394 49.191 11.4294 49.191 9.76937C49.191 8.10937 48.2111 6.60938 46.0311 6.60938C43.8511 6.60938 42.8711 8.08937 42.8711 9.76937C42.8711 11.4494 43.8511 12.9394 46.0311 12.9394ZM46.0311 8.26937C46.8611 8.26937 46.9811 9.12937 46.9811 9.75937C46.9811 10.3894 46.8711 11.2494 46.0311 11.2494C45.1911 11.2494 45.0811 10.3994 45.0811 9.75937C45.0811 9.11937 45.2011 8.26937 46.0311 8.26937Z" fill="black"/>
<path d="M56.0404 12.7696V9.49961C56.0404 8.86961 56.2404 8.41961 56.8004 8.41961C57.4704 8.41961 57.5304 8.93961 57.5304 9.49961V12.7696H59.7404V8.63961C59.7404 7.66961 59.2004 6.59961 57.7404 6.59961C56.2804 6.59961 55.8504 7.47961 55.7604 7.53961C55.5004 6.92961 54.8204 6.59961 54.2004 6.59961C53.3804 6.59961 52.7504 6.86961 52.3004 7.55961H52.2804V6.75961H50.1504V12.7796H52.3604V9.50961C52.3604 8.87961 52.5604 8.42961 53.1204 8.42961C53.7904 8.42961 53.8504 8.94961 53.8504 9.50961V12.7796H56.0604L56.0404 12.7696Z" fill="black"/>
<path d="M62.9004 12.9202C63.7904 12.9202 64.3804 12.6102 64.7904 12.0102H64.8104V12.7802H66.9304V6.75023H64.7204V9.92023C64.7204 10.8802 64.2204 11.0802 63.8404 11.0802C63.1904 11.0802 63.1104 10.5902 63.1104 9.90023V6.74023H60.9004V10.8702C60.9004 12.2502 61.8504 12.9102 62.9004 12.9102V12.9202Z" fill="black"/>
<path d="M70.3702 12.7791V9.60914C70.3702 8.64914 70.8701 8.44914 71.2501 8.44914C71.9001 8.44914 71.9802 8.93914 71.9802 9.62914V12.7891H74.1901V8.65914C74.1901 7.27914 73.2401 6.61914 72.1901 6.61914C71.3101 6.61914 70.7102 6.92914 70.3002 7.52914H70.2802V6.75914H68.1602V12.7891H70.3702V12.7791Z" fill="black"/>
<path d="M77.6396 6.76953H75.4297V12.7995H77.6396V6.76953Z" fill="black"/>
<path d="M77.6396 4.49023H75.4297V6.11023H77.6396V4.49023Z" fill="black"/>
<path d="M82.7999 12.12H82.8199V12.78H84.9499V4.5H82.7399V7.42H82.7199C82.3899 6.9 81.7999 6.6 81.1299 6.6C79.1999 6.6 78.6699 8.33 78.6699 9.74C78.6699 11.25 79.4599 12.93 81.0999 12.93C82.1699 12.93 82.5099 12.49 82.7899 12.11L82.7999 12.12ZM81.8299 11.26C81.0399 11.26 80.8599 10.49 80.8599 9.77C80.8599 9.05 81.0399 8.28 81.8299 8.28C82.6199 8.28 82.8099 9.07 82.7999 9.77C82.7999 10.48 82.6199 11.26 81.8299 11.26Z" fill="black"/>
<path d="M89.7496 12.2196C89.7296 12.3796 89.7696 12.6296 89.8296 12.7896H92.0796C91.8196 12.3996 91.8096 11.8896 91.8096 11.4396H91.8396V8.95961C91.8396 7.79961 91.8596 6.59961 89.0896 6.59961C87.7096 6.59961 86.1696 6.87961 86.1096 8.57961H88.1696C88.1896 8.32961 88.3196 7.96961 88.9996 7.96961C89.3596 7.96961 89.7296 8.12961 89.7296 8.53961C89.7296 8.91961 89.4296 9.00961 89.1296 9.06961C87.9996 9.28961 85.8496 9.22961 85.8496 11.1296C85.8496 12.3996 86.7696 12.9496 87.8896 12.9496C88.5996 12.9496 89.2796 12.7796 89.7496 12.2296H89.7696L89.7496 12.2196ZM88.7396 11.5696C88.3296 11.5696 88.0396 11.2996 88.0396 11.0196C88.0396 10.6296 88.2996 10.4896 88.7996 10.3796C89.0996 10.2996 89.3896 10.2196 89.6596 10.0896V10.6296C89.6296 11.2596 89.2396 11.5696 88.7396 11.5696Z" fill="black"/>
<path d="M96.8102 4.5V7.42H96.7902C96.4602 6.9 95.8702 6.6 95.2002 6.6C93.2702 6.6 92.7402 8.33 92.7402 9.74C92.7402 11.25 93.5302 12.93 95.1702 12.93C96.2402 12.93 96.5802 12.49 96.8602 12.11H96.8802V12.77H99.0102V4.5H96.8002H96.8102ZM95.9002 11.26C95.1102 11.26 94.9302 10.49 94.9302 9.77C94.9302 9.05 95.1102 8.28 95.9002 8.28C96.6902 8.28 96.8702 9.07 96.8702 9.77C96.8702 10.47 96.6902 11.26 95.9002 11.26Z" fill="black"/>
<path d="M38.9704 18.3401H38.9404C38.5804 17.7701 37.9104 17.4301 37.1704 17.4301C34.9904 17.4301 34.4004 19.3501 34.4004 20.9301C34.4004 22.6101 35.2804 24.5001 37.1204 24.5001C38.3404 24.5001 38.7104 24.0101 39.0204 23.5901H39.0504V24.3301H41.4404V15.0801H38.9604V18.3501L38.9704 18.3401ZM37.9704 22.6301C37.0804 22.6301 36.8804 21.7501 36.8804 20.9501C36.8804 20.1501 37.0804 19.2801 37.9704 19.2801C38.8604 19.2801 39.0604 20.1301 39.0604 20.9501C39.0604 21.7701 38.8604 22.6301 37.9704 22.6301Z" fill="black"/>
<path d="M45.9495 17.4199C43.8895 17.4199 42.5195 19.0199 42.5195 20.9899C42.5195 23.2399 44.0895 24.5099 46.1595 24.5099C47.6395 24.5099 48.9995 23.8299 49.4995 22.3699H47.1895C46.9795 22.6999 46.5595 22.8599 46.1495 22.8599C45.3795 22.8599 44.9595 22.3099 44.8995 21.5399H49.6495C49.6495 18.9199 48.5295 17.4199 45.9595 17.4199H45.9495ZM44.9095 20.1999C45.0195 19.4799 45.4396 19.0699 46.1796 19.0699C46.8096 19.0699 47.2695 19.5699 47.2695 20.1999H44.9095Z" fill="black"/>
<path d="M60.0911 20.5086H60.0611L58.7911 15.0586H54.8711V24.3286H57.4711V18.3786H57.501L59.0411 24.3286H61.1011L62.6611 18.3786H62.6711V24.3286H65.2711V15.0586H61.3611L60.0911 20.5086Z" fill="black"/>
<path d="M72.9796 20.0599C72.9796 18.7599 73.0095 17.4199 69.9095 17.4199C68.3695 17.4199 66.6395 17.7299 66.5695 19.6399H68.8696C68.8896 19.3599 69.0396 18.9499 69.7896 18.9499C70.1996 18.9499 70.6096 19.1199 70.6096 19.5799C70.6096 19.9999 70.2596 20.1099 69.9296 20.1799C68.6796 20.4199 66.2695 20.3399 66.2695 22.4699C66.2695 23.8799 67.2996 24.5099 68.5496 24.5099C69.3496 24.5099 70.1095 24.3399 70.6395 23.7099H70.6696C70.6496 23.8799 70.6995 24.1499 70.7595 24.3399H73.2795C73.0095 23.9199 72.9796 23.3299 72.9796 22.8299V20.0699V20.0599ZM70.6096 21.9399C70.5596 22.6499 70.1295 22.9899 69.5695 22.9899C69.1195 22.9899 68.7996 22.6799 68.7996 22.3599C68.7996 21.8999 69.0895 21.7599 69.6295 21.6399C69.9795 21.5599 70.3096 21.4699 70.6096 21.3099V21.9399Z" fill="black"/>
<path d="M78.5602 18.3401H78.5302C78.1702 17.7701 77.5002 17.4301 76.7602 17.4301C74.5802 17.4301 73.9902 19.3501 73.9902 20.9301C73.9902 22.6101 74.8702 24.5001 76.7102 24.5001C77.9302 24.5001 78.3002 24.0101 78.6102 23.5901H78.6402V24.3301H81.0302V15.0801H78.5502V18.3501L78.5602 18.3401ZM77.5702 22.6301C76.6802 22.6301 76.4802 21.7501 76.4802 20.9501C76.4802 20.1501 76.6802 19.2801 77.5702 19.2801C78.4602 19.2801 78.6602 20.1301 78.6602 20.9501C78.6602 21.7701 78.4602 22.6301 77.5702 22.6301Z" fill="black"/>
<path d="M84.7906 18.6697H84.7606V17.5897H82.3906V24.3597H84.8707V21.6897C84.8707 20.2397 85.4007 19.6497 86.3707 19.6497C86.8807 19.6497 87.1006 19.7297 87.3506 19.8197V17.5397C87.1106 17.4597 86.8807 17.4297 86.6207 17.4297C85.7107 17.4297 85.1806 17.8697 84.7906 18.6697Z" fill="black"/>
<path d="M90.48 15.0586H88V16.8686H90.48V15.0586Z" fill="black"/>
<path d="M90.48 17.5898H88V24.3298H90.48V17.5898Z" fill="black"/>
<path d="M96.1599 18.3401H96.1298C95.7698 17.7701 95.0999 17.4301 94.3599 17.4301C92.1799 17.4301 91.5898 19.3501 91.5898 20.9301C91.5898 22.6101 92.4699 24.5001 94.3099 24.5001C95.5299 24.5001 95.8998 24.0101 96.2098 23.5901H96.2399V24.3301H98.6298V15.0801H96.1498V18.3501L96.1599 18.3401ZM95.1599 22.6301C94.2699 22.6301 94.0698 21.7501 94.0698 20.9501C94.0698 20.1501 94.2699 19.2801 95.1599 19.2801C96.0499 19.2801 96.2498 20.1301 96.2498 20.9501C96.2498 21.7701 96.0499 22.6301 95.1599 22.6301Z" fill="black"/>
<path d="M0 0H30.1V30.1H0V0Z" fill="#DD092B"/>
<path d="M6.48035 13.1603L8.10034 11.9803H6.13031L5.52032 10.0703L4.87036 11.9803L2.86035 12.0103L4.51031 13.2003L3.90033 15.0603L5.52032 13.9103L7.13031 15.0603L6.48035 13.1603Z" fill="white"/>
<path d="M12.8799 13.1603L14.49 11.9803H12.48L11.87 10.0703L11.2599 11.9803L9.20996 12.0103L10.87 13.2003L10.29 15.0603L11.87 13.9103L13.49 15.0603L12.8799 13.1603Z" fill="white"/>
<path d="M19.2703 13.1603L20.8803 11.9803H18.8704L18.2603 10.0703L17.6503 11.9803L15.6104 12.0103L17.2603 13.2003L16.6804 15.0603L18.2603 13.9103L19.8803 15.0603L19.2703 13.1603Z" fill="white"/>
<path d="M15.6802 16.3892L15.0302 14.4492L14.4202 16.3892L12.4102 16.4292L14.0602 17.5792L13.4501 19.4792L15.0302 18.2992L16.6401 19.4392L16.0302 17.5792L17.6501 16.3592L15.6802 16.3892Z" fill="white"/>
<path d="M9.27954 16.3892L8.66956 14.4492L8.06952 16.3892L6.01953 16.4292L7.66956 17.5792L7.05957 19.4792L8.66956 18.2992L10.2896 19.4392L9.67957 17.5792L11.2896 16.3592L9.27954 16.3892Z" fill="white"/>
<path d="M22.0698 16.3892L21.4598 14.4492L20.8498 16.3892L18.7998 16.4292L20.4498 17.5792L19.8398 19.4792L21.4598 18.2992L23.0698 19.4392L22.4298 17.5792L24.0398 16.3592L22.0698 16.3892Z" fill="white"/>
<path d="M25.2602 11.9803L24.6502 10.0703L24.0402 11.9803L21.9902 12.0103L23.6502 13.2003L23.0402 15.0603L24.6502 13.9103L26.2702 15.0603L25.6602 13.1603L27.2702 11.9803H25.2602Z" fill="white"/>
</svg>
