<svg width="77" height="24" viewBox="0 0 77 24" fill="none" xmlns="http://www.w3.org/2000/svg">
<path d="M29.8156 8.6159C28.9258 8.6159 28.642 7.73686 28.642 6.88814C28.642 6.03942 28.9335 5.16038 29.8156 5.16038C30.5903 5.16038 30.7667 5.86512 30.7974 6.09246V6.10762H32.6384C32.4773 4.53899 31.5492 3.62965 29.8693 3.62207C27.9823 3.62207 26.7627 4.93304 26.7627 6.91087C26.7627 8.76745 27.8903 10.1997 29.8693 10.1997C31.6642 10.1997 32.6614 8.84323 32.6614 7.57773H30.8051C30.69 8.17638 30.4446 8.62347 29.8079 8.62347L29.8156 8.6159Z" fill="white"/>
<path d="M35.6612 10.1542C37.3334 10.1542 38.0851 9.00996 38.0851 7.75203C38.0851 6.4941 37.3334 5.35742 35.6612 5.35742C33.989 5.35742 33.2373 6.47895 33.2373 7.75203C33.2373 9.02512 33.989 10.1542 35.6612 10.1542ZM35.6612 6.61535C36.2979 6.61535 36.3899 7.26705 36.3899 7.74445C36.3899 8.22186 36.3056 8.87356 35.6612 8.87356C35.0169 8.87356 34.9325 8.22944 34.9325 7.74445C34.9325 7.25947 35.0245 6.61535 35.6612 6.61535Z" fill="white"/>
<path d="M43.3393 10.0252V7.5472C43.3393 7.06979 43.4927 6.72878 43.9223 6.72878C44.4362 6.72878 44.4822 7.12283 44.4822 7.5472V10.0252H46.1775V6.8955C46.1775 6.16044 45.7633 5.34961 44.6433 5.34961C43.5234 5.34961 43.1936 6.01646 43.1245 6.06193C42.9251 5.59968 42.4035 5.34961 41.9279 5.34961C41.2989 5.34961 40.8157 5.55421 40.4705 6.07709H40.4551V5.47086H38.8213V10.0327H40.5165V7.55477C40.5165 7.07737 40.6699 6.73636 41.0995 6.73636C41.6134 6.73636 41.6594 7.13041 41.6594 7.55477V10.0327H43.3547L43.3393 10.0252Z" fill="white"/>
<path d="M48.6015 10.1392C49.2842 10.1392 49.7368 9.90427 50.0513 9.4496H50.0666V10.0331H51.6928V5.46363H49.9976V7.86582C49.9976 8.5933 49.614 8.74486 49.3226 8.74486C48.824 8.74486 48.7626 8.37354 48.7626 7.85067V5.45605H47.0674V8.58572C47.0674 9.63147 47.7961 10.1316 48.6015 10.1316V10.1392Z" fill="white"/>
<path d="M54.331 10.0332V7.63102C54.331 6.90354 54.7145 6.75199 55.006 6.75199C55.5045 6.75199 55.5659 7.1233 55.5659 7.64618V10.0408H57.2611V6.91112C57.2611 5.86537 56.5324 5.36523 55.727 5.36523C55.052 5.36523 54.5918 5.60015 54.2773 6.05482H54.2619V5.47132H52.6357V10.0408H54.331V10.0332Z" fill="white"/>
<path d="M59.9081 5.47852H58.2129V10.048H59.9081V5.47852Z" fill="white"/>
<path d="M59.9081 3.75098H58.2129V4.97859H59.9081V3.75098Z" fill="white"/>
<path d="M63.8662 9.53314H63.8815V10.0333H65.5154V3.75879H63.8202V5.97153H63.8049C63.5517 5.57748 63.0991 5.35014 62.5852 5.35014C61.1048 5.35014 60.6982 6.66112 60.6982 7.7296C60.6982 8.87386 61.3042 10.1469 62.5622 10.1469C63.383 10.1469 63.6438 9.81352 63.8586 9.52556L63.8662 9.53314ZM63.1222 8.88144C62.5162 8.88144 62.3781 8.29794 62.3781 7.75233C62.3781 7.20673 62.5162 6.62323 63.1222 6.62323C63.7281 6.62323 63.8739 7.22188 63.8662 7.75233C63.8662 8.29036 63.7281 8.88144 63.1222 8.88144Z" fill="white"/>
<path d="M69.1966 9.60838C69.1813 9.72963 69.212 9.91907 69.258 10.0403H70.9839C70.7845 9.74478 70.7768 9.35831 70.7768 9.01731H70.7998V7.13799C70.7998 6.25896 70.8151 5.34961 68.6904 5.34961C67.6318 5.34961 66.4505 5.56179 66.4045 6.85003H67.9847C68 6.66058 68.0997 6.38778 68.6213 6.38778C68.8975 6.38778 69.1813 6.50903 69.1813 6.81972C69.1813 7.10768 68.9512 7.17588 68.721 7.22135C67.8542 7.38806 66.2051 7.34259 66.2051 8.78239C66.2051 9.74478 66.9108 10.1616 67.7699 10.1616C68.3145 10.1616 68.8361 10.0327 69.1966 9.61596H69.212L69.1966 9.60838ZM68.4219 9.11582C68.1074 9.11582 67.885 8.91121 67.885 8.69903C67.885 8.4035 68.0844 8.29741 68.4679 8.21405C68.6981 8.15343 68.9205 8.0928 69.1276 7.99429V8.4035C69.1046 8.8809 68.8054 9.11582 68.4219 9.11582Z" fill="white"/>
<path d="M74.6122 3.75879V5.97153H74.5968C74.3437 5.57748 73.8911 5.35014 73.3772 5.35014C71.8967 5.35014 71.4902 6.66112 71.4902 7.7296C71.4902 8.87386 72.0962 10.1469 73.3542 10.1469C74.175 10.1469 74.4358 9.81352 74.6505 9.52556H74.6659V10.0257H76.2997V3.75879H74.6045H74.6122ZM73.9141 8.88144C73.3082 8.88144 73.1701 8.29794 73.1701 7.75233C73.1701 7.20673 73.3082 6.62323 73.9141 6.62323C74.5201 6.62323 74.6582 7.22188 74.6582 7.75233C74.6582 8.28279 74.5201 8.88144 73.9141 8.88144Z" fill="white"/>
<path d="M30.2457 14.2468H30.2227C29.9466 13.8148 29.4327 13.5572 28.865 13.5572C27.1928 13.5572 26.7402 15.0121 26.7402 16.2094C26.7402 17.4825 27.4153 18.9147 28.8267 18.9147C29.7625 18.9147 30.0463 18.5434 30.2841 18.2251H30.3071V18.7859H32.1404V11.7764H30.2381V14.2543L30.2457 14.2468ZM29.4787 17.4977C28.796 17.4977 28.6425 16.8308 28.6425 16.2246C28.6425 15.6184 28.796 14.9591 29.4787 14.9591C30.1614 14.9591 30.3148 15.6032 30.3148 16.2246C30.3148 16.846 30.1614 17.4977 29.4787 17.4977Z" fill="white"/>
<path d="M35.5998 13.5488C34.0196 13.5488 32.9688 14.7613 32.9688 16.2541C32.9688 17.9592 34.1731 18.9215 35.7609 18.9215C36.8961 18.9215 37.9393 18.4063 38.3229 17.2999H36.5509C36.3899 17.55 36.0677 17.6712 35.7532 17.6712C35.1626 17.6712 34.8404 17.2544 34.7944 16.6709H38.4379C38.4379 14.6855 37.5788 13.5488 35.6075 13.5488H35.5998ZM34.8021 15.6555C34.8864 15.1099 35.2086 14.7992 35.7762 14.7992C36.2595 14.7992 36.6123 15.1781 36.6123 15.6555H34.8021Z" fill="white"/>
<path d="M46.4455 15.8907H46.4225L45.4483 11.7607H42.4414V18.7854H44.4358V14.2766H44.4587L45.6401 18.7854H47.2202L48.4168 14.2766H48.4245V18.7854H50.4189V11.7607H47.4197L46.4455 15.8907Z" fill="white"/>
<path d="M56.3336 15.5494C56.3336 14.5643 56.3566 13.5488 53.9787 13.5488C52.7974 13.5488 51.4703 13.7837 51.4166 15.2311H53.1809C53.1963 15.0189 53.3113 14.7082 53.8866 14.7082C54.2011 14.7082 54.5156 14.8371 54.5156 15.1857C54.5156 15.5039 54.2471 15.5873 53.994 15.6403C53.0352 15.8222 51.1865 15.7616 51.1865 17.3757C51.1865 18.4441 51.9766 18.9215 52.9355 18.9215C53.5491 18.9215 54.1321 18.7927 54.5386 18.3153H54.5616C54.5463 18.4441 54.5846 18.6487 54.6306 18.7927H56.5637C56.3566 18.4745 56.3336 18.0274 56.3336 17.6485V15.557V15.5494ZM54.5156 16.974C54.4773 17.5121 54.1474 17.7697 53.7178 17.7697C53.3727 17.7697 53.1272 17.5348 53.1272 17.2923C53.1272 16.9437 53.3496 16.8376 53.7639 16.7467C54.0323 16.6861 54.2855 16.6179 54.5156 16.4966V16.974Z" fill="white"/>
<path d="M60.6139 14.2468H60.5909C60.3147 13.8148 59.8008 13.5572 59.2331 13.5572C57.5609 13.5572 57.1084 15.0121 57.1084 16.2094C57.1084 17.4825 57.7834 18.9147 59.1948 18.9147C60.1306 18.9147 60.4145 18.5434 60.6522 18.2251H60.6752V18.7859H62.5085V11.7764H60.6062V14.2543L60.6139 14.2468ZM59.8545 17.4977C59.1718 17.4977 59.0184 16.8308 59.0184 16.2246C59.0184 15.6184 59.1718 14.9591 59.8545 14.9591C60.5372 14.9591 60.6906 15.6032 60.6906 16.2246C60.6906 16.846 60.5372 17.4977 59.8545 17.4977Z" fill="white"/>
<path d="M65.3927 14.4963H65.3697V13.6779H63.5518V18.8081H65.4541V16.7848C65.4541 15.686 65.8607 15.2389 66.6047 15.2389C66.9959 15.2389 67.1647 15.2996 67.3564 15.3678V13.64C67.1723 13.5794 66.9959 13.5566 66.7965 13.5566C66.0985 13.5566 65.6919 13.8901 65.3927 14.4963Z" fill="white"/>
<path d="M69.7569 11.7607H67.8545V13.1323H69.7569V11.7607Z" fill="white"/>
<path d="M69.7569 13.6777H67.8545V18.7852H69.7569V13.6777Z" fill="white"/>
<path d="M74.1139 14.2468H74.0909C73.8147 13.8148 73.3008 13.5572 72.7332 13.5572C71.061 13.5572 70.6084 15.0121 70.6084 16.2094C70.6084 17.4825 71.2834 18.9147 72.6948 18.9147C73.6307 18.9147 73.9145 18.5434 74.1522 18.2251H74.1753V18.7859H76.0085V11.7764H74.1062V14.2543L74.1139 14.2468ZM73.3468 17.4977C72.6641 17.4977 72.5107 16.8308 72.5107 16.2246C72.5107 15.6184 72.6641 14.9591 73.3468 14.9591C74.0295 14.9591 74.1829 15.6032 74.1829 16.2246C74.1829 16.846 74.0295 17.4977 73.3468 17.4977Z" fill="white"/>
<path d="M0 23.499H23.7868V0H0V23.499ZM0.352821 0.348583H23.4416V23.158H0.352821V0.348583Z" fill="white"/>
<path d="M5.32365 10.3211L6.5663 9.42687H5.05515L4.58725 7.97949L4.08869 9.42687L2.54688 9.4496L3.81251 10.3514L3.34461 11.7609L4.58725 10.8894L5.82222 11.7609L5.32365 10.3211Z" fill="white"/>
<path d="M10.2331 10.3211L11.4681 9.42687H9.92629L9.45839 7.97949L8.99045 9.42687L7.41797 9.4496L8.69133 10.3514L8.24641 11.7609L9.45839 10.8894L10.701 11.7609L10.2331 10.3211Z" fill="white"/>
<path d="M15.1346 10.3211L16.3696 9.42687H14.8278L14.3598 7.97949L13.8919 9.42687L12.3271 9.4496L13.5928 10.3514L13.1479 11.7609L14.3598 10.8894L15.6025 11.7609L15.1346 10.3211Z" fill="white"/>
<path d="M12.3804 12.7689L11.8818 11.2988L11.4139 12.7689L9.87207 12.7992L11.1377 13.6707L10.6698 15.1105L11.8818 14.2163L13.1167 15.0802L12.6488 13.6707L13.8915 12.7462L12.3804 12.7689Z" fill="white"/>
<path d="M7.47135 12.7689L7.00345 11.2988L6.54318 12.7689L4.9707 12.7992L6.23638 13.6707L5.76848 15.1105L7.00345 14.2163L8.24609 15.0802L7.77819 13.6707L9.01316 12.7462L7.47135 12.7689Z" fill="white"/>
<path d="M17.2817 12.7689L16.8138 11.2988L16.3459 12.7689L14.7734 12.7992L16.0391 13.6707L15.5712 15.1105L16.8138 14.2163L18.0488 15.0802L17.5579 13.6707L18.7929 12.7462L17.2817 12.7689Z" fill="white"/>
<path d="M19.729 9.42687L19.2611 7.97949L18.7932 9.42687L17.2207 9.4496L18.494 10.3514L18.0261 11.7609L19.2611 10.8894L20.5037 11.7609L20.0358 10.3211L21.2708 9.42687H19.729Z" fill="white"/>
</svg>
