<svg width="98" height="25" viewBox="0 0 98 25" fill="none" xmlns="http://www.w3.org/2000/svg">
<path d="M0 24.037H35.845V0H0V24.037ZM0.68269 0.651698H35.1623V23.3702H0.68269V0.651698Z" fill="black"/>
<path d="M17.9194 3.37207L17.6356 4.22837H16.7305L17.4669 4.75882L17.1907 5.59997L17.9194 5.07709L18.6558 5.59997L18.3643 4.75882L19.1084 4.22837H18.1956L17.9194 3.37207Z" fill="black"/>
<path d="M14.1597 4.36523L13.8758 5.22154H12.9707L13.6994 5.74441L13.4309 6.60071L14.1597 6.07784L14.873 6.60071L14.6046 5.74441L15.3486 5.22154H14.4281L14.1597 4.36523Z" fill="black"/>
<path d="M11.3979 7.09277L11.1141 7.94907H10.209L10.953 8.47195L10.6692 9.32825L11.3979 8.80538L12.1267 9.32825L11.8428 8.47195L12.5869 7.94907H11.6741L11.3979 7.09277Z" fill="black"/>
<path d="M10.3862 12.5183L11.1149 13.0336L10.8388 12.1924L11.5752 11.662H10.67L10.3862 10.8057L10.1101 11.662H9.19727L9.94132 12.1924L9.65751 13.0336L10.3862 12.5183Z" fill="black"/>
<path d="M11.6741 15.3905L11.3979 14.5342L11.1141 15.3905H10.209L10.9377 15.9209L10.6692 16.7621L11.3979 16.2392L12.1267 16.7621L11.8428 15.9209L12.5869 15.3905H11.6741Z" fill="black"/>
<path d="M14.4281 18.119L14.1597 17.2627L13.8758 18.119H12.9707L13.6994 18.6494L13.4309 19.4906L14.1597 18.9677L14.873 19.4906L14.6046 18.6494L15.3486 18.119H14.4281Z" fill="black"/>
<path d="M18.1954 19.1112L17.9193 18.2549L17.6355 19.1112H16.7227L17.4667 19.6341L17.1906 20.4828L17.9193 19.9523L18.6403 20.4828L18.3642 19.6341L19.1082 19.1112H18.1954Z" fill="black"/>
<path d="M21.9532 18.119L21.6694 17.2627L21.4009 18.119H20.4805L21.2245 18.6494L20.9407 19.4906L21.6694 18.9677L22.3981 19.4906L22.1297 18.6494L22.8584 18.119H21.9532Z" fill="black"/>
<path d="M24.715 15.3905L24.4311 14.5342L24.1627 15.3905H23.2422L23.9862 15.9209L23.7101 16.7621L24.4311 16.2468L25.1599 16.7621L24.8914 15.9209L25.6354 15.3905H24.715Z" fill="black"/>
<path d="M25.7189 11.6627L25.4351 10.7988L25.1589 11.6627H24.2461L24.9901 12.1932L24.714 13.0343L25.4351 12.5114L26.1638 13.0343L25.8876 12.1932L26.624 11.6627H25.7189Z" fill="black"/>
<path d="M23.7101 9.32067L24.4465 8.79022L25.1599 9.32067L24.8914 8.47195L25.6354 7.94907H24.715L24.4465 7.09277L24.1627 7.94907H23.2422L23.9862 8.47195L23.7101 9.32067Z" fill="black"/>
<path d="M21.693 4.36523L21.4092 5.23669L20.5117 5.22154L21.2404 5.75956L20.9643 6.60071L21.693 6.07784L22.414 6.60071L22.1456 5.75956L22.882 5.23669H21.9691L21.693 4.36523Z" fill="black"/>
<path d="M42.3501 22.4157L40.0259 18.9678H39.4199V23.3554V23.3629H39.9875V19.915L42.3118 23.3629H42.9177V18.9754H42.3501V22.4157Z" fill="black"/>
<path d="M45.1732 20.1113C44.7283 20.1113 44.3678 20.2553 44.084 20.5508C43.8002 20.8464 43.6621 21.2707 43.6621 21.8012C43.6621 22.3316 43.8002 22.7333 44.0687 23.0137C44.3371 23.294 44.8127 23.438 45.1809 23.438C45.5491 23.438 45.8636 23.3547 46.0937 23.1728C46.3392 22.9909 46.5003 22.7484 46.5923 22.415L46.0323 22.3392V22.3241C45.948 22.559 45.8329 22.7181 45.6948 22.8242C45.5568 22.9379 45.4494 22.9833 45.1886 22.9833C44.9278 22.9833 44.69 22.8848 44.5212 22.703C44.3448 22.5211 44.2528 22.2483 44.2221 21.9073H46.623V21.7633C46.623 21.2404 46.4849 20.8237 46.2164 20.5433C45.948 20.2629 45.6105 20.1189 45.1656 20.1189L45.1732 20.1113ZM44.2451 21.4678H44.2297C44.2528 21.2025 44.3371 20.9752 44.5136 20.8085C44.69 20.6494 44.8587 20.566 45.1425 20.566C45.4264 20.566 45.6488 20.6645 45.8252 20.8691C45.9403 21.0055 46.0093 21.2025 46.0323 21.4678H44.2374H44.2451Z" fill="black"/>
<path d="M46.9219 23.3636L46.9301 23.3555H46.9219V23.3636Z" fill="black"/>
<path d="M49.8521 20.1873H49.1924L48.6478 20.9299C48.5711 21.0436 48.4867 21.1497 48.4023 21.2861C48.3563 21.1875 48.2796 21.0815 48.1799 20.9299L47.6813 20.1873H46.9986L48.0878 21.718L46.9219 23.3548H47.5969L48.4407 22.1045L48.6171 22.3697L49.2768 23.3624H49.9441L48.7398 21.6725L49.8521 20.1797V20.1873Z" fill="black"/>
<path d="M51.5701 22.8849C51.4704 22.9077 51.4091 22.9077 51.3324 22.9077C51.2556 22.9077 51.1943 22.8925 51.1483 22.8698C51.1022 22.8319 51.0715 22.8091 51.0485 22.7561C51.0255 22.7182 51.0255 22.6121 51.0255 22.4606V20.604H51.5701V20.1872H51.0255V19.0732L50.4809 19.3915V20.172H50.082V20.5888H50.4809V22.4075C50.4809 22.7258 50.4962 22.9455 50.5423 23.0441C50.5883 23.1426 50.665 23.2259 50.7801 23.2865C50.8875 23.3472 51.0409 23.3851 51.2403 23.3851C51.3477 23.3851 51.5011 23.3699 51.6468 23.3396L51.5701 22.8622V22.8773V22.8849Z" fill="black"/>
<path d="M54.2539 21.6421V21.6573H55.581V22.4757C55.4429 22.5893 55.2741 22.6803 55.021 22.7788C54.7832 22.8773 54.5761 22.9228 54.2769 22.9228C53.9778 22.9228 53.7093 22.847 53.4485 22.7257C53.1877 22.6045 52.9883 22.3923 52.8579 22.1422C52.7121 21.8846 52.6508 21.483 52.6508 21.1647C52.6508 20.8464 52.7121 20.5509 52.8272 20.2857C52.9039 20.1417 52.9883 19.9901 53.111 19.8613C53.2261 19.7249 53.3795 19.6264 53.5789 19.543C53.7784 19.4597 54.0468 19.4218 54.2693 19.4218C54.4917 19.4218 54.6912 19.4597 54.8753 19.5355C55.0594 19.6112 55.1974 19.7173 55.2971 19.8386C55.3969 19.9598 55.4812 20.1417 55.5426 20.3614L56.0719 20.2175C55.9952 19.9219 55.8878 19.6794 55.7344 19.4976C55.5886 19.3157 55.3892 19.1793 55.1284 19.0732C54.8676 18.9595 54.7065 18.9141 54.2616 18.9141C53.8167 18.9141 53.4178 18.9974 53.088 19.1793C52.7505 19.3536 52.4973 19.634 52.3056 19.9977C52.1215 20.3614 52.0371 20.7555 52.0371 21.195C52.0371 21.6345 52.1215 22.0134 52.3056 22.3696C52.4897 22.7106 52.7505 22.9834 53.111 23.1653C53.4715 23.3471 53.9778 23.4456 54.3 23.4456C54.6221 23.4456 54.929 23.385 55.2434 23.2713C55.5426 23.1577 55.8494 22.991 56.1332 22.7561V21.1268H54.2539V21.6421Z" fill="black"/>
<path d="M58.2592 20.1113C57.8143 20.1113 57.4537 20.2553 57.1699 20.5508C56.8861 20.8464 56.748 21.2707 56.748 21.8012C56.748 22.3316 56.8861 22.7333 57.1546 23.0137C57.4231 23.294 57.8986 23.438 58.2668 23.438C58.635 23.438 58.9495 23.3547 59.1796 23.1728C59.4251 22.9909 59.5862 22.7484 59.6782 22.415L59.1183 22.3392V22.3241C59.0339 22.559 58.9188 22.7181 58.7808 22.8242C58.6427 22.9379 58.5353 22.9833 58.2745 22.9833C58.0137 22.9833 57.7759 22.8848 57.6072 22.703C57.4307 22.5211 57.3387 22.2483 57.308 21.9073H59.7089V21.7633C59.7089 21.2404 59.5709 20.8237 59.3024 20.5433C59.0339 20.2629 58.6964 20.1189 58.2515 20.1189L58.2592 20.1113ZM57.3387 21.4678H57.3233C57.3464 21.2025 57.4384 20.9752 57.6072 20.8085C57.7836 20.6494 57.9523 20.566 58.2362 20.566C58.52 20.566 58.7424 20.6645 58.9188 20.8691C59.0262 21.0055 59.1029 21.2025 59.126 21.4678H57.331H57.3387Z" fill="black"/>
<path d="M62.7989 20.4902C62.7146 20.3766 62.5918 20.2932 62.4307 20.225C62.2697 20.1492 62.3464 20.1113 61.9015 20.1113C61.4566 20.1113 61.1114 20.2856 60.8736 20.6342V20.1795H60.375V23.3547L60.398 23.3774H60.9426V21.6421C60.9426 21.2404 61.027 20.9601 61.1881 20.8085C61.3492 20.6645 61.5486 20.5887 61.7787 20.5887C61.9245 20.5887 62.0472 20.6266 62.1623 20.6872C62.262 20.7479 62.3464 20.8312 62.3847 20.9449C62.4231 21.0586 62.4461 21.2101 62.4461 21.4375V23.3698H62.9907V21.4147C62.9907 21.1571 62.9907 20.9904 62.9677 20.8919C62.9293 20.7327 62.8833 20.5963 62.7913 20.4902H62.7989Z" fill="black"/>
<path d="M65.1615 20.127C64.7166 20.127 64.3561 20.2709 64.0723 20.5665C63.7885 20.862 63.6504 21.2864 63.6504 21.8168C63.6504 22.3473 63.7885 22.7489 64.0569 23.0293C64.3254 23.3097 64.801 23.4536 65.1692 23.4536C65.5374 23.4536 65.8519 23.3703 66.082 23.1884C66.3275 23.0065 66.4885 22.7641 66.5806 22.4306L66.0206 22.3549V22.3397C65.9362 22.5746 65.8212 22.7337 65.6831 22.8398C65.545 22.9535 65.4377 22.999 65.1769 22.999C64.916 22.999 64.6783 22.9005 64.5095 22.7186C64.3331 22.5367 64.241 22.2639 64.2103 21.9229H66.6113V21.7789C66.6113 21.2561 66.4732 20.8393 66.2047 20.5589C65.9363 20.2785 65.5987 20.1345 65.1538 20.1345L65.1615 20.127ZM64.2334 21.4682H64.218C64.241 21.203 64.3254 20.9757 64.5018 20.809C64.6783 20.6498 64.847 20.5665 65.1308 20.5665C65.4146 20.5665 65.6371 20.665 65.8135 20.8696C65.9286 21.006 65.9976 21.203 66.0206 21.4682H64.2257H64.2334Z" fill="black"/>
<path d="M68.1074 20.225C68.0077 20.2856 67.885 20.4448 67.7623 20.6645V20.1871H67.2637V23.3547H67.8236V21.6951C67.8236 21.4753 67.8466 21.2707 67.908 21.0737C67.9464 20.9525 68.0077 20.854 68.1074 20.7782C68.2072 20.7024 68.3069 20.6645 68.4296 20.6645C68.5523 20.6645 68.6904 20.71 68.8285 20.7858L69.0126 20.2856C68.8285 20.172 68.6444 20.1113 68.4526 20.1113C68.3299 20.1113 68.2148 20.1492 68.1074 20.225Z" fill="black"/>
<path d="M71.9577 22.0595V21.3396C71.9577 21.0972 71.9577 20.938 71.9347 20.8395C71.8963 20.6955 71.8503 20.5743 71.7583 20.4758C71.6739 20.3773 71.5512 20.2939 71.3747 20.2333C71.1983 20.1727 70.9759 20.1348 70.7074 20.1348C70.4389 20.1348 70.1858 20.1727 69.9787 20.2484C69.7716 20.3242 69.6105 20.4303 69.4954 20.5667C69.388 20.7107 69.3113 20.9001 69.2576 21.1199L69.7869 21.1957C69.8483 20.9608 69.9327 20.8016 70.0554 20.7183C70.1781 20.6349 70.3545 20.5819 70.623 20.5819C70.8915 20.5819 71.1063 20.6425 71.2443 20.7637C71.3441 20.8471 71.3901 21.0062 71.3901 21.226V21.3624C71.1906 21.4382 70.8685 21.4988 70.4236 21.5443C70.2165 21.567 70.0554 21.6049 69.9403 21.6276C69.7946 21.6655 69.6565 21.7261 69.5415 21.8019C69.4187 21.8777 69.3343 21.9838 69.2576 22.105C69.1809 22.2414 69.1426 22.2642 69.1426 22.5294C69.1426 22.7946 69.2423 23.0219 69.4264 23.1887C69.6258 23.3629 69.8866 23.4463 70.2395 23.4463C70.4466 23.4463 70.646 23.4008 70.8301 23.3326C71.0142 23.272 71.2137 23.1508 71.4131 22.9765H71.4284V22.9992C71.4438 23.1432 71.4745 23.2796 71.5358 23.3933H72.1035C72.0421 23.272 71.9884 23.1508 71.9654 23.0144C71.927 22.878 71.927 22.5597 71.927 22.0595H71.9577ZM71.3824 21.7867V21.9838C71.3824 22.2187 71.3594 22.4006 71.298 22.5218C71.2213 22.6658 71.0986 22.8022 70.9375 22.8855C70.7764 22.9689 70.5923 23.0219 70.3776 23.0219C70.1628 23.0219 70.0094 22.9765 69.8943 22.878C69.7792 22.7794 69.7332 22.6734 69.7332 22.5218C69.7332 22.4233 69.7562 22.3399 69.8099 22.2642C69.8636 22.1884 69.925 22.1277 70.017 22.0899C70.1014 22.0444 70.2625 22.0141 70.4849 21.9762C70.8838 21.9156 71.1753 21.8398 71.3747 21.7716V21.7867H71.3824Z" fill="black"/>
<path d="M73.9764 22.9005C73.8767 22.9233 73.8153 22.9233 73.7386 22.9233C73.6619 22.9233 73.5929 22.9081 73.5545 22.8854C73.5085 22.8475 73.4778 22.8248 73.4548 22.7717C73.4318 22.7338 73.4318 22.6277 73.4318 22.4762V20.6196H73.9764V20.2028H73.4318V19.0889L72.8872 19.4071V20.1877H72.4883V20.6044H72.8872V22.4231C72.8872 22.7414 72.9025 22.9612 72.9485 23.0597C72.9946 23.1582 73.0713 23.2415 73.1863 23.3022C73.3014 23.3628 73.4471 23.4007 73.6466 23.4007C73.7693 23.4007 73.9074 23.3855 74.0531 23.3552L73.9764 22.8778V22.893V22.9005Z" fill="black"/>
<path d="M75.0505 20.2031H74.5059V23.3783H75.0505V20.2031Z" fill="black"/>
<path d="M75.0505 18.9902H74.5059V19.6116H75.0505V18.9902Z" fill="black"/>
<path d="M77.1908 20.127C76.7919 20.127 76.4468 20.2482 76.1783 20.4831C75.8408 20.7635 75.6797 21.203 75.6797 21.7941C75.6797 22.3321 75.8254 22.7489 76.1016 23.0293C76.3777 23.3097 76.7459 23.4536 77.1908 23.4536C77.4746 23.4536 77.7354 23.393 77.9732 23.2566C78.211 23.1202 78.3951 22.9383 78.5178 22.7034C78.6406 22.4685 78.7019 22.2412 78.7019 21.741C78.7019 21.2409 78.5639 20.8393 78.28 20.5513C77.9962 20.2709 77.5897 20.127 77.1908 20.127ZM77.8735 22.7034C77.6894 22.908 77.467 23.0065 77.1908 23.0065C76.9147 23.0065 76.6922 22.908 76.5081 22.7034C76.324 22.4988 76.2396 22.1881 76.2396 21.7865L76.255 21.8017C76.255 21.3849 76.3394 21.0818 76.5235 20.8847C76.7076 20.6801 76.9453 20.5816 77.2061 20.5816C77.467 20.5816 77.6894 20.6801 77.8735 20.8847C78.0576 21.0893 78.142 21.3621 78.142 21.7789C78.142 22.1957 78.0576 22.4988 77.8735 22.711V22.7034Z" fill="black"/>
<path d="M81.754 20.5058C81.6696 20.3922 81.5469 20.3088 81.3858 20.2406C81.2247 20.1648 81.3014 20.127 80.8565 20.127C80.4116 20.127 80.0665 20.3012 79.8287 20.6498V20.1952H79.3301V23.3703L79.3531 23.393H79.8977V21.6577C79.8977 21.2561 79.9821 20.9757 80.1432 20.8241C80.3043 20.6801 80.5037 20.6044 80.7338 20.6044C80.8795 20.6044 81.0023 20.6422 81.1173 20.7029C81.2171 20.7635 81.3014 20.8469 81.3398 20.9605C81.3781 21.0742 81.4012 21.2257 81.4012 21.4531V23.3854H81.9458V21.4303C81.9458 21.1727 81.9458 21.006 81.9228 20.9075C81.8844 20.7483 81.8384 20.6119 81.7463 20.5058H81.754Z" fill="black"/>
<path d="M83.4423 21.3621H85.8893V20.8468H83.4423V19.5055H86.0657V18.9902H82.8594V23.3627H86.1654V22.855H83.4423V21.3621Z" fill="black"/>
<path d="M82.8595 23.378V23.3623H82.8438L82.8595 23.378Z" fill="black"/>
<path d="M89.9151 19.0125V21.5435C89.9151 22.0967 89.8308 22.4604 89.6467 22.6574C89.4626 22.8544 89.1481 22.953 88.7185 22.953C88.4577 22.953 88.2506 22.9075 88.0742 22.809C87.8977 22.7105 87.775 22.5741 87.706 22.3922C87.6446 22.2103 87.6063 21.9299 87.6063 21.5511V19.02H87.0156V21.5511C87.0156 22.0133 87.077 22.3846 87.1921 22.6498C87.3071 22.9151 87.4989 23.1121 87.7597 23.2637C88.0205 23.4001 88.3427 23.4683 88.7722 23.4683C89.2018 23.4683 89.5546 23.3849 89.8154 23.2258C90.0762 23.0515 90.2603 22.8469 90.36 22.5892C90.4598 22.3316 90.5058 21.9754 90.5058 21.5359V19.0049H89.9151L89.9305 19.02L89.9151 19.0125Z" fill="black"/>
<path d="M40.4709 3.56909H42.6111V2.71279H40.4709V1.51548H42.9562V0.65918H39.4277V5.72121H40.4709V3.56909Z" fill="black"/>
<path d="M44.7883 0.65918H43.7988V1.56095H44.7883V0.65918Z" fill="black"/>
<path d="M44.7883 2.05371H43.7988V5.73656H44.7883V2.05371Z" fill="black"/>
<path d="M47.1063 2.86466C47.2444 2.7813 47.4285 2.72826 47.5666 2.72826C47.7046 2.72826 47.812 2.76615 47.9117 2.82677C48.0115 2.88739 48.0882 2.97075 48.1189 3.092C48.1572 3.21324 48.1802 3.47089 48.1802 3.86494V5.73668H49.1697L49.1467 5.71394V3.42542C49.1467 3.14504 49.1314 2.92528 49.1007 2.77372C49.0777 2.62974 49.001 2.49334 48.9166 2.3721C48.8169 2.25085 48.6942 2.15234 48.5101 2.07656C48.3336 2.00078 48.4103 1.96289 47.9194 1.96289C47.4285 1.96289 47.0143 2.16749 46.6921 2.58428V2.04625H45.7793V5.7291H46.7688V4.06954C46.7688 3.66791 46.7918 3.37238 46.8455 3.2284C46.8915 3.08442 46.9836 2.96317 47.114 2.86466H47.1063Z" fill="black"/>
<path d="M52.3296 5.44137C52.368 5.57778 52.4063 5.67629 52.4293 5.73691H53.4035C53.3191 5.56262 53.2654 5.39591 53.2271 5.24435C53.1887 5.10037 53.1887 4.8503 53.1887 4.53203V3.39534C53.1887 2.97856 53.1427 2.68302 53.0507 2.52389C52.9663 2.36475 52.8052 2.22835 52.5904 2.12984C52.3833 2.01617 52.0918 1.9707 51.6162 1.9707C51.1407 1.9707 50.7725 2.05406 50.527 2.22835C50.2815 2.38749 50.1051 2.65271 50.0054 3.00887L50.8722 3.16043C50.9335 2.99372 51.0103 2.88005 51.1023 2.81185C51.202 2.75122 51.248 2.71334 51.5089 2.71334C51.7697 2.71334 51.9384 2.75123 52.0381 2.83458C52.1225 2.91794 52.1762 3.05434 52.1762 3.23621V3.33472C51.9998 3.4105 51.6776 3.4787 51.225 3.56964C50.8875 3.63026 50.6344 3.70604 50.4426 3.7894C50.2662 3.88791 50.1205 4.00915 50.0207 4.16829C49.921 4.32743 49.875 4.4032 49.875 4.72147C49.875 5.03975 49.9901 5.29739 50.2125 5.502C50.435 5.7066 50.7341 5.80511 51.1176 5.80511C51.3401 5.80511 51.5472 5.76722 51.739 5.68387C51.9384 5.60051 52.1072 5.47926 52.2836 5.32013C52.2989 5.33528 52.3219 5.3656 52.3219 5.4338L52.3296 5.44137ZM52.2299 4.16829C52.2299 4.4032 52.2146 4.56234 52.1915 4.6457C52.1532 4.76694 52.0765 4.88061 51.9538 4.96397C51.7927 5.07764 51.6086 5.13826 51.4475 5.13826C51.2864 5.13826 51.1483 5.09279 51.0486 4.99428C50.9489 4.89577 50.9029 4.77452 50.9029 4.63812C50.9182 4.50172 50.9796 4.38047 51.1023 4.29711C51.1867 4.23649 51.3631 4.17587 51.6316 4.12282C51.9001 4.07735 52.0995 4.00915 52.2222 3.97884V4.17587L52.2299 4.16829Z" fill="black"/>
<path d="M50.9035 3.18292L50.8789 3.1748V3.18292H50.9035Z" fill="black"/>
<path d="M57.5525 5.73668L57.5295 5.71394V3.42542C57.5295 3.14504 57.5065 2.92528 57.4835 2.77372C57.4605 2.62974 57.3838 2.49334 57.2994 2.3721C57.1997 2.25085 57.077 2.15234 56.8929 2.07656C56.7164 2.00078 56.7931 1.96289 56.3022 1.96289C55.8113 1.96289 55.3971 2.16749 55.0749 2.58428V2.04625H54.1621V5.7291H55.1516V4.06954C55.1516 3.66791 55.1746 3.37238 55.2283 3.2284C55.2744 3.08442 55.3664 2.96317 55.4968 2.86466C55.6349 2.7813 55.819 2.72826 55.957 2.72826C56.0951 2.72826 56.2025 2.76615 56.3022 2.82677C56.4019 2.88739 56.4787 2.97075 56.5093 3.092C56.5477 3.21324 56.5707 3.47089 56.5707 3.86494V5.73668H57.5602H57.5525Z" fill="black"/>
<path d="M60.1155 5.83492C60.5834 5.83492 60.967 5.72125 61.2508 5.50149C61.5346 5.28173 61.734 4.9483 61.8338 4.50879L60.8673 4.34965C60.8212 4.6073 60.7445 4.77401 60.6218 4.88768C60.5067 5.00135 60.4147 5.04682 60.1616 5.04682C59.9084 5.04682 59.7167 4.96346 59.5709 4.78159C59.4252 4.59972 59.3485 4.24356 59.3485 3.84951C59.3485 3.45546 59.4328 3.17508 59.5709 3.00837C59.709 2.83407 59.9775 2.75072 60.1539 2.75072C60.3303 2.75072 60.4914 2.79619 60.5988 2.8947C60.7062 2.99321 60.7829 3.12961 60.8212 3.31906L61.7801 3.15235C61.6573 2.76587 61.4732 2.47791 61.2048 2.28089C60.944 2.08386 60.6755 1.98535 60.1309 1.98535C59.5863 1.98535 59.1414 2.14449 58.8192 2.48549C58.497 2.8265 58.3359 3.3039 58.3359 3.90256C58.3359 4.50121 58.497 4.96346 58.8192 5.31204C59.1414 5.65305 59.6476 5.82734 60.1155 5.82734V5.83492Z" fill="black"/>
<path d="M63.5286 0.65918H62.5391V1.56095H63.5286V0.65918Z" fill="black"/>
<path d="M63.513 2.05371H62.5234V5.73656H63.513V2.05371Z" fill="black"/>
<path d="M67.5865 5.259C67.5481 5.11502 67.5481 4.86495 67.5481 4.54668V3.40999C67.5481 2.99321 67.5021 2.69767 67.41 2.53854C67.3257 2.3794 67.1646 2.25816 66.9498 2.14449C66.7427 2.03082 66.4512 1.98535 65.9756 1.98535C65.5 1.98535 65.1318 2.06871 64.8864 2.243C64.6409 2.40213 64.4645 2.66736 64.3648 3.02352L65.2316 3.17508C65.2929 3.00837 65.3696 2.8947 65.4617 2.8265C65.5614 2.76587 65.6074 2.72798 65.8682 2.72798C66.129 2.72798 66.2978 2.76587 66.3975 2.84923C66.4819 2.93259 66.5356 3.06899 66.5356 3.25086V3.34937C66.3592 3.42515 66.037 3.49335 65.5844 3.58428C65.2469 3.64491 64.9938 3.72069 64.802 3.80404C64.6256 3.90256 64.4798 4.0238 64.3801 4.18294C64.2804 4.34207 64.2344 4.41785 64.2344 4.73612C64.2344 5.05439 64.3494 5.31204 64.5719 5.51664C64.7943 5.72125 65.0935 5.81976 65.477 5.81976C65.6995 5.81976 65.9066 5.78187 66.0983 5.69851C66.2978 5.61516 66.4665 5.49391 66.643 5.33478C66.6583 5.34993 66.6813 5.38024 66.6813 5.44844C66.7197 5.58485 66.758 5.68336 66.781 5.74398H67.7552C67.6708 5.56969 67.6171 5.40298 67.5788 5.25142L67.5865 5.259ZM66.5739 4.16778C66.5739 4.4027 66.5586 4.56183 66.5356 4.64519C66.4972 4.76643 66.4205 4.8801 66.2978 4.96346C66.1367 5.07713 65.9526 5.13775 65.7915 5.13775C65.6304 5.13775 65.4924 5.09228 65.3926 4.99377C65.2929 4.89526 65.2469 4.77401 65.2469 4.63761C65.2622 4.50121 65.3236 4.37996 65.4463 4.29661C65.523 4.23598 65.7071 4.17536 65.9756 4.12231C66.2441 4.06927 66.4435 4.00865 66.5663 3.97833V4.17536L66.5739 4.16778Z" fill="black"/>
<path d="M69.8482 5.8346C70.0553 5.8346 70.2547 5.77398 70.4695 5.67547C70.6689 5.57695 70.853 5.41782 70.9988 5.21322V5.75125H71.9116L71.9269 5.7664V0.681641H70.9374V2.50033C70.6382 2.15933 70.3161 1.98504 69.8635 1.98504C69.4109 1.98504 69.0351 2.14417 68.7359 2.4776C68.4368 2.79587 68.291 3.29601 68.291 3.89466C68.291 4.49332 68.4368 4.97072 68.7513 5.31173C69.0581 5.65273 69.4186 5.82702 69.8558 5.82702L69.8482 5.8346ZM69.2959 3.81888C69.2959 3.45515 69.3803 3.16719 69.5337 3.00047C69.6871 2.83376 69.8712 2.73525 70.1166 2.73525C70.3621 2.73525 70.5615 2.83376 70.7073 3.01563C70.8684 3.21265 70.9451 3.55366 70.9451 3.93255C70.9451 4.31145 70.8684 4.59183 70.7073 4.78885C70.5462 4.97072 70.4081 5.06924 70.1243 5.06924C69.8405 5.06924 69.618 4.94799 69.457 4.69034C69.3419 4.50847 69.2959 4.22809 69.2959 3.83404V3.81888Z" fill="black"/>
<path d="M73.6151 5.58461C73.9219 5.74375 74.037 5.81953 74.5893 5.81953C75.1416 5.81953 75.6018 5.63766 75.9623 5.26634C76.3228 4.9026 76.5069 4.43277 76.5069 3.88717C76.5069 3.34156 76.3305 2.87173 75.9777 2.51557C75.6171 2.15941 75.1492 1.97754 74.5893 1.97754C74.2211 1.97754 73.8989 2.05332 73.5997 2.21245C73.3006 2.37159 73.0781 2.6065 72.9171 2.90962C72.756 3.21273 72.6716 3.53101 72.6716 3.84928V3.83412H72.6562C72.6562 4.25848 72.7406 4.61464 72.9017 4.91018C73.0628 5.20572 73.3006 5.42548 73.6074 5.58461H73.6151ZM73.9373 3.08391C74.1137 2.88689 74.3361 2.78837 74.5816 2.78837C74.8271 2.78837 75.0495 2.88689 75.2259 3.08391C75.4023 3.28094 75.4867 3.54616 75.4867 3.91748C75.4867 4.28879 75.4023 4.56918 75.2259 4.75862C75.0495 4.95565 74.8271 5.05416 74.5816 5.05416C74.3361 5.05416 74.1137 4.95565 73.9373 4.75862C73.7608 4.5616 73.6765 4.28122 73.6765 3.91748C73.6765 3.55374 73.7608 3.28094 73.9373 3.08391Z" fill="black"/>
<path d="M80.22 5.2815C80.4041 5.47852 80.5882 5.61492 80.7493 5.69828C80.9103 5.78164 80.872 5.81953 81.3092 5.81953C81.7464 5.81953 82.0993 5.64524 82.4138 5.30423C82.7206 4.96323 82.8587 4.46309 82.874 3.87201C82.8894 3.28851 82.7283 2.81111 82.4291 2.47768C82.13 2.14425 81.7618 1.97754 81.3246 1.97754C81.0791 1.97754 80.8413 2.03816 80.6419 2.15183C80.4424 2.27308 80.2813 2.41706 80.1586 2.6065V2.06847H79.2458L79.2305 2.05332V7.1305H80.22V5.2815ZM80.4424 3.03087C80.5882 2.85657 80.803 2.76564 81.0331 2.76564C81.2632 2.76564 81.455 2.86415 81.616 3.04602C81.7771 3.22789 81.8538 3.48554 81.8538 3.90232C81.8538 4.31911 81.7771 4.61464 81.6314 4.79651C81.4856 4.97838 81.2939 5.06174 81.0638 5.06174C80.8336 5.06174 80.6189 4.96323 80.4578 4.7662C80.2967 4.56918 80.2123 4.26606 80.2123 3.84928C80.2123 3.48554 80.2967 3.19758 80.4501 3.03087H80.4424Z" fill="black"/>
<path d="M84.3553 5.60024C84.6621 5.75937 84.7772 5.83515 85.3295 5.83515C85.8818 5.83515 86.342 5.65328 86.7025 5.28197C87.0631 4.91823 87.2472 4.4484 87.2472 3.90279C87.2472 3.35718 87.0707 2.88735 86.7179 2.53119C86.3574 2.17503 85.8895 1.99316 85.3295 1.99316C84.9613 1.99316 84.6391 2.06894 84.34 2.22808C84.0408 2.38721 83.8184 2.62213 83.6573 2.92524C83.4962 3.22836 83.4118 3.54663 83.4118 3.8649V3.84975H83.3965C83.3965 4.27411 83.4809 4.63027 83.6419 4.92581C83.803 5.22134 84.0408 5.4411 84.3476 5.60024H84.3553ZM84.6928 3.08438C84.8693 2.88735 85.0917 2.78884 85.3372 2.78884C85.5826 2.78884 85.8051 2.88735 85.9815 3.08438C86.1579 3.2814 86.2423 3.54663 86.2423 3.91795C86.2423 4.28926 86.1579 4.56964 85.9815 4.75909C85.8051 4.95612 85.5826 5.05463 85.3372 5.05463C85.0917 5.05463 84.8693 4.95612 84.6928 4.75909C84.5164 4.56207 84.432 4.28168 84.432 3.91795C84.432 3.55421 84.5164 3.2814 84.6928 3.08438Z" fill="black"/>
<path d="M88.9565 5.7364V4.59972C88.9565 3.97833 88.9948 3.56155 89.0408 3.36453C89.0869 3.1675 89.1789 3.0311 89.2633 2.9629C89.3477 2.88712 89.4704 2.84923 89.6085 2.84923C89.7465 2.84923 89.9076 2.8947 90.0687 3.00837L90.3755 2.16722C90.1761 2.04597 89.8769 1.98535 89.7312 1.98535C89.5855 1.98535 89.432 2.03082 89.3093 2.1066C89.1866 2.18995 89.0485 2.34909 88.8874 2.59916V2.07629H87.9746V5.75914H88.9641L88.9488 5.74398L88.9565 5.7364Z" fill="black"/>
<path d="M40.4094 9.16211H39.4199V14.2393H40.4094V9.16211Z" fill="black"/>
<path d="M44.6439 14.2467C44.5595 14.0724 44.5058 13.9057 44.4675 13.7541C44.4291 13.6101 44.4291 13.3601 44.4291 13.0418V11.9051C44.4291 11.4883 44.3831 11.1928 44.291 11.0337C44.2067 10.8745 44.0456 10.7381 43.8308 10.6396C43.6237 10.5259 43.3322 10.4805 42.8566 10.4805C42.381 10.4805 42.0128 10.579 41.7674 10.7381C41.5219 10.8973 41.3455 11.1625 41.2458 11.5186L42.1356 11.6778V11.6626H42.1126C42.1739 11.4883 42.2506 11.3822 42.3504 11.3065C42.4501 11.2458 42.4961 11.2079 42.7569 11.2079C43.0177 11.2079 43.1865 11.2534 43.2862 11.3292C43.3706 11.4125 43.4242 11.5489 43.4242 11.7308V11.8293C43.2478 11.89 42.9257 11.9733 42.4731 12.0642C42.1356 12.14 41.8824 12.2082 41.6907 12.2992C41.5143 12.3825 41.3685 12.5189 41.2688 12.6781C41.1691 12.8372 41.123 12.913 41.123 13.2312C41.123 13.5495 41.2381 13.8072 41.4606 14.0118C41.683 14.2164 41.9822 14.3149 42.3657 14.3149C42.5881 14.3149 42.7953 14.277 42.987 14.1936C43.1865 14.1103 43.3552 13.989 43.5316 13.8299C43.547 13.845 43.5547 13.8754 43.57 13.9436C43.6083 14.08 43.6467 14.1785 43.6697 14.2391H44.6439V14.2467ZM43.4626 12.6705C43.4626 12.9054 43.4473 13.0645 43.4242 13.1479C43.3859 13.2691 43.3169 13.3828 43.1865 13.4662C43.0254 13.5798 42.8413 13.6404 42.6802 13.6404C42.5191 13.6404 42.381 13.595 42.2813 13.4965C42.1816 13.398 42.1202 13.2767 42.1356 13.1403C42.1509 13.0039 42.2123 12.8827 42.335 12.7993C42.4194 12.7387 42.5958 12.6781 42.8643 12.625C43.1328 12.5795 43.3322 12.5113 43.4549 12.481V12.6781L43.4626 12.6705Z" fill="black"/>
<path d="M47.7877 13.7462C47.9334 13.9281 48.1482 14.0796 48.3937 14.1857C48.6391 14.2918 49.0994 14.36 49.5059 14.36C49.9125 14.36 50.25 14.2994 50.4954 14.2009C50.7562 14.0872 50.9557 13.9584 51.1014 13.7841C51.2472 13.6098 51.3469 13.4052 51.4082 13.1476C51.4696 12.8899 51.4926 12.4656 51.4926 11.8518V9.18434H50.4494V11.9806C50.4494 12.3822 50.4341 12.6777 50.4034 12.852C50.365 13.0263 50.2807 13.1703 50.1349 13.2915C49.9892 13.4052 49.7514 13.4658 49.4676 13.4658C49.1838 13.4658 48.9613 13.3901 48.7849 13.2688C48.6085 13.1476 48.5164 12.9733 48.4627 12.7687C48.4397 12.6474 48.4244 12.367 48.4244 11.9275V9.17676H47.3965V11.9048C47.3965 12.4656 47.4348 12.8975 47.4962 13.1855C47.5346 13.3825 47.6343 13.5644 47.78 13.7462H47.7877Z" fill="black"/>
<path d="M52.5527 10.5638V14.2467H53.5423V12.5871C53.5423 12.1855 53.5653 11.89 53.619 11.746C53.665 11.602 53.757 11.4807 53.8874 11.3822C54.0255 11.2989 54.2096 11.2458 54.3477 11.2458C54.4857 11.2458 54.5931 11.2837 54.6929 11.3443C54.7926 11.405 54.8693 11.4883 54.9 11.6096C54.9383 11.7308 54.9613 11.9885 54.9613 12.3825V14.2543H55.9508V14.2391H55.9278V11.9506C55.9278 11.655 55.9125 11.4353 55.8818 11.2913C55.8588 11.1473 55.7821 11.0109 55.6977 10.8897C55.598 10.7684 55.4753 10.6699 55.2912 10.5941C55.1147 10.5184 55.1914 10.4805 54.7005 10.4805C54.2096 10.4805 53.7954 10.6851 53.4732 11.1019V10.5638H52.5604H52.5527Z" fill="black"/>
<path d="M57.9446 9.16895H56.9551V10.0707H57.9446V9.16895Z" fill="black"/>
<path d="M57.9446 10.5635H56.9551V14.2463H57.9446V10.5635Z" fill="black"/>
<path d="M61.7188 9.08594H60.6219L60.1387 10.1241H60.7523L61.7188 9.08594Z" fill="black"/>
<path d="M59.6388 10.7076C59.3396 10.8667 59.1172 11.1016 58.9561 11.4047C58.795 11.7079 58.7107 12.0261 58.7107 12.3444V12.3292H58.6953C58.6953 12.7536 58.7797 13.1098 58.9408 13.4053C59.1019 13.7008 59.3396 13.9206 59.6465 14.0797C59.9533 14.2389 60.0684 14.3146 60.6206 14.3146C61.1729 14.3146 61.6332 14.1328 61.9937 13.7615C62.3542 13.3977 62.5383 12.9279 62.5383 12.3823C62.5383 11.8367 62.3619 11.3668 62.009 11.0107C61.6485 10.6545 61.1806 10.4727 60.6206 10.4727C60.2525 10.4727 59.9303 10.5484 59.6311 10.7076H59.6388ZM61.5335 12.4126C61.5335 12.7763 61.4491 13.0643 61.2727 13.2537C61.0962 13.4508 60.8738 13.5493 60.6283 13.5493C60.3829 13.5493 60.1604 13.4508 59.984 13.2537C59.8152 13.0567 59.7232 12.7763 59.7232 12.4126C59.7232 12.0489 59.8076 11.7685 59.984 11.5714C60.1604 11.3744 60.3829 11.2759 60.6283 11.2759C60.8738 11.2759 61.0962 11.3744 61.2727 11.5714C61.4491 11.7685 61.5335 12.0337 61.5335 12.405V12.4126Z" fill="black"/>
<path d="M66.6819 11.9428C66.6819 11.6472 66.6665 11.4275 66.6359 11.2835C66.6128 11.1395 66.5361 11.0031 66.4518 10.8819C66.352 10.7606 66.2293 10.6621 66.0452 10.5863C65.8688 10.5105 65.9455 10.4727 65.4546 10.4727C64.9636 10.4727 64.5494 10.6773 64.2273 11.094V10.556H63.3145V14.2389H64.304V12.5793C64.304 12.1777 64.327 11.8821 64.3807 11.7382C64.4267 11.5942 64.5187 11.4729 64.6491 11.3744C64.7872 11.2911 64.9713 11.238 65.1094 11.238C65.2475 11.238 65.3549 11.2759 65.4546 11.3365C65.5543 11.3972 65.631 11.4805 65.6617 11.6018C65.7 11.723 65.723 11.9807 65.723 12.3747V14.2464H66.7126V14.2313H66.6895V11.9428H66.6819Z" fill="black"/>
<path d="M73.5154 10.0252V9.16895H69.7031V14.2461H73.6152V13.3898H70.7387V12.0107H73.316V11.1544H70.7387V10.0252H73.5154Z" fill="black"/>
<path d="M75.0343 14.1703C75.2337 14.2839 75.4638 14.3294 75.7016 14.3294C75.9394 14.3294 76.1695 14.2688 76.392 14.1551C76.6144 14.0415 76.7909 13.8899 76.9213 13.6929V14.2461H76.9366V14.2688H77.8494V10.5859H76.8599V12.1394C76.8599 12.6623 76.8369 12.9957 76.7832 13.1321C76.7372 13.2685 76.6451 13.3898 76.5147 13.4731C76.3767 13.5565 76.1926 13.6095 76.0545 13.6095C75.9164 13.6095 75.7937 13.5868 75.694 13.511C75.5942 13.4352 75.5482 13.3519 75.4945 13.2306C75.4485 13.1094 75.4485 12.7911 75.4485 12.2758V10.5859H74.459V12.9123C74.459 13.2534 74.505 13.5262 74.5971 13.7156C74.6814 13.9126 74.8349 14.0566 75.0266 14.1703H75.0343Z" fill="black"/>
<path d="M79.7904 14.2462V13.1095C79.7904 12.4881 79.8288 12.0713 79.8748 11.8743C79.9208 11.6773 80.0129 11.5409 80.0973 11.4727C80.1816 11.3969 80.3044 11.359 80.4424 11.359C80.5805 11.359 80.7416 11.4045 80.9027 11.5181L81.2095 10.677C81.0101 10.5557 80.7109 10.4951 80.5652 10.4951C80.4194 10.4951 80.266 10.5406 80.1433 10.6164C80.0206 10.6921 79.8825 10.8589 79.7214 11.1089V10.5861H78.8086V14.2689H79.7981L79.7828 14.2537L79.7904 14.2462Z" fill="black"/>
<path d="M84.7143 13.7761C85.0748 13.4124 85.2589 12.9425 85.2589 12.3969C85.2589 11.8513 85.0824 11.3815 84.7296 11.0253C84.3691 10.6692 83.9012 10.4873 83.3412 10.4873C82.973 10.4873 82.6508 10.5631 82.3517 10.7222C82.0525 10.8814 81.8301 11.1163 81.669 11.4194C81.5079 11.7225 81.4235 12.0408 81.4235 12.359V12.3439H81.4082C81.4082 12.7682 81.4926 13.1244 81.6537 13.4199C81.8147 13.7155 82.0525 13.9352 82.3594 14.0944C82.6662 14.2535 82.7812 14.3293 83.3335 14.3293C83.8858 14.3293 84.3461 14.1474 84.7066 13.7761H84.7143ZM82.4361 12.4197C82.4361 12.0559 82.5205 11.7755 82.6969 11.5785C82.8733 11.3815 83.0957 11.283 83.3412 11.283C83.5867 11.283 83.8091 11.3815 83.9855 11.5785C84.162 11.7755 84.2463 12.0408 84.2463 12.4121C84.2463 12.7834 84.162 13.0638 83.9855 13.2532C83.8091 13.4503 83.5867 13.5488 83.3412 13.5488C83.0957 13.5488 82.8733 13.4503 82.6969 13.2532C82.5281 13.0562 82.4361 12.7758 82.4361 12.4121V12.4197Z" fill="black"/>
<path d="M88.067 14.3293C88.4966 14.3293 88.8571 14.155 89.1716 13.814C89.4784 13.473 89.6165 12.9729 89.6318 12.3818C89.6472 11.7983 89.4861 11.3209 89.1869 10.9874C88.8878 10.654 88.5196 10.4873 88.0824 10.4873C87.8369 10.4873 87.5991 10.5479 87.3997 10.6616C87.2002 10.7828 87.0392 10.9268 86.9164 11.1163V10.5782H86.0036L85.9883 10.5631V15.6403H86.9778V13.7913C87.1619 13.9883 87.346 14.1247 87.5071 14.208C87.6682 14.2914 87.6298 14.3293 88.067 14.3293ZM86.9778 12.3515C86.9778 11.9877 87.0622 11.6998 87.2156 11.5331C87.3613 11.3588 87.5761 11.2678 87.8062 11.2678C88.0363 11.2678 88.2281 11.3663 88.3892 11.5482C88.5503 11.7301 88.627 11.9877 88.627 12.4045C88.627 12.8213 88.5503 13.1168 88.4045 13.2987C88.2588 13.4806 88.067 13.5639 87.8369 13.5639C87.6068 13.5639 87.392 13.4654 87.2309 13.2684C87.0698 13.0714 86.9855 12.7682 86.9855 12.3515H86.9778Z" fill="black"/>
<path d="M93.1531 11.0253C92.8309 10.6692 92.34 10.4873 91.8414 10.4873C91.3428 10.4873 90.9363 10.6616 90.6141 11.0026C90.2919 11.3436 90.1309 11.9195 90.1309 12.4348C90.1309 12.9501 90.2536 13.3745 90.4991 13.7079C90.8059 14.1247 91.2891 14.3293 91.9335 14.3293C92.3323 14.3293 92.6775 14.2308 92.946 14.0489C93.2145 13.867 93.4139 13.5942 93.5366 13.2457L92.5625 13.0865C92.5164 13.2684 92.4244 13.4048 92.3247 13.4881C92.225 13.5715 92.1636 13.6094 91.9411 13.6094C91.7187 13.6094 91.5193 13.526 91.3735 13.3669C91.2278 13.2078 91.1357 12.988 91.1357 12.6925H93.598C93.6133 11.9498 93.4599 11.3815 93.1378 11.0329L93.1531 11.0253ZM91.1511 12.1014C91.1511 11.8437 91.2278 11.6391 91.3582 11.48C91.4962 11.3209 91.6957 11.2451 91.8874 11.2451C92.0792 11.2451 92.2556 11.3284 92.3937 11.4649C92.5318 11.6013 92.6162 11.821 92.6162 12.1014H91.1434H91.1511Z" fill="black"/>
<path d="M97.4635 13.7688C97.4252 13.6248 97.4252 13.3747 97.4252 13.0564V11.9198C97.4252 11.503 97.3792 11.2074 97.2871 11.0483C97.2027 10.8892 97.0417 10.7528 96.8269 10.6543C96.6198 10.5406 96.3283 10.4951 95.8527 10.4951C95.3771 10.4951 95.0089 10.5936 94.7635 10.7528C94.518 10.9119 94.3416 11.1771 94.2419 11.5333L95.1317 11.6924V11.6773H95.1087C95.17 11.503 95.2467 11.3969 95.3464 11.3211C95.4462 11.2605 95.4922 11.2226 95.753 11.2226C96.0138 11.2226 96.1902 11.2681 96.2823 11.3438C96.3666 11.4272 96.4203 11.5636 96.4203 11.7455V11.844C96.2439 11.9046 95.9217 11.988 95.4692 12.0789C95.1317 12.1547 94.8785 12.2229 94.6868 12.3138C94.5103 12.3972 94.3646 12.5336 94.2649 12.6927C94.1652 12.8518 94.1191 12.9276 94.1191 13.2459C94.1191 13.5642 94.2265 13.8218 94.4566 14.0264C94.6791 14.231 94.9783 14.3295 95.3618 14.3295C95.5842 14.3295 95.799 14.2916 95.9831 14.2083C96.1826 14.1249 96.3513 14.0037 96.5277 13.8445C96.5431 13.8597 96.5661 13.89 96.5661 13.9582C96.6044 14.0946 96.6428 14.1931 96.6658 14.2537H97.64C97.5556 14.0795 97.5019 13.9127 97.4635 13.7612V13.7688ZM96.4587 12.6927C96.4587 12.9276 96.4434 13.0868 96.4203 13.1701C96.382 13.2914 96.3053 13.405 96.1825 13.4884C96.0215 13.602 95.8374 13.6627 95.6763 13.6627C95.5152 13.6627 95.3771 13.6172 95.2774 13.5187C95.1777 13.4202 95.1163 13.2989 95.1317 13.1625C95.147 13.0261 95.2084 12.9049 95.3311 12.8215C95.4078 12.7609 95.5919 12.7003 95.8604 12.6472C96.1289 12.6018 96.3283 12.5336 96.451 12.5033V12.7003L96.4587 12.6927Z" fill="black"/>
</svg>
