<svg width="90" height="23" viewBox="0 0 90 23" fill="none" xmlns="http://www.w3.org/2000/svg">
<path d="M0 0V22.3464H32.9004C32.9004 22.3578 32.9004 0.0113609 32.9004 0.0113609H0V0ZM32.2756 21.7216H0.624836V0.613475H32.2756V21.7216Z" fill="#F2F2F2"/>
<path d="M15.7799 5.21449L16.4501 4.72598L17.1204 5.21449L16.8591 4.4306L17.5408 3.9421H16.7001L16.4501 3.14685L16.1889 3.9421H15.3595L16.0298 4.4306L15.7799 5.21449Z" fill="#F2F2F2"/>
<path d="M12.3262 6.14614L12.9965 5.65763L13.6554 6.14614L13.4055 5.35089L14.0871 4.86238H13.2464L12.9965 4.06714L12.7352 4.86238H11.9059L12.5762 5.35089L12.3262 6.14614Z" fill="#F2F2F2"/>
<path d="M10.4631 6.60059L10.2018 7.39583H9.37244L10.0541 7.88434L9.79278 8.67958L10.4631 8.19108L11.1333 8.67958L10.872 7.88434L11.5537 7.39583H10.713L10.4631 6.60059Z" fill="#F2F2F2"/>
<path d="M9.53161 11.6446L10.2019 12.1217L9.95194 11.3378L10.6222 10.8493H9.7929L9.53161 10.0541L9.28167 10.8493H8.44098L9.12262 11.3378L8.86132 12.1217L9.53161 11.6446Z" fill="#F2F2F2"/>
<path d="M10.713 14.3144L10.4631 13.5192L10.2018 14.3144H9.37244L10.0427 14.8029L9.79278 15.5868L10.4631 15.0983L11.1333 15.5868L10.872 14.8029L11.5537 14.3144H10.713Z" fill="#F2F2F2"/>
<path d="M13.2464 16.8477L12.9965 16.0525L12.7352 16.8477H11.9059L12.5762 17.3362L12.3262 18.1201L12.9965 17.6316L13.6554 18.1201L13.4055 17.3362L14.0871 16.8477H13.2464Z" fill="#F2F2F2"/>
<path d="M16.7001 17.768L16.4502 16.9728L16.1889 17.768H15.3482L16.0298 18.2565L15.7799 19.0404L16.4502 18.5519L17.1091 19.0404L16.8592 18.2565L17.5408 17.768H16.7001Z" fill="#F2F2F2"/>
<path d="M20.1538 16.8477L19.8925 16.0525L19.6426 16.8477H18.8019L19.4835 17.3362L19.2222 18.1201L19.8925 17.6316L20.5628 18.1201L20.3128 17.3362L20.9831 16.8477H20.1538Z" fill="#F2F2F2"/>
<path d="M22.6872 14.3144L22.4259 13.5192L22.1759 14.3144H21.3352L22.0169 14.8029L21.7669 15.5868L22.4259 15.1097L23.0961 15.5868L22.8462 14.8029L23.5278 14.3144H22.6872Z" fill="#F2F2F2"/>
<path d="M24.4367 10.8493H23.6074L23.3461 10.0427L23.0961 10.8493H22.2555L22.9371 11.3378L22.6872 12.1217L23.3461 11.6332L24.0164 12.1217L23.7664 11.3378L24.4367 10.8493Z" fill="#F2F2F2"/>
<path d="M21.7669 8.66823L22.4372 8.17972L23.0961 8.66823L22.8462 7.88434L23.5278 7.39583H22.6872L22.4372 6.60059L22.1759 7.39583H21.3352L22.0169 7.88434L21.7669 8.66823Z" fill="#F2F2F2"/>
<path d="M19.9152 4.06714L19.6539 4.87374L18.8246 4.86238L19.4949 5.36225L19.2449 6.14614L19.9152 5.65763L20.5741 6.14614L20.3242 5.36225L21.0058 4.87374H20.1651L19.9152 4.06714Z" fill="#F2F2F2"/>
<path d="M36.1835 21.7102V17.6317H36.7402L38.876 20.8354V17.6431H39.3986V21.7215H38.8419L36.7061 18.5178V21.7215H36.1835V21.7102Z" fill="#F2F2F2"/>
<path d="M42.2614 20.7671L42.7727 20.8353C42.6931 21.142 42.5454 21.3692 42.3182 21.5396C42.1024 21.71 41.8184 21.7896 41.4775 21.7896C41.1367 21.7896 40.705 21.6532 40.4551 21.3919C40.2052 21.1306 40.0802 20.7557 40.0802 20.2672C40.0802 19.7787 40.2052 19.3811 40.4664 19.1084C40.7277 18.8358 41.0572 18.6995 41.4662 18.6995C41.8752 18.6995 42.1819 18.8358 42.4318 19.0971C42.6818 19.3584 42.8067 19.7446 42.8067 20.2332C42.8067 20.7217 42.8067 20.3013 42.8067 20.3695H40.6028C40.6255 20.6876 40.7164 20.9375 40.8754 21.1079C41.0345 21.2783 41.2503 21.3692 41.4889 21.3692C41.7275 21.3692 41.8297 21.3238 41.9547 21.2215C42.0797 21.1193 42.1819 20.9716 42.2614 20.7557V20.7671ZM40.6141 19.9605H42.2614C42.2387 19.7106 42.1705 19.5288 42.0683 19.4038C41.9093 19.2107 41.7048 19.1198 41.4435 19.1198C41.1822 19.1198 41.0231 19.1993 40.8641 19.347C40.705 19.5061 40.6255 19.7106 40.6028 19.9605H40.6141Z" fill="#F2F2F2"/>
<path d="M43.0681 21.7215L44.1474 20.1878L43.1476 18.7677H43.7725L44.2269 19.4607C44.3178 19.597 44.3859 19.6993 44.4314 19.7902C44.5109 19.6652 44.5904 19.5629 44.6586 19.4607L45.1585 18.7677H45.7606L44.7381 20.1537L45.8401 21.7215H45.2266L44.6245 20.8013L44.4655 20.5513L43.6929 21.7101H43.0681V21.7215Z" fill="#F2F2F2"/>
<path d="M47.3397 21.267L47.4079 21.7101C47.2716 21.7442 47.1352 21.7556 47.033 21.7556C46.8512 21.7556 46.7149 21.7215 46.6126 21.6647C46.5104 21.6079 46.4422 21.5283 46.3968 21.4375C46.3514 21.3466 46.34 21.1421 46.34 20.8467V19.154H45.9765V18.7677H46.34V18.0406L46.8399 17.7452V18.7791H47.3397V19.1653H46.8399V20.8921C46.8399 21.0285 46.8399 21.1307 46.8626 21.1648C46.8853 21.2102 46.908 21.233 46.9535 21.267C46.9989 21.2898 47.0557 21.3011 47.1239 21.3011C47.192 21.3011 47.2488 21.3011 47.3397 21.2784V21.267Z" fill="#F2F2F2"/>
<path d="M49.805 20.1196V19.6425H51.5318V21.1534C51.2705 21.3693 50.9865 21.5283 50.7138 21.6306C50.4298 21.7328 50.1458 21.7896 49.8504 21.7896C49.555 21.7896 49.0893 21.6987 48.7598 21.5283C48.4303 21.3579 48.1918 21.108 48.0214 20.7899C47.8509 20.4604 47.7714 20.1083 47.7714 19.6993C47.7714 19.2903 47.8509 18.9267 48.0214 18.5859C48.1918 18.2451 48.4303 17.9838 48.7371 17.8248C49.0438 17.6544 49.4074 17.5748 49.8163 17.5748C50.2253 17.5748 50.373 17.6203 50.6116 17.7225C50.8502 17.8248 51.0319 17.9497 51.1683 18.1201C51.3046 18.2906 51.4068 18.5178 51.475 18.7904L50.9865 18.9267C50.9297 18.7223 50.8502 18.5518 50.7593 18.4382C50.6684 18.3246 50.5434 18.2224 50.373 18.1542C50.2026 18.0861 50.0208 18.052 49.8163 18.052C49.6118 18.052 49.3619 18.0861 49.1801 18.1656C48.9984 18.2451 48.8507 18.336 48.7484 18.461C48.6348 18.5859 48.5553 18.7223 48.4871 18.8586C48.3849 19.1085 48.3281 19.3812 48.3281 19.6765C48.3281 19.9719 48.3849 20.3468 48.5212 20.5854C48.6462 20.824 48.828 21.0171 49.0665 21.1307C49.3051 21.2443 49.555 21.3125 49.8277 21.3125C50.1004 21.3125 50.2935 21.267 50.5093 21.1762C50.7366 21.0853 50.8956 20.9944 51.0206 20.8921V20.131H49.805V20.1196Z" fill="#F2F2F2"/>
<path d="M54.2697 20.7671L54.7809 20.8353C54.7014 21.142 54.5537 21.3692 54.3265 21.5396C54.1106 21.71 53.8266 21.7896 53.4858 21.7896C53.1449 21.7896 52.7132 21.6532 52.4633 21.3919C52.2134 21.1306 52.0884 20.7557 52.0884 20.2672C52.0884 19.7787 52.2134 19.3811 52.4747 19.1084C52.736 18.8358 53.0654 18.6995 53.4744 18.6995C53.8834 18.6995 54.1901 18.8358 54.4401 19.0971C54.69 19.3584 54.815 19.7446 54.815 20.2332C54.815 20.7217 54.815 20.3013 54.815 20.3695H52.611C52.6337 20.6876 52.7246 20.9375 52.8837 21.1079C53.0427 21.2783 53.2586 21.3692 53.4971 21.3692C53.7357 21.3692 53.838 21.3238 53.9629 21.2215C54.0879 21.1193 54.1901 20.9716 54.2697 20.7557V20.7671ZM52.6337 19.9605H54.281C54.2583 19.7106 54.1901 19.5288 54.0879 19.4038C53.9288 19.2107 53.7243 19.1198 53.463 19.1198C53.2018 19.1198 53.0427 19.1993 52.8837 19.347C52.7246 19.5061 52.6451 19.7106 52.6224 19.9605H52.6337Z" fill="#F2F2F2"/>
<path d="M55.4171 21.7214V18.7676H55.8715V19.188C56.0874 18.8585 56.4055 18.6995 56.8145 18.6995C57.2235 18.6995 57.1553 18.7335 57.303 18.8017C57.4507 18.8699 57.5643 18.9494 57.6438 19.0516C57.7233 19.1539 57.7688 19.2789 57.8029 19.4265C57.8256 19.5174 57.8256 19.6765 57.8256 19.9151V21.7328H57.3257V19.9378C57.3257 19.7333 57.303 19.5856 57.2689 19.4833C57.2348 19.3811 57.1553 19.3016 57.0644 19.2448C56.9622 19.188 56.8486 19.1539 56.7122 19.1539C56.4964 19.1539 56.3146 19.2221 56.1669 19.3584C56.0192 19.4947 55.9397 19.756 55.9397 20.1309V21.7441H55.4398L55.4171 21.7214Z" fill="#F2F2F2"/>
<path d="M60.609 20.7785L61.1202 20.8466C61.0407 21.1534 60.893 21.3806 60.6658 21.551C60.4499 21.7214 60.1659 21.8009 59.8251 21.8009C59.4843 21.8009 59.0526 21.6646 58.8026 21.4033C58.5527 21.142 58.4277 20.7671 58.4277 20.2786C58.4277 19.7901 58.5527 19.3925 58.814 19.1198C59.0753 18.8471 59.4048 18.7108 59.8137 18.7108C60.2227 18.7108 60.5295 18.8471 60.7794 19.1084C61.0293 19.3697 61.1543 19.756 61.1543 20.2445C61.1543 20.733 61.1543 20.3127 61.1543 20.3808H58.9503C58.973 20.6989 59.0639 20.9489 59.223 21.1193C59.382 21.2897 59.5979 21.3806 59.8365 21.3806C60.075 21.3806 60.1773 21.3351 60.3022 21.2329C60.4272 21.1306 60.5295 20.9829 60.609 20.7671V20.7785ZM58.9617 19.9605H60.609C60.5863 19.7106 60.5181 19.5288 60.4158 19.4038C60.2568 19.2107 60.0523 19.1198 59.791 19.1198C59.5297 19.1198 59.3707 19.1993 59.2116 19.347C59.0526 19.5061 58.973 19.7106 58.9503 19.9605H58.9617Z" fill="#F2F2F2"/>
<path d="M61.745 21.7214V18.7676H62.1994V19.2107C62.313 19.0062 62.4266 18.8585 62.5175 18.8017C62.6197 18.7335 62.722 18.6995 62.8356 18.6995C63.006 18.6995 63.1764 18.7563 63.3468 18.8585L63.1764 19.3243C63.0514 19.2561 62.9265 19.2107 62.8129 19.2107C62.6993 19.2107 62.6084 19.2448 62.5175 19.3129C62.4266 19.3811 62.3698 19.472 62.3357 19.5856C62.2789 19.7674 62.2562 19.9605 62.2562 20.165V21.71H61.745V21.7214Z" fill="#F2F2F2"/>
<path d="M65.5736 21.3578C65.3918 21.5169 65.21 21.6305 65.0396 21.6873C64.8692 21.7441 64.6874 21.7896 64.4943 21.7896C64.1649 21.7896 63.9263 21.71 63.7445 21.551C63.5741 21.3919 63.4832 21.1874 63.4832 20.9375C63.4832 20.6876 63.5173 20.6648 63.5855 20.5399C63.6536 20.4263 63.7332 20.324 63.8468 20.2559C63.949 20.1877 64.074 20.1309 64.2103 20.0968C64.3125 20.0741 64.4602 20.04 64.6534 20.0173C65.0624 19.9718 65.3577 19.915 65.5395 19.8469V19.7219C65.5395 19.5174 65.4941 19.3697 65.4032 19.2902C65.2782 19.1766 65.0851 19.1198 64.8351 19.1198C64.5852 19.1198 64.4262 19.1652 64.3125 19.2448C64.1989 19.3243 64.1194 19.472 64.0626 19.6878L63.5741 19.6197C63.6196 19.4152 63.6877 19.2448 63.79 19.1084C63.8922 18.9835 64.0399 18.8812 64.233 18.8131C64.4262 18.7449 64.6534 18.7108 64.9033 18.7108C65.1532 18.7108 65.3577 18.7449 65.5168 18.8017C65.6758 18.8585 65.7894 18.938 65.869 19.0289C65.9485 19.1198 65.9939 19.2334 66.028 19.3697C66.0507 19.4606 66.0507 19.6083 66.0507 19.8355V20.5058C66.0507 20.9716 66.0507 21.267 66.0848 21.3919C66.1075 21.5169 66.153 21.6305 66.2098 21.7441H65.6872C65.6304 21.6419 65.5963 21.5169 65.585 21.3806V21.3578H65.5736ZM65.5281 20.2445C65.3464 20.3127 65.0737 20.3808 64.7102 20.4376C64.5057 20.4717 64.358 20.4944 64.2785 20.5399C64.1876 20.574 64.1308 20.6308 64.0853 20.6989C64.0399 20.7671 64.0172 20.8466 64.0172 20.9375C64.0172 21.0738 64.0626 21.1761 64.1649 21.267C64.2671 21.3578 64.4148 21.4033 64.6079 21.4033C64.8011 21.4033 64.9715 21.3578 65.1192 21.2783C65.2668 21.1988 65.3805 21.0738 65.4486 20.9375C65.5054 20.8239 65.5281 20.6535 65.5281 20.4376V20.2559V20.2445Z" fill="#F2F2F2"/>
<path d="M67.9026 21.2784L67.9707 21.7215C67.8344 21.7555 67.7094 21.7669 67.5958 21.7669C67.4141 21.7669 67.2777 21.7328 67.1755 21.676C67.0732 21.6192 67.0051 21.5397 66.9596 21.4488C66.9142 21.3579 66.9028 21.1534 66.9028 20.858V19.1653H66.5393V18.7791H66.9028V18.052L67.4027 17.7566V18.7904H67.9026V19.1767H67.4027V20.9035C67.4027 21.0398 67.4027 21.1421 67.4254 21.1761C67.4481 21.2216 67.4709 21.2443 67.5163 21.2784C67.5504 21.3011 67.6185 21.3125 67.6867 21.3125C67.7549 21.3125 67.8117 21.3125 67.9026 21.2898V21.2784Z" fill="#F2F2F2"/>
<path d="M68.3909 18.2337V17.6543H68.8908V18.2337H68.3909ZM68.3909 21.7328V18.779H68.8908V21.7328H68.3909Z" fill="#F2F2F2"/>
<path d="M69.4702 20.2559C69.4702 19.7106 69.6179 19.3016 69.9246 19.0403C70.1746 18.8244 70.4927 18.7108 70.8562 18.7108C71.2197 18.7108 71.5947 18.8471 71.856 19.1084C72.1172 19.3697 72.2422 19.7446 72.2422 20.2104C72.2422 20.6762 72.1854 20.8921 72.0718 21.1079C71.9582 21.3238 71.7878 21.4942 71.5719 21.6191C71.3561 21.7441 71.1175 21.8009 70.8562 21.8009C70.4472 21.8009 70.1064 21.6646 69.8565 21.4033C69.6065 21.142 69.4702 20.7557 69.4702 20.2559ZM69.9814 20.2559C69.9814 20.6308 70.061 20.9148 70.2314 21.1079C70.4018 21.301 70.6063 21.3919 70.8562 21.3919C71.1061 21.3919 71.3106 21.301 71.481 21.1079C71.6515 20.9148 71.731 20.6308 71.731 20.2445C71.731 19.8582 71.6515 19.6083 71.481 19.4152C71.3106 19.222 71.1062 19.1312 70.8676 19.1312C70.629 19.1312 70.4132 19.222 70.2427 19.4152C70.0723 19.5969 69.9928 19.881 69.9928 20.2672L69.9814 20.2559Z" fill="#F2F2F2"/>
<path d="M72.8216 21.7327V18.779H73.2761V19.1993C73.4919 18.8699 73.81 18.7108 74.219 18.7108C74.628 18.7108 74.5598 18.7449 74.7075 18.8131C74.8552 18.8812 74.9688 18.9608 75.0483 19.063C75.1278 19.1652 75.1733 19.2902 75.2074 19.4379C75.2301 19.5288 75.2301 19.6878 75.2301 19.9264V21.7441H74.7302V19.9491C74.7302 19.7446 74.7075 19.5969 74.6734 19.4947C74.6393 19.3925 74.5598 19.3129 74.4689 19.2561C74.3667 19.1993 74.2531 19.1652 74.1168 19.1652C73.9009 19.1652 73.7191 19.2334 73.5714 19.3697C73.4238 19.5061 73.3442 19.7674 73.3442 20.1423V21.7555H72.8444L72.8216 21.7327Z" fill="#F2F2F2"/>
<path d="M76.0594 21.7328V17.6543H79.0018V18.1314H76.5933V19.3811H78.8427V19.8583H76.5933V21.2443H79.0927V21.7214H76.048L76.0594 21.7328Z" fill="#F2F2F2"/>
<path d="M82.5237 17.6658H83.069V20.0174C83.069 20.4264 83.0235 20.7559 82.9326 20.9944C82.8418 21.233 82.6713 21.4261 82.4328 21.5852C82.1942 21.7329 81.8761 21.8124 81.4785 21.8124C81.0808 21.8124 80.7855 21.7442 80.5469 21.6193C80.3083 21.483 80.1266 21.3012 80.0243 21.0512C79.9221 20.8013 79.8653 20.4605 79.8653 20.0288V17.6771H80.4106V20.0288C80.4106 20.381 80.4447 20.6423 80.5015 20.8127C80.5696 20.9831 80.6832 21.108 80.8423 21.1989C81.0013 21.2898 81.1945 21.3353 81.433 21.3353C81.8307 21.3353 82.1147 21.2444 82.2851 21.0626C82.4555 20.8808 82.535 20.54 82.535 20.0288V17.6771L82.5237 17.6658Z" fill="#F2F2F2"/>
<path d="M36.1948 5.33967V0.625H39.4325V1.42025H37.1491V2.53359H39.1145V3.32884H37.1491V5.32831H36.1948V5.33967Z" fill="#F2F2F2"/>
<path d="M40.2052 1.46569V0.625H41.114V1.46569H40.2052ZM40.2052 5.33967V1.92011H41.114V5.33967H40.2052Z" fill="#F2F2F2"/>
<path d="M45.1357 5.33966H44.2268V3.60148C44.2268 3.23794 44.2041 2.99936 44.17 2.88576C44.136 2.77215 44.0678 2.69263 43.9769 2.63582C43.886 2.57902 43.7838 2.54494 43.6588 2.54494C43.5338 2.54494 43.3634 2.59038 43.2385 2.6699C43.1135 2.76079 43.034 2.8744 42.9885 3.01072C42.9431 3.14705 42.9204 3.41971 42.9204 3.79461V5.33966H42.0115V1.9201H42.8522V2.41997C43.1476 2.03371 43.5225 1.84058 43.9769 1.84058C44.4313 1.84058 44.3632 1.87466 44.5222 1.94282C44.6926 2.01099 44.8062 2.10187 44.8971 2.21548C44.9767 2.32908 45.0448 2.45405 45.0675 2.59038C45.1016 2.72671 45.113 2.9312 45.113 3.19249V5.31694L45.1357 5.33966Z" fill="#F2F2F2"/>
<path d="M46.7262 2.96515L45.9082 2.81746C45.9991 2.488 46.1582 2.23807 46.3854 2.09038C46.6126 1.93133 46.942 1.85181 47.3851 1.85181C47.8282 1.85181 48.0895 1.89725 48.2826 1.9995C48.4757 2.09038 48.6234 2.21535 48.7029 2.36304C48.7825 2.51072 48.8279 2.78338 48.8279 3.16964V4.22618C48.8279 4.52156 48.8279 4.74877 48.862 4.8851C48.8961 5.02143 48.9415 5.18048 49.021 5.33953H48.1236C48.1008 5.28272 48.0667 5.19184 48.0327 5.06687C48.0327 5.01007 48.0099 4.97599 47.9986 4.96463C47.8395 5.11231 47.6805 5.22592 47.4987 5.30544C47.3283 5.38497 47.1352 5.41905 46.9307 5.41905C46.5785 5.41905 46.3058 5.32817 46.1014 5.13504C45.8969 4.9419 45.7946 4.70333 45.7946 4.40795C45.7946 4.11258 45.8401 4.04441 45.9309 3.89672C46.0218 3.74904 46.1582 3.63543 46.3172 3.54454C46.4876 3.46502 46.7262 3.39686 47.0329 3.34005C47.4533 3.26053 47.7487 3.19236 47.9077 3.1242V3.03331C47.9077 2.8629 47.8623 2.73794 47.7827 2.65841C47.6918 2.57889 47.5328 2.54481 47.2942 2.54481C47.0557 2.54481 47.0102 2.57889 46.9193 2.63569C46.8284 2.70386 46.7603 2.8061 46.7035 2.96515H46.7262ZM47.9418 3.70359C47.8282 3.73768 47.6464 3.79448 47.3965 3.83992C47.1465 3.88536 46.9875 3.94217 46.908 3.99897C46.7944 4.07849 46.7376 4.1921 46.7262 4.31707C46.7262 4.44204 46.7716 4.55564 46.8625 4.64653C46.9534 4.73741 47.0784 4.78286 47.2261 4.78286C47.3738 4.78286 47.5442 4.72605 47.6918 4.62381C47.8055 4.54428 47.8736 4.44204 47.9077 4.32843C47.9304 4.2489 47.9418 4.10122 47.9418 3.88536V3.70359Z" fill="#F2F2F2"/>
<path d="M52.8269 5.33966H51.9181V3.60148C51.9181 3.23794 51.8953 2.99936 51.8613 2.88576C51.8272 2.77215 51.759 2.69263 51.6681 2.63582C51.5772 2.57902 51.475 2.54494 51.35 2.54494C51.2251 2.54494 51.0547 2.59038 50.9297 2.6699C50.8047 2.76079 50.7252 2.8744 50.6798 3.01072C50.6343 3.14705 50.6116 3.41971 50.6116 3.79461V5.33966H49.7027V1.9201H50.5434V2.41997C50.8388 2.03371 51.2137 1.84058 51.6681 1.84058C52.1226 1.84058 52.0544 1.87466 52.2134 1.94282C52.3839 2.01099 52.4975 2.10187 52.5884 2.21548C52.6679 2.32908 52.736 2.45405 52.7588 2.59038C52.7815 2.72671 52.8042 2.9312 52.8042 3.19249V5.31694L52.8269 5.33966Z" fill="#F2F2F2"/>
<path d="M56.7122 2.94254L55.8261 3.10159C55.792 2.91982 55.7238 2.79485 55.6216 2.70397C55.5193 2.61308 55.3717 2.56764 55.2126 2.56764C55.0536 2.56764 54.8036 2.64717 54.6787 2.80622C54.5537 2.96526 54.4742 3.22656 54.4742 3.5901C54.4742 3.95364 54.5423 4.2831 54.6787 4.45351C54.815 4.62392 54.9967 4.70344 55.224 4.70344C55.4512 4.70344 55.5421 4.658 55.6443 4.55576C55.7579 4.45351 55.8261 4.29446 55.8715 4.05589L56.7577 4.20358C56.6668 4.61256 56.485 4.9193 56.2237 5.12379C55.9624 5.32828 55.6102 5.43053 55.1785 5.43053C54.7468 5.43053 54.281 5.27148 53.9857 4.95338C53.6903 4.63528 53.5426 4.20358 53.5426 3.6469C53.5426 3.09023 53.6903 2.64717 53.9857 2.32907C54.281 2.01097 54.69 1.86328 55.1899 1.86328C55.6898 1.86328 55.9397 1.95417 56.1783 2.13594C56.4282 2.31771 56.5986 2.59036 56.7122 2.9539V2.94254Z" fill="#F2F2F2"/>
<path d="M57.4053 1.46569V0.625H58.3141V1.46569H57.4053ZM57.3939 5.33967V1.92011H58.3028V5.33967H57.3939Z" fill="#F2F2F2"/>
<path d="M59.9046 2.97663L59.0866 2.82894C59.1775 2.49948 59.3366 2.24954 59.5638 2.10186C59.791 1.94281 60.1204 1.86328 60.5635 1.86328C61.0066 1.86328 61.2679 1.90872 61.461 2.01097C61.6541 2.11322 61.8018 2.22682 61.8814 2.37451C61.9609 2.5222 62.0063 2.79486 62.0063 3.18112V4.23766C62.0063 4.53303 62.0063 4.76025 62.0404 4.89658C62.0745 5.0329 62.1199 5.19195 62.1995 5.351H61.302C61.2792 5.2942 61.2452 5.20331 61.2111 5.07835C61.2111 5.02154 61.1884 4.98746 61.177 4.9761C61.0179 5.12379 60.8589 5.2374 60.6771 5.31692C60.5067 5.39644 60.3136 5.43053 60.1091 5.43053C59.7569 5.43053 59.4843 5.33964 59.2798 5.14651C59.0753 4.95338 58.973 4.7148 58.973 4.41943C58.973 4.12405 59.0185 4.05589 59.1094 3.9082C59.2002 3.76051 59.3366 3.6469 59.4956 3.55602C59.666 3.47649 59.9046 3.40833 60.2113 3.35153C60.6317 3.272 60.9271 3.20384 61.0861 3.13567V3.04479C61.0861 2.87438 61.0407 2.74941 60.9611 2.66989C60.8703 2.59036 60.7112 2.55628 60.4726 2.55628C60.2341 2.55628 60.1886 2.59036 60.0977 2.64717C60.0068 2.71533 59.9387 2.81758 59.8819 2.97663H59.9046ZM61.1088 3.70371C60.9952 3.73779 60.8134 3.79459 60.5635 3.84003C60.3136 3.88548 60.1432 3.94228 60.075 3.99908C59.9614 4.07861 59.9046 4.19222 59.8932 4.31718C59.8932 4.44215 59.9387 4.55576 60.0296 4.64664C60.1205 4.73753 60.2454 4.78297 60.3931 4.78297C60.5408 4.78297 60.7112 4.72617 60.8589 4.62392C60.9725 4.5444 61.0407 4.44215 61.0747 4.32854C61.0975 4.24902 61.1088 4.10133 61.1088 3.88548V3.70371Z" fill="#F2F2F2"/>
<path d="M66.0166 5.35102H65.1759V4.85115C65.0395 5.04428 64.8691 5.19197 64.6874 5.28285C64.4942 5.37374 64.3125 5.43054 64.1193 5.43054C63.7217 5.43054 63.3922 5.27149 63.1082 4.95339C62.8242 4.63529 62.6879 4.19223 62.6879 3.63556C62.6879 3.07889 62.8242 2.6131 63.0969 2.31772C63.3695 2.01098 63.7103 1.86329 64.1307 1.86329C64.551 1.86329 64.8464 2.02234 65.1191 2.34044V0.647705H66.0279V5.36238L66.0166 5.35102ZM63.6081 3.56739C63.6081 3.93093 63.6535 4.19223 63.7558 4.36264C63.9035 4.60121 64.108 4.71482 64.3693 4.71482C64.6306 4.71482 64.7555 4.62393 64.9032 4.45352C65.0509 4.27175 65.1191 4.01046 65.1191 3.65828C65.1191 3.3061 65.0509 2.988 64.9032 2.80623C64.7669 2.63582 64.5851 2.54493 64.3579 2.54493C64.1307 2.54493 63.9603 2.63582 63.824 2.79487C63.6876 2.95392 63.6081 3.21521 63.6081 3.55603V3.56739Z" fill="#F2F2F2"/>
<path d="M66.7096 3.58999C66.7096 3.29461 66.7892 2.99923 66.9369 2.71522C67.0845 2.4312 67.289 2.21535 67.5617 2.06766C67.8344 1.91997 68.1297 1.85181 68.4705 1.85181C68.9818 1.85181 69.4135 2.02222 69.7429 2.35168C70.0724 2.68113 70.2314 3.11284 70.2314 3.62407C70.2314 4.1353 70.061 4.567 69.7316 4.90782C69.4021 5.24864 68.9818 5.41905 68.4705 5.41905C67.9593 5.41905 67.8571 5.35089 67.5731 5.2032C67.2891 5.05551 67.0732 4.85102 66.9255 4.57836C66.7778 4.30571 66.6983 3.97625 66.6983 3.57863H66.7096V3.58999ZM67.6299 3.64679C67.6299 3.98761 67.7094 4.2489 67.8684 4.43068C68.0275 4.61245 68.232 4.70333 68.4592 4.70333C68.6864 4.70333 68.8909 4.61245 69.05 4.43068C69.209 4.2489 69.2885 3.98761 69.2885 3.64679C69.2885 3.30597 69.209 3.05604 69.05 2.87427C68.8909 2.69249 68.6864 2.60161 68.4592 2.60161C68.232 2.60161 68.0275 2.69249 67.8684 2.87427C67.7094 3.05604 67.6299 3.31733 67.6299 3.64679Z" fill="#F2F2F2"/>
<path d="M72.7421 1.93133H73.5827V2.4312C73.6964 2.26079 73.844 2.12446 74.0258 2.01086C74.2076 1.90861 74.4234 1.85181 74.6507 1.85181C75.0483 1.85181 75.3891 2.01086 75.6618 2.31759C75.9344 2.62433 76.0821 3.0674 76.0707 3.61271C76.0594 4.15802 75.9344 4.62381 75.6504 4.9419C75.3664 5.26 75.0369 5.41905 74.6393 5.41905C74.2417 5.41905 74.2758 5.38497 74.1281 5.30545C73.9804 5.22592 73.81 5.10095 73.6395 4.91918V6.63464H72.7307V1.91997L72.7421 1.93133ZM73.6282 3.58999C73.6282 3.97625 73.7077 4.26027 73.8554 4.44204C74.0031 4.62381 74.1962 4.71469 74.4121 4.71469C74.6279 4.71469 74.7983 4.63517 74.9347 4.46476C75.071 4.29435 75.1392 4.02169 75.1392 3.63543C75.1392 3.24917 75.071 3.01059 74.9233 2.84018C74.7756 2.66977 74.6052 2.57889 74.3894 2.57889C74.1735 2.57889 73.9804 2.66977 73.844 2.82882C73.7077 2.98787 73.6282 3.24917 73.6282 3.58999Z" fill="#F2F2F2"/>
<path d="M76.5706 3.60146C76.5706 3.30608 76.6501 3.01071 76.7978 2.72669C76.9455 2.44268 77.15 2.22682 77.4227 2.07913C77.6953 1.93145 77.9907 1.86328 78.3315 1.86328C78.8428 1.86328 79.2745 2.03369 79.6039 2.36315C79.9334 2.69261 80.0924 3.12431 80.0924 3.63554C80.0924 4.14677 79.922 4.57848 79.5926 4.9193C79.2631 5.26012 78.8428 5.43053 78.3315 5.43053C77.8203 5.43053 77.718 5.36236 77.434 5.21467C77.15 5.06699 76.9342 4.86249 76.7865 4.58984C76.6388 4.31718 76.5593 3.98772 76.5593 3.5901H76.5706V3.60146ZM77.5022 3.6469C77.5022 3.98772 77.5817 4.24902 77.7408 4.43079C77.8998 4.61256 78.1043 4.70344 78.3315 4.70344C78.5587 4.70344 78.7632 4.61256 78.9223 4.43079C79.0813 4.24902 79.1609 3.98772 79.1609 3.6469C79.1609 3.30608 79.0813 3.05615 78.9223 2.87438C78.7632 2.69261 78.5587 2.60172 78.3315 2.60172C78.1043 2.60172 77.8998 2.69261 77.7408 2.87438C77.5817 3.05615 77.5022 3.31745 77.5022 3.6469Z" fill="#F2F2F2"/>
<path d="M81.6716 5.35089H80.7628V1.93133H81.6035V2.41984C81.7512 2.19263 81.8761 2.04494 81.9897 1.96541C82.1033 1.89725 82.2397 1.85181 82.376 1.85181C82.5123 1.85181 82.785 1.90861 82.9667 2.02222L82.6827 2.8061C82.535 2.70386 82.3873 2.65841 82.2624 2.65841C82.1374 2.65841 82.0238 2.69249 81.9443 2.76066C81.8648 2.82882 81.7852 2.95379 81.7398 3.13556C81.6943 3.31733 81.6603 3.70359 81.6603 4.28299V5.33953L81.6716 5.35089Z" fill="#F2F2F2"/>
<path d="M36.1835 13.2352V8.52051H37.0924V13.2352H36.1835Z" fill="#F2F2F2"/>
<path d="M38.6828 10.8723L37.8649 10.7246C37.9558 10.3951 38.1148 10.1452 38.342 9.99749C38.5692 9.8498 38.8987 9.75891 39.3418 9.75891C39.7848 9.75891 40.0461 9.80435 40.2393 9.9066C40.4324 9.99749 40.5801 10.1225 40.6596 10.2701C40.7391 10.4178 40.7846 10.6905 40.7846 11.0767V12.1333C40.7846 12.4287 40.7846 12.6559 40.8186 12.7922C40.8527 12.9285 40.8982 13.0876 40.9777 13.2466H40.0802C40.0575 13.1898 40.0234 13.0989 39.9893 12.974C39.978 12.9172 39.9666 12.8831 39.9552 12.8717C39.7962 13.0194 39.6371 13.133 39.4554 13.2126C39.285 13.2921 39.0918 13.3262 38.8873 13.3262C38.5352 13.3262 38.2625 13.2353 38.058 13.0421C37.8535 12.849 37.7513 12.6104 37.7513 12.3151C37.7513 12.0197 37.7967 11.9515 37.8876 11.8038C37.9785 11.6561 38.1148 11.5312 38.2739 11.4516C38.4443 11.3721 38.6828 11.304 38.9896 11.2358C39.4099 11.1563 39.7053 11.0767 39.8644 11.0199V10.9291C39.8644 10.7586 39.8189 10.6337 39.7394 10.5542C39.6485 10.486 39.4894 10.4406 39.2509 10.4406C39.0123 10.4406 38.9669 10.4746 38.876 10.5314C38.7851 10.5996 38.7169 10.7018 38.6601 10.8609H38.6828V10.8723ZM39.8984 11.5993C39.7848 11.6334 39.6031 11.6902 39.3531 11.7357C39.1032 11.7811 38.9441 11.8379 38.8646 11.8947C38.751 11.9742 38.6942 12.0878 38.6828 12.2128C38.6715 12.3378 38.7283 12.4514 38.8192 12.5423C38.9101 12.6332 39.035 12.6786 39.1827 12.6786C39.3304 12.6786 39.5008 12.6218 39.6485 12.5196C39.7621 12.44 39.8303 12.3378 39.8644 12.2242C39.8871 12.1446 39.8984 11.997 39.8984 11.7811V11.5993Z" fill="#F2F2F2"/>
<path d="M43.4999 8.53198H44.4542V11.0881C44.4542 11.4971 44.4655 11.7584 44.4883 11.872C44.5337 12.0651 44.6246 12.2242 44.7836 12.3378C44.9427 12.4514 45.1472 12.5196 45.4085 12.5196C45.6698 12.5196 45.8856 12.4628 46.022 12.3605C46.1583 12.2469 46.2378 12.1106 46.2719 11.9515C46.306 11.7925 46.3173 11.5198 46.3173 11.1449V8.54334H47.2716V11.02C47.2716 11.588 47.2489 11.9856 47.1921 12.2242C47.1353 12.4628 47.0444 12.6559 46.9081 12.8149C46.7718 12.974 46.59 13.099 46.3514 13.2012C46.1242 13.2921 45.8175 13.3489 45.4426 13.3489C45.0677 13.3489 44.6473 13.2921 44.4201 13.1898C44.1929 13.0876 43.9998 12.9513 43.8634 12.7809C43.7271 12.6105 43.6362 12.44 43.6021 12.2583C43.5453 11.9856 43.5113 11.588 43.5113 11.0654V8.55471V8.53198H43.4999Z" fill="#F2F2F2"/>
<path d="M51.3614 13.2466H50.4526V11.5085C50.4526 11.1449 50.4298 10.9063 50.3958 10.7927C50.3617 10.6791 50.2935 10.5996 50.2026 10.5428C50.1118 10.486 50.0095 10.4519 49.8845 10.4519C49.7596 10.4519 49.5892 10.4974 49.4642 10.5769C49.3392 10.6678 49.2597 10.7814 49.2143 10.9177C49.1688 11.054 49.1461 11.3267 49.1461 11.7016V13.2466H48.2372V9.82708H49.0779V10.327C49.3733 9.94069 49.7482 9.74756 50.2026 9.74756C50.6571 9.74756 50.5889 9.78164 50.748 9.8498C50.9184 9.91797 51.032 10.0089 51.1229 10.1225C51.2024 10.2361 51.2705 10.361 51.2933 10.4974C51.3273 10.6337 51.3387 10.8382 51.3387 11.1108V13.2353H51.3614V13.2466Z" fill="#F2F2F2"/>
<path d="M52.2816 9.37267V8.53198H53.1904V9.37267H52.2816ZM52.2816 13.2467V9.8271H53.1904V13.2467H52.2816Z" fill="#F2F2F2"/>
<path d="M53.8948 11.4857C53.8948 11.1903 53.9743 10.8949 54.122 10.6109C54.2697 10.3269 54.4742 10.111 54.7469 9.96336C55.0195 9.81567 55.3149 9.74751 55.6557 9.74751C56.1669 9.74751 56.5986 9.91792 56.9281 10.2474C57.2576 10.5768 57.4166 11.0085 57.4166 11.5198C57.4166 12.031 57.2462 12.4627 56.9167 12.8035C56.5873 13.1443 56.1669 13.3148 55.6557 13.3148C55.1445 13.3148 55.0422 13.2466 54.7582 13.0989C54.4742 12.9512 54.2583 12.7467 54.1107 12.4741C53.963 12.2014 53.8834 11.8719 53.8834 11.4743H53.8948V11.4857ZM54.8264 11.5425C54.8264 11.8833 54.9059 12.1446 55.0649 12.3264C55.224 12.5081 55.4285 12.599 55.6557 12.599C55.8829 12.599 56.0874 12.5081 56.2465 12.3264C56.4055 12.1446 56.485 11.8833 56.485 11.5425C56.485 11.2017 56.4055 10.9517 56.2465 10.77C56.0874 10.5882 55.8829 10.4973 55.6557 10.4973C55.4285 10.4973 55.224 10.5882 55.0649 10.77C54.9059 10.9517 54.8264 11.213 54.8264 11.5539V11.5425ZM55.2013 9.41805L55.6443 8.45239H56.6554L55.7693 9.41805H55.2013Z" fill="#F2F2F2"/>
<path d="M61.2338 13.2466H60.3249V11.5085C60.3249 11.1449 60.3022 10.9063 60.2681 10.7927C60.234 10.6791 60.1659 10.5996 60.075 10.5428C59.9841 10.486 59.8819 10.4519 59.7569 10.4519C59.6319 10.4519 59.4615 10.4974 59.3366 10.5769C59.2116 10.6678 59.1321 10.7814 59.0866 10.9177C59.0412 11.054 59.0185 11.3267 59.0185 11.7016V13.2466H58.1096V9.82708H58.9503V10.327C59.2457 9.94069 59.6206 9.74756 60.075 9.74756C60.5294 9.74756 60.4613 9.78164 60.6203 9.8498C60.7907 9.91797 60.9043 10.0089 60.9952 10.1225C61.0747 10.2361 61.1429 10.361 61.1656 10.4974C61.1997 10.6337 61.2111 10.8382 61.2111 11.1108V13.2353H61.2338V13.2466Z" fill="#F2F2F2"/>
<path d="M63.983 13.2467V8.53198H67.4821V9.32723H64.9373V10.3724H67.3004V11.1677H64.9373V12.4514H67.573V13.2467H63.983Z" fill="#F2F2F2"/>
<path d="M70.6177 13.2466V12.7353C70.4927 12.9171 70.3337 13.0648 70.1292 13.167C69.9247 13.2693 69.7088 13.3261 69.493 13.3261C69.2771 13.3261 69.0613 13.2806 68.8795 13.1784C68.6977 13.0762 68.5614 12.9398 68.4819 12.7581C68.4024 12.5763 68.3569 12.3264 68.3569 12.0083V9.84973H69.2658V11.4175C69.2658 11.8946 69.2658 12.19 69.3112 12.3036C69.3566 12.4172 69.4021 12.4968 69.493 12.5649C69.5839 12.6331 69.6975 12.6558 69.8224 12.6558C69.9474 12.6558 70.1178 12.6104 70.2428 12.5308C70.3677 12.4513 70.4473 12.3377 70.4927 12.2127C70.5382 12.0878 70.5609 11.781 70.5609 11.2925V9.84973H71.4697V13.2693H70.629V13.2466H70.6177Z" fill="#F2F2F2"/>
<path d="M73.2534 13.258H72.3445V9.83844H73.1852V10.3269C73.3329 10.0997 73.4579 9.94068 73.5715 9.87252C73.6851 9.80435 73.8214 9.75891 73.9577 9.75891C74.0941 9.75891 74.3667 9.81571 74.5485 9.92932L74.2645 10.7132C74.1168 10.611 73.9691 10.5655 73.8441 10.5655C73.7192 10.5655 73.6055 10.5996 73.526 10.6678C73.4465 10.7359 73.367 10.8609 73.3215 11.0427C73.2761 11.2244 73.242 11.6107 73.242 12.1901V13.2466L73.2534 13.258Z" fill="#F2F2F2"/>
<path d="M74.7416 11.4971C74.7416 11.2017 74.8211 10.9063 74.9688 10.6223C75.1165 10.3383 75.3209 10.1225 75.5936 9.97476C75.8663 9.82708 76.1616 9.75891 76.5025 9.75891C77.0137 9.75891 77.4454 9.92932 77.7748 10.2588C78.1043 10.5882 78.2634 11.0199 78.2634 11.5312C78.2634 12.0424 78.0929 12.4741 77.7635 12.8149C77.434 13.1557 77.0137 13.3262 76.5025 13.3262C75.9912 13.3262 75.889 13.258 75.605 13.1103C75.3209 12.9626 75.1051 12.7581 74.9574 12.4855C74.8097 12.2128 74.7302 11.8834 74.7302 11.4857H74.7416V11.4971ZM75.6731 11.5425C75.6731 11.8834 75.7526 12.1446 75.9117 12.3264C76.0707 12.5082 76.2752 12.5991 76.5025 12.5991C76.7297 12.5991 76.9342 12.5082 77.0932 12.3264C77.2523 12.1446 77.3318 11.8834 77.3318 11.5425C77.3318 11.2017 77.2523 10.9518 77.0932 10.77C76.9342 10.5882 76.7297 10.4974 76.5025 10.4974C76.2752 10.4974 76.0707 10.5882 75.9117 10.77C75.7526 10.9518 75.6731 11.2131 75.6731 11.5539V11.5425Z" fill="#F2F2F2"/>
<path d="M78.945 9.83844H79.7857V10.3383C79.8993 10.1679 80.047 10.0316 80.2288 9.91796C80.4105 9.81572 80.6264 9.75891 80.8536 9.75891C81.2512 9.75891 81.592 9.91796 81.8647 10.2247C82.1374 10.5314 82.285 10.9745 82.2737 11.5198C82.2623 12.0651 82.1374 12.5309 81.8533 12.849C81.5693 13.1671 81.2399 13.3262 80.8422 13.3262C80.4446 13.3262 80.4787 13.2921 80.331 13.2126C80.1833 13.133 80.0129 13.0081 79.8425 12.8263V14.5417H78.9337V9.82708L78.945 9.83844ZM79.8425 11.4857C79.8425 11.872 79.922 12.156 80.0697 12.3378C80.2174 12.5195 80.4105 12.6104 80.6264 12.6104C80.8422 12.6104 81.0127 12.5309 81.149 12.3605C81.2853 12.1901 81.3535 11.9174 81.3535 11.5312C81.3535 11.1449 81.2853 10.9063 81.1376 10.7359C80.9899 10.5655 80.8195 10.4746 80.6037 10.4746C80.3878 10.4746 80.1947 10.5655 80.0583 10.7246C79.922 10.8836 79.8425 11.1449 79.8425 11.4857Z" fill="#F2F2F2"/>
<path d="M84.9775 12.1674L85.875 12.3151C85.7614 12.6445 85.5796 12.8945 85.3297 13.0649C85.0798 13.2353 84.7617 13.3262 84.3981 13.3262C83.8074 13.3262 83.3643 13.133 83.0803 12.7468C82.8531 12.44 82.7395 12.0424 82.7395 11.5653C82.7395 11.0881 82.8871 10.5542 83.1825 10.2361C83.4779 9.91796 83.8528 9.75891 84.3072 9.75891C84.7617 9.75891 85.2161 9.92932 85.5115 10.2588C85.8068 10.5882 85.9432 11.1108 85.9318 11.8038H83.671C83.671 12.0765 83.7506 12.281 83.8869 12.4287C84.0232 12.5764 84.205 12.6559 84.4095 12.6559C84.614 12.6559 84.6708 12.6218 84.7617 12.5423C84.8525 12.4627 84.9321 12.3378 84.9775 12.1674ZM85.023 11.2585C85.023 10.9972 84.9434 10.7927 84.8185 10.6678C84.6935 10.5428 84.5344 10.4633 84.3527 10.4633C84.1709 10.4633 83.9891 10.5314 83.8642 10.6791C83.7392 10.8268 83.671 11.0199 83.671 11.2585H85.023Z" fill="#F2F2F2"/>
<path d="M87.3292 10.8836L86.5112 10.7359C86.6021 10.4065 86.7612 10.1565 86.9884 10.0088C87.2156 9.86115 87.5451 9.77026 87.9881 9.77026C88.4312 9.77026 88.6925 9.81571 88.8856 9.91795C89.0787 10.0088 89.2264 10.1338 89.306 10.2815C89.3855 10.4292 89.4309 10.7018 89.4309 11.0881V12.1446C89.4309 12.44 89.4309 12.6672 89.465 12.8036C89.4991 12.9399 89.5445 13.0989 89.6241 13.258H88.7266C88.7038 13.2012 88.6698 13.1103 88.6357 12.9853C88.6357 12.9285 88.613 12.8944 88.6016 12.8831C88.4425 13.0308 88.2835 13.1444 88.1017 13.2239C87.9313 13.3034 87.7382 13.3375 87.5337 13.3375C87.1815 13.3375 86.9089 13.2466 86.7044 13.0535C86.4999 12.8604 86.3976 12.6218 86.3976 12.3264C86.3976 12.031 86.4431 11.9629 86.534 11.8152C86.6248 11.6675 86.7612 11.5425 86.9202 11.463C87.0906 11.3835 87.3292 11.3153 87.6359 11.2471C88.0563 11.1676 88.3517 11.0881 88.5107 11.0313V10.9404C88.5107 10.77 88.4653 10.645 88.3857 10.5655C88.2949 10.4973 88.1358 10.4519 87.8972 10.4519C87.6587 10.4519 87.6132 10.486 87.5223 10.5428C87.4315 10.611 87.3633 10.7132 87.3065 10.8722H87.3292V10.8836ZM88.5448 11.6221C88.4312 11.6561 88.2494 11.7129 87.9995 11.7584C87.7495 11.8038 87.5791 11.8606 87.511 11.9174C87.3974 11.997 87.3406 12.1106 87.3292 12.2355C87.3178 12.3605 87.3746 12.4741 87.4655 12.565C87.5564 12.6559 87.6814 12.7013 87.8291 12.7013C87.9768 12.7013 88.1472 12.6445 88.2949 12.5423C88.4085 12.4627 88.4766 12.3605 88.5107 12.2469C88.5334 12.1674 88.5448 12.0197 88.5448 11.8038V11.6221Z" fill="#F2F2F2"/>
</svg>
