<svg width="117" height="24" viewBox="0 0 117 24" fill="none" xmlns="http://www.w3.org/2000/svg">
<path d="M18.1876 0V4.55431H13.9841V22.8549H9.00582V4.55431H4.7793V0H18.1876Z" fill="black"/>
<path d="M23.1192 15.5723L22.4212 15.792C21.2859 16.1482 20.12 16.3755 18.9463 16.4589L17.6807 16.4892L22.2601 22.8395H28.4119L23.1192 15.5723Z" fill="black"/>
<path d="M8.04677 19.7779L6.56633 19.6945L6.32854 18.376L5.59217 19.6415L4.02734 19.5505L5.10891 20.4675L4.36486 21.7709L5.78393 21.0434L7.18 21.93L6.74277 20.6039L8.04677 19.7779Z" fill="black"/>
<path d="M3.85055 15.247L2.46217 15.1712L2.23973 13.9814L1.55703 15.1181L0.0996094 15.0348L1.11214 15.8608L0.222343 17.0278L1.74112 16.3836L2.83804 17.1793L2.6386 15.9896L3.85055 15.247Z" fill="black"/>
<path d="M3.37509 10.3288L2.12477 10.2606L1.92535 9.24512L1.31168 10.2075L0 10.1393L0.912812 10.8441L0.107401 11.8368L1.47278 11.2911L2.46228 11.9656L2.28587 10.9577L3.37509 10.3288Z" fill="black"/>
<path d="M5.69957 6.51743L4.61801 6.45681L4.43392 5.66113L3.90464 6.41892L2.76172 6.35072L3.55947 6.91148L2.8691 7.69201L4.05806 7.26764L4.91718 7.80567L4.7561 7.01L5.69957 6.51743Z" fill="black"/>
<path d="M27.0618 4.72881C26.6322 3.75884 26.0185 2.92528 25.2208 2.22811C24.423 1.53095 23.4565 0.985337 22.3059 0.606443C20.4496 0.000212386 18.6777 0.0305239 18.6777 0.0305239C18.6777 1.5461 18.6777 3.04652 18.6777 4.57725C19.4831 4.66061 20.3499 4.87279 21.1247 5.46387C21.8994 6.05494 22.2906 6.91124 22.2906 8.04792V8.11613C22.2906 9.09367 21.9224 9.91966 21.1784 10.5865C20.4343 11.2534 19.3988 11.5868 18.0564 11.5868H14.4512C14.4512 13.0948 14.4512 14.5649 14.4512 16.0653H17.8876C19.253 16.0653 20.534 15.8986 21.723 15.5576C22.9119 15.2166 23.9551 14.7165 24.8449 14.0345C25.7347 13.36 26.4328 12.5189 26.9467 11.5186C27.453 10.5183 27.7138 9.35132 27.7138 8.01761V7.94941C27.7138 6.77484 27.499 5.69878 27.0694 4.72881H27.0618Z" fill="black"/>
<path d="M32.2549 1.43238H34.395C34.7095 1.43238 34.9933 1.47785 35.2388 1.56121C35.4842 1.64456 35.699 1.76581 35.8678 1.92494C36.0365 2.08408 36.1746 2.27353 36.2667 2.49329C36.3587 2.71304 36.4047 2.95554 36.4047 3.22076V3.23592C36.4047 3.53903 36.351 3.80426 36.2436 4.02402C36.1363 4.25136 35.9828 4.4408 35.7911 4.59236C35.5993 4.74392 35.3769 4.85759 35.1161 4.93336C34.8552 5.00914 34.5868 5.04703 34.2876 5.04703H33.4132V6.6005H32.2626V1.4248L32.2549 1.43238ZM34.3183 4.03917C34.6098 4.03917 34.8322 3.9634 34.9933 3.81184C35.1544 3.66028 35.2311 3.47841 35.2311 3.25107V3.23592C35.2311 2.97827 35.1467 2.78125 34.978 2.65242C34.8092 2.51602 34.5791 2.4554 34.2953 2.4554H33.4055V4.03917H34.3183Z" fill="black"/>
<path d="M37.1875 1.20508H38.3227V6.60811H37.1875V1.20508Z" fill="black"/>
<path d="M40.5399 6.68335C40.3481 6.68335 40.1717 6.66061 40.003 6.60757C39.8342 6.55452 39.6885 6.47874 39.5657 6.37265C39.443 6.26656 39.3433 6.14532 39.2666 5.99376C39.1975 5.8422 39.1592 5.66791 39.1592 5.47089V5.45573C39.1592 5.23597 39.1975 5.0541 39.2819 4.89497C39.3586 4.73583 39.4737 4.60701 39.6118 4.50092C39.7575 4.39483 39.9262 4.31905 40.118 4.266C40.3175 4.21296 40.5322 4.19022 40.77 4.19022C40.9771 4.19022 41.1536 4.20538 41.307 4.23569C41.4604 4.266 41.6061 4.30389 41.7519 4.35694V4.28874C41.7519 4.05382 41.6828 3.87195 41.5371 3.75071C41.3913 3.62946 41.1766 3.56884 40.8928 3.56884C40.6703 3.56884 40.4785 3.58399 40.3098 3.62188C40.141 3.65977 39.9646 3.71282 39.7805 3.78102L39.4967 2.92472C39.7191 2.83378 39.9493 2.758 40.1871 2.69738C40.4249 2.63676 40.7163 2.60645 41.0538 2.60645C41.3683 2.60645 41.6368 2.64433 41.8593 2.72011C42.0817 2.79589 42.2658 2.90956 42.4116 3.04596C42.565 3.19752 42.6724 3.37181 42.7414 3.59157C42.8104 3.80375 42.8488 4.04624 42.8488 4.31147V6.61515H41.7442V6.18321C41.6061 6.33476 41.4374 6.45601 41.2456 6.54694C41.0538 6.63788 40.8161 6.68335 40.5322 6.68335H40.5399ZM40.8851 5.90282C41.1536 5.90282 41.3684 5.8422 41.5294 5.71338C41.6905 5.58455 41.7749 5.41784 41.7749 5.21324V5.01621C41.6752 4.97075 41.5678 4.93286 41.445 4.91012C41.3223 4.87981 41.1919 4.87223 41.0538 4.87223C40.8084 4.87223 40.6166 4.9177 40.4785 5.01621C40.3405 5.10715 40.2714 5.24355 40.2714 5.42542V5.44057C40.2714 5.59213 40.3251 5.71338 40.4402 5.79673C40.5553 5.88009 40.701 5.92556 40.8928 5.92556L40.8851 5.90282Z" fill="black"/>
<path d="M43.8301 2.64512H44.9653V3.21346C45.0267 3.1301 45.1034 3.04674 45.1801 2.97096C45.2568 2.89519 45.3412 2.82698 45.4409 2.76636C45.5329 2.70574 45.6403 2.66027 45.7554 2.62238C45.8705 2.58449 46.0009 2.56934 46.1466 2.56934C46.5838 2.56934 46.9137 2.69816 47.1515 2.96339C47.3893 3.22861 47.5043 3.58477 47.5043 4.04702V6.61593H46.3691V4.41076C46.3691 4.14554 46.3077 3.94093 46.1926 3.81211C46.0699 3.67571 45.9011 3.60751 45.6864 3.60751C45.4716 3.60751 45.2952 3.67571 45.1648 3.81211C45.0344 3.94851 44.973 4.14554 44.973 4.41076V6.61593H43.8377V2.65269L43.8301 2.64512Z" fill="black"/>
<path d="M52.391 6.68365C52.1532 6.68365 51.9308 6.63819 51.7084 6.54725C51.4859 6.45632 51.2941 6.32749 51.1254 6.1532C50.9566 5.97891 50.8185 5.76673 50.7188 5.50908C50.6191 5.25143 50.5654 4.96347 50.5654 4.63005V4.61489C50.5654 4.28146 50.6191 3.9935 50.7188 3.73586C50.8185 3.47821 50.9566 3.26603 51.1254 3.09174C51.2941 2.91745 51.4859 2.78104 51.7084 2.69769C51.9308 2.60675 52.1609 2.56128 52.3987 2.56128C52.7055 2.56128 52.951 2.62191 53.1504 2.73558C53.3499 2.85682 53.511 2.99322 53.649 3.15236V1.19727H54.7843V6.6003H53.649V6.03196C53.511 6.2214 53.3422 6.37296 53.1428 6.49421C52.9433 6.61545 52.6979 6.67608 52.3987 6.67608L52.391 6.68365ZM52.6825 5.72884C52.8206 5.72884 52.9433 5.70611 53.0584 5.65306C53.1735 5.60002 53.2808 5.52424 53.3652 5.4333C53.4496 5.33479 53.5263 5.22112 53.5723 5.08472C53.626 4.94832 53.649 4.79676 53.649 4.63763V4.62247C53.649 4.46333 53.626 4.31178 53.5723 4.17537C53.5186 4.03897 53.4496 3.9253 53.3652 3.82679C53.2808 3.72828 53.1735 3.66008 53.0584 3.60703C52.9433 3.55399 52.8129 3.53125 52.6825 3.53125C52.5521 3.53125 52.4217 3.55399 52.3067 3.60703C52.1916 3.66008 52.0842 3.73586 51.9922 3.82679C51.9001 3.9253 51.8311 4.03897 51.7774 4.1678C51.7237 4.3042 51.7007 4.44818 51.7007 4.62247V4.63763C51.7007 4.79676 51.7237 4.94832 51.7774 5.08472C51.8311 5.22112 51.9001 5.33479 51.9922 5.4333C52.0842 5.53182 52.1839 5.60002 52.3067 5.65306C52.4217 5.70611 52.5521 5.72884 52.6825 5.72884Z" fill="black"/>
<path d="M57.7063 6.69928C57.4071 6.69928 57.131 6.64624 56.8702 6.54772C56.6094 6.44921 56.3946 6.30523 56.2028 6.12336C56.0187 5.94149 55.873 5.72174 55.7656 5.47924C55.6582 5.22917 55.6045 4.95637 55.6045 4.64568V4.63052C55.6045 4.35014 55.6505 4.08491 55.7502 3.83484C55.85 3.58477 55.9804 3.36501 56.1568 3.17557C56.3332 2.98612 56.5403 2.84214 56.7858 2.72847C57.0312 2.62238 57.2997 2.56934 57.5912 2.56934C57.9287 2.56934 58.2125 2.62996 58.458 2.74363C58.7034 2.86487 58.9029 3.02401 59.0716 3.22103C59.2327 3.41806 59.3555 3.65297 59.4322 3.91062C59.5089 4.16827 59.5472 4.44107 59.5472 4.72146C59.5472 4.76692 59.5472 4.81239 59.5472 4.86543C59.5472 4.91848 59.5472 4.96395 59.5395 5.02457H56.7474C56.8011 5.28222 56.9162 5.47167 57.0849 5.60807C57.2537 5.73689 57.4685 5.80509 57.7216 5.80509C57.9134 5.80509 58.0821 5.77478 58.2279 5.70658C58.3813 5.64596 58.5347 5.53987 58.6958 5.39589L59.3478 5.96423C59.156 6.19914 58.9259 6.38101 58.6574 6.50984C58.389 6.63866 58.0745 6.70686 57.7063 6.70686V6.69928ZM58.435 4.31225C58.3966 4.06218 58.3122 3.85758 58.1665 3.69844C58.0208 3.53931 57.829 3.46353 57.5912 3.46353C57.3534 3.46353 57.1617 3.53931 57.0082 3.69086C56.8625 3.84242 56.7628 4.04702 56.7167 4.30467H58.435V4.31225Z" fill="black"/>
<path d="M62.7617 1.43262H65.155C65.8223 1.43262 66.3286 1.60691 66.6814 1.95549C66.9806 2.25103 67.134 2.64508 67.134 3.13764V3.1528C67.134 3.56958 67.0266 3.91058 66.8195 4.17581C66.6124 4.44104 66.3439 4.63048 66.0064 4.75931L67.2874 6.60831H65.9374L64.8175 4.94876H63.9123V6.60831H62.7617V1.43262ZM65.0783 3.9409C65.3621 3.9409 65.5845 3.8727 65.7303 3.74387C65.8837 3.60747 65.9604 3.43318 65.9604 3.21342V3.19826C65.9604 2.94819 65.8837 2.76632 65.7226 2.64508C65.5615 2.52383 65.3391 2.46321 65.0552 2.46321H63.9123V3.94847H65.0783V3.9409Z" fill="black"/>
<path d="M69.9563 6.69928C69.6571 6.69928 69.381 6.64624 69.1202 6.54772C68.8594 6.44921 68.6446 6.30523 68.4528 6.12336C68.2687 5.94149 68.123 5.72174 68.0156 5.47924C67.9082 5.22917 67.8545 4.95637 67.8545 4.64568V4.63052C67.8545 4.35014 67.9005 4.08491 68.0002 3.83484C68.1 3.58477 68.2304 3.36501 68.4068 3.17557C68.5832 2.98612 68.7903 2.84214 69.0358 2.72847C69.2812 2.62238 69.5497 2.56934 69.8412 2.56934C70.1787 2.56934 70.4625 2.62996 70.708 2.74363C70.9534 2.86487 71.1529 3.02401 71.3216 3.22103C71.4827 3.41806 71.6055 3.65297 71.6822 3.91062C71.7589 4.16827 71.7972 4.44107 71.7972 4.72146C71.7972 4.76692 71.7972 4.81239 71.7972 4.86543C71.7972 4.91848 71.7972 4.96395 71.7895 5.02457H68.9974C69.0511 5.28222 69.1662 5.47167 69.3349 5.60807C69.5037 5.73689 69.7185 5.80509 69.9716 5.80509C70.1634 5.80509 70.3321 5.77478 70.4779 5.70658C70.6313 5.64596 70.7847 5.53987 70.9458 5.39589L71.5978 5.96423C71.406 6.19914 71.1759 6.38101 70.9074 6.50984C70.639 6.63866 70.3245 6.70686 69.9563 6.70686V6.69928ZM70.6926 4.31225C70.6543 4.06218 70.5699 3.85758 70.4242 3.69844C70.2784 3.53931 70.0867 3.46353 69.8489 3.46353C69.6111 3.46353 69.4193 3.53931 69.2659 3.69086C69.1201 3.84242 69.0205 4.04702 68.9744 4.30467H70.6926V4.31225Z" fill="black"/>
<path d="M74.5433 6.69854C74.2441 6.69854 73.968 6.64549 73.7072 6.5394C73.4464 6.43331 73.2316 6.28176 73.0475 6.09989C72.8634 5.91802 72.7177 5.69826 72.6103 5.44819C72.5029 5.19812 72.4492 4.93289 72.4492 4.65251V4.63736C72.4492 4.35697 72.5029 4.09175 72.6103 3.84168C72.7177 3.59161 72.8634 3.37185 73.0475 3.1824C73.2316 2.99296 73.4541 2.84898 73.7072 2.73531C73.968 2.62922 74.2442 2.57617 74.5587 2.57617C74.9345 2.57617 75.249 2.63679 75.5021 2.75046C75.7553 2.86413 75.9701 3.03084 76.1618 3.23545L75.4638 3.97808C75.3334 3.84168 75.203 3.73559 75.0649 3.65981C74.9268 3.58403 74.7581 3.53856 74.551 3.53856C74.4052 3.53856 74.2748 3.56887 74.1598 3.62192C74.0447 3.67497 73.9373 3.75832 73.8529 3.85683C73.7686 3.95535 73.6995 4.06902 73.6535 4.19784C73.6075 4.32666 73.5845 4.47064 73.5845 4.61462V4.62978C73.5845 4.78134 73.6075 4.92532 73.6535 5.06172C73.6995 5.19812 73.7686 5.31179 73.8606 5.4103C73.9527 5.50881 74.06 5.58459 74.1828 5.64521C74.3055 5.69826 74.4436 5.72857 74.6047 5.72857C74.7964 5.72857 74.9575 5.69068 75.1033 5.6149C75.249 5.53912 75.3871 5.43303 75.5251 5.30421L76.1925 5.97106C76.0007 6.18324 75.7783 6.35754 75.5251 6.49394C75.272 6.63034 74.9498 6.69854 74.551 6.69854H74.5433Z" fill="black"/>
<path d="M78.2561 6.68331C77.8189 6.68331 77.4891 6.55448 77.2513 6.28926C77.0135 6.03161 76.8984 5.66787 76.8984 5.20562V2.63672H78.0337V4.84188C78.0337 5.10711 78.0951 5.31171 78.2101 5.44054C78.3328 5.57694 78.5016 5.64514 78.7164 5.64514C78.9312 5.64514 79.1076 5.57694 79.238 5.44054C79.3684 5.30413 79.4297 5.10711 79.4297 4.84188V2.63672H80.565V6.59995H79.4297V6.03161C79.3684 6.11497 79.2917 6.19832 79.215 6.2741C79.1383 6.34988 79.0539 6.41808 78.9542 6.47871C78.8621 6.53933 78.7547 6.5848 78.6397 6.62269C78.5246 6.66057 78.3942 6.67573 78.2485 6.67573L78.2561 6.68331Z" fill="black"/>
<path d="M81.5848 2.64512H82.7201V3.21346C82.8581 3.02401 83.0269 2.87245 83.2263 2.75121C83.4258 2.62996 83.6712 2.56934 83.9704 2.56934C84.2082 2.56934 84.4306 2.6148 84.6531 2.70574C84.8755 2.79667 85.0673 2.9255 85.236 3.09979C85.4048 3.27408 85.5429 3.48626 85.6426 3.74391C85.7423 4.00156 85.796 4.28952 85.796 4.62294V4.6381C85.796 4.97153 85.7423 5.25948 85.6426 5.51713C85.5429 5.77478 85.4048 5.98696 85.236 6.16125C85.0673 6.33554 84.8755 6.47195 84.6531 6.5553C84.4306 6.64624 84.2005 6.69171 83.9627 6.69171C83.6559 6.69171 83.4104 6.63108 83.211 6.51741C83.0116 6.39617 82.8505 6.25977 82.7124 6.10063V7.80565H81.5771V2.65269L81.5848 2.64512ZM83.6866 5.72931C83.8247 5.72931 83.9474 5.70658 84.0624 5.65353C84.1775 5.60049 84.2849 5.52471 84.3769 5.43378C84.469 5.33526 84.538 5.2216 84.5917 5.09277C84.6454 4.96395 84.6684 4.81239 84.6684 4.6381V4.62294C84.6684 4.46381 84.6454 4.31225 84.5917 4.17585C84.538 4.03945 84.469 3.92578 84.3769 3.82726C84.2849 3.72875 84.1852 3.66055 84.0624 3.60751C83.9474 3.55446 83.817 3.53173 83.6866 3.53173C83.5562 3.53173 83.4258 3.55446 83.3107 3.60751C83.1957 3.66055 83.0883 3.73633 83.0039 3.82726C82.9195 3.92578 82.8428 4.03945 82.7968 4.17585C82.7431 4.31225 82.7201 4.46381 82.7201 4.62294V4.6381C82.7201 4.79723 82.7431 4.94879 82.7968 5.08519C82.8505 5.2216 82.9195 5.33526 83.0039 5.43378C83.0883 5.53229 83.1957 5.60049 83.3107 5.65353C83.4258 5.70658 83.5562 5.72931 83.6866 5.72931Z" fill="black"/>
<path d="M88.5422 6.69928C88.243 6.69928 87.9669 6.64624 87.7061 6.54772C87.4453 6.44921 87.2305 6.30523 87.0387 6.12336C86.8546 5.94149 86.7089 5.72174 86.6015 5.47924C86.4941 5.22917 86.4404 4.95637 86.4404 4.64568V4.63052C86.4404 4.35014 86.4865 4.08491 86.5862 3.83484C86.6859 3.58477 86.8163 3.36501 86.9927 3.17557C87.1691 2.98612 87.3763 2.84214 87.6217 2.72847C87.8672 2.62238 88.1356 2.56934 88.4271 2.56934C88.7646 2.56934 89.0485 2.62996 89.2939 2.74363C89.5394 2.86487 89.7388 3.02401 89.9076 3.22103C90.0686 3.41806 90.1914 3.65297 90.2681 3.91062C90.3448 4.16827 90.3831 4.44107 90.3831 4.72146C90.3831 4.76692 90.3831 4.81239 90.3831 4.86543C90.3831 4.91848 90.3832 4.96395 90.3755 5.02457H87.5834C87.637 5.28222 87.7521 5.47167 87.9209 5.60807C88.0896 5.74447 88.3044 5.80509 88.5575 5.80509C88.7493 5.80509 88.9181 5.77478 89.0638 5.70658C89.2172 5.64596 89.3706 5.53987 89.5317 5.39589L90.1837 5.96423C89.992 6.19914 89.7618 6.38101 89.4934 6.50984C89.2249 6.63866 88.9027 6.70686 88.5422 6.70686V6.69928ZM89.2786 4.31225C89.2402 4.06218 89.1559 3.85758 89.0101 3.69844C88.8644 3.53931 88.6726 3.46353 88.4348 3.46353C88.197 3.46353 88.0052 3.53931 87.8518 3.69086C87.7061 3.84242 87.6064 4.04702 87.5603 4.30467H89.2786V4.31225Z" fill="black"/>
<path d="M91.2354 2.64506H92.3706V3.44074C92.4857 3.16793 92.6391 2.95575 92.8462 2.78904C93.0456 2.6299 93.3141 2.55413 93.6516 2.56928V3.74385H93.5903C93.2144 3.74385 92.9152 3.85752 92.6928 4.08486C92.478 4.31219 92.3706 4.66078 92.3706 5.14576V6.60829H91.2354V2.64506Z" fill="black"/>
<path d="M95.4999 6.68335C95.3081 6.68335 95.1317 6.66061 94.9629 6.60757C94.7941 6.55452 94.6484 6.47874 94.5257 6.37265C94.403 6.26656 94.3032 6.14532 94.2265 5.99376C94.1575 5.8422 94.1191 5.66791 94.1191 5.47089V5.45573C94.1191 5.23597 94.1575 5.0541 94.2419 4.89497C94.3186 4.73583 94.4336 4.60701 94.5717 4.50092C94.7175 4.39483 94.8862 4.31905 95.078 4.266C95.2774 4.21296 95.4922 4.19022 95.73 4.19022C95.9371 4.19022 96.1135 4.20538 96.2669 4.23569C96.4203 4.266 96.5661 4.30389 96.7118 4.35694V4.28874C96.7118 4.05382 96.6428 3.87195 96.497 3.75071C96.3513 3.62946 96.1365 3.56884 95.8527 3.56884C95.6302 3.56884 95.4385 3.58399 95.2697 3.62188C95.101 3.65977 94.9246 3.71282 94.7405 3.78102L94.4567 2.92472C94.6791 2.83378 94.9092 2.758 95.147 2.69738C95.3848 2.63676 95.6763 2.60645 96.0138 2.60645C96.3283 2.60645 96.5968 2.64433 96.8192 2.72011C97.0417 2.79589 97.2258 2.90956 97.3715 3.04596C97.5249 3.19752 97.6323 3.37181 97.7013 3.59157C97.7704 3.80375 97.8087 4.04624 97.8087 4.31147V6.61515H96.7042V6.18321C96.5661 6.33476 96.3973 6.45601 96.2056 6.54694C96.0138 6.63788 95.776 6.68335 95.4922 6.68335H95.4999ZM95.845 5.90282C96.1135 5.90282 96.3283 5.8422 96.4894 5.71338C96.6505 5.58455 96.7348 5.41784 96.7348 5.21324V5.01621C96.6351 4.97075 96.52 4.93286 96.405 4.91012C96.2823 4.87981 96.1519 4.87223 96.0138 4.87223C95.7683 4.87223 95.5766 4.9177 95.4385 5.01621C95.3004 5.10715 95.2314 5.24355 95.2314 5.42542V5.44057C95.2314 5.59213 95.2851 5.71338 95.4001 5.79673C95.5152 5.88009 95.6609 5.92556 95.8527 5.92556L95.845 5.90282Z" fill="black"/>
<path d="M100.693 6.69854C100.394 6.69854 100.117 6.64549 99.8566 6.5394C99.5958 6.43331 99.381 6.28176 99.1969 6.09989C99.0128 5.91802 98.8671 5.69826 98.7597 5.44819C98.6523 5.19812 98.5986 4.93289 98.5986 4.65251V4.63736C98.5986 4.35697 98.6523 4.09175 98.7597 3.84168C98.8671 3.59161 99.0128 3.37185 99.1969 3.1824C99.381 2.99296 99.6035 2.84898 99.8566 2.73531C100.117 2.62922 100.394 2.57617 100.708 2.57617C101.084 2.57617 101.398 2.63679 101.652 2.75046C101.905 2.87171 102.119 3.03084 102.311 3.23545L101.613 3.97808C101.483 3.84168 101.352 3.73559 101.214 3.65981C101.076 3.58403 100.907 3.53856 100.7 3.53856C100.555 3.53856 100.424 3.56887 100.309 3.62192C100.194 3.67497 100.087 3.75832 100.002 3.85683C99.918 3.95535 99.849 4.06902 99.8029 4.19784C99.7569 4.32666 99.7339 4.47064 99.7339 4.61462V4.62978C99.7339 4.78134 99.7569 4.92532 99.8029 5.06172C99.849 5.19812 99.918 5.31179 100.01 5.4103C100.102 5.50881 100.209 5.58459 100.332 5.64521C100.455 5.69826 100.593 5.72857 100.754 5.72857C100.946 5.72857 101.107 5.69068 101.253 5.6149C101.398 5.53912 101.536 5.43303 101.675 5.30421L102.342 5.97106C102.15 6.18324 101.928 6.35754 101.675 6.49394C101.421 6.63034 101.099 6.69854 100.7 6.69854H100.693Z" fill="black"/>
<path d="M103.094 1.20508H104.29V2.20536H103.094V1.20508ZM103.124 2.64488H104.26V6.60811H103.124V2.64488Z" fill="black"/>
<path d="M107.305 6.69919C106.998 6.69919 106.707 6.64614 106.446 6.54005C106.185 6.43396 105.955 6.28998 105.763 6.10054C105.571 5.91867 105.418 5.69891 105.311 5.44884C105.203 5.19877 105.149 4.93354 105.149 4.64558V4.63043C105.149 4.34247 105.203 4.07724 105.311 3.82717C105.418 3.5771 105.571 3.35734 105.771 3.17547C105.963 2.98603 106.193 2.84205 106.461 2.72838C106.722 2.62229 107.013 2.56924 107.328 2.56924C107.642 2.56924 107.926 2.62229 108.187 2.72838C108.448 2.83447 108.678 2.97845 108.87 3.1679C109.061 3.34977 109.215 3.56952 109.322 3.81959C109.43 4.06966 109.483 4.33489 109.483 4.62285V4.63801C109.483 4.92597 109.43 5.19119 109.322 5.44126C109.215 5.69133 109.061 5.91109 108.862 6.09296C108.67 6.28241 108.44 6.42639 108.172 6.54005C107.903 6.65372 107.619 6.69919 107.305 6.69919ZM107.32 5.72922C107.481 5.72922 107.635 5.69891 107.757 5.64586C107.888 5.59282 107.995 5.50946 108.08 5.41095C108.172 5.31244 108.241 5.19877 108.287 5.06994C108.333 4.94112 108.356 4.79714 108.356 4.65316V4.63801C108.356 4.48645 108.333 4.35005 108.279 4.22122C108.225 4.0924 108.156 3.97115 108.064 3.87264C107.972 3.77413 107.857 3.69077 107.727 3.63015C107.596 3.56952 107.458 3.53921 107.297 3.53921C107.136 3.53921 106.983 3.56952 106.86 3.62257C106.73 3.67561 106.622 3.75897 106.538 3.85748C106.446 3.956 106.377 4.06966 106.331 4.19849C106.285 4.32731 106.262 4.47129 106.262 4.61527V4.63043C106.262 4.78199 106.285 4.91839 106.338 5.04721C106.392 5.17604 106.461 5.29728 106.553 5.39579C106.645 5.49431 106.76 5.57766 106.883 5.63829C107.006 5.69891 107.151 5.72922 107.313 5.72922H107.32ZM107.727 0.894531L108.709 1.31889L107.75 2.2055H106.883L107.727 0.894531Z" fill="black"/>
<path d="M110.312 2.64512H111.447V3.21346C111.508 3.1301 111.585 3.04674 111.662 2.97096C111.738 2.89519 111.823 2.82698 111.922 2.76636C112.014 2.70574 112.122 2.66027 112.237 2.62238C112.352 2.58449 112.482 2.56934 112.628 2.56934C113.065 2.56934 113.395 2.69816 113.633 2.96339C113.871 3.22861 113.986 3.58477 113.986 4.04702V6.61593H112.851V4.41076C112.851 4.14554 112.789 3.94093 112.674 3.81211C112.551 3.67571 112.383 3.60751 112.168 3.60751C111.953 3.60751 111.777 3.67571 111.646 3.81211C111.516 3.94851 111.454 4.14554 111.454 4.41076V6.61593H110.319V2.65269L110.312 2.64512Z" fill="black"/>
<path d="M114.661 7.34299C115.19 7.28994 115.428 7.04745 115.39 6.60793H114.929V5.42578H116.134V6.42606C116.134 6.91105 116.011 7.26721 115.773 7.47939C115.535 7.69157 115.198 7.80524 114.753 7.80524L114.653 7.33541L114.661 7.34299Z" fill="black"/>
<path d="M33.406 10.2525H31.8105V9.19922H36.1521V10.2525H34.5566V14.3825H33.406V10.2525Z" fill="black"/>
<path d="M36.9189 10.4117H38.0542V11.2073C38.1693 10.9345 38.3227 10.7224 38.5298 10.5556C38.7292 10.3965 38.9977 10.3207 39.3352 10.3359V11.5105H39.2738C38.898 11.5105 38.5988 11.6241 38.3764 11.8515C38.1539 12.0788 38.0542 12.4274 38.0542 12.9124V14.3749H36.9189V10.4117Z" fill="black"/>
<path d="M41.1913 14.4509C40.9995 14.4509 40.8231 14.4282 40.6543 14.3751C40.4856 14.3221 40.3398 14.2463 40.2171 14.1402C40.0944 14.0341 39.9947 13.9129 39.9179 13.7613C39.8412 13.6098 39.8105 13.4355 39.8105 13.2385V13.2233C39.8105 13.0035 39.8489 12.8217 39.9333 12.6625C40.0177 12.5034 40.125 12.3746 40.2631 12.2685C40.4089 12.1624 40.5776 12.0866 40.7694 12.0336C40.9688 11.9805 41.1836 11.9578 41.4214 11.9578C41.6285 11.9578 41.8049 11.973 41.9583 12.0033C42.1118 12.0336 42.2575 12.0715 42.4032 12.1245V12.0563C42.4032 11.8214 42.3342 11.6395 42.1885 11.5183C42.0427 11.397 41.8279 11.3364 41.5441 11.3364C41.3217 11.3364 41.1299 11.3516 40.9611 11.3895C40.7924 11.4273 40.616 11.4804 40.4319 11.5486L40.1481 10.6923C40.3705 10.6014 40.6006 10.5256 40.8384 10.465C41.0762 10.4043 41.3677 10.374 41.7052 10.374C42.0197 10.374 42.2882 10.4119 42.5106 10.4877C42.7331 10.5635 42.9172 10.6771 43.0629 10.8135C43.2163 10.9651 43.3237 11.1394 43.3928 11.3591C43.4618 11.5713 43.5001 11.8138 43.5001 12.079V14.3827H42.3956V13.9508C42.2575 14.1023 42.0887 14.2236 41.897 14.3145C41.7052 14.4055 41.4674 14.4509 41.1836 14.4509H41.1913ZM41.5288 13.678C41.7973 13.678 42.012 13.6174 42.1731 13.4885C42.3342 13.3597 42.4186 13.193 42.4186 12.9884V12.7914C42.3189 12.7459 42.2115 12.708 42.0887 12.6853C41.966 12.655 41.8356 12.6474 41.6975 12.6474C41.4521 12.6474 41.2603 12.6929 41.1222 12.7914C40.9842 12.8823 40.9151 13.0187 40.9151 13.2006V13.2157C40.9151 13.3673 40.9688 13.4885 41.0839 13.5719C41.1989 13.6552 41.3447 13.7007 41.5364 13.7007L41.5288 13.678Z" fill="black"/>
<path d="M44.4824 10.4117H45.6177V10.9801C45.6791 10.8967 45.7558 10.8133 45.8325 10.7376C45.9092 10.6618 45.9935 10.5936 46.0933 10.533C46.1853 10.4723 46.2927 10.4269 46.4078 10.389C46.5228 10.3511 46.6532 10.3359 46.799 10.3359C47.2362 10.3359 47.566 10.4648 47.8038 10.73C48.0416 10.9876 48.1567 11.3514 48.1567 11.8136V14.3825H47.0214V12.1774C47.0214 11.9121 46.9601 11.7075 46.845 11.5787C46.7299 11.4499 46.5535 11.3741 46.3387 11.3741C46.124 11.3741 45.9475 11.4423 45.8171 11.5787C45.6867 11.7151 45.6254 11.9121 45.6254 12.1774V14.3825H44.4901V10.4193L44.4824 10.4117Z" fill="black"/>
<path d="M50.557 14.4514C50.2731 14.4514 49.9816 14.406 49.6825 14.3075C49.3833 14.2089 49.0995 14.0574 48.8311 13.8528L49.3143 13.1101C49.5368 13.2693 49.7515 13.383 49.9663 13.4663C50.1811 13.5497 50.3882 13.5876 50.58 13.5876C50.7411 13.5876 50.8638 13.5572 50.9405 13.5042C51.0172 13.4512 51.0555 13.3754 51.0555 13.292V13.2769C51.0555 13.2162 51.0325 13.1632 50.9865 13.1177C50.9405 13.0723 50.8791 13.0344 50.8024 13.0041C50.7257 12.9737 50.6337 12.9434 50.5339 12.9131C50.4342 12.8828 50.3268 12.8525 50.2194 12.8146C50.0814 12.7767 49.9356 12.7237 49.7976 12.6706C49.6518 12.6176 49.5291 12.5418 49.414 12.4509C49.299 12.3599 49.2069 12.2463 49.1302 12.1174C49.0612 11.981 49.0228 11.8219 49.0228 11.6325V11.6173C49.0228 11.4127 49.0612 11.2384 49.1379 11.0793C49.2146 10.9201 49.322 10.7913 49.4524 10.6852C49.5828 10.5791 49.7362 10.4958 49.9203 10.4427C50.0967 10.3897 50.2885 10.3594 50.4956 10.3594C50.7487 10.3594 51.0095 10.3973 51.2703 10.4806C51.5311 10.564 51.7766 10.6776 51.9914 10.814L51.5541 11.5946C51.3547 11.4809 51.1629 11.39 50.9712 11.3218C50.7794 11.2536 50.6106 11.2233 50.4726 11.2233C50.3345 11.2233 50.2271 11.246 50.1581 11.299C50.0891 11.3521 50.0507 11.4127 50.0507 11.4961V11.5112C50.0507 11.5643 50.0737 11.6173 50.1197 11.6552C50.1657 11.7007 50.2271 11.7385 50.2962 11.7764C50.3729 11.8143 50.4572 11.8522 50.557 11.8825C50.6567 11.9204 50.7564 11.9507 50.8715 11.9886C51.0095 12.0341 51.1553 12.0871 51.301 12.1478C51.4468 12.2084 51.5772 12.2842 51.6922 12.3751C51.8073 12.466 51.8993 12.5721 51.976 12.7009C52.0527 12.8298 52.0911 12.9813 52.0911 13.1708V13.1859C52.0911 13.4057 52.0527 13.6027 51.976 13.7618C51.8993 13.921 51.7919 14.0574 51.6539 14.1559C51.5158 14.2544 51.347 14.3378 51.1629 14.3908C50.9788 14.4439 50.7717 14.4666 50.557 14.4666V14.4514Z" fill="black"/>
<path d="M53.1045 11.3744H52.6289V10.4499H53.1045V10.1998C53.1045 9.7679 53.2119 9.44963 53.4266 9.23745C53.6414 9.02527 53.9406 8.92676 54.3471 8.92676C54.5236 8.92676 54.677 8.93434 54.8074 8.95707C54.9378 8.9798 55.0528 9.00254 55.1525 9.04043V9.97251C55.0682 9.94219 54.9838 9.91946 54.9071 9.9043C54.8304 9.88915 54.7383 9.88157 54.6386 9.88157C54.3625 9.88157 54.2244 10.0256 54.2244 10.3135V10.4726H55.1449V11.3896H54.2397V14.3904H53.1045V11.3896V11.3744Z" fill="black"/>
<path d="M57.7375 14.4659C57.4307 14.4659 57.1392 14.4128 56.8784 14.3067C56.6099 14.2007 56.3875 14.0567 56.1957 13.8672C56.0039 13.6854 55.8505 13.4656 55.7431 13.2155C55.6357 12.9655 55.582 12.7002 55.582 12.4123V12.3971C55.582 12.1092 55.6357 11.8439 55.7431 11.5939C55.8505 11.3438 56.0039 11.124 56.2034 10.9422C56.3951 10.7527 56.6253 10.6087 56.8937 10.4951C57.1545 10.389 57.446 10.3359 57.7605 10.3359C58.075 10.3359 58.3588 10.389 58.6196 10.4951C58.8804 10.6012 59.1105 10.7451 59.3023 10.9346C59.4941 11.1165 59.6475 11.3362 59.7549 11.5863C59.8623 11.8364 59.916 12.1016 59.916 12.3895V12.4047C59.916 12.6927 59.8623 12.9579 59.7549 13.208C59.6475 13.458 59.4941 13.6778 59.2946 13.8597C59.1029 14.0491 58.8728 14.1931 58.6043 14.3067C58.3358 14.4128 58.052 14.4659 57.7375 14.4659ZM57.7528 13.5035C57.9139 13.5035 58.0673 13.4732 58.1901 13.4201C58.3205 13.3671 58.4279 13.2837 58.5122 13.1852C58.6043 13.0867 58.6733 12.973 58.7193 12.8442C58.7654 12.7154 58.7884 12.5714 58.7884 12.4274V12.4123C58.7884 12.2607 58.7654 12.1243 58.7117 11.9955C58.658 11.8667 58.5889 11.7454 58.4969 11.6469C58.4049 11.5484 58.2898 11.465 58.1594 11.4044C58.029 11.3438 57.8909 11.3135 57.7298 11.3135C57.5687 11.3135 57.4153 11.3438 57.2926 11.3968C57.1622 11.4499 57.0548 11.5332 56.9704 11.6318C56.8784 11.7303 56.8093 11.8439 56.7633 11.9728C56.7173 12.1016 56.6943 12.2456 56.6943 12.3895V12.4047C56.6943 12.5563 56.7173 12.6927 56.771 12.8215C56.817 12.9503 56.8937 13.0716 56.9858 13.1701C57.0778 13.2686 57.1929 13.3519 57.3156 13.4126C57.446 13.4732 57.5841 13.5035 57.7452 13.5035H57.7528Z" fill="black"/>
<path d="M60.7441 10.4117H61.8794V11.2073C61.9945 10.9345 62.1479 10.7224 62.355 10.5556C62.5544 10.3965 62.8229 10.3207 63.1604 10.3359V11.5105H63.099C62.7232 11.5105 62.424 11.6241 62.2016 11.8515C61.9791 12.0788 61.8794 12.4274 61.8794 12.9124V14.3749H60.7441V10.4117Z" fill="black"/>
<path d="M63.874 10.4117H65.0093V10.9801C65.0707 10.8967 65.1474 10.8133 65.2241 10.7376C65.3008 10.6618 65.3852 10.5936 65.4849 10.533C65.5769 10.4723 65.6843 10.4269 65.7994 10.389C65.9144 10.3511 66.0448 10.3359 66.1906 10.3359C66.4514 10.3359 66.6815 10.389 66.8733 10.5027C67.065 10.6087 67.2108 10.7679 67.3182 10.9725C67.4946 10.7603 67.6863 10.6087 67.9011 10.5027C68.1159 10.3966 68.3614 10.3435 68.6375 10.3435C69.0594 10.3435 69.3969 10.4648 69.6347 10.7148C69.8725 10.9649 69.9952 11.3211 69.9952 11.806V14.3901H68.86V12.1849C68.86 11.9197 68.8063 11.7151 68.6912 11.5863C68.5761 11.4575 68.4151 11.3817 68.2003 11.3817C67.9855 11.3817 67.8168 11.4499 67.694 11.5863C67.5713 11.7227 67.5099 11.9197 67.5099 12.1849V14.3901H66.3747V12.1849C66.3747 11.9197 66.321 11.7151 66.2059 11.5863C66.0909 11.4499 65.9298 11.3817 65.715 11.3817C65.5002 11.3817 65.3315 11.4499 65.2087 11.5863C65.086 11.7227 65.0246 11.9197 65.0246 12.1849V14.3901H63.8894V10.4269L63.874 10.4117Z" fill="black"/>
<path d="M72.1268 14.4509C71.935 14.4509 71.7586 14.4282 71.5898 14.3751C71.4211 14.3221 71.2754 14.2463 71.1526 14.1402C71.0299 14.0341 70.9302 13.9129 70.8535 13.7613C70.7768 13.6098 70.7461 13.4355 70.7461 13.2385V13.2233C70.7461 13.0035 70.7844 12.8217 70.8688 12.6625C70.9532 12.5034 71.0606 12.3746 71.1987 12.2685C71.3444 12.1624 71.5132 12.0866 71.7049 12.0336C71.9044 11.9805 72.1191 11.9578 72.3569 11.9578C72.564 11.9578 72.7405 11.973 72.8939 12.0033C73.0473 12.0336 73.193 12.0715 73.3388 12.1245V12.0563C73.3388 11.8214 73.2697 11.6395 73.124 11.5183C72.9782 11.397 72.7635 11.3364 72.4796 11.3364C72.2572 11.3364 72.0654 11.3516 71.8967 11.3895C71.7279 11.4273 71.5515 11.4804 71.3674 11.5486L71.0836 10.6923C71.3061 10.6014 71.5362 10.5256 71.774 10.465C72.0118 10.4043 72.3032 10.374 72.6408 10.374C72.9552 10.374 73.2237 10.4119 73.4462 10.4877C73.6686 10.5635 73.8527 10.6771 73.9985 10.8135C74.1519 10.9651 74.2592 11.1394 74.3283 11.3591C74.3973 11.5713 74.4357 11.8138 74.4357 12.079V14.3827H73.3311V13.9508C73.193 14.1023 73.0243 14.2236 72.8325 14.3145C72.6408 14.4055 72.4029 14.4509 72.1191 14.4509H72.1268ZM72.472 13.678C72.7405 13.678 72.9552 13.6174 73.1163 13.4885C73.2774 13.3597 73.3618 13.193 73.3618 12.9884V12.7914C73.2621 12.7459 73.1547 12.708 73.0319 12.6853C72.9092 12.655 72.7788 12.6474 72.6408 12.6474C72.3953 12.6474 72.2035 12.6929 72.0654 12.7914C71.9274 12.8823 71.8583 13.0187 71.8583 13.2006V13.2157C71.8583 13.3673 71.912 13.4885 72.0271 13.5719C72.1421 13.6552 72.2879 13.7007 72.4796 13.7007L72.472 13.678Z" fill="black"/>
<path d="M77.3206 14.4661C77.0215 14.4661 76.7453 14.4131 76.4845 14.307C76.2237 14.2009 76.009 14.0493 75.8249 13.8675C75.6408 13.6856 75.495 13.4658 75.3876 13.2158C75.2803 12.9657 75.2266 12.7005 75.2266 12.4201V12.4049C75.2266 12.1246 75.2803 11.8593 75.3876 11.6093C75.495 11.3592 75.6408 11.1394 75.8249 10.95C76.009 10.7605 76.2314 10.6166 76.4845 10.5029C76.7453 10.3968 77.0215 10.3438 77.336 10.3438C77.7119 10.3438 78.0263 10.4044 78.2795 10.518C78.5326 10.6393 78.7474 10.7984 78.9392 11.003L78.2411 11.7457C78.1107 11.6093 77.9803 11.5032 77.8423 11.4274C77.7042 11.3516 77.5354 11.3061 77.3283 11.3061C77.1826 11.3061 77.0522 11.3365 76.9371 11.3895C76.822 11.4425 76.7147 11.5259 76.6303 11.6244C76.5459 11.7229 76.4769 11.8366 76.4309 11.9654C76.3848 12.0942 76.3618 12.2382 76.3618 12.3822V12.3974C76.3618 12.5489 76.3848 12.6929 76.4309 12.8293C76.4769 12.9657 76.5459 13.0794 76.638 13.1779C76.73 13.2764 76.8374 13.3522 76.9601 13.4128C77.0828 13.4658 77.2209 13.4961 77.382 13.4961C77.5738 13.4961 77.7349 13.4583 77.8806 13.3825C78.0264 13.3067 78.1644 13.2006 78.3025 13.0718L78.9699 13.7386C78.7781 13.9508 78.5556 14.1251 78.3025 14.2615C78.0494 14.3979 77.7272 14.4661 77.3283 14.4661H77.3206Z" fill="black"/>
<path d="M79.7217 8.97949H80.9183V9.97977H79.7217V8.97949ZM79.7524 10.4117H80.8876V14.3749H79.7524V10.4117Z" fill="black"/>
<path d="M83.9328 14.466C83.626 14.466 83.3345 14.413 83.0737 14.3069C82.8052 14.2008 82.5828 14.0568 82.391 13.8674C82.1992 13.6855 82.0458 13.4657 81.9384 13.2157C81.831 12.9656 81.7773 12.7004 81.7773 12.4124V12.3973C81.7773 12.1093 81.831 11.8441 81.9384 11.594C82.0458 11.3439 82.1992 11.1242 82.3987 10.9423C82.5904 10.7529 82.8205 10.6089 83.089 10.4952C83.3498 10.3891 83.6413 10.3361 83.9558 10.3361C84.2703 10.3361 84.5541 10.3891 84.8149 10.4952C85.0757 10.6013 85.3058 10.7453 85.4976 10.9347C85.6894 11.1166 85.8428 11.3364 85.9502 11.5864C86.0576 11.8365 86.1113 12.1017 86.1113 12.3897V12.4048C86.1113 12.6928 86.0576 12.958 85.9502 13.2081C85.8428 13.4582 85.6894 13.6779 85.4899 13.8598C85.2905 14.0417 85.068 14.1932 84.7996 14.3069C84.5311 14.413 84.2473 14.466 83.9328 14.466ZM83.9481 13.5036C84.1092 13.5036 84.2626 13.4733 84.3854 13.4203C84.5158 13.3672 84.6231 13.2839 84.7075 13.1854C84.7996 13.0869 84.8686 12.9732 84.9146 12.8444C84.9607 12.7155 84.9837 12.5716 84.9837 12.4276V12.4124C84.9837 12.2609 84.9607 12.1245 84.907 11.9956C84.8533 11.8668 84.7842 11.7456 84.6922 11.6471C84.6001 11.5485 84.4851 11.4652 84.3547 11.4046C84.2243 11.3439 84.0862 11.3136 83.9251 11.3136C83.764 11.3136 83.6106 11.3439 83.4879 11.397C83.3575 11.45 83.2501 11.5334 83.1657 11.6319C83.0737 11.7304 83.0046 11.8441 82.9586 11.9729C82.9126 12.1017 82.8896 12.2457 82.8896 12.3897V12.4048C82.8896 12.5564 82.9126 12.6928 82.9663 12.8216C83.0123 12.9504 83.089 13.0717 83.1811 13.1702C83.2731 13.2687 83.3882 13.3521 83.5109 13.4127C83.6413 13.4733 83.7794 13.5036 83.9405 13.5036H83.9481ZM84.347 8.66895L85.3288 9.09331L84.37 9.97992H83.5032L84.347 8.66895Z" fill="black"/>
<path d="M86.9316 10.4117H88.0669V10.9801C88.1283 10.8967 88.205 10.8133 88.2817 10.7376C88.3584 10.6618 88.4428 10.5936 88.5425 10.533C88.6345 10.4723 88.7419 10.4269 88.857 10.389C88.972 10.3511 89.1025 10.3359 89.2482 10.3359C89.6854 10.3359 90.0153 10.4648 90.2531 10.73C90.4908 10.9952 90.6059 11.3514 90.6059 11.8136V14.3825H89.4707V12.1774C89.4707 11.9121 89.4093 11.7075 89.2942 11.5787C89.1715 11.4423 89.0027 11.3741 88.788 11.3741C88.5732 11.3741 88.3968 11.4423 88.2664 11.5787C88.136 11.7151 88.0746 11.9121 88.0746 12.1774V14.3825H86.9393V10.4193L86.9316 10.4117Z" fill="black"/>
<path d="M33.7668 23.0824C33.5596 23.0824 33.3756 23.0597 33.2145 23.0066C33.0534 22.9536 32.9 22.893 32.7542 22.8096L33.1378 21.9988C33.2145 22.0442 33.2912 22.0821 33.3832 22.1124C33.4676 22.1428 33.552 22.1579 33.6287 22.1579C33.7284 22.1579 33.8051 22.1428 33.8665 22.1049C33.9202 22.067 33.9739 21.9988 34.0276 21.9003L32.4551 17.9219H33.6594L34.5722 20.6196L35.4466 17.9219H36.6279L35.0861 21.9836C35.0094 22.1882 34.9327 22.3549 34.8483 22.4989C34.7639 22.6429 34.6719 22.7566 34.5645 22.8399C34.4648 22.9309 34.3497 22.9915 34.2193 23.0294C34.0889 23.0673 33.9432 23.09 33.7668 23.09V23.0824Z" fill="black"/>
<path d="M39.665 16.6943H42.0583C42.7256 16.6943 43.2319 16.8686 43.5848 17.2172C43.8839 17.5127 44.0373 17.9068 44.0373 18.3994V18.4145C44.0373 18.8313 43.9299 19.1723 43.7228 19.4375C43.5157 19.7028 43.2472 19.8922 42.9097 20.021L44.1908 21.87H42.8407L41.7208 20.2105H40.8156V21.87H39.665V16.6943ZM41.9893 19.2102C42.2731 19.2102 42.4955 19.142 42.6413 19.0132C42.7947 18.8768 42.8714 18.7025 42.8714 18.4827V18.4676C42.8714 18.2175 42.7947 18.0356 42.6336 17.9144C42.4725 17.7931 42.2501 17.7325 41.9662 17.7325H40.8233V19.2178H41.9893V19.2102Z" fill="black"/>
<path d="M46.8605 21.9678C46.5614 21.9678 46.2852 21.9148 46.0244 21.8163C45.7636 21.7178 45.5489 21.5738 45.3571 21.3919C45.173 21.21 45.0273 20.9903 44.9199 20.7478C44.8125 20.4977 44.7588 20.2249 44.7588 19.9142V19.8991C44.7588 19.6187 44.8048 19.3535 44.9045 19.1034C45.0043 18.8533 45.1347 18.6336 45.3111 18.4441C45.4875 18.2547 45.6946 18.1107 45.9401 17.997C46.1855 17.8909 46.454 17.8379 46.7455 17.8379C47.083 17.8379 47.3668 17.8985 47.6123 18.0122C47.8577 18.1334 48.0572 18.2926 48.2259 18.4896C48.387 18.6866 48.5097 18.9215 48.5864 19.1792C48.6632 19.4368 48.7015 19.7096 48.7015 19.99C48.7015 20.0355 48.7015 20.0809 48.7015 20.134C48.7015 20.187 48.7015 20.2325 48.6938 20.2931H45.9017C45.9554 20.5508 46.0705 20.7402 46.2392 20.8766C46.408 21.013 46.6228 21.0736 46.8759 21.0736C47.0677 21.0736 47.2364 21.0433 47.3821 20.9751C47.5356 20.9145 47.689 20.8084 47.8501 20.6644L48.5021 21.2328C48.3103 21.4677 48.0802 21.6496 47.8117 21.7784C47.5432 21.9072 47.2211 21.9754 46.8605 21.9754V21.9678ZM47.5969 19.5808C47.5586 19.3307 47.4742 19.1261 47.3285 18.967C47.1827 18.8079 46.991 18.7321 46.7532 18.7321C46.5154 18.7321 46.3236 18.8079 46.1702 18.9594C46.0244 19.111 45.9247 19.3156 45.8787 19.5732H47.5969V19.5808Z" fill="black"/>
<path d="M50.9642 21.9534C50.6804 21.9534 50.3889 21.9079 50.0897 21.8094C49.7906 21.7109 49.5068 21.5593 49.2383 21.3547L49.7215 20.6121C49.944 20.7712 50.1588 20.8849 50.3735 20.9683C50.5883 21.044 50.7954 21.0895 50.9872 21.0895C51.1483 21.0895 51.271 21.0592 51.3477 21.0061C51.4244 20.9531 51.4628 20.8773 51.4628 20.794V20.7788C51.4628 20.7182 51.4398 20.6651 51.3937 20.6197C51.3477 20.5742 51.2864 20.5363 51.2096 20.506C51.1329 20.4757 51.0409 20.4454 50.9412 20.4151C50.8415 20.3848 50.7341 20.3545 50.6267 20.3166C50.4886 20.2787 50.3429 20.2256 50.2048 20.1726C50.0591 20.1195 49.9363 20.0438 49.8213 19.9528C49.7062 19.8619 49.6141 19.7482 49.5374 19.6194C49.4684 19.483 49.43 19.3239 49.43 19.1344V19.1193C49.43 18.9147 49.4684 18.7404 49.5451 18.5812C49.6218 18.4221 49.7292 18.2933 49.8596 18.1872C49.99 18.0811 50.1434 17.9977 50.3275 17.9447C50.5116 17.8916 50.6957 17.8613 50.9028 17.8613C51.156 17.8613 51.4167 17.8992 51.6775 17.9826C51.9384 18.0659 52.1838 18.1796 52.3986 18.316L51.9614 19.0965C51.7619 18.9829 51.5702 18.8919 51.3784 18.8237C51.1866 18.7555 51.0179 18.7252 50.8798 18.7252C50.7417 18.7252 50.6344 18.7479 50.5653 18.801C50.4963 18.854 50.4579 18.9147 50.4579 18.998V19.0132C50.4579 19.0662 50.4809 19.1193 50.5269 19.1571C50.573 19.2026 50.6343 19.2405 50.7034 19.2784C50.7801 19.3163 50.8645 19.3542 50.9642 19.3845C51.0639 19.4148 51.1636 19.4527 51.2787 19.4906C51.4168 19.536 51.5625 19.5891 51.7082 19.6497C51.854 19.7103 51.9844 19.7861 52.0994 19.877C52.2145 19.968 52.3066 20.0741 52.3833 20.2029C52.46 20.3317 52.4983 20.4833 52.4983 20.6727V20.6879C52.4983 20.9076 52.46 21.1047 52.3833 21.2638C52.3066 21.4229 52.1992 21.5593 52.0611 21.6578C51.923 21.7639 51.7543 21.8397 51.5702 21.8928C51.3861 21.9458 51.179 21.9685 50.9642 21.9685V21.9534Z" fill="black"/>
<path d="M53.334 16.4746H54.5306V17.4749H53.334V16.4746ZM53.3647 17.9144H54.4999V21.8776H53.3647V17.9144Z" fill="black"/>
<path d="M55.6279 16.4746H56.7632V21.8776H55.6279V16.4746Z" fill="black"/>
<path d="M57.8594 16.4746H59.056V17.4749H57.8594V16.4746ZM57.8901 17.9144H59.0253V21.8776H57.8901V17.9144Z" fill="black"/>
<path d="M62.0021 21.9678C61.703 21.9678 61.4268 21.9148 61.166 21.8163C60.9052 21.7178 60.6905 21.5738 60.4987 21.3919C60.3146 21.21 60.1689 20.9903 60.0615 20.7478C59.9541 20.4977 59.9004 20.2249 59.9004 19.9142V19.8991C59.9004 19.6187 59.9464 19.3535 60.0461 19.1034C60.1459 18.8533 60.2763 18.6336 60.4527 18.4441C60.6291 18.2547 60.8362 18.1107 61.0817 17.997C61.3271 17.8909 61.5956 17.8379 61.8871 17.8379C62.2246 17.8379 62.5084 17.8985 62.7539 18.0122C62.9993 18.1334 63.1988 18.2926 63.3675 18.4896C63.5286 18.6866 63.6513 18.9215 63.728 19.1792C63.8048 19.4368 63.8431 19.7096 63.8431 19.99C63.8431 20.0355 63.8431 20.0809 63.8431 20.134C63.8431 20.187 63.8431 20.2325 63.8354 20.2931H61.0433C61.097 20.5508 61.2121 20.7402 61.3808 20.8766C61.5496 21.013 61.7644 21.0736 62.0175 21.0736C62.2093 21.0736 62.378 21.0433 62.5238 20.9751C62.6772 20.9145 62.8306 20.8084 62.9917 20.6644L63.6437 21.2328C63.4519 21.4677 63.2218 21.6496 62.9533 21.7784C62.6849 21.9072 62.3627 21.9754 62.0021 21.9754V21.9678ZM62.7309 19.5808C62.6925 19.3307 62.6081 19.1261 62.4624 18.967C62.3166 18.8079 62.1249 18.7321 61.8871 18.7321C61.6493 18.7321 61.4575 18.8079 61.3041 18.9594C61.1584 19.111 61.0587 19.3156 61.0126 19.5732H62.7309V19.5808Z" fill="black"/>
<path d="M64.6865 17.9137H65.8218V18.482C65.8832 18.3987 65.9599 18.3153 66.0366 18.2395C66.1133 18.1637 66.1977 18.0955 66.2974 18.0349C66.3894 17.9743 66.4968 17.9288 66.6119 17.8909C66.7269 17.853 66.8573 17.8379 67.0031 17.8379C67.4403 17.8379 67.7701 17.9667 68.0079 18.2319C68.2457 18.4896 68.3608 18.8533 68.3608 19.3156V21.8845H67.2255V19.6793C67.2255 19.4141 67.1642 19.2095 67.0491 19.0807C66.9264 18.9443 66.7576 18.8761 66.5428 18.8761C66.3281 18.8761 66.1516 18.9443 66.0212 19.0807C65.8908 19.2171 65.8295 19.4141 65.8295 19.6793V21.8845H64.6942V17.9212L64.6865 17.9137Z" fill="black"/>
<path d="M71.2533 21.9681C70.9541 21.9681 70.678 21.915 70.4172 21.8089C70.1564 21.7028 69.9416 21.5513 69.7575 21.3694C69.5734 21.1875 69.4276 20.9678 69.3203 20.7177C69.2129 20.4677 69.1592 20.2024 69.1592 19.922V19.9069C69.1592 19.6265 69.2129 19.3613 69.3203 19.1112C69.4276 18.8611 69.5734 18.6414 69.7575 18.4519C69.9416 18.2625 70.164 18.1185 70.4172 18.0048C70.678 17.8987 70.9541 17.8457 71.2686 17.8457C71.6445 17.8457 71.959 17.9063 72.2121 18.02C72.4652 18.1412 72.68 18.3004 72.8718 18.505L72.1737 19.2476C72.0433 19.1112 71.913 19.0051 71.7749 18.9293C71.6368 18.8536 71.468 18.8081 71.2609 18.8081C71.1152 18.8081 70.9848 18.8384 70.8697 18.8915C70.7547 18.9445 70.6473 19.0279 70.5629 19.1264C70.4785 19.2249 70.4095 19.3385 70.3635 19.4674C70.3175 19.5962 70.2944 19.7402 70.2944 19.8842V19.8993C70.2944 20.0509 70.3175 20.1948 70.3635 20.3312C70.4095 20.4677 70.4785 20.5813 70.5706 20.6798C70.6626 20.7783 70.77 20.8541 70.8928 20.9147C71.0155 20.9678 71.1536 20.9981 71.3146 20.9981C71.5064 20.9981 71.6675 20.9602 71.8132 20.8844C71.959 20.8087 72.0971 20.7026 72.2351 20.5737L72.9025 21.2406C72.7107 21.4528 72.4883 21.6271 72.2351 21.7635C71.982 21.8999 71.6598 21.9681 71.2609 21.9681H71.2533Z" fill="black"/>
<path d="M73.6533 16.4746H74.8499V17.4749H73.6533V16.4746ZM73.684 17.9144H74.8193V21.8776H73.684V17.9144Z" fill="black"/>
<path d="M77.0292 21.9529C76.8374 21.9529 76.661 21.9301 76.4922 21.8771C76.3235 21.8241 76.1777 21.7483 76.055 21.6422C75.9323 21.5361 75.8325 21.4148 75.7558 21.2633C75.6868 21.1117 75.6484 20.9374 75.6484 20.7404V20.7253C75.6484 20.5055 75.6868 20.3236 75.7712 20.1645C75.8479 20.0054 75.9629 19.8765 76.101 19.7704C76.2467 19.6644 76.4155 19.5886 76.6073 19.5355C76.8067 19.4825 77.0215 19.4598 77.2593 19.4598C77.4664 19.4598 77.6428 19.4749 77.7962 19.5052C77.9497 19.5355 78.0954 19.5734 78.2411 19.6265V19.5583C78.2411 19.3234 78.1721 19.1415 78.0263 19.0202C77.8806 18.899 77.6658 18.8384 77.382 18.8384C77.1596 18.8384 76.9678 18.8535 76.799 18.8914C76.6303 18.9293 76.4539 18.9823 76.2698 19.0505L75.9859 18.1942C76.2084 18.1033 76.4385 18.0275 76.6763 17.9669C76.9141 17.9063 77.2056 17.876 77.5431 17.876C77.8576 17.876 78.1261 17.9139 78.3485 17.9896C78.571 18.0654 78.7551 18.1791 78.9008 18.3155C79.0542 18.4671 79.1616 18.6413 79.2307 18.8611C79.2997 19.0733 79.338 19.3158 79.338 19.581V21.8847H78.2334V21.4527C78.0954 21.6043 77.9266 21.7255 77.7349 21.8165C77.5431 21.9074 77.3053 21.9529 77.0215 21.9529H77.0292ZM77.3743 21.1724C77.6428 21.1724 77.8576 21.1117 78.0187 20.9829C78.1798 20.8541 78.2641 20.6874 78.2641 20.4828V20.2857C78.1644 20.2403 78.0494 20.2024 77.9343 20.1797C77.8116 20.1493 77.6812 20.1418 77.5431 20.1418C77.2976 20.1418 77.1059 20.1872 76.9678 20.2857C76.8297 20.3767 76.7607 20.5131 76.7607 20.6949V20.7101C76.7607 20.8617 76.8144 20.9829 76.9294 21.0663C77.0445 21.1496 77.1902 21.1951 77.382 21.1951L77.3743 21.1724Z" fill="black"/>
</svg>
