<svg width="152" height="31" viewBox="0 0 152 31" fill="none" xmlns="http://www.w3.org/2000/svg">
<path d="M23.7602 0V6.01H18.2702V30.2H11.7602V6.01H6.24023V0H23.7602Z" fill="#CE0E2D"/>
<path d="M30.1898 20.5703L29.2798 20.8603C27.7998 21.3303 26.2798 21.6303 24.7398 21.7403L23.0898 21.7803L29.0698 30.1703H37.0999L30.1898 20.5703Z" fill="#CE0E2D"/>
<path d="M10.5095 26.1312L8.57953 26.0212L8.26953 24.2812L7.29953 25.9513L5.26953 25.8312L6.67953 27.0413L5.70953 28.7712L7.54953 27.8012L9.37955 28.9812L8.81952 27.2212L10.5095 26.1312Z" fill="#FFCD00"/>
<path d="M5.02966 20.1505L3.22964 20.0405L2.93967 18.4805L2.03964 19.9805L0.139648 19.8605L1.45966 20.9605L0.299652 22.5005L2.27966 21.6505L3.70966 22.6905L3.44965 21.1305L5.02966 20.1505Z" fill="#FFCD00"/>
<path d="M4.41 13.6409L2.78998 13.5509L2.51999 12.2109L1.72 13.4909L0 13.3909L1.19998 14.3209L0.149994 15.6309L1.92999 14.9109L3.22998 15.8109L2.98999 14.4709L4.41 13.6409Z" fill="#FFCD00"/>
<path d="M7.4501 8.60875L6.0401 8.52875L5.80011 7.46875L5.11011 8.46875L3.62012 8.38875L4.66013 9.12875L3.7601 10.1587L5.30011 9.59875L6.43011 10.3088L6.22012 9.25875L7.4501 8.60875Z" fill="#FFCD00"/>
<path d="M35.3304 6.23939C34.7704 4.95939 33.9704 3.85939 32.9304 2.93939C31.8904 2.01939 30.6204 1.29939 29.1204 0.799393C26.7004 -0.000606716 24.3804 0.0393931 24.3804 0.0393931C24.3804 2.04939 24.3904 4.01939 24.3804 6.03939C25.4304 6.14939 26.5604 6.42939 27.5804 7.20939C28.5904 7.98939 29.1004 9.12939 29.1004 10.6194V10.7094C29.1004 12.0094 28.6204 13.0894 27.6504 13.9694C26.6804 14.8494 25.3203 15.2894 23.5703 15.2894H18.8604C18.8604 17.2794 18.8604 19.2294 18.8604 21.2094H23.3404C25.1204 21.2094 26.7904 20.9894 28.3504 20.5394C29.9104 20.0894 31.2604 19.4194 32.4304 18.5294C33.5904 17.6394 34.5103 16.5294 35.1703 15.1994C35.8303 13.8794 36.1703 12.3294 36.1703 10.5794V10.4894C36.1703 8.92939 35.8904 7.51939 35.3304 6.23939Z" fill="#FFCD00"/>
<path d="M42.1201 1.87914H44.9201C45.3301 1.87914 45.7001 1.93914 46.0201 2.04914C46.3401 2.15914 46.6201 2.32914 46.8401 2.52914C47.0601 2.73914 47.2401 2.98914 47.3601 3.27914C47.4801 3.56914 47.5401 3.88914 47.5401 4.23914V4.25914C47.5401 4.65914 47.4701 5.00914 47.3201 5.30914C47.1801 5.60914 46.9801 5.85914 46.7301 6.05914C46.4801 6.25914 46.1901 6.40914 45.8501 6.50914C45.5101 6.60914 45.1501 6.65914 44.7701 6.65914H43.6301V8.70914H42.1201V1.86914V1.87914ZM44.8201 5.32914C45.2001 5.32914 45.4901 5.22914 45.7001 5.02914C45.9101 4.82914 46.0101 4.57914 46.0101 4.28914V4.26914C46.0101 3.92914 45.9001 3.66914 45.6801 3.49914C45.4601 3.31914 45.1601 3.23914 44.7901 3.23914H43.6301V5.32914H44.8201Z" fill="#575756"/>
<path d="M48.5596 1.58984H50.0496V8.72984H48.5596V1.58984Z" fill="#575756"/>
<path d="M52.9299 8.82922C52.6799 8.82922 52.4499 8.79922 52.2299 8.72922C52.0099 8.65922 51.8199 8.55922 51.6599 8.41922C51.4999 8.27922 51.3699 8.11922 51.2699 7.91922C51.1799 7.71922 51.1299 7.48922 51.1299 7.22922V7.20922C51.1299 6.91922 51.1799 6.67922 51.2899 6.46922C51.3899 6.25922 51.5399 6.08922 51.7299 5.94922C51.9199 5.80922 52.1399 5.70922 52.3899 5.63922C52.6499 5.56922 52.9299 5.53922 53.2499 5.53922C53.5199 5.53922 53.7499 5.55922 53.9499 5.59922C54.1499 5.63922 54.3399 5.68922 54.5299 5.75922V5.66922C54.5299 5.35922 54.4399 5.11922 54.2499 4.95922C54.0599 4.79922 53.7799 4.71922 53.4099 4.71922C53.1199 4.71922 52.8699 4.73922 52.6499 4.78922C52.4299 4.83922 52.1999 4.90922 51.9599 4.99922L51.5899 3.86922C51.8799 3.74922 52.1799 3.64922 52.4899 3.56922C52.7999 3.48922 53.1799 3.44922 53.6199 3.44922C54.0299 3.44922 54.3799 3.49922 54.6699 3.59922C54.9599 3.69922 55.1999 3.84922 55.3899 4.03922C55.5899 4.23922 55.7299 4.47922 55.8199 4.75922C55.9099 5.03922 55.9599 5.35922 55.9599 5.70922V8.74922H54.5199V8.17922C54.3399 8.37922 54.1199 8.53922 53.8599 8.65922C53.6099 8.77922 53.2999 8.83922 52.9299 8.83922V8.82922ZM53.3799 7.79922C53.7299 7.79922 54.0099 7.71922 54.2299 7.54922C54.4399 7.37922 54.5499 7.15922 54.5499 6.88922V6.62922C54.4199 6.56922 54.2699 6.51922 54.1099 6.48922C53.9499 6.44922 53.7799 6.43922 53.5999 6.43922C53.2799 6.43922 53.0299 6.49922 52.8499 6.62922C52.6699 6.74922 52.5799 6.92922 52.5799 7.16922V7.18922C52.5799 7.38922 52.6499 7.54922 52.7999 7.65922C52.9499 7.76922 53.1499 7.82922 53.3899 7.82922L53.3799 7.79922Z" fill="#575756"/>
<path d="M57.2305 3.49063H58.7205V4.24063C58.8005 4.13063 58.9005 4.02063 59.0005 3.92063C59.1005 3.82063 59.2105 3.73063 59.3405 3.65063C59.4605 3.57063 59.6005 3.51063 59.7505 3.46063C59.9005 3.41063 60.0705 3.39062 60.2605 3.39062C60.8305 3.39062 61.2705 3.56062 61.5805 3.91062C61.8905 4.26063 62.0405 4.73063 62.0405 5.34063V8.73063H60.5505V5.81063C60.5505 5.46063 60.4705 5.19063 60.3205 5.02063C60.1605 4.84063 59.9405 4.75063 59.6605 4.75063C59.3805 4.75063 59.1505 4.84063 58.9805 5.02063C58.8105 5.20063 58.7305 5.46063 58.7305 5.81063V8.73063H57.2405V3.49063H57.2305Z" fill="#575756"/>
<path d="M68.4103 8.82984C68.1003 8.82984 67.8103 8.76984 67.5203 8.64984C67.2303 8.52984 66.9803 8.35984 66.7603 8.12984C66.5403 7.89984 66.3603 7.61984 66.2303 7.27984C66.1003 6.93984 66.0303 6.55984 66.0303 6.11984V6.09984C66.0303 5.65984 66.1003 5.27984 66.2303 4.93984C66.3603 4.59984 66.5403 4.31984 66.7603 4.08984C66.9803 3.85984 67.2303 3.67984 67.5203 3.56984C67.8103 3.44984 68.1103 3.38984 68.4203 3.38984C68.8203 3.38984 69.1503 3.46984 69.4003 3.61984C69.6603 3.77984 69.8703 3.95984 70.0503 4.16984V1.58984H71.5403V8.72984H70.0503V7.97984C69.8703 8.22984 69.6503 8.42984 69.3903 8.58984C69.1303 8.74984 68.8103 8.82984 68.4203 8.82984H68.4103ZM68.7903 7.55984C68.9703 7.55984 69.1303 7.52984 69.2803 7.45984C69.4303 7.38984 69.5703 7.28984 69.6803 7.16984C69.7903 7.03984 69.8903 6.88984 69.9503 6.70984C70.0203 6.52984 70.0503 6.32984 70.0503 6.11984V6.09984C70.0503 5.87984 70.0203 5.68984 69.9503 5.50984C69.8803 5.32984 69.7903 5.17984 69.6803 5.04984C69.5703 4.91984 69.4303 4.82984 69.2803 4.75984C69.1303 4.68984 68.9603 4.65984 68.7903 4.65984C68.6203 4.65984 68.4503 4.68984 68.3003 4.75984C68.1503 4.82984 68.0103 4.92984 67.8903 5.04984C67.7703 5.17984 67.6803 5.32984 67.6103 5.49984C67.5403 5.67984 67.5103 5.86984 67.5103 6.09984V6.11984C67.5103 6.33984 67.5403 6.52984 67.6103 6.70984C67.6803 6.88984 67.7703 7.03984 67.8903 7.16984C68.0103 7.29984 68.1403 7.38984 68.3003 7.45984C68.4503 7.52984 68.6203 7.55984 68.7903 7.55984Z" fill="#575756"/>
<path d="M75.3396 8.83938C74.9496 8.83938 74.5896 8.76938 74.2496 8.63938C73.9096 8.50938 73.6196 8.31937 73.3796 8.07937C73.1396 7.83938 72.9396 7.54938 72.8096 7.21938C72.6696 6.88938 72.5996 6.51937 72.5996 6.11937V6.09938C72.5996 5.72938 72.6596 5.37937 72.7896 5.03937C72.9196 4.69937 73.0896 4.41937 73.3196 4.16937C73.5496 3.91937 73.8196 3.72937 74.1396 3.57937C74.4596 3.43937 74.8096 3.35938 75.1896 3.35938C75.6296 3.35938 75.9996 3.43938 76.3196 3.58938C76.6396 3.74938 76.8996 3.95938 77.1196 4.21938C77.3296 4.47938 77.4896 4.78937 77.5896 5.12937C77.6896 5.46937 77.7396 5.82937 77.7396 6.19937C77.7396 6.25937 77.7396 6.31938 77.7396 6.38938C77.7396 6.45938 77.7396 6.51938 77.7296 6.59938H74.0796C74.1496 6.93938 74.2996 7.18937 74.5196 7.36937C74.7396 7.53937 75.0196 7.62937 75.3596 7.62937C75.6096 7.62937 75.8296 7.58938 76.0196 7.49937C76.2196 7.41937 76.4196 7.27938 76.6296 7.08938L77.4796 7.83938C77.2296 8.14937 76.9296 8.38938 76.5796 8.55938C76.2296 8.72938 75.8096 8.81937 75.3396 8.81937V8.83938ZM76.2996 5.69937C76.2496 5.36937 76.1396 5.09937 75.9496 4.88937C75.7596 4.67937 75.5096 4.57937 75.1996 4.57937C74.8896 4.57937 74.6296 4.67937 74.4396 4.87937C74.2496 5.07938 74.1196 5.34938 74.0596 5.68938H76.2996V5.69937Z" fill="#575756"/>
<path d="M81.9397 1.88109H85.0697C85.9397 1.88109 86.5997 2.11109 87.0597 2.57109C87.4497 2.96109 87.6497 3.48109 87.6497 4.13109V4.15109C87.6497 4.70109 87.5097 5.16109 87.2397 5.50109C86.9697 5.85109 86.6197 6.10109 86.1797 6.27109L87.8497 8.71109H86.0897L84.6197 6.52109H83.4397V8.71109H81.9297V1.87109L81.9397 1.88109ZM84.9697 5.21109C85.3397 5.21109 85.6297 5.12109 85.8297 4.95109C86.0297 4.77109 86.1297 4.54109 86.1297 4.25109V4.23109C86.1297 3.90109 86.0297 3.66109 85.8197 3.50109C85.6097 3.34109 85.3197 3.26109 84.9497 3.26109H83.4497V5.23109H84.9797L84.9697 5.21109Z" fill="#575756"/>
<path d="M91.3396 8.83938C90.9496 8.83938 90.5896 8.76938 90.2496 8.63938C89.9096 8.50938 89.6196 8.31937 89.3796 8.07937C89.1396 7.83938 88.9396 7.54938 88.8096 7.21938C88.6696 6.88938 88.5996 6.51937 88.5996 6.11937V6.09938C88.5996 5.72938 88.6596 5.37937 88.7896 5.03937C88.9196 4.69937 89.0896 4.41937 89.3196 4.16937C89.5496 3.91937 89.8196 3.72937 90.1396 3.57937C90.4596 3.43937 90.8096 3.35938 91.1896 3.35938C91.6296 3.35938 91.9996 3.43938 92.3196 3.58938C92.6396 3.74938 92.8996 3.95938 93.1196 4.21938C93.3296 4.47938 93.4896 4.78937 93.5896 5.12937C93.6896 5.46937 93.7396 5.82937 93.7396 6.19937C93.7396 6.25937 93.7396 6.31938 93.7396 6.38938C93.7396 6.45938 93.7396 6.51938 93.7296 6.59938H90.0796C90.1496 6.93938 90.2996 7.18937 90.5196 7.36937C90.7396 7.53937 91.0196 7.62937 91.3596 7.62937C91.6096 7.62937 91.8296 7.58938 92.0196 7.49937C92.2196 7.41937 92.4196 7.27938 92.6296 7.08938L93.4796 7.83938C93.2296 8.14937 92.9296 8.38938 92.5796 8.55938C92.2296 8.72938 91.8096 8.81937 91.3396 8.81937V8.83938ZM92.2996 5.69937C92.2496 5.36937 92.1396 5.09937 91.9496 4.88937C91.7596 4.67937 91.5096 4.57937 91.1996 4.57937C90.8896 4.57937 90.6296 4.67937 90.4396 4.87937C90.2496 5.07938 90.1196 5.34938 90.0596 5.68938H92.2996V5.69937Z" fill="#575756"/>
<path d="M97.3201 8.83914C96.9301 8.83914 96.5701 8.76914 96.2301 8.61914C95.8901 8.47914 95.6101 8.27914 95.3601 8.03914C95.1201 7.79914 94.9301 7.50914 94.7901 7.17914C94.6501 6.84914 94.5801 6.49914 94.5801 6.12914V6.10914C94.5801 5.73914 94.6501 5.38914 94.7901 5.04914C94.9301 4.71914 95.1201 4.42914 95.3601 4.17914C95.6001 3.92914 95.8901 3.73914 96.2301 3.58914C96.5701 3.44914 96.9401 3.36914 97.3401 3.36914C97.8401 3.36914 98.2501 3.44914 98.5701 3.59914C98.8901 3.74914 99.1801 3.96914 99.4301 4.24914L98.5201 5.22914C98.3501 5.04914 98.1801 4.90914 98.0001 4.80914C97.8201 4.70914 97.6001 4.64914 97.3301 4.64914C97.1401 4.64914 96.9701 4.68914 96.8201 4.75914C96.6701 4.83914 96.5301 4.93914 96.4201 5.06914C96.3101 5.19914 96.2201 5.34914 96.1601 5.51914C96.1001 5.68914 96.0701 5.87914 96.0701 6.06914V6.08914C96.0701 6.28914 96.1001 6.47914 96.1601 6.65914C96.2201 6.83914 96.3101 6.98914 96.4301 7.11914C96.5501 7.24914 96.6901 7.34914 96.8501 7.42914C97.0101 7.50914 97.2001 7.53914 97.4001 7.53914C97.6501 7.53914 97.8601 7.48914 98.0501 7.38914C98.2401 7.28914 98.4201 7.14914 98.6001 6.97914L99.4701 7.85914C99.2201 8.13914 98.9301 8.36914 98.6001 8.54914C98.2701 8.72914 97.8501 8.81914 97.3301 8.81914L97.3201 8.83914Z" fill="#575756"/>
<path d="M102.17 8.83023C101.6 8.83023 101.16 8.66023 100.85 8.31023C100.54 7.96023 100.39 7.49023 100.39 6.88023V3.49023H101.88V6.41023C101.88 6.76023 101.96 7.03023 102.11 7.20023C102.27 7.38023 102.49 7.47023 102.77 7.47023C103.05 7.47023 103.28 7.38023 103.45 7.20023C103.62 7.02023 103.7 6.76023 103.7 6.41023V3.49023H105.19V8.73023H103.7V7.98023C103.62 8.09023 103.52 8.20023 103.42 8.30023C103.32 8.40023 103.21 8.49023 103.08 8.57023C102.96 8.65023 102.82 8.71023 102.67 8.76023C102.52 8.81023 102.35 8.83023 102.16 8.83023H102.17Z" fill="#575756"/>
<path d="M106.52 3.49063H108.01V4.24063C108.19 3.99063 108.41 3.79063 108.67 3.63063C108.93 3.47063 109.25 3.39062 109.64 3.39062C109.95 3.39062 110.24 3.45063 110.53 3.57063C110.82 3.69063 111.07 3.86063 111.29 4.09063C111.51 4.32063 111.69 4.60063 111.82 4.94063C111.95 5.28063 112.02 5.66063 112.02 6.10063V6.12063C112.02 6.56063 111.95 6.94062 111.82 7.28062C111.69 7.62063 111.51 7.90063 111.29 8.13063C111.07 8.36063 110.82 8.54062 110.53 8.65062C110.24 8.77062 109.94 8.83063 109.63 8.83063C109.23 8.83063 108.9 8.75063 108.65 8.60063C108.39 8.44063 108.18 8.26063 108 8.05063V10.3006H106.51V3.49063H106.52ZM109.26 7.56063C109.44 7.56063 109.6 7.53063 109.75 7.46063C109.9 7.39062 110.04 7.29063 110.16 7.17063C110.28 7.04063 110.37 6.89063 110.44 6.72063C110.51 6.55063 110.54 6.35063 110.54 6.12063V6.10063C110.54 5.88063 110.51 5.69063 110.44 5.51063C110.37 5.33063 110.28 5.18063 110.16 5.05063C110.04 4.92063 109.91 4.83063 109.75 4.76063C109.6 4.69063 109.43 4.66062 109.26 4.66062C109.09 4.66062 108.92 4.69063 108.77 4.76063C108.62 4.83063 108.48 4.93063 108.37 5.05063C108.26 5.18063 108.16 5.33063 108.1 5.51063C108.03 5.69063 108 5.89063 108 6.10063V6.12063C108 6.34063 108.03 6.53063 108.1 6.71063C108.17 6.89063 108.26 7.04063 108.37 7.17063C108.48 7.30063 108.62 7.39062 108.77 7.46063C108.92 7.53063 109.09 7.56063 109.26 7.56063Z" fill="#575756"/>
<path d="M115.6 8.83938C115.21 8.83938 114.85 8.76938 114.51 8.63938C114.17 8.50938 113.88 8.31937 113.64 8.07937C113.4 7.83938 113.21 7.54938 113.07 7.21938C112.93 6.88938 112.86 6.51937 112.86 6.11937V6.09938C112.86 5.72938 112.92 5.37937 113.05 5.03937C113.18 4.70937 113.35 4.41937 113.58 4.16937C113.81 3.91937 114.08 3.72937 114.4 3.57937C114.72 3.43937 115.07 3.35938 115.45 3.35938C115.89 3.35938 116.26 3.43938 116.58 3.58938C116.9 3.74938 117.17 3.95938 117.38 4.21938C117.59 4.47938 117.75 4.78937 117.85 5.12937C117.95 5.46937 118 5.82937 118 6.19937C118 6.25937 118 6.31938 118 6.38938C118 6.45938 118 6.51938 117.99 6.59938H114.34C114.41 6.93938 114.56 7.18937 114.78 7.36937C115 7.54937 115.28 7.62937 115.62 7.62937C115.87 7.62937 116.09 7.58938 116.28 7.49937C116.48 7.41937 116.68 7.27938 116.89 7.08938L117.74 7.83938C117.49 8.14937 117.19 8.38938 116.84 8.55938C116.49 8.72938 116.07 8.81937 115.6 8.81937V8.83938ZM116.56 5.69937C116.51 5.36937 116.4 5.09937 116.21 4.88937C116.02 4.67937 115.77 4.57937 115.46 4.57937C115.15 4.57937 114.89 4.67937 114.7 4.87937C114.51 5.07938 114.38 5.34938 114.32 5.68938H116.56V5.69937Z" fill="#575756"/>
<path d="M119.12 3.4892H120.61V4.5492C120.76 4.1892 120.97 3.8992 121.23 3.6892C121.49 3.4692 121.84 3.3792 122.29 3.3992V4.9492H122.21C121.71 4.9492 121.33 5.0992 121.04 5.3992C120.76 5.6992 120.61 6.1692 120.61 6.7992V8.7392H119.12V3.4992V3.4892Z" fill="#575756"/>
<path d="M124.69 8.82922C124.44 8.82922 124.21 8.79922 123.99 8.72922C123.77 8.65922 123.58 8.55922 123.42 8.41922C123.26 8.27922 123.13 8.11922 123.03 7.91922C122.94 7.71922 122.89 7.48922 122.89 7.22922V7.20922C122.89 6.91922 122.94 6.67922 123.05 6.46922C123.15 6.25922 123.3 6.08922 123.48 5.94922C123.67 5.80922 123.89 5.70922 124.14 5.63922C124.4 5.56922 124.68 5.53922 125 5.53922C125.27 5.53922 125.5 5.55922 125.7 5.59922C125.9 5.63922 126.09 5.68922 126.28 5.75922V5.66922C126.28 5.35922 126.19 5.11922 126 4.95922C125.81 4.79922 125.53 4.71922 125.16 4.71922C124.87 4.71922 124.62 4.73922 124.4 4.78922C124.18 4.83922 123.95 4.90922 123.71 4.99922L123.34 3.86922C123.63 3.74922 123.93 3.64922 124.24 3.56922C124.55 3.48922 124.93 3.44922 125.37 3.44922C125.78 3.44922 126.13 3.49922 126.42 3.59922C126.71 3.69922 126.95 3.84922 127.14 4.03922C127.34 4.23922 127.48 4.47922 127.57 4.75922C127.66 5.03922 127.71 5.35922 127.71 5.70922V8.74922H126.27V8.17922C126.09 8.37922 125.87 8.53922 125.62 8.65922C125.37 8.77922 125.06 8.83922 124.69 8.83922V8.82922ZM125.14 7.79922C125.49 7.79922 125.77 7.71922 125.99 7.54922C126.2 7.37922 126.31 7.15922 126.31 6.88922V6.62922C126.18 6.56922 126.03 6.51922 125.87 6.48922C125.71 6.44922 125.54 6.43922 125.36 6.43922C125.04 6.43922 124.79 6.49922 124.61 6.62922C124.43 6.74922 124.34 6.92922 124.34 7.16922V7.18922C124.34 7.38922 124.41 7.54922 124.56 7.65922C124.71 7.76922 124.91 7.82922 125.15 7.82922L125.14 7.79922Z" fill="#575756"/>
<path d="M131.46 8.84109C131.07 8.84109 130.71 8.77109 130.37 8.62109C130.03 8.48109 129.75 8.28109 129.5 8.04109C129.26 7.80109 129.07 7.51109 128.93 7.18109C128.79 6.85109 128.72 6.50109 128.72 6.13109V6.11109C128.72 5.74109 128.79 5.39109 128.93 5.05109C129.07 4.72109 129.26 4.43109 129.5 4.18109C129.74 3.93109 130.03 3.74109 130.37 3.59109C130.71 3.45109 131.08 3.37109 131.48 3.37109C131.98 3.37109 132.39 3.45109 132.71 3.60109C133.04 3.76109 133.32 3.97109 133.57 4.25109L132.66 5.23109C132.49 5.05109 132.32 4.91109 132.14 4.81109C131.96 4.71109 131.74 4.65109 131.47 4.65109C131.28 4.65109 131.11 4.69109 130.96 4.76109C130.81 4.84109 130.67 4.94109 130.56 5.07109C130.45 5.20109 130.36 5.35109 130.3 5.52109C130.24 5.69109 130.21 5.88109 130.21 6.07109V6.09109C130.21 6.29109 130.24 6.48109 130.3 6.66109C130.36 6.84109 130.45 6.99109 130.57 7.12109C130.69 7.25109 130.83 7.35109 130.99 7.43109C131.15 7.51109 131.34 7.54109 131.54 7.54109C131.79 7.54109 132 7.49109 132.19 7.39109C132.38 7.29109 132.56 7.15109 132.74 6.98109L133.61 7.86109C133.36 8.14109 133.07 8.37109 132.74 8.55109C132.41 8.73109 131.99 8.82109 131.47 8.82109L131.46 8.84109Z" fill="#575756"/>
<path d="M134.6 1.58984H136.16V2.90984H134.6V1.58984ZM134.64 3.48984H136.13V8.72984H134.64V3.48984Z" fill="#575756"/>
<path d="M140.1 8.83969C139.7 8.83969 139.32 8.76969 138.98 8.62969C138.64 8.48969 138.34 8.29969 138.09 8.04969C137.84 7.80969 137.64 7.51969 137.5 7.18969C137.36 6.85969 137.28 6.50969 137.28 6.12969V6.10969C137.28 5.72969 137.35 5.37969 137.5 5.04969C137.64 4.71969 137.84 4.42969 138.1 4.17969C138.35 3.92969 138.65 3.73969 139 3.58969C139.35 3.44969 139.72 3.36969 140.13 3.36969C140.54 3.36969 140.91 3.43969 141.25 3.57969C141.6 3.71969 141.89 3.90969 142.14 4.15969C142.39 4.39969 142.59 4.68969 142.73 5.01969C142.87 5.34969 142.95 5.69969 142.95 6.07969V6.09969C142.95 6.47969 142.88 6.82969 142.73 7.15969C142.59 7.48969 142.39 7.77969 142.13 8.02969C141.88 8.27969 141.58 8.46969 141.23 8.61969C140.88 8.76969 140.51 8.83969 140.1 8.83969ZM140.12 7.55969C140.34 7.55969 140.53 7.51969 140.69 7.44969C140.86 7.37969 141 7.26969 141.12 7.13969C141.24 7.00969 141.33 6.85969 141.39 6.68969C141.45 6.51969 141.48 6.32969 141.48 6.13969V6.11969C141.48 5.91969 141.45 5.73969 141.38 5.56969C141.31 5.39969 141.22 5.23969 141.1 5.10969C140.98 4.97969 140.83 4.86969 140.66 4.78969C140.49 4.70969 140.3 4.66969 140.1 4.66969C139.88 4.66969 139.69 4.70969 139.53 4.77969C139.36 4.85969 139.22 4.95969 139.1 5.08969C138.98 5.21969 138.89 5.36969 138.83 5.53969C138.77 5.70969 138.74 5.89969 138.74 6.08969V6.10969C138.74 6.30969 138.77 6.48969 138.84 6.65969C138.91 6.82969 139 6.98969 139.12 7.11969C139.24 7.24969 139.39 7.35969 139.56 7.43969C139.73 7.51969 139.91 7.55969 140.12 7.55969ZM140.65 1.17969L141.93 1.73969L140.68 2.90969H139.55L140.65 1.17969Z" fill="#575756"/>
<path d="M144.02 3.49063H145.51V4.24063C145.59 4.13063 145.69 4.02063 145.79 3.92063C145.89 3.82063 146 3.73063 146.13 3.65063C146.25 3.57063 146.39 3.51063 146.54 3.46063C146.69 3.41063 146.86 3.39062 147.05 3.39062C147.62 3.39062 148.06 3.56062 148.37 3.91062C148.68 4.26063 148.83 4.73063 148.83 5.34063V8.73063H147.34V5.81063C147.34 5.46063 147.26 5.19063 147.11 5.02063C146.95 4.84063 146.73 4.75063 146.45 4.75063C146.17 4.75063 145.94 4.84063 145.77 5.02063C145.6 5.20063 145.52 5.46063 145.52 5.81063V8.73063H144.03V3.49063H144.02Z" fill="#575756"/>
<path d="M149.7 9.69992C150.39 9.62992 150.71 9.30992 150.65 8.72992H150.05V7.16992H151.62V8.48992C151.62 9.13992 151.46 9.59992 151.15 9.87992C150.84 10.1599 150.39 10.3099 149.82 10.3199L149.69 9.69992H149.7Z" fill="#575756"/>
<path d="M43.6201 13.5404H41.54V12.1504H47.2101V13.5404H45.1301V19.0004H43.6201V13.5404Z" fill="#575756"/>
<path d="M48.21 13.7607H49.7V14.8207C49.85 14.4607 50.0599 14.1707 50.3199 13.9607C50.5799 13.7407 50.93 13.6507 51.38 13.6707V15.2207H51.3C50.8 15.2207 50.42 15.3707 50.13 15.6707C49.84 15.9707 49.7 16.4407 49.7 17.0707V19.0107H48.21V13.7707V13.7607Z" fill="#575756"/>
<path d="M53.7805 19.0988C53.5305 19.0988 53.3005 19.0688 53.0805 18.9988C52.8605 18.9288 52.6705 18.8288 52.5105 18.6888C52.3505 18.5488 52.2205 18.3888 52.1205 18.1888C52.0205 17.9888 51.9805 17.7588 51.9805 17.4988V17.4788C51.9805 17.1888 52.0305 16.9488 52.1405 16.7388C52.2505 16.5288 52.3905 16.3588 52.5805 16.2188C52.7705 16.0787 52.9905 15.9788 53.2405 15.9088C53.5005 15.8388 53.7805 15.8088 54.1005 15.8088C54.3705 15.8088 54.6005 15.8288 54.8005 15.8688C55.0005 15.9088 55.1905 15.9588 55.3805 16.0288V15.9388C55.3805 15.6288 55.2905 15.3888 55.1005 15.2288C54.9105 15.0688 54.6305 14.9888 54.2605 14.9888C53.9705 14.9888 53.7205 15.0088 53.5005 15.0588C53.2805 15.1088 53.0505 15.1788 52.8105 15.2688L52.4405 14.1388C52.7305 14.0188 53.0305 13.9188 53.3405 13.8388C53.6505 13.7588 54.0305 13.7188 54.4705 13.7188C54.8805 13.7188 55.2305 13.7688 55.5205 13.8688C55.8105 13.9688 56.0505 14.1188 56.2405 14.3088C56.4405 14.5088 56.5805 14.7488 56.6705 15.0288C56.7605 15.3088 56.8105 15.6288 56.8105 15.9788V19.0188H55.3705V18.4488C55.1905 18.6488 54.9705 18.8088 54.7105 18.9288C54.4605 19.0488 54.1505 19.1088 53.7805 19.1088V19.0988ZM54.2305 18.0688C54.5805 18.0688 54.8605 17.9888 55.0805 17.8188C55.2905 17.6488 55.4005 17.4288 55.4005 17.1588V16.8988C55.2705 16.8388 55.1205 16.7888 54.9605 16.7588C54.8005 16.7188 54.6305 16.7088 54.4505 16.7088C54.1305 16.7088 53.8805 16.7688 53.7005 16.8988C53.5205 17.0188 53.4305 17.1988 53.4305 17.4388V17.4588C53.4305 17.6588 53.5005 17.8188 53.6505 17.9288C53.8005 18.0388 54.0005 18.0988 54.2405 18.0988L54.2305 18.0688Z" fill="#575756"/>
<path d="M58.0801 13.7602H59.5701V14.5102C59.6501 14.4002 59.7501 14.2902 59.8501 14.1902C59.9501 14.0902 60.0601 14.0002 60.1901 13.9202C60.3101 13.8402 60.4501 13.7802 60.6001 13.7302C60.7501 13.6802 60.9201 13.6602 61.1101 13.6602C61.6801 13.6602 62.1201 13.8302 62.4301 14.1802C62.7401 14.5302 62.8901 15.0002 62.8901 15.6102V19.0002H61.4001V16.0802C61.4001 15.7302 61.3201 15.4602 61.1701 15.2902C61.0201 15.1202 60.7901 15.0202 60.5101 15.0202C60.2301 15.0202 60.0001 15.1102 59.8301 15.2902C59.6601 15.4702 59.5801 15.7302 59.5801 16.0802V19.0002H58.0901V13.7602H58.0801Z" fill="#575756"/>
<path d="M66.0098 19.1014C65.6398 19.1014 65.2598 19.0414 64.8698 18.9114C64.4798 18.7814 64.1098 18.5814 63.7598 18.3114L64.3998 17.3314C64.6898 17.5414 64.9698 17.7014 65.2598 17.8014C65.5498 17.9014 65.8098 17.9614 66.0598 17.9614C66.2798 17.9614 66.4298 17.9214 66.5298 17.8514C66.6298 17.7814 66.6798 17.6814 66.6798 17.5714V17.5514C66.6798 17.4714 66.6498 17.4014 66.5898 17.3414C66.5298 17.2814 66.4498 17.2314 66.3498 17.1914C66.2498 17.1514 66.1298 17.1114 65.9998 17.0714C65.8698 17.0314 65.7298 16.9914 65.5898 16.9414C65.4098 16.8914 65.2198 16.8214 65.0398 16.7514C64.8498 16.6814 64.6898 16.5814 64.5398 16.4614C64.3898 16.3414 64.2698 16.1914 64.1698 16.0214C64.0798 15.8414 64.0298 15.6314 64.0298 15.3714V15.3514C64.0298 15.0814 64.0798 14.8514 64.1798 14.6414C64.2798 14.4314 64.4198 14.2614 64.5898 14.1214C64.7598 13.9814 64.9598 13.8714 65.1998 13.8014C65.4298 13.7314 65.6798 13.6914 65.9498 13.6914C66.2798 13.6914 66.6198 13.7414 66.9598 13.8514C67.2998 13.9614 67.6198 14.1114 67.8998 14.2914L67.3298 15.3214C67.0698 15.1714 66.8098 15.0514 66.5698 14.9614C66.3198 14.8714 66.0998 14.8314 65.9098 14.8314C65.7198 14.8314 65.5898 14.8614 65.4998 14.9314C65.4098 15.0014 65.3598 15.0814 65.3598 15.1914V15.2114C65.3598 15.2814 65.3898 15.3514 65.4498 15.4014C65.5098 15.4614 65.5898 15.5114 65.6798 15.5614C65.7798 15.6114 65.8898 15.6614 66.0198 15.7014C66.1498 15.7514 66.2798 15.7914 66.4298 15.8414C66.6098 15.9014 66.7998 15.9714 66.9898 16.0514C67.1798 16.1314 67.3498 16.2314 67.4998 16.3514C67.6498 16.4714 67.7698 16.6114 67.8698 16.7814C67.9698 16.9514 68.0198 17.1514 68.0198 17.4014V17.4214C68.0198 17.7114 67.9698 17.9714 67.8698 18.1814C67.7698 18.3914 67.6298 18.5714 67.4398 18.7014C67.2498 18.8314 67.0398 18.9414 66.7998 19.0114C66.5598 19.0814 66.2898 19.1114 66.0098 19.1114V19.1014Z" fill="#575756"/>
<path d="M69.3397 15.0308H68.7197V13.8108H69.3397V13.4808C69.3397 12.9108 69.4797 12.4908 69.7597 12.2108C70.0397 11.9308 70.4297 11.8008 70.9597 11.8008C71.1897 11.8008 71.3997 11.8108 71.5597 11.8408C71.7197 11.8708 71.8797 11.9008 72.0097 11.9508V13.1808C71.8997 13.1408 71.7897 13.1108 71.6897 13.0908C71.5897 13.0708 71.4697 13.0608 71.3397 13.0608C70.9797 13.0608 70.7997 13.2508 70.7997 13.6308V13.8408H71.9997V15.0508H70.8197V19.0208H69.3297V15.0508L69.3397 15.0308Z" fill="#575756"/>
<path d="M75.3903 19.1204C74.9903 19.1204 74.6103 19.0504 74.2703 18.9104C73.9203 18.7704 73.6303 18.5804 73.3803 18.3304C73.1303 18.0904 72.9303 17.8004 72.7903 17.4704C72.6503 17.1404 72.5703 16.7904 72.5703 16.4104V16.3904C72.5703 16.0104 72.6403 15.6604 72.7903 15.3304C72.9303 15.0004 73.1303 14.7104 73.3903 14.4604C73.6403 14.2104 73.9403 14.0204 74.2903 13.8704C74.6403 13.7304 75.0103 13.6504 75.4203 13.6504C75.8303 13.6504 76.2003 13.7204 76.5403 13.8604C76.8903 14.0004 77.1803 14.1904 77.4303 14.4404C77.6803 14.6804 77.8803 14.9704 78.0203 15.3004C78.1603 15.6304 78.2403 15.9804 78.2403 16.3604V16.3804C78.2403 16.7604 78.1703 17.1104 78.0203 17.4404C77.8803 17.7704 77.6803 18.0604 77.4203 18.3104C77.1703 18.5604 76.8703 18.7504 76.5203 18.9004C76.1703 19.0404 75.8003 19.1104 75.3903 19.1104V19.1204ZM75.4103 17.8404C75.6303 17.8404 75.8203 17.8004 75.9803 17.7304C76.1503 17.6604 76.2903 17.5504 76.4103 17.4204C76.5303 17.2904 76.6203 17.1404 76.6803 16.9704C76.7403 16.8004 76.7703 16.6104 76.7703 16.4204V16.4004C76.7703 16.2004 76.7403 16.0204 76.6703 15.8504C76.6003 15.6804 76.5103 15.5204 76.3903 15.3904C76.2703 15.2604 76.1203 15.1504 75.9503 15.0704C75.7803 14.9904 75.5903 14.9504 75.3903 14.9504C75.1703 14.9504 74.9803 14.9904 74.8203 15.0604C74.6503 15.1304 74.5103 15.2404 74.3903 15.3704C74.2703 15.5004 74.1803 15.6504 74.1203 15.8204C74.0603 15.9904 74.0303 16.1804 74.0303 16.3704V16.3904C74.0303 16.5904 74.0603 16.7704 74.1303 16.9404C74.1903 17.1104 74.2903 17.2704 74.4103 17.4004C74.5303 17.5304 74.6803 17.6404 74.8503 17.7204C75.0203 17.8004 75.2003 17.8404 75.4103 17.8404Z" fill="#575756"/>
<path d="M79.3096 13.7607H80.7996V14.8207C80.9496 14.4607 81.1596 14.1707 81.4196 13.9607C81.6796 13.7407 82.0296 13.6507 82.4796 13.6707V15.2207H82.3996C81.8996 15.2207 81.5196 15.3707 81.2296 15.6707C80.9396 15.9707 80.7996 16.4407 80.7996 17.0707V19.0107H79.3096V13.7707V13.7607Z" fill="#575756"/>
<path d="M83.3997 13.7602H84.8896V14.5102C84.9696 14.4002 85.0696 14.2902 85.1696 14.1902C85.2696 14.0902 85.3796 14.0002 85.5096 13.9202C85.6296 13.8402 85.7697 13.7802 85.9297 13.7302C86.0797 13.6802 86.2497 13.6602 86.4397 13.6602C86.7897 13.6602 87.0797 13.7302 87.3297 13.8802C87.5797 14.0202 87.7697 14.2302 87.9097 14.5002C88.1397 14.2202 88.3896 14.0202 88.6696 13.8702C88.9496 13.7302 89.2697 13.6602 89.6297 13.6602C90.1797 13.6602 90.6197 13.8202 90.9297 14.1502C91.2397 14.4802 91.3997 14.9602 91.3997 15.5902V19.0002H89.9097V16.0802C89.9097 15.7302 89.8297 15.4602 89.6897 15.2902C89.5497 15.1202 89.3196 15.0202 89.0396 15.0202C88.7596 15.0202 88.5397 15.1102 88.3797 15.2902C88.2197 15.4702 88.1396 15.7302 88.1396 16.0802V19.0002H86.6497V16.0802C86.6497 15.7302 86.5797 15.4602 86.4297 15.2902C86.2797 15.1102 86.0597 15.0202 85.7797 15.0202C85.4997 15.0202 85.2797 15.1102 85.1197 15.2902C84.9597 15.4702 84.8797 15.7302 84.8797 16.0802V19.0002H83.3896V13.7602H83.3997Z" fill="#575756"/>
<path d="M94.1701 19.0988C93.9201 19.0988 93.6901 19.0688 93.4701 18.9988C93.2501 18.9288 93.0601 18.8288 92.9001 18.6888C92.7401 18.5488 92.6101 18.3888 92.5101 18.1888C92.4101 17.9888 92.3701 17.7588 92.3701 17.4988V17.4788C92.3701 17.1888 92.4201 16.9488 92.5301 16.7388C92.6401 16.5288 92.7801 16.3588 92.9701 16.2188C93.1601 16.0787 93.3801 15.9788 93.6301 15.9088C93.8901 15.8388 94.1701 15.8088 94.4901 15.8088C94.7601 15.8088 94.9901 15.8288 95.1901 15.8688C95.3901 15.9088 95.5801 15.9588 95.7701 16.0288V15.9388C95.7701 15.6288 95.6801 15.3888 95.4901 15.2288C95.3001 15.0688 95.0201 14.9888 94.6501 14.9888C94.3601 14.9888 94.1101 15.0088 93.8901 15.0588C93.6701 15.1088 93.4401 15.1788 93.2001 15.2688L92.8301 14.1388C93.1201 14.0188 93.4201 13.9188 93.7301 13.8388C94.0401 13.7588 94.4201 13.7188 94.8601 13.7188C95.2701 13.7188 95.6201 13.7688 95.9101 13.8688C96.2001 13.9688 96.4401 14.1188 96.6301 14.3088C96.8301 14.5088 96.9701 14.7488 97.0601 15.0288C97.1501 15.3088 97.2001 15.6288 97.2001 15.9788V19.0188H95.7601V18.4488C95.5801 18.6488 95.3601 18.8088 95.1001 18.9288C94.8501 19.0488 94.5401 19.1088 94.1701 19.1088V19.0988ZM94.6201 18.0688C94.9701 18.0688 95.2501 17.9888 95.4701 17.8188C95.6801 17.6488 95.7901 17.4288 95.7901 17.1588V16.8988C95.6601 16.8388 95.5101 16.7888 95.3501 16.7588C95.1901 16.7188 95.0201 16.7088 94.8401 16.7088C94.5201 16.7088 94.2701 16.7688 94.0901 16.8988C93.9101 17.0188 93.8201 17.1988 93.8201 17.4388V17.4588C93.8201 17.6588 93.8901 17.8188 94.0401 17.9288C94.1901 18.0388 94.3901 18.0988 94.6301 18.0988L94.6201 18.0688Z" fill="#575756"/>
<path d="M100.95 19.1202C100.56 19.1202 100.2 19.0502 99.86 18.9102C99.52 18.7702 99.24 18.5702 98.99 18.3302C98.75 18.0902 98.56 17.8002 98.42 17.4702C98.28 17.1402 98.21 16.7902 98.21 16.4202V16.4002C98.21 16.0302 98.28 15.6802 98.42 15.3402C98.56 15.0102 98.75 14.7202 98.99 14.4702C99.23 14.2202 99.52 14.0302 99.86 13.8802C100.2 13.7402 100.57 13.6602 100.97 13.6602C101.47 13.6602 101.88 13.7402 102.2 13.8902C102.53 14.0502 102.81 14.2602 103.06 14.5402L102.15 15.5202C101.98 15.3402 101.81 15.2002 101.63 15.1002C101.45 15.0002 101.23 14.9402 100.96 14.9402C100.77 14.9402 100.6 14.9802 100.45 15.0502C100.3 15.1202 100.16 15.2302 100.05 15.3602C99.94 15.4902 99.8499 15.6402 99.7899 15.8102C99.7299 15.9802 99.7 16.1702 99.7 16.3602V16.3802C99.7 16.5802 99.7299 16.7702 99.7899 16.9502C99.8499 17.1302 99.94 17.2802 100.06 17.4102C100.18 17.5402 100.32 17.6402 100.48 17.7202C100.64 17.8002 100.83 17.8302 101.03 17.8302C101.28 17.8302 101.49 17.7802 101.68 17.6802C101.87 17.5802 102.05 17.4402 102.23 17.2702L103.1 18.1502C102.85 18.4302 102.56 18.6602 102.23 18.8402C101.9 19.0202 101.48 19.1102 100.96 19.1102L100.95 19.1202Z" fill="#575756"/>
<path d="M104.09 11.8594H105.65V13.1794H104.09V11.8594ZM104.12 13.7594H105.61V18.9994H104.12V13.7594Z" fill="#575756"/>
<path d="M109.58 19.1192C109.18 19.1192 108.8 19.0492 108.46 18.9092C108.11 18.7692 107.82 18.5792 107.57 18.3292C107.32 18.0892 107.12 17.7992 106.98 17.4692C106.84 17.1392 106.76 16.7892 106.76 16.4092V16.3892C106.76 16.0092 106.83 15.6592 106.98 15.3292C107.12 14.9992 107.32 14.7092 107.58 14.4592C107.83 14.2092 108.13 14.0192 108.48 13.8692C108.83 13.7292 109.2 13.6492 109.61 13.6492C110.02 13.6492 110.39 13.7192 110.73 13.8592C111.08 13.9992 111.37 14.1892 111.62 14.4392C111.87 14.6792 112.07 14.9692 112.21 15.2992C112.35 15.6292 112.43 15.9792 112.43 16.3592V16.3792C112.43 16.7592 112.36 17.1092 112.21 17.4392C112.07 17.7692 111.87 18.0592 111.61 18.3092C111.35 18.5592 111.06 18.7492 110.71 18.8992C110.36 19.0392 109.99 19.1092 109.58 19.1092V19.1192ZM109.6 17.8392C109.82 17.8392 110.01 17.7992 110.17 17.7292C110.34 17.6592 110.48 17.5492 110.6 17.4192C110.72 17.2892 110.81 17.1392 110.87 16.9692C110.93 16.7992 110.96 16.6092 110.96 16.4192V16.3992C110.96 16.1992 110.93 16.0192 110.86 15.8492C110.79 15.6792 110.7 15.5192 110.58 15.3892C110.46 15.2592 110.31 15.1492 110.14 15.0692C109.97 14.9892 109.78 14.9492 109.58 14.9492C109.36 14.9492 109.17 14.9892 109.01 15.0592C108.84 15.1292 108.7 15.2392 108.58 15.3692C108.46 15.4992 108.37 15.6492 108.31 15.8192C108.25 15.9892 108.22 16.1792 108.22 16.3692V16.3892C108.22 16.5892 108.25 16.7692 108.32 16.9392C108.38 17.1092 108.48 17.2692 108.6 17.3992C108.72 17.5292 108.87 17.6392 109.04 17.7192C109.21 17.7992 109.39 17.8392 109.6 17.8392ZM110.13 11.4492L111.41 12.0092L110.16 13.1792H109.03L110.13 11.4492Z" fill="#575756"/>
<path d="M113.5 13.7602H114.99V14.5102C115.07 14.4002 115.17 14.2902 115.27 14.1902C115.37 14.0902 115.48 14.0002 115.61 13.9202C115.73 13.8402 115.87 13.7802 116.02 13.7302C116.17 13.6802 116.34 13.6602 116.53 13.6602C117.1 13.6602 117.54 13.8302 117.85 14.1802C118.16 14.5302 118.31 15.0002 118.31 15.6102V19.0002H116.82V16.0802C116.82 15.7302 116.74 15.4602 116.59 15.2902C116.43 15.1102 116.21 15.0202 115.93 15.0202C115.65 15.0202 115.42 15.1102 115.25 15.2902C115.08 15.4702 115 15.7302 115 16.0802V19.0002H113.51V13.7602H113.5Z" fill="#575756"/>
<path d="M44.0899 30.4999C43.8199 30.4999 43.5699 30.4699 43.3699 30.3999C43.1599 30.3299 42.9599 30.2499 42.7699 30.1399L43.2699 29.0599C43.3699 29.1199 43.4699 29.1699 43.5899 29.2099C43.6999 29.2499 43.8099 29.2699 43.9099 29.2699C44.0399 29.2699 44.1399 29.2499 44.2199 29.1999C44.2899 29.1499 44.3599 29.0599 44.4299 28.9299L42.3799 23.6699H43.9499L45.1399 27.2399L46.2799 23.6699H47.8199L45.8099 29.0399C45.7099 29.3099 45.6099 29.5299 45.4999 29.7199C45.3899 29.9099 45.2699 30.0599 45.1299 30.1699C44.9999 30.2899 44.8399 30.3699 44.6799 30.4199C44.5099 30.4699 44.3099 30.4999 44.0899 30.4999Z" fill="#575756"/>
<path d="M51.7903 22.0608H54.9203C55.7903 22.0608 56.4503 22.2908 56.9103 22.7508C57.3003 23.1408 57.5003 23.6608 57.5003 24.3108V24.3308C57.5003 24.8808 57.3603 25.3408 57.0903 25.6808C56.8203 26.0308 56.4703 26.2808 56.0303 26.4508L57.7003 28.8908H55.9403L54.4703 26.7008H53.2903V28.8908H51.7803V22.0508L51.7903 22.0608ZM54.8303 25.3808C55.2003 25.3808 55.4903 25.2908 55.6903 25.1208C55.8903 24.9408 55.9903 24.7108 55.9903 24.4208V24.4008C55.9903 24.0708 55.8903 23.8308 55.6803 23.6708C55.4703 23.5108 55.1803 23.4308 54.8103 23.4308H53.3103V25.4008H54.8403L54.8303 25.3808Z" fill="#575756"/>
<path d="M61.1902 29.0191C60.8002 29.0191 60.4402 28.9491 60.1002 28.8191C59.7602 28.6891 59.4702 28.4991 59.2302 28.2591C58.9902 28.0191 58.8002 27.7291 58.6602 27.3991C58.5202 27.0691 58.4502 26.6991 58.4502 26.2991V26.2791C58.4502 25.9091 58.5102 25.5591 58.6402 25.2191C58.7702 24.8891 58.9402 24.5991 59.1702 24.3491C59.4002 24.0991 59.6702 23.9091 59.9902 23.7591C60.3102 23.6191 60.6602 23.5391 61.0402 23.5391C61.4802 23.5391 61.8502 23.6191 62.1702 23.7691C62.4902 23.9291 62.7602 24.1391 62.9702 24.3991C63.1802 24.6591 63.3402 24.9691 63.4402 25.3091C63.5402 25.6491 63.5902 26.0091 63.5902 26.3791C63.5902 26.4391 63.5902 26.4991 63.5902 26.5691C63.5902 26.6391 63.5902 26.6991 63.5802 26.7791H59.9302C60.0002 27.1191 60.1502 27.3691 60.3702 27.5491C60.5902 27.7291 60.8702 27.8091 61.2102 27.8091C61.4602 27.8091 61.6802 27.7691 61.8702 27.6791C62.0702 27.5991 62.2702 27.4591 62.4802 27.2691L63.3302 28.0191C63.0802 28.3291 62.7802 28.5691 62.4302 28.7391C62.0802 28.9091 61.6602 28.9991 61.1902 28.9991V29.0191ZM62.1502 25.8691C62.1002 25.5391 61.9902 25.2691 61.8002 25.0591C61.6102 24.8491 61.3602 24.7491 61.0502 24.7491C60.7402 24.7491 60.4802 24.8491 60.2902 25.0491C60.1002 25.2491 59.9702 25.5191 59.9102 25.8591H62.1502V25.8691Z" fill="#575756"/>
<path d="M66.54 28.9998C66.17 28.9998 65.7901 28.9398 65.4001 28.8098C65.0101 28.6798 64.64 28.4798 64.29 28.2098L64.9301 27.2298C65.2201 27.4398 65.5 27.5998 65.79 27.6998C66.07 27.7998 66.3401 27.8598 66.5901 27.8598C66.8001 27.8598 66.9601 27.8198 67.0601 27.7498C67.1601 27.6798 67.2101 27.5798 67.2101 27.4698V27.4498C67.2101 27.3698 67.1801 27.2998 67.1201 27.2398C67.0601 27.1798 66.9801 27.1298 66.8801 27.0898C66.7801 27.0498 66.6601 27.0098 66.5301 26.9698C66.4001 26.9298 66.2601 26.8898 66.1201 26.8398C65.9401 26.7898 65.75 26.7198 65.57 26.6498C65.38 26.5798 65.22 26.4798 65.07 26.3598C64.92 26.2398 64.8 26.0898 64.7 25.9198C64.61 25.7398 64.5601 25.5298 64.5601 25.2698V25.2498C64.5601 24.9798 64.6101 24.7498 64.7101 24.5398C64.8101 24.3298 64.9501 24.1598 65.1201 24.0198C65.2901 23.8798 65.49 23.7698 65.73 23.6998C65.97 23.6298 66.21 23.5898 66.48 23.5898C66.81 23.5898 67.1501 23.6398 67.4901 23.7498C67.8301 23.8598 68.1501 24.0098 68.4301 24.1898L67.86 25.2198C67.6 25.0698 67.3401 24.9498 67.1001 24.8598C66.8501 24.7698 66.6301 24.7298 66.4401 24.7298C66.2501 24.7298 66.1201 24.7598 66.0301 24.8298C65.9401 24.8998 65.89 24.9798 65.89 25.0898V25.1098C65.89 25.1798 65.92 25.2498 65.98 25.2998C66.04 25.3598 66.1201 25.4098 66.2101 25.4598C66.3101 25.5098 66.42 25.5598 66.55 25.5998C66.68 25.6398 66.8101 25.6898 66.9601 25.7398C67.1401 25.7998 67.33 25.8698 67.5201 25.9498C67.7101 26.0298 67.8801 26.1298 68.0301 26.2498C68.1801 26.3698 68.3001 26.5098 68.4001 26.6798C68.5001 26.8498 68.55 27.0498 68.55 27.2998V27.3198C68.55 27.6098 68.5001 27.8698 68.4001 28.0798C68.3001 28.2898 68.1601 28.4698 67.9701 28.5998C67.7901 28.7398 67.57 28.8398 67.33 28.9098C67.09 28.9798 66.82 29.0098 66.54 29.0098V28.9998Z" fill="#575756"/>
<path d="M69.6396 21.7695H71.1996V23.0895H69.6396V21.7695ZM69.6797 23.6595H71.1696V28.8995H69.6797V23.6595Z" fill="#575756"/>
<path d="M72.6299 21.7695H74.1199V28.9095H72.6299V21.7695Z" fill="#575756"/>
<path d="M75.54 21.7695H77.1001V23.0895H75.54V21.7695ZM75.58 23.6595H77.07V28.8995H75.58V23.6595Z" fill="#575756"/>
<path d="M80.95 29.0191C80.56 29.0191 80.2 28.9491 79.86 28.8191C79.52 28.6891 79.23 28.4991 78.99 28.2591C78.75 28.0191 78.56 27.7291 78.42 27.3991C78.28 27.0691 78.21 26.6991 78.21 26.2991V26.2791C78.21 25.9091 78.27 25.5591 78.4 25.2191C78.53 24.8891 78.7 24.5991 78.93 24.3491C79.16 24.0991 79.43 23.9091 79.75 23.7591C80.07 23.6191 80.42 23.5391 80.8 23.5391C81.24 23.5391 81.61 23.6191 81.93 23.7691C82.25 23.9291 82.5199 24.1391 82.7299 24.3991C82.9399 24.6591 83.1 24.9691 83.2 25.3091C83.3 25.6491 83.35 26.0091 83.35 26.3791C83.35 26.4391 83.35 26.4991 83.35 26.5691C83.35 26.6391 83.35 26.6991 83.34 26.7791H79.69C79.76 27.1191 79.91 27.3691 80.13 27.5491C80.35 27.7291 80.63 27.8091 80.97 27.8091C81.22 27.8091 81.44 27.7691 81.63 27.6791C81.83 27.5991 82.03 27.4591 82.24 27.2691L83.09 28.0191C82.84 28.3291 82.54 28.5691 82.19 28.7391C81.84 28.9091 81.42 28.9991 80.95 28.9991V29.0191ZM81.91 25.8691C81.86 25.5391 81.75 25.2691 81.56 25.0591C81.37 24.8491 81.12 24.7491 80.81 24.7491C80.5 24.7491 80.24 24.8491 80.05 25.0491C79.86 25.2491 79.73 25.5191 79.67 25.8591H81.91V25.8691Z" fill="#575756"/>
<path d="M84.46 23.6586H85.95V24.4086C86.03 24.2986 86.1299 24.1886 86.2299 24.0886C86.3299 23.9886 86.4399 23.8986 86.5699 23.8186C86.6899 23.7386 86.8299 23.6786 86.9799 23.6286C87.13 23.5786 87.3 23.5586 87.49 23.5586C88.06 23.5586 88.5 23.7286 88.81 24.0786C89.12 24.4286 89.27 24.8986 89.27 25.5086V28.8986H87.78V25.9786C87.78 25.6286 87.7 25.3586 87.55 25.1886C87.39 25.0086 87.17 24.9186 86.89 24.9186C86.61 24.9186 86.38 25.0086 86.21 25.1886C86.04 25.3686 85.96 25.6286 85.96 25.9786V28.8986H84.47V23.6586H84.46Z" fill="#575756"/>
<path d="M93.0301 29.0186C92.6401 29.0186 92.2801 28.9486 91.9401 28.8086C91.6001 28.6686 91.32 28.4686 91.07 28.2286C90.83 27.9886 90.6401 27.6986 90.5001 27.3686C90.3601 27.0386 90.29 26.6886 90.29 26.3186V26.2986C90.29 25.9286 90.3601 25.5786 90.5001 25.2386C90.6401 24.9086 90.83 24.6186 91.07 24.3686C91.31 24.1186 91.6001 23.9286 91.9401 23.7786C92.2801 23.6386 92.65 23.5586 93.05 23.5586C93.55 23.5586 93.9601 23.6386 94.2801 23.7886C94.6101 23.9486 94.89 24.1586 95.14 24.4386L94.23 25.4186C94.06 25.2386 93.8901 25.0986 93.7101 24.9986C93.5301 24.8986 93.31 24.8386 93.04 24.8386C92.85 24.8386 92.6801 24.8786 92.5301 24.9486C92.3801 25.0186 92.2401 25.1286 92.1301 25.2586C92.0201 25.3886 91.9301 25.5386 91.8701 25.7086C91.8101 25.8786 91.7801 26.0686 91.7801 26.2586V26.2786C91.7801 26.4786 91.8101 26.6686 91.8701 26.8486C91.9301 27.0286 92.02 27.1786 92.14 27.3086C92.26 27.4386 92.4001 27.5386 92.5601 27.6186C92.7201 27.6986 92.91 27.7286 93.11 27.7286C93.36 27.7286 93.57 27.6786 93.76 27.5786C93.95 27.4786 94.1301 27.3386 94.3101 27.1686L95.1801 28.0486C94.9301 28.3286 94.6401 28.5586 94.3101 28.7386C93.9801 28.9186 93.56 29.0086 93.04 29.0086L93.0301 29.0186Z" fill="#575756"/>
<path d="M96.1602 21.7695H97.7202V23.0895H96.1602V21.7695ZM96.2001 23.6595H97.6902V28.8995H96.2001V23.6595Z" fill="#575756"/>
<path d="M100.57 29.0011C100.32 29.0011 100.09 28.9711 99.8695 28.9011C99.6495 28.8311 99.4595 28.7311 99.2995 28.5911C99.1395 28.4511 99.0095 28.2911 98.9095 28.0911C98.8195 27.8911 98.7695 27.6611 98.7695 27.4011V27.3811C98.7695 27.0911 98.8195 26.8511 98.9295 26.6411C99.0295 26.4311 99.1795 26.2611 99.3595 26.1211C99.5495 25.9811 99.7695 25.8811 100.02 25.8111C100.28 25.7411 100.56 25.7111 100.88 25.7111C101.15 25.7111 101.38 25.7311 101.58 25.7711C101.78 25.8111 101.97 25.8611 102.16 25.9311V25.8411C102.16 25.5311 102.07 25.2911 101.88 25.1311C101.69 24.9711 101.41 24.8911 101.04 24.8911C100.75 24.8911 100.5 24.9111 100.28 24.9611C100.06 25.0111 99.8295 25.0811 99.5895 25.1711L99.2195 24.0411C99.5095 23.9211 99.8095 23.8211 100.12 23.7411C100.43 23.6611 100.81 23.6211 101.25 23.6211C101.66 23.6211 102.01 23.6711 102.3 23.7711C102.59 23.8711 102.83 24.0211 103.02 24.2111C103.22 24.4111 103.36 24.6511 103.45 24.9311C103.54 25.2111 103.59 25.5311 103.59 25.8811V28.9211H102.15V28.3511C101.97 28.5511 101.75 28.7111 101.5 28.8311C101.25 28.9511 100.94 29.0111 100.57 29.0111V29.0011ZM101.02 27.9811C101.37 27.9811 101.65 27.9011 101.87 27.7311C102.08 27.5611 102.19 27.3411 102.19 27.0711V26.8111C102.06 26.7511 101.91 26.7011 101.75 26.6711C101.59 26.6311 101.42 26.6211 101.24 26.6211C100.92 26.6211 100.67 26.6811 100.49 26.8111C100.31 26.9311 100.22 27.1111 100.22 27.3511V27.3711C100.22 27.5711 100.29 27.7311 100.44 27.8411C100.59 27.9511 100.79 28.0111 101.03 28.0111L101.02 27.9811Z" fill="#575756"/>
</svg>
